<?xml version="1.0" encoding="UTF-8" ?>
<!DOCTYPE svg PUBLIC "-//W3C//DTD SVG 1.1//EN" "http://www.w3.org/Graphics/SVG/1.1/DTD/svg11.dtd">
<svg width="256pt" height="256pt" viewBox="0 0 256 256" version="1.1" xmlns="http://www.w3.org/2000/svg">
<g id="#fc673dff">
</g>
<g id="#ffffffff">
<path fill="#ffffff" opacity="1.00" d=" M 90.40 24.64 C 106.83 20.10 125.39 30.36 130.35 46.62 C 135.51 61.24 128.65 78.72 115.08 86.11 C 101.93 93.90 83.71 90.91 73.75 79.33 C 66.41 71.32 63.43 59.55 66.17 49.03 C 68.95 37.26 78.68 27.55 90.40 24.64 Z" />
<path fill="#ffffff" opacity="1.00" d=" M 145.42 44.19 C 154.64 40.85 163.86 37.51 173.07 34.12 C 178.96 53.14 177.22 74.42 168.15 92.16 C 164.55 99.40 159.67 105.93 154.11 111.78 C 174.61 112.58 194.60 121.36 209.33 135.60 C 220.79 146.29 228.41 160.37 233.30 175.12 C 223.83 178.53 214.37 181.96 204.89 185.33 C 201.47 174.76 196.47 164.40 188.11 156.84 C 177.92 147.25 164.03 141.63 150.01 141.71 C 135.00 141.51 120.03 147.81 109.63 158.63 C 98.78 169.72 92.90 185.48 93.90 200.97 C 94.19 209.02 97.01 216.65 99.85 224.10 C 90.38 227.54 80.89 230.95 71.39 234.34 C 67.15 223.02 63.64 211.19 63.81 198.98 C 63.13 174.91 73.54 151.00 91.14 134.65 C 63.15 132.17 37.62 113.27 26.78 87.40 C 36.02 84.03 45.26 80.67 54.51 77.31 C 59.68 88.56 69.28 97.72 80.84 102.21 C 93.95 107.39 109.35 106.51 121.73 99.71 C 133.37 93.43 142.23 82.19 145.51 69.36 C 147.72 61.15 147.55 52.40 145.42 44.19 Z" />
</g>
</svg>
