<?xml version="1.0" encoding="UTF-8" ?>
<!DOCTYPE svg PUBLIC "-//W3C//DTD SVG 1.1//EN" "http://www.w3.org/Graphics/SVG/1.1/DTD/svg11.dtd">
<svg width="216pt" height="216pt" viewBox="0 0 216 216" version="1.1" xmlns="http://www.w3.org/2000/svg">
<g id="#da292eff">
<path fill="#da292e" opacity="1.00" d=" M 164.27 210.26 C 164.76 212.14 165.17 214.05 165.82 215.88 C 170.92 215.34 176.11 215.27 181.22 215.81 L 181.82 216.00 L 34.84 216.00 L 34.78 215.51 C 40.00 215.52 45.21 215.50 50.42 215.56 C 50.82 214.76 51.23 213.98 51.67 213.21 C 51.80 213.86 52.04 215.15 52.16 215.80 C 56.79 215.69 61.41 215.82 66.03 215.64 C 94.14 215.37 122.25 215.55 150.36 215.55 L 149.97 214.50 C 150.12 214.81 150.42 215.42 150.57 215.73 C 155.13 215.84 159.69 215.53 164.24 215.97 C 164.19 214.06 164.21 212.16 164.27 210.26 Z" />
</g>
<g id="#ffffffff">
<path fill="#ffffff" opacity="1.00" d=" M 171.47 36.33 C 174.40 36.29 177.33 36.28 180.26 36.36 C 180.22 38.23 180.24 40.11 180.31 41.98 C 183.11 41.87 185.93 41.75 188.72 42.10 C 188.62 44.93 188.63 47.76 188.66 50.59 C 185.83 50.56 182.99 50.56 180.16 50.65 C 180.22 52.94 180.24 55.24 180.26 57.53 C 177.33 57.55 174.39 57.55 171.46 57.54 C 171.50 55.20 171.50 52.87 171.44 50.53 C 165.24 50.64 159.03 50.55 152.83 50.59 C 152.85 52.92 152.85 55.25 152.82 57.58 C 149.95 57.53 147.07 57.53 144.20 57.59 C 144.15 55.25 144.15 52.92 144.18 50.58 C 141.38 50.58 138.58 50.70 135.79 50.41 C 135.85 47.56 135.83 44.71 135.99 41.87 C 138.73 41.91 141.47 41.91 144.22 41.83 C 144.17 40.01 144.12 38.20 144.08 36.38 C 147.00 36.28 149.92 36.28 152.85 36.31 C 152.84 38.18 152.85 40.05 152.86 41.92 C 159.05 41.89 165.25 41.82 171.44 41.96 C 171.47 40.09 171.48 38.21 171.47 36.33 Z" />
<path fill="#ffffff" opacity="1.00" d=" M 27.81 36.56 C 51.03 36.55 74.26 36.56 97.48 36.56 C 97.47 39.45 97.47 42.33 97.46 45.22 C 87.36 45.19 77.25 45.27 67.14 45.17 C 67.06 51.32 67.03 57.47 67.16 63.61 C 78.46 63.49 89.76 63.54 101.06 63.59 C 100.89 66.45 100.92 69.32 101.09 72.19 C 90.06 72.25 79.02 72.14 67.99 72.24 C 72.27 88.76 87.12 99.36 101.24 107.23 C 99.68 109.61 98.72 112.57 96.76 114.59 C 83.06 107.11 69.87 97.19 62.56 83.04 C 55.59 97.47 41.98 106.98 28.51 114.81 C 26.92 112.35 25.49 109.80 24.09 107.25 C 32.44 102.58 40.56 97.21 47.15 90.20 C 51.90 85.13 55.73 79.01 57.26 72.18 C 46.35 72.28 35.44 72.10 24.54 72.28 C 24.31 69.35 24.35 66.42 24.47 63.50 C 35.77 63.54 47.08 63.66 58.37 63.44 C 58.21 57.35 58.36 51.27 58.28 45.18 C 48.12 45.26 37.97 45.21 27.81 45.21 C 27.81 42.33 27.81 39.45 27.81 36.56 Z" />
<path fill="#ffffff" opacity="1.00" d=" M 108.94 36.50 C 115.16 36.19 122.20 36.51 126.98 41.03 C 129.92 43.84 131.06 48.01 130.90 51.99 C 130.91 65.67 131.00 79.35 130.79 93.03 C 129.82 103.24 120.92 109.91 112.90 114.95 C 111.49 112.39 109.87 109.94 108.68 107.26 C 113.10 104.70 117.33 101.52 120.30 97.32 C 122.90 93.42 122.13 88.57 122.24 84.16 C 119.08 85.71 116.15 87.66 113.10 89.41 C 111.63 86.92 110.09 84.47 108.67 81.95 C 113.21 79.33 117.71 76.64 122.23 73.98 C 122.26 70.75 122.27 67.52 122.28 64.29 C 119.18 66.03 116.17 67.94 113.05 69.65 C 111.60 67.17 110.11 64.71 108.65 62.23 C 113.23 59.60 117.78 56.90 122.31 54.18 C 122.13 51.82 122.59 49.06 120.87 47.14 C 117.55 44.54 113.04 45.25 109.10 45.12 C 109.11 42.24 109.08 39.37 108.94 36.50 Z" />
<path fill="#ffffff" opacity="1.00" d=" M 135.76 63.54 C 153.38 63.03 171.04 63.45 188.68 63.33 C 188.58 76.53 188.71 89.72 188.61 102.92 C 188.52 109.51 182.53 115.19 175.99 115.22 C 167.01 115.28 158.03 115.24 149.05 115.24 C 142.36 115.45 136.14 109.78 135.91 103.06 C 135.72 89.89 136.03 76.71 135.76 63.54 M 144.64 71.91 C 144.61 76.24 144.60 80.57 144.66 84.91 C 149.06 84.81 153.47 84.87 157.87 84.85 C 157.86 80.54 157.89 76.23 157.83 71.92 C 153.44 71.89 149.04 71.91 144.64 71.91 M 166.65 71.91 C 166.62 76.24 166.61 80.58 166.66 84.91 C 171.07 84.81 175.48 84.87 179.88 84.86 C 179.87 80.54 179.89 76.23 179.84 71.92 C 175.45 71.89 171.05 71.91 166.65 71.91 M 166.58 93.60 C 166.67 97.93 166.62 102.27 166.63 106.61 C 170.36 106.29 174.34 107.26 177.91 105.98 C 181.57 103.01 179.25 97.52 179.83 93.48 C 175.42 93.61 171.00 93.44 166.58 93.60 M 144.62 93.52 C 144.78 97.00 144.24 100.55 144.94 103.98 C 147.51 108.55 153.62 105.87 157.82 106.64 C 157.94 102.28 157.79 97.93 157.93 93.57 C 153.49 93.49 149.05 93.55 144.62 93.52 Z" />
</g>
<g id="#231917ff">
</g>
</svg>
