<?xml version="1.0" encoding="UTF-8"?>
<svg width="560px" height="559px" viewBox="0 0 560 559" version="1.1" xmlns="http://www.w3.org/2000/svg" xmlns:xlink="http://www.w3.org/1999/xlink">
    <!-- Generator: Sketch 50 (54983) - http://www.bohemiancoding.com/sketch -->
    <title>uc浏览器</title>
    <desc>Created with Sketch.</desc>
    <defs>
        <path d="M361.128193,294.659778 C397.009861,276.739432 440.12371,271.07303 478.518492,284.13646 C514.037155,296.69745 545.367297,325.001548 555.531443,362.014599 C568.208702,406.815465 550.225982,455.887067 518.225677,488.182768 C486.001984,520.64595 441.631578,537.031064 408.430563,568.26606 C384.165061,590.736276 367.494745,621.803792 364.283545,654.881066 C359.843713,701.970823 379.753152,751.740258 418.650556,779.625656 C432.24929,788.892876 447.579279,798.160095 464.584677,798.048442 C467.125713,798.299662 468.773198,799.667414 469.471285,802.151699 C461.205936,803.575278 453.191898,800.0582 444.954472,800.0582 C401.645158,797.880962 356.604589,783.980133 325.832917,752.075218 C300.506323,725.920444 281.993057,691.614984 279.647485,654.825239 C276.883061,624.650949 281.518358,593.55552 294.809933,566.200475 C309.07883,535.802878 332.422858,511.239164 354.259017,486.228837 C371.794961,466.326645 388.939976,442.795723 388.632818,415.021978 C389.554293,386.047961 365.456332,358.804568 336.360068,357.101856 C315.026531,354.422179 294.78201,363.717311 278,375.971255 C295.228786,340.242216 326.33554,312.831344 361.128193,294.659778 Z M683.141735,367.457695 C697.661943,381.302698 704.531119,400.897843 708.300788,420.130114 C733.068913,427.610882 756.385017,441.483798 772.524787,461.972169 C792.741384,488.071115 801.816514,521.929962 799.470942,554.672277 C782.465545,563.827843 762.332717,564.246543 743.540217,562.739224 C716.147285,560.031633 694.450743,541.63676 670.352782,530.303956 C633.577563,512.634829 593.367755,499.794706 552.180626,500.548365 C589.79355,483.465419 630.701444,469.536676 660.830877,440.143959 C660.13279,414.463712 665.940873,387.30406 683.141735,367.457695 Z M481.282916,534.630519 C508.927159,519.752724 541.848939,520.14351 572.117989,524.637554 C593.73076,528.294197 615.148067,533.904773 635.252971,542.72538 C664.823934,555.425936 689.480364,578.482332 721.452746,585.739793 C742.227813,592.299421 765.599764,588.698604 784.950734,599.863929 C795.226574,605.446591 801.369739,616.416523 802.542525,627.86098 C788.301551,622.669104 772.692327,620.519779 757.753267,623.925203 C741.976502,626.660708 728.796621,636.653674 713.354938,640.449884 C697.187244,644.943927 678.618132,646.172113 663.42776,638.049339 C641.200672,596.542245 605.542391,560.896945 560.697286,544.763051 C535.426539,535.105045 508.061531,533.151114 481.282916,534.630519 Z M447.83059,571.224871 C478.462645,555.146803 516.047646,554.086097 548.159645,566.479608 C580.71842,578.901032 609.78676,602.515693 625.395984,634.001909 C643.462474,671.5174 645.417117,716.262439 631.120296,755.341075 C650.415419,756.122648 670.771635,759.304765 686.464629,771.447056 C693.892274,776.862238 700.063362,784.482573 702.297241,793.554399 C638.547941,798.885841 574.575255,800.532727 510.630491,800.253594 C538.274734,790.483935 564.299415,772.758982 578.037766,746.185509 C602.442885,702.166216 590.296172,641.566416 549.918824,611.196733 C518.2536,586.967979 472.682485,581.859843 436.74497,599.361489 C422.671537,605.893204 410.664442,616.025736 400.276908,627.386454 C408.849416,603.855532 425.463885,582.976375 447.83059,571.224871 Z M468.689428,620.715173 C510.574644,612.759879 554.107346,646.1442 557.095158,688.656173 C562.484389,729.912048 528.333976,770.581743 486.839688,772.647328 C447.048733,776.862238 408.263023,744.650277 404.772588,704.901721 C399.299586,665.627691 429.484865,626.130355 468.689428,620.715173 Z M468.075111,664.399505 C453.247745,670.037994 443.837533,686.758068 446.937039,702.361609 C449.505999,719.667863 466.930249,732.926686 484.326575,730.665707 C503.286616,729.381695 518.337371,710.065683 514.986554,691.363765 C512.668905,670.010081 487.73324,655.690552 468.075111,664.399505 Z" id="path-1"></path>
        <filter x="-8.2%" y="-5.3%" width="116.4%" height="116.4%" filterUnits="objectBoundingBox" id="filter-2">
            <feOffset dx="0" dy="4" in="SourceAlpha" result="shadowOffsetOuter1"></feOffset>
            <feGaussianBlur stdDeviation="2.5" in="shadowOffsetOuter1" result="shadowBlurOuter1"></feGaussianBlur>
            <feColorMatrix values="0 0 0 0 0   0 0 0 0 0   0 0 0 0 0  0 0 0 0.2 0" type="matrix" in="shadowBlurOuter1" result="shadowMatrixOuter1"></feColorMatrix>
            <feMorphology radius="1.5" operator="dilate" in="SourceAlpha" result="shadowSpreadOuter2"></feMorphology>
            <feOffset dx="0" dy="3" in="shadowSpreadOuter2" result="shadowOffsetOuter2"></feOffset>
            <feGaussianBlur stdDeviation="7" in="shadowOffsetOuter2" result="shadowBlurOuter2"></feGaussianBlur>
            <feColorMatrix values="0 0 0 0 0   0 0 0 0 0   0 0 0 0 0  0 0 0 0.12 0" type="matrix" in="shadowBlurOuter2" result="shadowMatrixOuter2"></feColorMatrix>
            <feMorphology radius="0.5" operator="dilate" in="SourceAlpha" result="shadowSpreadOuter3"></feMorphology>
            <feOffset dx="0" dy="8" in="shadowSpreadOuter3" result="shadowOffsetOuter3"></feOffset>
            <feGaussianBlur stdDeviation="5" in="shadowOffsetOuter3" result="shadowBlurOuter3"></feGaussianBlur>
            <feColorMatrix values="0 0 0 0 0   0 0 0 0 0   0 0 0 0 0  0 0 0 0.14 0" type="matrix" in="shadowBlurOuter3" result="shadowMatrixOuter3"></feColorMatrix>
            <feMerge>
                <feMergeNode in="shadowMatrixOuter1"></feMergeNode>
                <feMergeNode in="shadowMatrixOuter2"></feMergeNode>
                <feMergeNode in="shadowMatrixOuter3"></feMergeNode>
            </feMerge>
        </filter>
    </defs>
    <g id="Page-1" stroke="none" stroke-width="1" fill="none" fill-rule="evenodd">
        <g id="uc" transform="translate(-259.000000, -263.000000)" fill-rule="nonzero">
            <g id="uc浏览器">
                <use fill="black" fill-opacity="1" filter="url(#filter-2)" xlink:href="#path-1"></use>
                <use fill="#FFFFFF" fill-rule="evenodd" xlink:href="#path-1"></use>
            </g>
        </g>
    </g>
</svg>