<?xml version="1.0" encoding="UTF-8" ?>
<!DOCTYPE svg PUBLIC "-//W3C//DTD SVG 1.1//EN" "http://www.w3.org/Graphics/SVG/1.1/DTD/svg11.dtd">
<svg width="192pt" height="192pt" viewBox="0 0 192 192" version="1.1" xmlns="http://www.w3.org/2000/svg">
<g id="#21aa63ff">
<path fill="#21aa63" opacity="1.00" d=" M 83.55 8.75 C 101.28 6.23 119.78 9.18 135.75 17.33 C 153.54 26.29 168.10 41.47 176.29 59.63 C 185.16 79.00 186.56 101.64 180.27 121.98 C 174.70 140.20 163.01 156.48 147.52 167.57 C 131.03 179.52 110.29 185.48 89.98 183.98 C 71.79 182.81 54.05 175.73 40.01 164.12 C 25.31 152.15 14.77 135.24 10.30 116.83 C 5.55 97.09 7.75 75.71 16.72 57.48 C 29.15 31.52 55.01 12.57 83.55 8.75 M 36.76 78.66 C 31.95 86.58 30.82 96.50 33.32 105.38 C 35.99 114.84 42.99 122.98 51.98 126.98 C 59.47 130.39 68.09 130.69 76.03 128.87 C 84.66 126.84 91.96 121.27 98.11 115.08 C 108.42 104.76 114.67 91.35 122.89 79.47 C 127.16 87.18 131.40 94.91 135.60 102.65 C 130.98 99.72 126.83 96.09 122.08 93.36 C 118.93 95.60 115.81 97.88 112.66 100.12 C 125.37 109.88 138.25 119.44 151.28 128.77 C 153.89 131.08 158.29 129.74 159.52 126.58 C 160.94 123.71 158.78 120.92 157.61 118.40 C 147.94 100.50 137.94 82.77 127.95 65.05 C 126.35 61.24 120.56 61.04 118.50 64.52 C 111.48 75.22 105.67 86.71 98.17 97.12 C 91.88 105.96 83.83 114.75 72.87 117.39 C 61.99 120.22 49.28 114.62 45.13 103.93 C 41.78 95.26 44.59 84.64 52.01 78.99 C 58.79 73.54 68.36 73.17 76.37 75.73 C 84.31 78.34 90.63 84.04 97.01 89.21 C 100.29 86.96 103.74 84.87 106.55 82.02 C 99.66 75.91 92.48 69.90 84.06 66.00 C 77.86 62.84 70.77 61.92 63.89 62.13 C 52.83 62.64 42.35 69.14 36.76 78.66 Z" />
</g>
<g id="#ffffffff">
<path fill="#ffffff" opacity="1.00" d=" M 36.76 78.66 C 42.35 69.14 52.83 62.64 63.89 62.13 C 70.77 61.92 77.86 62.84 84.06 66.00 C 92.48 69.90 99.66 75.91 106.55 82.02 C 103.74 84.87 100.29 86.96 97.01 89.21 C 90.63 84.04 84.31 78.34 76.37 75.73 C 68.36 73.17 58.79 73.54 52.01 78.99 C 44.59 84.64 41.78 95.26 45.13 103.93 C 49.28 114.62 61.99 120.22 72.87 117.39 C 83.83 114.75 91.88 105.96 98.17 97.12 C 105.67 86.71 111.48 75.22 118.50 64.52 C 120.56 61.04 126.35 61.24 127.95 65.05 C 137.94 82.77 147.94 100.50 157.61 118.40 C 158.78 120.92 160.94 123.71 159.52 126.58 C 158.29 129.74 153.89 131.08 151.28 128.77 C 138.25 119.44 125.37 109.88 112.66 100.12 C 115.81 97.88 118.93 95.60 122.08 93.36 C 126.83 96.09 130.98 99.72 135.60 102.65 C 131.40 94.91 127.16 87.18 122.89 79.47 C 114.67 91.35 108.42 104.76 98.11 115.08 C 91.96 121.27 84.66 126.84 76.03 128.87 C 68.09 130.69 59.47 130.39 51.98 126.98 C 42.99 122.98 35.99 114.84 33.32 105.38 C 30.82 96.50 31.95 86.58 36.76 78.66 Z" />
</g>
</svg>
