<?xml version="1.0" encoding="UTF-8" ?>
<!DOCTYPE svg PUBLIC "-//W3C//DTD SVG 1.1//EN" "http://www.w3.org/Graphics/SVG/1.1/DTD/svg11.dtd">
<svg width="256pt" height="256pt" viewBox="0 0 256 256" version="1.1" xmlns="http://www.w3.org/2000/svg">
<g id="#3ca6fbff">
</g>
<g id="#ffffffff">
<path fill="#ffffff" opacity="1.00" d=" M 55.14 53.16 C 60.61 49.85 68.26 54.51 67.88 60.88 C 67.58 63.17 66.60 65.34 64.94 66.97 C 55.67 76.94 49.63 90.27 49.73 104.01 C 49.63 113.10 52.10 122.18 56.60 130.05 C 59.04 134.26 61.86 138.26 65.21 141.80 C 66.78 143.39 67.46 145.58 67.71 147.75 C 67.79 152.77 62.92 156.89 57.99 156.11 C 53.40 155.57 51.08 151.06 48.26 147.97 C 36.03 132.58 30.26 112.00 33.79 92.55 C 35.60 81.84 40.13 71.69 46.47 62.90 C 49.17 59.52 51.61 55.74 55.14 53.16 Z" />
<path fill="#ffffff" opacity="1.00" d=" M 190.11 55.13 C 193.08 51.46 199.30 51.01 202.56 54.54 C 205.44 57.55 208.04 60.82 210.45 64.22 C 216.42 72.85 220.63 82.81 222.27 93.19 C 224.60 106.83 222.49 121.15 216.54 133.62 C 212.92 141.21 208.05 148.23 202.18 154.25 C 197.19 158.80 188.16 154.76 188.25 147.98 C 188.43 145.72 189.12 143.43 190.76 141.79 C 197.45 134.55 202.56 125.73 204.84 116.10 C 208.55 101.33 204.82 85.23 195.92 73.00 C 193.59 69.12 189.33 66.49 188.19 61.94 C 188.00 59.54 188.44 56.97 190.11 55.13 Z" />
<path fill="#ffffff" opacity="1.00" d=" M 81.42 70.53 C 86.45 66.88 94.59 70.70 94.63 77.03 C 95.10 82.15 90.10 84.93 88.04 89.02 C 81.56 98.84 82.47 112.42 89.63 121.64 C 91.89 124.37 94.95 127.08 94.67 130.99 C 94.73 137.67 85.77 141.58 80.84 137.18 C 75.59 131.95 71.56 125.48 69.12 118.49 C 63.12 101.91 68.69 82.41 81.42 70.53 Z" />
<path fill="#ffffff" opacity="1.00" d=" M 161.33 77.99 C 160.79 72.79 166.00 68.32 171.06 69.22 C 174.87 69.58 177.07 73.04 179.27 75.73 C 187.48 86.23 191.32 100.30 188.25 113.41 C 186.29 122.36 181.58 130.69 175.13 137.17 C 170.48 141.32 162.01 138.14 161.40 131.88 C 160.55 125.36 167.53 121.99 169.51 116.37 C 173.85 107.54 173.05 96.55 167.54 88.42 C 165.62 84.84 161.43 82.41 161.33 77.99 Z" />
<path fill="#ffffff" opacity="1.00" d=" M 115.49 91.10 C 116.36 83.34 128.85 82.38 131.79 89.19 C 132.82 92.28 132.13 95.62 132.33 98.81 C 136.24 99.01 140.19 98.60 144.09 99.06 C 146.39 99.41 148.31 101.56 148.08 103.95 C 147.90 107.74 149.11 112.34 145.75 115.13 C 141.45 116.21 136.97 115.53 132.59 115.65 C 132.02 125.27 132.50 135.00 132.33 144.66 C 136.23 145.70 140.06 147.07 143.53 149.17 C 151.71 154.04 157.85 162.47 159.18 171.99 C 161.78 188.27 148.97 203.76 133.42 207.18 C 118.61 211.11 101.33 205.20 93.13 191.99 C 88.80 185.04 87.36 176.31 89.56 168.39 C 91.90 159.53 98.47 152.16 106.54 147.99 C 109.35 146.57 112.35 145.55 115.39 144.76 C 115.53 135.82 115.35 126.87 115.45 117.93 C 115.48 108.99 115.35 100.04 115.49 91.10 M 117.44 161.60 C 110.17 163.64 103.81 171.07 105.73 178.92 C 108.07 188.74 119.82 193.42 129.00 191.03 C 137.03 189.48 144.47 181.49 142.18 172.95 C 139.44 162.74 126.82 158.42 117.44 161.60 Z" />
</g>
<g id="#319ef8ff">
</g>
<g id="#33a0f8ff">
</g>
<g id="#2998f5ff">
</g>
<g id="#2c9af6ff">
</g>
<g id="#2897f5ff">
</g>
<g id="#2393f3ff">
</g>
<g id="#2191f2ff">
</g>
<g id="#1f8ff1ff">
</g>
<g id="#1a8befff">
</g>
</svg>
