<?xml version="1.0" encoding="UTF-8" ?>
<!DOCTYPE svg PUBLIC "-//W3C//DTD SVG 1.1//EN" "http://www.w3.org/Graphics/SVG/1.1/DTD/svg11.dtd">
<svg width="256pt" height="256pt" viewBox="0 0 256 256" version="1.1" xmlns="http://www.w3.org/2000/svg">
<g id="#ffffffff">
<path fill="#ffffff" opacity="1.00" d=" M 112.90 37.97 C 112.79 35.81 114.73 33.80 116.91 33.98 C 125.41 33.78 133.91 33.99 142.41 33.92 C 142.40 43.94 142.43 53.97 142.39 63.99 C 162.99 64.09 183.59 64.01 204.19 64.03 C 204.20 67.40 204.20 70.77 204.20 74.13 C 183.60 74.15 163.00 74.11 142.40 74.16 C 142.44 80.24 142.33 86.33 142.50 92.42 C 159.29 92.31 176.08 92.40 192.87 92.37 C 188.23 111.15 181.12 129.34 171.52 146.15 C 199.29 156.44 227.13 166.81 256.00 173.63 L 256.00 213.30 C 251.71 210.52 246.81 208.95 242.16 206.90 C 213.23 194.61 184.26 182.38 155.85 168.91 C 149.68 176.35 142.91 183.32 135.46 189.48 C 119.50 202.60 99.86 211.99 79.03 213.23 C 63.79 214.19 47.61 211.13 35.38 201.53 C 25.68 194.03 19.38 182.23 18.99 169.94 C 18.48 154.96 26.14 139.84 38.71 131.60 C 50.28 124.16 64.34 121.15 78.00 122.08 C 101.62 123.56 124.46 130.45 146.89 137.61 C 152.89 126.46 157.68 114.68 161.32 102.55 C 127.91 102.28 94.49 102.55 61.08 102.42 C 61.09 99.06 61.10 95.71 61.11 92.36 C 78.35 92.36 95.59 92.43 112.84 92.32 C 112.79 86.26 112.82 80.20 112.80 74.14 C 91.94 74.10 71.07 74.19 50.21 74.09 C 50.22 70.75 50.22 67.40 50.21 64.05 C 71.08 64.00 91.95 64.07 112.82 64.01 C 112.89 55.33 112.63 46.64 112.90 37.97 M 58.18 139.26 C 49.36 140.98 40.05 143.96 34.10 151.11 C 27.88 157.94 26.03 168.49 30.04 176.89 C 33.92 185.54 42.41 191.17 51.23 193.87 C 62.72 197.28 75.24 197.26 86.68 193.65 C 105.85 187.53 121.62 173.71 133.68 157.96 C 125.17 153.76 116.55 149.78 107.71 146.36 C 92.06 140.30 74.96 136.39 58.18 139.26 Z" />
</g>
<g id="#1aa0e5ff">
</g>
</svg>
