<?xml version="1.0" encoding="UTF-8" ?>
<!DOCTYPE svg PUBLIC "-//W3C//DTD SVG 1.1//EN" "http://www.w3.org/Graphics/SVG/1.1/DTD/svg11.dtd">
<svg width="256pt" height="256pt" viewBox="0 0 256 256" version="1.1" xmlns="http://www.w3.org/2000/svg">
<g id="#ffffffff">
<path fill="#ffffff" opacity="1.00" d=" M 87.81 176.33 C 98.70 179.52 109.68 182.43 120.57 185.66 C 119.47 189.79 115.88 193.13 111.57 193.57 C 106.73 193.98 101.44 192.57 98.09 188.88 C 94.10 185.17 91.27 180.48 87.81 176.33 Z" />
<path fill="#ffffff" opacity="1.00" d=" M 142.18 185.65 C 153.13 183.05 164.12 180.63 174.99 177.73 C 169.31 184.11 164.42 193.29 154.98 194.15 C 149.47 195.25 142.53 191.65 142.18 185.65 Z" />
</g>
<g id="#e44745ff">
<path fill="#e44745" opacity="1.00" d=" M 133.00 14.91 C 145.86 21.30 158.63 28.88 167.81 40.16 C 173.74 47.39 177.84 56.84 176.24 66.34 C 182.49 61.69 186.18 54.52 188.62 47.29 C 198.47 56.23 207.76 65.99 215.09 77.10 C 215.69 84.11 217.85 90.90 218.12 97.96 C 219.29 109.00 218.11 120.27 214.71 130.84 C 212.53 138.73 208.32 145.82 205.63 153.51 C 206.50 152.78 207.34 152.01 208.14 151.20 C 218.79 137.37 227.65 121.19 228.54 103.39 L 228.57 103.00 C 233.53 116.68 235.46 131.45 234.09 145.95 C 233.88 167.06 226.59 188.09 213.34 204.56 C 207.11 183.23 192.15 164.44 172.20 154.46 C 174.53 138.47 176.76 121.91 172.95 105.94 C 171.81 100.81 168.48 95.58 162.90 94.70 C 160.87 84.03 154.61 74.02 145.88 67.59 C 150.21 75.96 152.09 85.55 150.21 94.89 C 147.32 95.66 144.43 97.36 143.37 100.31 C 142.01 104.53 143.09 109.07 144.61 113.10 C 137.27 124.56 129.01 135.38 120.78 146.21 C 115.88 146.95 111.07 148.24 106.38 149.82 C 108.63 136.39 109.71 122.56 107.38 109.06 C 106.51 104.76 105.37 100.10 102.02 97.02 C 99.62 94.78 96.23 94.22 93.08 94.00 C 92.18 90.44 91.37 86.80 89.52 83.59 C 87.68 80.26 84.82 77.69 82.51 74.71 C 91.13 76.49 98.90 82.08 103.21 89.77 C 104.95 92.89 106.28 96.23 108.07 99.34 C 108.03 93.54 107.68 87.67 109.06 81.99 C 111.40 69.88 121.64 61.38 125.22 49.78 C 132.51 39.85 134.66 26.96 133.00 14.91 Z" />
<path fill="#e44745" opacity="1.00" d=" M 73.20 131.25 C 76.84 128.69 80.09 125.64 83.28 122.56 C 89.04 132.71 91.78 144.27 93.34 155.74 C 73.56 166.88 58.76 186.50 53.86 208.69 C 41.83 195.23 33.60 178.22 30.95 160.34 C 32.76 151.25 36.60 142.72 41.80 135.07 C 40.66 140.98 38.78 146.97 39.80 153.05 C 40.95 160.48 44.84 167.58 50.77 172.25 C 50.59 166.43 49.27 160.21 51.97 154.75 C 56.57 145.05 64.57 137.41 73.20 131.25 Z" />
</g>
<g id="#cd2d2cff">
<path fill="#cd2d2c" opacity="1.00" d=" M 74.74 84.98 C 75.13 62.66 88.76 41.64 107.74 30.41 C 104.47 40.33 107.11 52.21 115.16 59.09 C 119.12 56.73 122.29 53.29 125.22 49.78 C 121.64 61.38 111.40 69.88 109.06 81.99 C 107.68 87.67 108.03 93.54 108.07 99.34 C 106.28 96.23 104.95 92.89 103.21 89.77 C 98.90 82.08 91.13 76.49 82.51 74.71 C 84.82 77.69 87.68 80.26 89.52 83.59 C 91.37 86.80 92.18 90.44 93.08 94.00 C 87.43 93.95 79.39 93.74 77.00 100.15 C 74.74 108.13 79.60 115.80 83.28 122.56 C 80.09 125.64 76.84 128.69 73.20 131.25 C 64.57 137.41 56.57 145.05 51.97 154.75 C 49.27 160.21 50.59 166.43 50.77 172.25 C 44.84 167.58 40.95 160.48 39.80 153.05 C 38.78 146.97 40.66 140.98 41.80 135.07 C 36.60 142.72 32.76 151.25 30.95 160.34 C 28.65 147.99 29.88 135.36 31.74 123.05 C 34.44 108.68 41.01 95.23 49.53 83.42 C 52.64 79.28 55.85 75.07 60.11 72.04 C 60.54 75.79 61.64 79.83 64.69 82.31 C 67.44 84.67 71.25 85.07 74.74 84.98 Z" />
<path fill="#cd2d2c" opacity="1.00" d=" M 215.09 77.10 C 220.69 85.21 225.45 94.02 228.54 103.39 C 227.65 121.19 218.79 137.37 208.14 151.20 C 207.34 152.01 206.50 152.78 205.63 153.51 C 208.32 145.82 212.53 138.73 214.71 130.84 C 218.11 120.27 219.29 109.00 218.12 97.96 C 217.85 90.90 215.69 84.11 215.09 77.10 Z" />
</g>
<g id="#e97572ff">
<path fill="#e97572" opacity="1.00" d=" M 145.88 67.59 C 154.61 74.02 160.87 84.03 162.90 94.70 C 158.69 94.06 154.41 94.30 150.21 94.89 C 152.09 85.55 150.21 75.96 145.88 67.59 Z" />
<path fill="#e97572" opacity="1.00" d=" M 120.78 146.21 C 129.01 135.38 137.27 124.56 144.61 113.10 C 146.00 116.65 147.89 119.96 149.80 123.25 C 154.30 131.12 156.77 139.93 158.56 148.76 C 146.36 145.11 133.36 144.24 120.78 146.21 Z" />
</g>
<g id="#71171dff">
<path fill="#71171d" opacity="1.00" d=" M 77.00 100.15 C 79.39 93.74 87.43 93.95 93.08 94.00 C 96.23 94.22 99.62 94.78 102.02 97.02 C 105.37 100.10 106.51 104.76 107.38 109.06 C 109.71 122.56 108.63 136.39 106.38 149.82 C 111.07 148.24 115.88 146.95 120.78 146.21 C 133.36 144.24 146.36 145.11 158.56 148.76 C 156.77 139.93 154.30 131.12 149.80 123.25 C 147.89 119.96 146.00 116.65 144.61 113.10 C 143.09 109.07 142.01 104.53 143.37 100.31 C 144.43 97.36 147.32 95.66 150.21 94.89 C 154.41 94.30 158.69 94.06 162.90 94.70 C 168.48 95.58 171.81 100.81 172.95 105.94 C 176.76 121.91 174.53 138.47 172.20 154.46 C 192.15 164.44 207.11 183.23 213.34 204.56 C 199.53 222.11 179.81 234.86 158.15 240.30 C 136.68 245.77 113.47 244.38 92.87 236.16 C 77.94 230.25 64.50 220.71 53.86 208.69 C 58.76 186.50 73.56 166.88 93.34 155.74 C 91.78 144.27 89.04 132.71 83.28 122.56 C 79.60 115.80 74.74 108.13 77.00 100.15 M 87.81 176.33 C 91.27 180.48 94.10 185.17 98.09 188.88 C 101.44 192.57 106.73 193.98 111.57 193.57 C 115.88 193.13 119.47 189.79 120.57 185.66 C 109.68 182.43 98.70 179.52 87.81 176.33 M 142.18 185.65 C 142.53 191.65 149.47 195.25 154.98 194.15 C 164.42 193.29 169.31 184.11 174.99 177.73 C 164.12 180.63 153.13 183.05 142.18 185.65 Z" />
</g>
</svg>
