<?xml version="1.0" encoding="UTF-8" ?>
<!DOCTYPE svg PUBLIC "-//W3C//DTD SVG 1.1//EN" "http://www.w3.org/Graphics/SVG/1.1/DTD/svg11.dtd">
<svg width="96pt" height="96pt" viewBox="0 0 96 96" version="1.1" xmlns="http://www.w3.org/2000/svg">
<g id="#1a9afcff">
</g>
<g id="#ffffffff">
<path fill="#ffffff" opacity="1.00" d=" M 16.14 16.31 C 18.07 15.98 20.03 15.80 21.99 15.85 C 41.27 16.05 60.56 15.64 79.84 16.09 C 80.34 24.40 80.00 32.75 80.05 41.07 C 80.22 44.31 76.88 45.96 75.06 48.13 C 77.11 50.43 80.60 52.35 80.09 55.93 C 79.95 63.91 80.10 71.88 79.85 79.86 C 60.23 80.21 40.59 79.98 20.97 80.12 C 19.35 80.10 17.75 79.91 16.15 79.69 C 16.11 58.57 16.12 37.44 16.14 16.31 M 24.03 24.17 C 24.02 27.37 24.02 30.57 24.03 33.77 C 27.21 33.79 30.39 33.78 33.57 33.76 C 33.60 30.57 33.60 27.37 33.56 24.18 C 30.39 24.16 27.21 24.15 24.03 24.17 M 41.63 24.16 C 41.58 30.61 41.61 37.05 41.61 43.50 C 50.74 43.56 59.87 43.52 69.01 43.54 C 70.11 43.51 72.14 43.72 71.81 41.94 C 71.90 36.06 71.96 30.16 71.71 24.28 C 61.69 23.98 51.66 24.23 41.63 24.16 M 24.03 43.29 C 24.01 46.49 24.01 49.69 24.02 52.89 C 27.21 52.92 30.39 52.90 33.58 52.88 C 33.61 49.69 33.60 46.49 33.57 43.30 C 30.39 43.28 27.21 43.26 24.03 43.29 M 41.61 52.49 C 41.60 58.95 41.57 65.40 41.63 71.85 C 51.08 71.84 60.53 71.93 69.97 71.84 C 71.31 71.96 71.93 71.36 71.84 70.03 C 71.99 64.31 71.76 58.59 71.91 52.87 C 61.87 51.93 51.70 52.71 41.61 52.49 M 24.02 62.22 C 23.99 65.43 23.99 68.63 24.01 71.84 C 27.20 71.87 30.39 71.86 33.57 71.84 C 33.61 68.63 33.61 65.43 33.57 62.23 C 30.39 62.20 27.20 62.19 24.02 62.22 Z" />
</g>
</svg>
