<?xml version="1.0" encoding="UTF-8" ?>
<!DOCTYPE svg PUBLIC "-//W3C//DTD SVG 1.1//EN" "http://www.w3.org/Graphics/SVG/1.1/DTD/svg11.dtd">
<svg width="256pt" height="256pt" viewBox="0 0 256 256" version="1.1" xmlns="http://www.w3.org/2000/svg">
<g id="#f78eadff">
</g>
<g id="#f39db7ff">
</g>
<g id="#f388a8ff">
</g>
<g id="#f286a6ff">
</g>
<g id="#ec7e9eff">
</g>
<g id="#e9789aff">
</g>
<g id="#ef96afff">
</g>
<g id="#f7fbfcff">
<path fill="#f7fbfc" opacity="1.00" d=" M 34.85 84.22 C 36.88 83.41 38.94 82.69 41.01 81.98 C 41.01 82.75 41.01 84.30 41.01 85.08 C 40.18 103.47 41.68 121.85 43.33 140.15 C 42.78 139.30 42.22 138.46 41.67 137.62 C 40.33 139.74 38.03 140.46 35.63 139.85 C 35.20 138.17 34.74 136.51 34.27 134.85 C 33.90 139.90 34.90 144.88 35.34 149.88 C 36.04 157.22 36.63 164.57 37.16 171.92 C 43.95 173.09 50.71 170.66 57.47 171.78 C 50.41 173.22 43.20 174.16 35.99 173.84 C 36.00 172.27 35.93 170.71 35.74 169.16 C 35.35 165.45 35.17 161.71 34.58 158.02 C 32.42 136.89 29.98 115.77 26.11 94.88 C 25.79 93.27 25.31 91.70 24.85 90.13 C 24.89 89.67 24.97 88.76 25.00 88.30 C 28.32 87.03 31.57 85.59 34.85 84.22 Z" />
</g>
<g id="#ec90abff">
</g>
<g id="#f9fcfdff">
<path fill="#f9fcfd" opacity="1.00" d=" M 128.19 88.51 C 133.74 86.25 139.17 83.66 144.88 81.82 C 143.00 95.87 144.62 110.10 145.50 124.17 C 145.89 128.71 146.18 133.26 146.77 137.77 C 146.43 138.34 145.76 139.47 145.43 140.04 C 145.13 138.23 144.84 136.42 144.54 134.61 C 142.78 134.67 141.01 134.73 139.25 134.79 C 138.51 133.96 137.78 133.12 137.05 132.29 C 137.89 140.40 138.56 148.53 139.39 156.64 C 139.92 161.74 139.79 166.95 141.16 171.94 C 150.01 172.96 158.96 171.34 167.34 168.52 C 169.38 167.85 171.54 167.71 173.66 167.51 C 163.02 172.47 151.03 174.11 139.37 173.79 C 139.35 167.31 138.29 160.89 137.90 154.43 C 137.84 153.55 137.76 152.67 137.65 151.80 C 136.78 144.83 136.28 137.82 135.13 130.89 C 134.56 127.33 134.20 123.74 133.73 120.17 C 133.72 120.03 133.68 119.75 133.67 119.61 C 133.35 117.44 133.02 115.26 132.72 113.08 C 132.71 112.97 132.67 112.75 132.66 112.64 C 131.27 105.40 130.53 98.03 128.63 90.90 C 128.52 90.30 128.30 89.11 128.19 88.51 Z" />
</g>
<g id="#ec8faaff">
</g>
<g id="#cf2452ff">
</g>
<g id="#e87798ff">
</g>
<g id="#e77798ff">
</g>
<g id="#f6f7faff">
<path fill="#f6f7fa" opacity="1.00" d=" M 99.28 92.61 C 101.16 92.46 103.04 92.36 104.93 92.29 C 106.11 103.21 106.65 114.20 107.50 125.15 C 108.23 134.44 108.88 143.73 109.78 153.00 C 110.01 156.34 110.30 159.68 110.71 163.00 C 110.71 163.29 110.71 163.85 110.71 164.13 C 108.03 163.98 105.35 163.85 102.68 163.74 C 101.60 147.15 99.59 130.63 97.48 114.14 C 96.45 107.57 95.89 100.89 93.99 94.49 L 94.02 93.67 L 94.16 93.18 C 95.87 93.00 97.57 92.79 99.28 92.61 Z" />
<path fill="#f6f7fa" opacity="1.00" d=" M 197.55 93.15 C 201.12 92.85 204.69 92.48 208.26 92.17 C 209.59 100.42 209.47 108.88 210.41 117.21 C 211.59 132.83 212.99 148.45 214.12 164.08 C 211.47 163.96 208.82 163.86 206.17 163.78 C 205.19 152.00 203.84 140.25 202.82 128.47 C 202.48 125.18 202.04 121.89 201.52 118.62 C 200.23 111.08 199.59 103.42 197.85 95.96 L 197.81 95.70 C 197.74 95.07 197.62 93.79 197.55 93.15 Z" />
<path fill="#f6f7fa" opacity="1.00" d=" M 78.91 111.17 C 80.49 110.89 82.06 110.61 83.64 110.33 C 83.89 110.99 84.40 112.30 84.65 112.95 C 85.66 116.45 85.29 120.19 86.44 123.66 C 85.88 123.95 84.76 124.54 84.20 124.84 L 82.98 125.10 L 81.56 125.29 C 80.86 121.64 80.30 117.97 79.44 114.35 C 79.27 113.29 79.09 112.22 78.91 111.17 Z" />
<path fill="#f6f7fa" opacity="1.00" d=" M 188.95 109.87 C 190.81 109.46 192.73 109.45 194.61 109.65 C 194.94 114.47 195.67 119.26 195.99 124.08 C 194.35 124.13 192.72 124.18 191.09 124.24 C 191.01 123.52 190.84 122.07 190.76 121.35 C 190.38 117.49 189.89 113.64 188.95 109.87 Z" />
<path fill="#f6f7fa" opacity="1.00" d=" M 112.46 111.48 C 114.12 111.32 115.78 111.16 117.45 111.04 C 117.80 115.80 117.77 120.58 117.77 125.35 C 116.68 125.50 114.50 125.79 113.42 125.94 C 113.24 122.83 113.10 119.71 112.95 116.60 C 112.88 114.88 112.65 113.18 112.46 111.48 Z" />
<path fill="#f6f7fa" opacity="1.00" d=" M 119.19 110.98 C 121.05 111.01 122.92 111.09 124.77 111.29 C 124.67 116.09 124.61 120.90 124.80 125.70 C 123.09 125.60 121.38 125.51 119.67 125.42 C 119.67 120.60 119.35 115.79 119.19 110.98 Z" />
<path fill="#f6f7fa" opacity="1.00" d=" M 216.31 111.33 C 217.86 111.28 219.41 111.21 220.96 111.15 C 220.96 115.80 221.28 120.44 221.05 125.08 C 219.70 125.25 218.36 125.42 217.01 125.58 C 217.13 121.16 216.52 116.78 215.94 112.41 C 216.04 112.14 216.22 111.60 216.31 111.33 Z" />
</g>
<g id="#e8789aff">
</g>
<g id="#d75d82ff">
</g>
<g id="#eb8faaff">
</g>
<g id="#e16e90ff">
</g>
<g id="#f6fafbff">
<path fill="#f6fafb" opacity="1.00" d=" M 85.70 109.58 C 87.47 109.59 89.25 109.63 91.02 109.61 C 91.50 114.37 92.24 119.11 92.18 123.91 C 90.62 124.07 89.06 124.23 87.50 124.37 C 86.75 120.93 86.63 117.40 86.13 113.93 C 86.02 112.84 85.81 110.66 85.70 109.58 Z" />
<path fill="#f6fafb" opacity="1.00" d=" M 182.36 111.22 C 184.03 110.90 185.70 110.58 187.36 110.22 C 188.21 114.96 189.16 119.73 189.08 124.57 C 187.72 124.83 186.36 125.08 185.01 125.33 C 184.33 120.59 183.20 115.93 182.36 111.22 Z" />
</g>
<g id="#e06c8eff">
</g>
<g id="#ce1e4cff">
</g>
<g id="#f7fafbff">
<path fill="#f7fafb" opacity="1.00" d=" M 222.88 110.95 C 224.61 111.05 226.34 111.16 228.07 111.27 C 228.13 115.97 227.87 120.69 228.21 125.39 C 226.52 125.30 224.83 125.26 223.14 125.16 C 223.10 121.57 223.03 117.99 222.96 114.41 C 222.96 113.25 222.93 112.10 222.88 110.95 Z" />
</g>
<g id="#e98ea9ff">
</g>
<g id="#cd1947ff">
</g>
<g id="#df7e9bff">
</g>
<g id="#e16d8fff">
</g>
<g id="#e77496ff">
</g>
<g id="#df6a8dff">
</g>
<g id="#ce1b48ff">
</g>
<g id="#cb133fff">
</g>
<g id="#eef2f6ff">
<path fill="#eef2f6" opacity="1.00" d=" M 81.91 129.94 C 85.56 129.09 89.28 128.42 93.04 128.65 C 93.95 131.04 94.14 133.62 94.49 136.13 C 95.74 146.32 96.74 156.54 97.70 166.77 C 94.86 166.99 92.03 167.24 89.19 167.49 C 88.73 164.70 88.23 161.90 87.74 159.11 C 87.25 155.96 86.62 152.84 85.85 149.75 C 84.65 144.22 83.73 138.63 82.50 133.10 C 82.31 132.04 82.11 130.99 81.91 129.94 Z" />
<path fill="#eef2f6" opacity="1.00" d=" M 216.93 130.15 C 218.33 130.09 219.73 130.03 221.13 129.97 C 221.54 129.95 222.36 129.91 222.77 129.89 C 224.77 129.90 226.91 129.75 228.68 130.87 C 228.80 143.41 229.02 155.96 229.05 168.50 C 226.15 168.54 223.24 168.61 220.35 168.70 C 220.20 165.99 220.07 163.27 219.93 160.56 C 218.99 150.42 218.07 140.27 216.93 130.15 Z" />
</g>
<g id="#eff2f6ff">
<path fill="#eff2f6" opacity="1.00" d=" M 185.34 129.58 C 186.43 129.43 187.52 129.30 188.62 129.16 C 191.34 128.79 194.09 128.41 196.83 128.84 C 197.96 135.58 198.68 142.38 199.45 149.17 C 199.98 155.05 200.87 160.89 201.12 166.79 C 198.34 166.95 195.57 167.19 192.81 167.57 C 190.48 155.81 188.25 144.04 185.81 132.31 C 185.70 131.62 185.46 130.26 185.34 129.58 Z" />
</g>
<g id="#eef1f5ff">
<path fill="#eef1f5" opacity="1.00" d=" M 113.54 133.71 C 113.78 132.22 114.11 130.73 114.83 129.39 C 118.04 130.45 121.47 129.61 124.76 130.21 C 125.24 135.63 124.95 141.08 125.14 146.51 C 125.40 153.84 124.94 161.18 125.43 168.50 C 122.62 168.52 119.81 168.58 117.00 168.67 C 116.90 163.91 116.02 159.22 115.86 154.46 C 115.79 153.79 115.66 152.46 115.59 151.79 C 114.81 145.78 114.75 139.68 113.54 133.71 Z" />
</g>
<g id="#ecf0f4ff">
<path fill="#ecf0f4" opacity="1.00" d=" M 139.39 156.64 C 138.56 148.53 137.89 140.40 137.05 132.29 C 137.78 133.12 138.51 133.96 139.25 134.79 C 141.01 134.73 142.78 134.67 144.54 134.61 C 144.84 136.42 145.13 138.23 145.43 140.04 C 145.76 139.47 146.43 138.34 146.77 137.77 C 146.84 138.34 146.98 139.46 147.05 140.02 C 155.53 138.90 164.07 140.36 172.22 142.69 C 177.05 144.55 182.33 146.28 185.83 150.31 C 187.24 151.84 186.82 153.97 186.77 155.86 C 184.27 161.43 179.04 165.04 173.66 167.51 C 171.54 167.71 169.38 167.85 167.34 168.52 C 158.96 171.34 150.01 172.96 141.16 171.94 C 139.79 166.95 139.92 161.74 139.39 156.64 M 154.12 148.94 C 154.30 149.93 154.66 151.91 154.84 152.90 C 155.13 157.00 156.08 161.03 156.20 165.15 C 159.90 162.70 163.42 159.99 166.94 157.29 C 167.93 156.52 168.88 155.70 169.80 154.85 C 164.72 152.52 159.42 150.71 154.12 148.94 Z" />
</g>
<g id="#ebf0f4ff">
<path fill="#ebf0f4" opacity="1.00" d=" M 35.34 149.88 C 34.90 144.88 33.90 139.90 34.27 134.85 C 34.74 136.51 35.20 138.17 35.63 139.85 C 38.03 140.46 40.33 139.74 41.67 137.62 C 42.22 138.46 42.78 139.30 43.33 140.15 C 43.66 140.07 44.32 139.93 44.65 139.85 C 52.09 139.03 59.65 140.21 66.82 142.24 C 72.74 144.04 78.90 146.31 83.08 151.10 C 83.21 152.44 83.37 153.78 83.44 155.13 C 79.14 165.35 67.42 169.35 57.47 171.78 C 50.71 170.66 43.95 173.09 37.16 171.92 C 36.63 164.57 36.04 157.22 35.34 149.88 M 50.76 148.92 C 50.91 150.28 51.07 151.65 51.22 153.02 L 51.41 153.06 C 51.76 157.12 52.32 161.15 52.92 165.18 C 56.36 162.47 60.06 160.09 63.38 157.22 C 64.33 156.53 65.27 155.84 66.22 155.15 C 61.52 152.22 55.89 151.01 50.76 148.92 Z" />
</g>
<g id="#e383a0ff">
</g>
<g id="#db6488ff">
</g>
<g id="#d65d81ff">
</g>
<g id="#d55a7fff">
</g>
<g id="#db7896ff">
</g>
<g id="#ce4f75ff">
</g>
</svg>
