<?xml version="1.0" encoding="UTF-8" ?>
<!DOCTYPE svg PUBLIC "-//W3C//DTD SVG 1.1//EN" "http://www.w3.org/Graphics/SVG/1.1/DTD/svg11.dtd">
<svg width="130pt" height="130pt" viewBox="0 0 130 130" version="1.1" xmlns="http://www.w3.org/2000/svg">
<g id="#23d525ff">
</g>
<g id="#ffffffff">
<path fill="#ffffff" opacity="1.00" d=" M 40.04 25.75 C 53.99 24.58 68.05 24.06 82.02 25.27 C 90.11 25.80 98.31 26.36 106.15 28.56 C 111.54 30.10 113.17 36.26 113.38 41.20 C 110.42 41.22 107.46 41.21 104.50 41.23 C 103.82 38.79 102.86 35.69 99.94 35.25 C 79.18 31.94 57.92 31.53 37.04 34.16 C 33.95 34.64 30.71 34.53 27.76 35.71 C 25.80 36.70 25.21 38.87 24.71 40.83 C 21.83 40.91 18.94 40.89 16.05 40.85 C 15.93 36.33 17.32 30.90 21.87 28.96 C 27.69 26.84 33.95 26.53 40.04 25.75 Z" />
<path fill="#ffffff" opacity="1.00" d=" M 31.78 46.80 C 35.12 43.29 40.49 43.36 44.99 43.57 C 48.69 43.88 53.71 45.01 54.53 49.30 C 54.85 56.01 54.51 62.75 54.70 69.47 C 54.54 73.21 54.86 76.96 54.54 80.68 C 54.21 83.21 51.59 84.43 49.95 86.05 C 51.77 86.08 53.59 86.12 55.42 86.16 C 55.40 87.58 55.40 89.00 55.39 90.42 C 51.67 90.61 46.32 91.19 45.39 86.39 C 41.36 86.50 37.12 86.49 33.46 84.56 C 31.72 83.71 30.38 81.90 30.44 79.91 C 30.33 70.85 30.46 61.78 30.38 52.72 C 30.46 50.70 30.10 48.33 31.78 46.80 M 39.47 50.93 C 39.63 60.99 39.00 71.13 39.79 81.16 C 41.57 81.80 43.45 81.79 45.25 81.23 C 45.98 77.20 45.45 73.08 45.61 69.01 C 45.33 62.25 46.17 55.39 45.15 48.71 C 43.12 48.15 39.09 47.75 39.47 50.93 Z" />
<path fill="#ffffff" opacity="1.00" d=" M 15.88 44.67 C 18.75 44.59 21.62 44.58 24.50 44.58 C 24.77 47.53 24.71 50.49 24.66 53.45 C 21.74 53.70 18.77 53.87 15.87 53.33 C 15.81 50.45 15.83 47.56 15.88 44.67 Z" />
<path fill="#ffffff" opacity="1.00" d=" M 60.39 44.73 C 63.44 44.54 66.50 44.56 69.56 44.64 C 69.72 52.25 69.54 59.86 69.66 67.47 C 69.56 73.43 69.72 79.39 69.57 85.35 C 66.54 85.39 63.51 85.40 60.49 85.36 C 60.24 80.09 60.48 74.81 60.35 69.53 C 60.46 61.26 60.35 52.99 60.39 44.73 Z" />
<path fill="#ffffff" opacity="1.00" d=" M 73.19 44.68 C 76.18 44.57 79.17 44.57 82.16 44.63 C 83.90 49.57 85.20 54.64 86.91 59.59 C 88.22 54.52 89.67 49.48 91.52 44.58 C 94.50 44.56 97.48 44.58 100.45 44.73 C 98.84 49.59 96.99 54.36 95.30 59.19 C 94.08 62.94 92.43 66.55 91.39 70.35 C 91.07 75.33 91.40 80.33 91.23 85.32 C 88.33 85.40 85.42 85.41 82.51 85.36 C 81.85 78.97 83.72 72.17 80.87 66.15 C 79.82 63.42 78.85 60.67 77.86 57.92 C 76.32 53.51 74.50 49.18 73.19 44.68 Z" />
<path fill="#ffffff" opacity="1.00" d=" M 104.52 59.27 C 104.56 54.40 104.47 49.52 104.58 44.65 C 107.55 44.58 110.53 44.58 113.50 44.63 C 113.64 49.18 113.54 53.74 113.57 58.30 C 113.55 67.38 113.64 76.46 113.52 85.54 C 110.54 85.63 107.55 85.63 104.57 85.54 C 104.45 76.79 104.54 68.03 104.52 59.27 Z" />
<path fill="#ffffff" opacity="1.00" d=" M 15.86 57.29 C 18.78 57.03 21.71 57.11 24.64 57.17 C 24.69 66.63 24.77 76.10 24.60 85.55 C 21.76 85.63 18.92 85.60 16.08 85.58 C 15.55 76.18 15.97 66.72 15.86 57.29 Z" />
<path fill="#ffffff" opacity="1.00" d=" M 16.05 89.18 C 18.96 89.14 21.87 89.10 24.77 89.22 C 25.18 91.94 26.98 94.70 29.97 94.83 C 50.14 97.85 70.73 98.40 90.99 95.87 C 94.40 95.41 97.91 95.36 101.20 94.27 C 103.17 93.28 103.82 91.12 104.39 89.17 C 107.39 89.13 110.39 89.14 113.39 89.16 C 113.08 93.68 111.69 99.13 107.06 101.03 C 102.23 102.77 97.06 103.25 91.99 103.82 C 71.90 106.04 51.56 105.76 31.52 103.18 C 27.84 102.48 23.92 102.22 20.61 100.31 C 17.03 97.86 15.96 93.28 16.05 89.18 Z" />
</g>
<g id="#1fc021ff">
</g>
</svg>
