<?xml version="1.0" encoding="UTF-8" ?>
<!DOCTYPE svg PUBLIC "-//W3C//DTD SVG 1.1//EN" "http://www.w3.org/Graphics/SVG/1.1/DTD/svg11.dtd">
<svg width="256pt" height="256pt" viewBox="0 0 256 256" version="1.1" xmlns="http://www.w3.org/2000/svg">
<g id="#1c99f1ff">
</g>
<g id="#eceefaff">
<path fill="#eceefa" opacity="1.00" d=" M 127.80 55.79 C 128.66 56.75 129.48 57.75 130.17 58.85 C 138.10 71.11 146.38 83.15 154.23 95.46 C 148.09 100.64 143.67 108.00 142.76 116.05 C 141.19 127.21 146.23 138.97 155.42 145.50 C 163.85 151.73 175.52 153.11 185.19 149.14 C 194.57 145.40 201.82 136.82 203.93 126.94 C 205.51 120.27 204.54 113.22 201.91 106.94 C 213.12 100.62 224.38 94.40 235.63 88.15 C 228.16 108.98 220.52 129.75 213.04 150.58 C 208.93 161.96 204.90 173.37 200.61 184.68 C 177.05 180.73 153.49 176.77 129.93 172.78 C 128.65 172.54 127.38 172.54 126.11 172.76 C 102.48 176.71 78.87 180.83 55.21 184.63 C 50.29 171.91 45.33 159.21 40.45 146.48 C 33.78 129.09 26.97 111.75 20.30 94.37 C 31.50 98.63 42.65 103.05 53.85 107.33 C 50.57 115.20 50.29 124.34 53.68 132.22 C 58.58 144.42 71.80 152.62 84.93 151.27 C 99.25 150.38 111.71 138.23 113.19 123.99 C 114.68 113.27 109.98 102.26 101.68 95.43 C 110.26 82.14 119.15 69.05 127.80 55.79 Z" />
<path fill="#eceefa" opacity="1.00" d=" M 55.48 192.50 C 78.98 188.59 102.50 184.83 126.00 180.92 C 128.36 180.37 130.73 181.12 133.07 181.45 C 155.53 185.15 178.01 188.77 200.47 192.51 C 200.47 195.23 200.48 197.95 200.49 200.68 C 152.13 200.75 103.77 200.85 55.42 200.63 C 55.47 197.92 55.48 195.21 55.48 192.50 Z" />
</g>
<g id="#147fd2ff">
</g>
</svg>
