<?xml version="1.0" encoding="UTF-8" ?>
<!DOCTYPE svg PUBLIC "-//W3C//DTD SVG 1.1//EN" "http://www.w3.org/Graphics/SVG/1.1/DTD/svg11.dtd">
<svg width="256pt" height="256pt" viewBox="0 0 256 256" version="1.1" xmlns="http://www.w3.org/2000/svg">
<g id="#1eb6eeff">
</g>
<g id="#dbf4feff">
<path fill="#dbf4fe" opacity="1.00" d=" M 116.20 67.16 C 125.29 57.81 139.18 53.31 152.00 55.87 C 160.65 57.38 168.69 61.97 174.53 68.51 C 182.05 76.77 185.80 88.36 184.45 99.45 C 199.20 94.66 216.49 101.69 223.66 115.45 C 230.98 128.54 227.56 146.35 216.05 155.93 C 210.63 160.72 203.60 163.26 196.47 164.00 C 196.58 175.22 190.78 186.19 181.55 192.52 C 170.51 200.33 154.87 200.76 143.46 193.46 C 139.92 191.31 136.89 188.44 134.28 185.24 C 129.12 190.34 122.27 193.86 114.97 194.32 C 106.05 195.17 96.84 191.80 90.68 185.28 C 84.71 179.28 81.68 170.68 82.08 162.28 C 72.33 159.56 62.87 154.55 56.53 146.48 C 51.85 140.73 49.12 133.72 47.02 126.68 L 47.00 125.99 C 47.81 126.66 48.61 127.35 49.41 128.04 C 64.53 141.15 85.21 147.91 105.14 145.46 C 124.61 143.35 142.06 133.33 157.29 121.57 C 146.65 135.52 136.17 150.72 120.26 159.12 C 112.31 163.29 103.25 165.08 94.31 164.88 C 97.95 170.73 103.95 175.22 110.86 176.20 C 120.63 178.08 131.31 173.12 135.85 164.19 C 138.63 170.84 144.84 176.04 152.02 177.11 C 159.35 178.48 167.34 175.86 172.23 170.20 C 177.26 164.67 178.70 156.13 175.53 149.33 C 181.91 150.89 188.90 150.82 194.91 147.95 C 200.43 145.39 205.25 140.32 205.92 134.06 C 206.62 128.48 203.54 123.09 199.18 119.81 C 191.44 113.89 180.45 113.41 171.72 117.38 C 171.14 107.89 168.14 98.34 161.83 91.08 C 155.27 83.17 144.79 78.28 134.46 79.62 C 124.89 80.68 116.31 86.68 111.15 94.68 C 111.59 94.75 112.47 94.90 112.91 94.97 C 123.33 97.59 134.30 97.26 144.73 94.85 C 143.91 95.70 143.11 96.58 142.27 97.42 C 134.40 104.78 124.10 110.70 112.99 110.03 C 101.92 109.60 92.23 101.94 87.41 92.24 C 85.00 87.05 83.70 81.45 83.23 75.76 C 84.43 76.58 85.34 77.74 86.29 78.83 C 91.34 84.64 97.72 89.31 104.84 92.26 C 105.55 82.91 109.57 73.82 116.20 67.16 Z" />
<path fill="#dbf4fe" opacity="1.00" d=" M 9.84 101.61 C 15.70 94.63 24.26 90.19 33.13 88.42 C 47.89 85.84 63.20 91.05 74.54 100.55 C 81.41 105.91 87.17 113.00 95.41 116.39 C 104.15 119.65 113.73 118.88 122.80 117.68 C 133.26 116.02 143.71 113.38 153.13 108.42 C 145.10 118.31 135.86 127.97 123.75 132.68 C 112.95 136.86 100.94 137.41 89.60 135.54 C 73.20 131.90 62.65 117.90 50.05 108.06 C 43.57 102.73 35.16 100.74 26.98 100.02 C 21.23 99.73 15.35 99.72 9.84 101.61 Z" />
</g>
<g id="#168cddff">
</g>
</svg>
