<?xml version="1.0" encoding="UTF-8" ?>
<!DOCTYPE svg PUBLIC "-//W3C//DTD SVG 1.1//EN" "http://www.w3.org/Graphics/SVG/1.1/DTD/svg11.dtd">
<svg width="256pt" height="256pt" viewBox="0 0 256 256" version="1.1" xmlns="http://www.w3.org/2000/svg">
<g id="#fefefeff">
</g>
<g id="#fafbfdff">
</g>
<g id="#2399f7ff">
<path fill="#2399f7" opacity="1.00" d=" M 74.31 37.69 C 96.68 24.42 124.15 20.23 149.48 26.11 C 146.52 32.65 146.11 39.87 144.68 46.80 C 143.06 55.25 141.54 63.70 139.94 72.15 C 125.80 68.66 110.32 70.80 97.84 78.39 C 93.89 70.11 88.87 62.41 84.56 54.32 C 81.48 48.58 78.33 42.84 74.31 37.69 Z" />
</g>
<g id="#228ef7ff">
<path fill="#228ef7" opacity="1.00" d=" M 144.68 46.80 C 146.11 39.87 146.52 32.65 149.48 26.11 C 176.10 32.20 199.87 49.42 213.97 72.80 C 220.03 82.85 224.40 93.91 226.75 105.41 C 227.10 107.27 227.42 109.14 227.70 111.02 C 216.11 113.81 204.40 116.06 192.79 118.74 C 189.11 119.59 185.35 119.98 181.58 120.26 C 181.15 116.61 180.41 112.99 179.38 109.47 C 177.39 103.34 174.46 97.51 170.55 92.38 C 162.97 82.48 152.06 75.17 139.94 72.15 C 141.54 63.70 143.06 55.25 144.68 46.80 Z" />
</g>
<g id="#24a3f7ff">
<path fill="#24a3f7" opacity="1.00" d=" M 73.88 37.95 L 74.31 37.69 C 78.33 42.84 81.48 48.58 84.56 54.32 C 88.87 62.41 93.89 70.11 97.84 78.39 C 89.04 83.72 81.72 91.47 77.02 100.63 C 73.36 98.78 69.74 96.86 66.26 94.69 C 56.42 88.60 46.35 82.86 36.55 76.69 C 45.31 60.79 58.31 47.29 73.88 37.95 Z" />
</g>
<g id="#f7f9fcff">
</g>
<g id="#f2f5f8ff">
</g>
<g id="#e9eef4ff">
</g>
<g id="#2eacf7ff">
<path fill="#2eacf7" opacity="1.00" d=" M 26.15 104.83 C 28.19 95.00 31.71 85.49 36.55 76.69 C 46.35 82.86 56.42 88.60 66.26 94.69 C 69.74 96.86 73.36 98.78 77.02 100.63 C 74.03 106.54 72.06 112.96 71.29 119.54 C 71.15 120.60 71.02 121.66 70.88 122.72 C 70.51 124.74 70.04 126.74 69.59 128.74 C 61.70 128.91 53.89 127.62 46.00 127.64 C 39.11 127.58 32.25 126.71 25.37 126.50 C 25.01 124.21 24.58 121.94 24.23 119.66 C 24.41 114.67 25.21 109.73 26.15 104.83 Z" />
</g>
<g id="#e8edf2ff">
</g>
<g id="#f2f6f9ff">
</g>
<g id="#f2f5f9ff">
</g>
<g id="#dee5edff">
</g>
<g id="#1f81eeff">
<path fill="#1f81ee" opacity="1.00" d=" M 192.79 118.74 C 204.40 116.06 216.11 113.81 227.70 111.02 C 228.80 118.83 229.16 126.76 228.43 134.62 C 222.06 136.69 215.46 134.28 208.95 134.92 C 199.70 135.72 190.51 134.30 181.29 133.74 C 181.99 129.28 181.97 124.74 181.58 120.26 C 185.35 119.98 189.11 119.59 192.79 118.74 Z" />
</g>
<g id="#43b7f7ff">
<path fill="#43b7f7" opacity="1.00" d=" M 24.05 122.86 C 24.11 121.79 24.17 120.73 24.23 119.66 C 24.58 121.94 25.01 124.21 25.37 126.50 C 32.25 126.71 39.11 127.58 46.00 127.64 C 53.89 127.62 61.70 128.91 69.59 128.74 C 70.04 126.74 70.51 124.74 70.88 122.72 C 70.77 129.31 71.33 135.97 73.33 142.28 C 66.41 142.79 59.69 144.65 52.84 145.70 C 44.16 147.05 35.51 148.56 26.87 150.19 C 24.83 141.24 23.66 132.05 24.05 122.86 Z" />
</g>
<g id="#1d7ae1ff">
<path fill="#1d7ae1" opacity="1.00" d=" M 181.29 133.74 C 190.51 134.30 199.70 135.72 208.95 134.92 C 215.46 134.28 222.06 136.69 228.43 134.62 C 228.39 135.06 228.29 135.92 228.25 136.36 C 227.43 143.88 225.91 151.33 223.49 158.50 C 214.35 156.71 205.69 152.42 196.25 152.42 C 192.10 147.94 186.87 144.52 181.08 142.57 C 180.73 142.43 180.04 142.14 179.69 141.99 C 180.15 139.22 180.81 136.50 181.29 133.74 Z" />
</g>
<g id="#f5f9fbff">
<path fill="#f5f9fb" opacity="1.00" d=" M 148.55 148.58 C 157.51 141.24 170.09 139.19 181.08 142.57 C 186.87 144.52 192.10 147.94 196.25 152.42 C 201.20 157.98 203.98 165.07 205.06 172.37 C 208.82 173.03 212.61 173.78 216.05 175.51 C 224.81 180.37 231.06 189.81 231.02 199.96 C 231.46 206.66 228.49 212.94 224.78 218.31 C 219.44 224.05 211.89 227.88 203.97 227.96 C 193.88 228.12 183.78 227.86 173.68 227.95 C 175.96 227.56 178.21 227.02 180.47 226.51 C 177.48 220.60 174.17 214.85 171.18 208.93 C 168.89 203.61 163.16 200.92 160.94 195.52 C 158.94 195.24 156.73 195.14 155.10 193.78 C 152.87 192.28 151.05 189.85 148.25 189.43 C 142.34 188.74 136.99 185.77 131.76 183.14 C 127.89 178.55 126.79 172.31 124.67 166.81 C 128.53 166.97 132.37 167.41 136.20 167.94 C 138.88 160.73 142.24 153.35 148.55 148.58 Z" />
</g>
<g id="#59c1f8ff">
<path fill="#59c1f8" opacity="1.00" d=" M 52.84 145.70 C 59.69 144.65 66.41 142.79 73.33 142.28 C 74.40 145.65 75.80 148.92 77.44 152.06 C 71.06 154.86 64.58 157.44 58.16 160.14 C 50.13 163.55 41.77 166.16 33.91 169.99 C 30.98 163.62 28.48 157.02 26.87 150.19 C 35.51 148.56 44.16 147.05 52.84 145.70 Z" />
</g>
<g id="#74cbf8ff">
<path fill="#74cbf8" opacity="1.00" d=" M 77.44 152.06 C 77.91 152.95 78.40 153.82 78.92 154.69 C 80.73 157.68 82.78 160.52 85.13 163.11 C 72.16 171.91 59.56 181.25 46.76 190.29 C 41.81 183.98 37.29 177.28 33.91 169.99 C 41.77 166.16 50.13 163.55 58.16 160.14 C 64.58 157.44 71.06 154.86 77.44 152.06 Z" />
</g>
<g id="#1b74d5ff">
<path fill="#1b74d5" opacity="1.00" d=" M 196.25 152.42 C 205.69 152.42 214.35 156.71 223.49 158.50 C 221.54 164.38 218.98 170.05 216.05 175.51 C 212.61 173.78 208.82 173.03 205.06 172.37 C 203.98 165.07 201.20 157.98 196.25 152.42 Z" />
</g>
<g id="#93d6f9ff">
<path fill="#93d6f9" opacity="1.00" d=" M 85.13 163.11 C 87.45 165.64 90.02 167.94 92.70 170.09 C 86.38 177.29 79.98 184.42 73.26 191.26 C 69.22 195.79 65.34 200.48 60.81 204.55 C 55.76 200.18 50.86 195.58 46.76 190.29 C 59.56 181.25 72.16 171.91 85.13 163.11 Z" />
</g>
<g id="#e7f4faff">
<path fill="#e7f4fa" opacity="1.00" d=" M 114.53 170.59 C 117.58 168.61 121.07 167.35 124.67 166.81 C 126.79 172.31 127.89 178.55 131.76 183.14 C 136.99 185.77 142.34 188.74 148.25 189.43 C 151.05 189.85 152.87 192.28 155.10 193.78 C 156.73 195.14 158.94 195.24 160.94 195.52 C 163.16 200.92 168.89 203.61 171.18 208.93 C 174.17 214.85 177.48 220.60 180.47 226.51 C 178.21 227.02 175.96 227.56 173.68 227.95 C 165.03 228.10 156.36 227.90 147.71 228.14 C 140.09 228.03 132.47 228.11 124.85 228.22 C 123.90 223.11 121.37 218.58 119.09 213.99 C 116.25 208.27 118.31 201.92 118.90 195.95 C 120.00 187.25 117.04 178.79 114.53 170.59 Z" />
</g>
<g id="#f0f3f8ff">
</g>
<g id="#aadefaff">
<path fill="#aadefa" opacity="1.00" d=" M 92.70 170.09 C 94.52 171.48 96.44 172.73 98.44 173.86 C 89.82 186.97 80.03 199.27 71.56 212.47 C 67.81 210.07 64.23 207.39 60.81 204.55 C 65.34 200.48 69.22 195.79 73.26 191.26 C 79.98 184.42 86.38 177.29 92.70 170.09 Z" />
</g>
<g id="#cfedfaff">
<path fill="#cfedfa" opacity="1.00" d=" M 106.98 178.01 C 109.02 175.10 111.67 172.68 114.53 170.59 C 117.04 178.79 120.00 187.25 118.90 195.95 C 118.31 201.92 116.25 208.27 119.09 213.99 C 121.37 218.58 123.90 223.11 124.85 228.22 C 112.84 228.36 100.96 225.67 89.73 221.55 C 90.86 216.34 90.97 210.84 93.09 205.90 C 95.90 201.23 100.53 197.93 103.15 193.12 C 105.83 188.53 105.88 183.08 106.98 178.01 Z" />
</g>
<g id="#bbe5faff">
<path fill="#bbe5fa" opacity="1.00" d=" M 98.44 173.86 C 101.21 175.40 104.09 176.73 106.98 178.01 C 105.88 183.08 105.83 188.53 103.15 193.12 C 100.53 197.93 95.90 201.23 93.09 205.90 C 90.97 210.84 90.86 216.34 89.73 221.55 C 87.39 220.66 85.09 219.68 82.83 218.61 C 79.36 216.94 75.95 215.14 72.66 213.15 L 71.56 212.47 C 80.03 199.27 89.82 186.97 98.44 173.86 Z" />
</g>
<g id="#ced8e7ff">
<path fill="#ced8e7" opacity="1.00" d=" M 72.66 213.15 C 75.95 215.14 79.36 216.94 82.83 218.61 C 81.62 219.42 80.42 220.23 79.22 221.05 C 82.82 224.33 86.71 227.57 91.57 228.72 C 105.71 232.20 120.38 231.43 134.82 231.62 C 146.20 231.57 157.59 231.20 168.98 231.37 C 176.34 231.55 183.66 230.52 191.03 230.54 C 194.94 230.56 198.85 230.23 202.72 229.64 C 197.90 228.49 192.94 228.28 188.01 228.49 C 174.57 228.38 161.13 228.73 147.71 228.14 C 156.36 227.90 165.03 228.10 173.68 227.95 C 183.78 227.86 193.88 228.12 203.97 227.96 C 211.89 227.88 219.44 224.05 224.78 218.31 C 225.70 220.16 226.86 221.94 227.32 223.98 C 226.34 227.10 223.64 229.42 220.62 230.52 C 214.04 232.99 206.94 233.18 200.01 233.77 C 184.04 235.15 168.00 234.31 152.00 234.67 C 144.35 235.08 136.71 235.84 129.04 235.62 C 120.68 235.33 112.32 236.56 103.98 235.77 C 89.88 234.63 75.62 233.26 62.07 228.99 C 58.05 227.93 54.94 225.13 52.17 222.18 C 57.80 216.85 65.58 215.55 72.66 213.15 Z" />
</g>
<g id="#b7c5dbff">
<path fill="#b7c5db" opacity="1.00" d=" M 79.22 221.05 C 80.42 220.23 81.62 219.42 82.83 218.61 C 85.09 219.68 87.39 220.66 89.73 221.55 C 100.96 225.67 112.84 228.36 124.85 228.22 C 132.47 228.11 140.09 228.03 147.71 228.14 C 161.13 228.73 174.57 228.38 188.01 228.49 C 192.94 228.28 197.90 228.49 202.72 229.64 C 198.85 230.23 194.94 230.56 191.03 230.54 C 183.66 230.52 176.34 231.55 168.98 231.37 C 157.59 231.20 146.20 231.57 134.82 231.62 C 120.38 231.43 105.71 232.20 91.57 228.72 C 86.71 227.57 82.82 224.33 79.22 221.05 Z" />
</g>
</svg>
