<?xml version="1.0" encoding="UTF-8" ?>
<!DOCTYPE svg PUBLIC "-//W3C//DTD SVG 1.1//EN" "http://www.w3.org/Graphics/SVG/1.1/DTD/svg11.dtd">
<svg width="256pt" height="256pt" viewBox="0 0 256 256" version="1.1" xmlns="http://www.w3.org/2000/svg">
<g id="#ffffffff">
</g>
<g id="#22b159ff">
<path fill="#22b159" opacity="1.00" d=" M 146.12 29.64 C 152.84 27.30 159.62 23.81 163.71 17.75 C 165.13 23.37 166.42 29.12 166.19 34.96 C 166.06 45.54 161.00 56.13 152.25 62.24 C 143.11 69.33 131.00 70.85 119.77 70.48 C 135.72 97.10 151.65 123.74 167.61 150.35 C 171.32 156.62 174.47 163.56 174.48 170.98 C 174.72 181.85 169.32 192.23 161.50 199.54 C 149.55 210.78 132.13 215.77 116.02 212.89 C 106.28 211.14 96.84 206.31 90.59 198.49 C 84.66 191.20 82.03 181.26 83.83 172.01 C 85.72 161.22 92.71 151.84 101.52 145.58 C 114.16 136.61 130.77 133.54 145.78 137.38 C 128.15 112.99 110.53 88.59 92.89 64.20 C 90.28 60.83 92.08 56.28 93.91 52.98 C 98.80 44.92 107.68 40.47 116.21 37.24 C 125.83 33.38 136.46 33.41 146.12 29.64 Z" />
</g>
<g id="#f8cb35ff">
<path fill="#f8cb35" opacity="1.00" d=" M 94.00 34.96 C 110.50 28.68 128.70 26.64 146.12 29.64 C 136.46 33.41 125.83 33.38 116.21 37.24 C 107.68 40.47 98.80 44.92 93.91 52.98 C 92.08 56.28 90.28 60.83 92.89 64.20 C 110.53 88.59 128.15 112.99 145.78 137.38 C 130.77 133.54 114.16 136.61 101.52 145.58 C 92.71 151.84 85.72 161.22 83.83 172.01 C 82.03 181.26 84.66 191.20 90.59 198.49 C 96.84 206.31 106.28 211.14 116.02 212.89 C 132.13 215.77 149.55 210.78 161.50 199.54 C 169.32 192.23 174.72 181.85 174.48 170.98 C 174.47 163.56 171.32 156.62 167.61 150.35 C 151.65 123.74 135.72 97.10 119.77 70.48 C 131.00 70.85 143.11 69.33 152.25 62.24 C 161.00 56.13 166.06 45.54 166.19 34.96 C 189.44 43.78 209.08 61.63 220.10 83.91 C 230.42 104.45 233.16 128.61 227.93 150.97 C 222.40 175.14 207.35 196.88 186.84 210.77 C 171.05 221.66 152.07 227.60 132.95 228.28 C 107.14 228.96 81.14 219.45 62.17 201.87 C 45.42 186.64 34.06 165.55 30.82 143.12 C 27.76 124.59 30.68 105.25 38.17 88.09 C 48.75 63.90 69.34 44.36 94.00 34.96 Z" />
</g>
</svg>
