<?xml version="1.0" encoding="UTF-8" ?>
<!DOCTYPE svg PUBLIC "-//W3C//DTD SVG 1.1//EN" "http://www.w3.org/Graphics/SVG/1.1/DTD/svg11.dtd">
<svg width="256pt" height="256pt" viewBox="0 0 256 256" version="1.1" xmlns="http://www.w3.org/2000/svg">
<g id="#ffffffff">
<path fill="#ffffff" opacity="1.00" d=" M 121.24 0.00 L 132.64 0.00 C 159.29 0.62 185.88 4.31 211.65 11.14 C 220.28 13.56 228.96 16.07 237.05 19.98 C 238.59 20.91 241.01 21.79 240.60 24.03 C 240.67 50.02 240.59 76.01 240.61 102.00 C 241.18 117.86 237.53 133.57 232.38 148.48 C 225.99 166.28 215.91 183.07 201.64 195.67 C 182.82 212.17 164.18 228.91 144.78 244.75 C 139.74 248.64 134.91 252.92 129.30 256.00 L 125.81 256.00 C 121.83 253.86 118.37 250.90 114.76 248.21 C 92.90 231.19 71.88 213.13 51.08 194.85 C 28.58 173.51 17.41 142.52 14.97 112.11 C 14.74 83.73 14.98 55.35 14.86 26.97 C 14.99 24.83 14.30 21.84 16.81 20.83 C 23.04 17.20 30.04 15.15 36.88 12.96 C 64.25 4.90 92.73 0.77 121.24 0.00 M 82.33 13.24 C 62.81 16.03 43.31 20.14 25.06 27.75 C 25.03 52.82 25.04 77.90 24.99 102.98 C 24.51 124.87 30.60 146.68 41.27 165.73 C 46.58 175.29 53.80 183.72 62.13 190.77 C 83.54 209.31 104.94 227.91 127.58 244.93 C 150.68 227.49 171.88 207.71 193.76 188.80 C 207.16 177.41 216.51 161.96 222.58 145.59 C 227.11 133.58 230.08 120.89 230.48 108.03 C 230.46 81.33 230.52 54.63 230.50 27.93 C 212.21 20.30 192.66 16.22 173.12 13.35 C 143.06 8.99 112.39 8.88 82.33 13.24 Z" />
<path fill="#ffffff" opacity="1.00" d=" M 117.11 38.44 C 140.03 31.99 165.19 47.34 172.75 69.32 C 174.60 74.11 174.32 79.54 176.90 84.07 C 178.92 87.80 179.42 92.10 179.17 96.28 C 185.17 104.61 189.34 114.59 189.26 124.98 C 188.74 129.87 188.03 135.12 185.10 139.24 C 182.39 142.87 177.25 143.13 173.31 141.57 C 177.08 145.30 178.73 150.73 178.63 155.93 C 178.26 161.74 174.06 166.58 168.87 168.84 C 156.13 174.28 140.63 173.55 128.95 165.84 C 118.68 171.62 106.27 174.01 94.71 171.23 C 88.92 170.05 82.82 167.65 79.50 162.47 C 75.38 155.68 77.66 146.46 83.09 141.07 C 79.72 142.24 75.89 143.45 72.55 141.48 C 67.82 138.83 67.40 132.76 66.57 127.98 C 65.78 116.27 70.60 104.82 77.54 95.59 C 77.37 91.30 78.61 87.17 80.54 83.40 C 82.30 80.04 82.64 76.23 83.42 72.58 C 86.74 55.96 100.59 42.08 117.11 38.44 M 96.64 60.63 C 91.80 67.23 89.64 75.39 89.38 83.49 C 87.78 85.23 86.68 87.33 86.36 89.69 C 86.03 89.99 85.37 90.59 85.04 90.89 C 85.17 93.08 85.36 95.26 85.58 97.45 C 76.91 107.72 70.52 122.24 75.91 135.53 C 80.49 134.64 82.93 130.40 85.30 126.84 C 87.10 132.85 89.26 138.83 92.90 144.00 C 90.41 145.37 87.42 146.54 86.16 149.30 C 84.96 152.30 83.87 156.11 86.08 158.93 C 88.55 161.87 92.39 163.15 96.00 164.02 C 106.16 166.12 117.38 164.68 125.97 158.59 C 127.91 158.57 129.85 158.55 131.79 158.54 C 141.12 165.93 154.53 166.64 165.32 162.27 C 169.31 160.83 172.52 156.62 170.81 152.29 C 170.27 147.76 166.25 145.10 162.40 143.45 C 166.13 138.48 168.48 132.66 170.15 126.72 C 172.20 130.40 174.52 134.62 179.03 135.56 C 180.44 132.22 181.75 128.75 181.76 125.07 C 182.20 115.00 177.08 105.75 171.13 98.00 C 172.68 92.99 171.33 87.74 167.99 83.79 C 167.66 64.97 152.35 48.04 133.97 44.89 C 119.88 42.53 104.81 48.92 96.64 60.63 Z" />
</g>
<g id="#3589f3ff">
</g>
</svg>
