<?xml version="1.0" encoding="UTF-8" ?>
<!DOCTYPE svg PUBLIC "-//W3C//DTD SVG 1.1//EN" "http://www.w3.org/Graphics/SVG/1.1/DTD/svg11.dtd">
<svg width="256pt" height="256pt" viewBox="0 0 256 256" version="1.1" xmlns="http://www.w3.org/2000/svg">
<g id="#ffffffff">
<path fill="#ffffff" opacity="1.00" d=" M 105.46 44.67 C 110.03 42.59 115.25 45.27 117.85 49.17 C 122.85 56.45 123.12 66.84 118.31 74.27 C 115.84 78.26 110.61 80.89 106.07 78.86 C 99.68 76.05 96.88 68.57 96.71 62.01 C 96.52 55.39 99.01 47.61 105.46 44.67 M 111.35 56.36 C 106.01 58.79 106.29 68.20 111.95 70.05 C 115.90 71.04 118.70 66.52 118.41 63.04 C 118.64 59.41 115.35 54.87 111.35 56.36 Z" />
<path fill="#ffffff" opacity="1.00" d=" M 145.10 44.19 C 149.89 42.98 154.49 46.40 156.64 50.47 C 160.50 57.63 160.18 66.93 155.79 73.79 C 153.70 77.05 150.14 79.71 146.11 79.56 C 141.85 79.34 138.43 76.10 136.61 72.46 C 133.39 65.98 133.51 57.98 136.71 51.52 C 138.43 48.15 141.30 45.06 145.10 44.19 M 143.22 59.24 C 140.88 60.01 138.81 61.56 137.42 63.58 C 136.37 64.81 138.20 67.14 139.52 65.81 C 142.38 62.57 147.29 61.62 151.06 63.82 C 153.19 65.80 155.99 61.74 153.78 60.31 C 150.63 58.51 146.66 58.16 143.22 59.24 Z" />
<path fill="#ffffff" opacity="1.00" d=" M 73.83 141.85 C 76.84 142.43 79.86 143.02 82.90 143.42 C 82.98 154.32 82.91 165.21 82.93 176.11 C 93.34 177.92 104.17 178.83 114.62 176.94 C 114.45 166.98 114.60 157.02 114.54 147.06 C 137.20 148.28 159.94 146.24 182.18 141.84 C 183.85 152.44 184.19 163.22 183.55 173.91 C 182.85 185.38 179.91 196.91 173.66 206.65 C 166.62 217.92 154.79 225.85 141.82 228.53 C 125.07 232.03 106.20 229.43 92.70 218.33 C 80.90 208.78 74.63 193.88 72.93 179.06 C 71.64 166.69 71.94 154.14 73.83 141.85 Z" />
</g>
<g id="#000000ff">
<path fill="#000000" opacity="1.00" d=" M 111.50 17.67 C 127.87 14.42 145.59 15.67 160.58 23.38 C 173.24 29.84 183.07 41.00 189.23 53.69 C 197.73 71.06 200.32 90.78 199.40 109.95 C 152.97 122.87 103.03 122.87 56.60 109.95 C 55.51 87.23 59.37 63.37 72.28 44.21 C 81.25 30.70 95.57 20.86 111.50 17.67 M 105.46 44.67 C 99.01 47.61 96.52 55.39 96.71 62.01 C 96.88 68.57 99.68 76.05 106.07 78.86 C 110.61 80.89 115.84 78.26 118.31 74.27 C 123.12 66.84 122.85 56.45 117.85 49.17 C 115.25 45.27 110.03 42.59 105.46 44.67 M 145.10 44.19 C 141.30 45.06 138.43 48.15 136.71 51.52 C 133.51 57.98 133.39 65.98 136.61 72.46 C 138.43 76.10 141.85 79.34 146.11 79.56 C 150.14 79.71 153.70 77.05 155.79 73.79 C 160.18 66.93 160.50 57.63 156.64 50.47 C 154.49 46.40 149.89 42.98 145.10 44.19 M 110.53 85.76 C 102.38 86.75 93.93 87.71 86.51 91.44 C 84.84 92.02 83.19 94.44 85.42 95.51 C 93.99 101.11 103.92 104.36 113.88 106.49 C 128.34 109.63 143.47 107.39 157.16 102.16 C 162.00 100.19 167.01 98.28 171.14 95.02 C 172.50 94.05 171.19 92.40 170.14 91.84 C 165.81 89.20 160.72 88.24 155.82 87.22 C 140.90 84.59 125.59 84.24 110.53 85.76 Z" />
<path fill="#000000" opacity="1.00" d=" M 111.35 56.36 C 115.35 54.87 118.64 59.41 118.41 63.04 C 118.70 66.52 115.90 71.04 111.95 70.05 C 106.29 68.20 106.01 58.79 111.35 56.36 Z" />
<path fill="#000000" opacity="1.00" d=" M 143.22 59.24 C 146.66 58.16 150.63 58.51 153.78 60.31 C 155.99 61.74 153.19 65.80 151.06 63.82 C 147.29 61.62 142.38 62.57 139.52 65.81 C 138.20 67.14 136.37 64.81 137.42 63.58 C 138.81 61.56 140.88 60.01 143.22 59.24 Z" />
<path fill="#000000" opacity="1.00" d=" M 46.25 135.17 L 46.39 135.21 C 55.42 137.86 64.60 140.03 73.83 141.85 C 71.94 154.14 71.64 166.69 72.93 179.06 C 74.63 193.88 80.90 208.78 92.70 218.33 C 106.20 229.43 125.07 232.03 141.82 228.53 C 154.79 225.85 166.62 217.92 173.66 206.65 C 179.91 196.91 182.85 185.38 183.55 173.91 C 184.19 163.22 183.85 152.44 182.18 141.84 C 191.41 140.03 200.57 137.86 209.59 135.22 L 209.75 135.17 C 216.12 151.90 222.46 169.00 223.84 186.99 C 223.83 191.29 224.57 196.29 221.77 199.92 C 219.52 199.86 217.89 198.10 216.35 196.69 C 210.60 190.69 206.04 183.69 201.45 176.80 C 201.23 194.08 191.85 210.42 178.73 221.29 C 164.69 233.04 146.08 238.26 127.98 238.09 C 109.86 238.25 91.25 233.01 77.21 221.25 C 64.15 210.38 54.78 194.10 54.56 176.87 C 49.89 183.70 45.39 190.74 39.62 196.72 C 38.08 198.12 36.46 199.87 34.21 199.92 C 32.78 198.35 32.46 196.17 32.23 194.14 C 31.69 187.67 32.58 181.18 33.81 174.84 C 36.49 161.20 41.27 148.11 46.25 135.17 Z" />
</g>
<g id="#f7ad2cff">
<path fill="#f7ad2c" opacity="1.00" d=" M 110.53 85.76 C 125.59 84.24 140.90 84.59 155.82 87.22 C 160.72 88.24 165.81 89.20 170.14 91.84 C 171.19 92.40 172.50 94.05 171.14 95.02 C 167.01 98.28 162.00 100.19 157.16 102.16 C 143.47 107.39 128.34 109.63 113.88 106.49 C 103.92 104.36 93.99 101.11 85.42 95.51 C 83.19 94.44 84.84 92.02 86.51 91.44 C 93.93 87.71 102.38 86.75 110.53 85.76 Z" />
<path fill="#f7ad2c" opacity="1.00" d=" M 77.21 221.25 C 91.25 233.01 109.86 238.25 127.98 238.09 C 146.08 238.26 164.69 233.04 178.73 221.29 C 184.98 223.16 191.25 225.46 196.61 229.26 C 198.90 230.81 200.95 234.26 198.89 236.78 C 194.36 239.31 188.90 238.97 183.89 239.57 C 165.26 240.44 146.58 239.70 128.01 238.21 C 109.36 239.70 90.61 240.45 71.92 239.55 C 66.97 238.98 61.59 239.27 57.12 236.78 C 55.24 234.54 56.80 231.32 58.80 229.75 C 64.21 225.57 70.79 223.34 77.21 221.25 Z" />
</g>
<g id="#e52329ff">
<path fill="#e52329" opacity="1.00" d=" M 56.60 109.95 C 103.03 122.87 152.97 122.87 199.40 109.95 C 202.80 118.37 206.45 126.71 209.59 135.22 C 200.57 137.86 191.41 140.03 182.18 141.84 C 159.94 146.24 137.20 148.28 114.54 147.06 C 114.60 157.02 114.45 166.98 114.62 176.94 C 104.17 178.83 93.34 177.92 82.93 176.11 C 82.91 165.21 82.98 154.32 82.90 143.42 C 79.86 143.02 76.84 142.43 73.83 141.85 C 64.60 140.03 55.42 137.86 46.39 135.21 C 49.57 126.71 53.19 118.37 56.60 109.95 Z" />
</g>
</svg>
