<?xml version="1.0" encoding="UTF-8" ?>
<!DOCTYPE svg PUBLIC "-//W3C//DTD SVG 1.1//EN" "http://www.w3.org/Graphics/SVG/1.1/DTD/svg11.dtd">
<svg width="256pt" height="256pt" viewBox="0 0 256 256" version="1.1" xmlns="http://www.w3.org/2000/svg">
<g id="#ffffffff">
<path fill="#ffffff" opacity="1.00" d=" M 0.00 0.00 L 256.00 0.00 L 256.00 256.00 L 0.00 256.00 L 0.00 0.00 M 125.30 41.27 C 116.44 57.45 107.63 73.67 98.78 89.85 C 98.03 91.48 96.58 92.59 94.78 92.76 C 76.20 96.25 57.57 99.51 39.01 103.08 C 36.15 103.19 34.93 106.96 37.22 108.68 C 50.49 122.45 63.83 136.17 77.21 149.83 C 78.49 151.20 79.98 152.84 79.32 154.88 C 76.38 173.10 73.30 191.30 70.25 209.51 C 70.13 211.22 69.48 213.57 71.34 214.60 C 73.08 215.85 75.05 214.37 76.74 213.78 C 92.81 206.11 108.97 198.64 125.03 190.97 C 127.10 189.96 129.44 188.75 131.65 190.19 C 148.66 198.22 165.57 206.49 182.60 214.50 C 184.89 216.09 188.30 214.00 187.47 211.20 C 185.96 200.57 183.97 190.00 182.36 179.38 C 181.81 175.71 181.20 172.05 180.60 168.38 C 186.07 164.16 191.90 159.92 195.34 153.76 C 167.79 164.01 138.34 168.73 108.99 168.71 C 101.23 168.62 93.38 168.52 85.81 166.69 C 84.17 163.75 86.22 161.25 88.67 159.69 C 100.39 150.52 112.42 141.76 124.43 132.98 C 129.73 128.89 135.57 125.46 140.51 120.91 C 137.94 118.90 134.65 118.34 131.57 117.58 C 115.26 114.03 98.30 114.19 81.87 116.77 C 80.97 116.20 80.11 115.59 79.27 114.95 C 83.01 110.41 89.21 109.48 94.44 107.51 C 114.61 101.72 136.53 98.99 157.02 104.79 C 161.40 106.20 166.35 107.44 169.30 111.27 C 167.59 113.26 165.72 115.13 163.61 116.71 C 152.25 125.35 140.55 133.54 129.03 141.97 C 128.14 142.94 126.29 143.53 126.43 145.09 C 130.18 147.31 134.57 148.01 138.72 149.17 C 151.03 151.66 163.60 152.95 176.15 153.02 C 178.04 153.22 179.16 151.48 180.40 150.37 C 193.41 136.71 206.53 123.15 219.59 109.54 C 220.50 108.32 222.28 106.83 221.34 105.16 C 220.87 103.21 218.51 103.18 216.97 102.72 C 198.96 99.42 180.95 96.12 162.95 92.79 C 160.86 92.67 159.46 91.11 158.60 89.36 C 150.86 75.13 143.02 60.94 135.27 46.72 C 133.82 44.15 132.64 41.36 130.68 39.13 C 128.59 37.73 126.15 39.20 125.30 41.27 Z" />
</g>
<g id="#fecd2fff">
<path fill="#fecd2f" opacity="1.00" d=" M 125.30 41.27 C 126.15 39.20 128.59 37.73 130.68 39.13 C 132.64 41.36 133.82 44.15 135.27 46.72 C 143.02 60.94 150.86 75.13 158.60 89.36 C 159.46 91.11 160.86 92.67 162.95 92.79 C 180.95 96.12 198.96 99.42 216.97 102.72 C 218.51 103.18 220.87 103.21 221.34 105.16 C 222.28 106.83 220.50 108.32 219.59 109.54 C 206.53 123.15 193.41 136.71 180.40 150.37 C 179.16 151.48 178.04 153.22 176.15 153.02 C 163.60 152.95 151.03 151.66 138.72 149.17 C 147.14 141.08 155.53 132.96 164.03 124.95 C 166.89 122.17 170.26 119.66 171.98 115.96 C 171.37 114.25 170.32 112.75 169.30 111.27 C 166.35 107.44 161.40 106.20 157.02 104.79 C 136.53 98.99 114.61 101.72 94.44 107.51 C 89.21 109.48 83.01 110.41 79.27 114.95 C 80.11 115.59 80.97 116.20 81.87 116.77 C 85.68 118.31 89.79 118.72 93.81 119.38 C 104.95 121.29 115.45 126.16 124.43 132.98 C 112.42 141.76 100.39 150.52 88.67 159.69 C 86.22 161.25 84.17 163.75 85.81 166.69 C 86.17 167.90 86.54 169.11 86.91 170.32 C 90.95 171.70 95.04 172.97 99.25 173.70 C 126.62 178.65 154.55 180.95 182.36 179.38 C 183.97 190.00 185.96 200.57 187.47 211.20 C 188.30 214.00 184.89 216.09 182.60 214.50 C 165.57 206.49 148.66 198.22 131.65 190.19 C 129.44 188.75 127.10 189.96 125.03 190.97 C 108.97 198.64 92.81 206.11 76.74 213.78 C 75.05 214.37 73.08 215.85 71.34 214.60 C 69.48 213.57 70.13 211.22 70.25 209.51 C 73.30 191.30 76.38 173.10 79.32 154.88 C 79.98 152.84 78.49 151.20 77.21 149.83 C 63.83 136.17 50.49 122.45 37.22 108.68 C 34.93 106.96 36.15 103.19 39.01 103.08 C 57.57 99.51 76.20 96.25 94.78 92.76 C 96.58 92.59 98.03 91.48 98.78 89.85 C 107.63 73.67 116.44 57.45 125.30 41.27 Z" />
</g>
<g id="#efa229ff">
<path fill="#efa229" opacity="1.00" d=" M 169.30 111.27 C 170.32 112.75 171.37 114.25 171.98 115.96 C 170.26 119.66 166.89 122.17 164.03 124.95 C 155.53 132.96 147.14 141.08 138.72 149.17 C 134.57 148.01 130.18 147.31 126.43 145.09 C 126.29 143.53 128.14 142.94 129.03 141.97 C 140.55 133.54 152.25 125.35 163.61 116.71 C 165.72 115.13 167.59 113.26 169.30 111.27 Z" />
<path fill="#efa229" opacity="1.00" d=" M 81.87 116.77 C 98.30 114.19 115.26 114.03 131.57 117.58 C 134.65 118.34 137.94 118.90 140.51 120.91 C 135.57 125.46 129.73 128.89 124.43 132.98 C 115.45 126.16 104.95 121.29 93.81 119.38 C 89.79 118.72 85.68 118.31 81.87 116.77 Z" />
<path fill="#efa229" opacity="1.00" d=" M 108.99 168.71 C 138.34 168.73 167.79 164.01 195.34 153.76 C 191.90 159.92 186.07 164.16 180.60 168.38 C 181.20 172.05 181.81 175.71 182.36 179.38 C 154.55 180.95 126.62 178.65 99.25 173.70 C 95.04 172.97 90.95 171.70 86.91 170.32 C 86.54 169.11 86.17 167.90 85.81 166.69 C 93.38 168.52 101.23 168.62 108.99 168.71 Z" />
</g>
</svg>
