<?xml version="1.0" encoding="UTF-8" ?>
<!DOCTYPE svg PUBLIC "-//W3C//DTD SVG 1.1//EN" "http://www.w3.org/Graphics/SVG/1.1/DTD/svg11.dtd">
<svg width="1024pt" height="1024pt" viewBox="0 0 1024 1024" version="1.1" xmlns="http://www.w3.org/2000/svg">
<g id="#ffffffff">
</g>
<g id="#5d61ebff">
<path fill="#5d61eb" opacity="1.00" d=" M 368.02 187.12 C 419.98 164.52 477.44 154.89 533.94 158.89 C 608.07 163.79 680.24 193.05 737.02 240.92 C 789.32 284.67 828.67 343.75 848.51 409.01 C 868.86 475.37 869.15 547.74 849.33 614.26 C 849.01 615.44 848.73 616.64 848.48 617.84 C 835.88 589.81 815.90 565.12 791.01 547.07 C 768.94 530.85 743.00 520.00 716.01 515.44 C 716.40 480.49 707.90 445.45 691.21 414.72 C 674.01 382.81 648.23 355.61 617.37 336.61 C 589.30 319.29 557.01 308.87 524.10 306.56 C 487.52 303.85 450.22 311.03 417.36 327.36 C 383.28 344.19 354.01 370.60 333.78 402.77 C 315.74 431.29 304.91 464.31 302.56 497.97 C 299.93 533.54 306.67 569.77 322.05 601.96 C 337.56 634.56 361.78 662.97 391.54 683.42 C 426.40 707.74 468.99 720.54 511.47 720.01 C 516.78 752.15 531.30 782.66 552.74 807.16 C 569.53 826.42 590.52 842.00 613.82 852.47 C 599.39 856.39 584.93 860.36 570.13 862.74 C 499.62 875.04 425.40 865.65 360.43 835.49 C 301.03 808.17 249.54 764.02 213.36 709.57 C 194.58 681.39 179.84 650.50 169.85 618.14 C 155.21 571.04 150.73 520.87 156.38 471.89 C 162.99 413.65 184.51 357.20 218.26 309.28 C 255.68 255.82 308.10 212.99 368.02 187.12 Z" />
</g>
<g id="#2ff5dbff">
<path fill="#2ff5db" opacity="1.00" d=" M 609.40 530.57 C 642.22 514.61 680.04 509.39 716.01 515.44 C 743.00 520.00 768.94 530.85 791.01 547.07 C 815.90 565.12 835.88 589.81 848.48 617.84 C 861.65 646.86 866.47 679.49 862.82 711.10 C 858.03 754.02 836.68 794.73 804.32 823.28 C 788.61 837.18 770.48 848.41 750.89 855.94 C 707.20 873.16 656.59 871.89 613.82 852.47 C 590.52 842.00 569.53 826.42 552.74 807.16 C 531.30 782.66 516.78 752.15 511.47 720.01 C 504.25 677.81 512.89 633.05 535.74 596.79 C 553.36 568.34 579.25 545.10 609.40 530.57 Z" />
</g>
</svg>
