<?xml version="1.0" encoding="UTF-8" ?>
<!DOCTYPE svg PUBLIC "-//W3C//DTD SVG 1.1//EN" "http://www.w3.org/Graphics/SVG/1.1/DTD/svg11.dtd">
<svg width="72pt" height="72pt" viewBox="0 0 72 72" version="1.1" xmlns="http://www.w3.org/2000/svg">
<g id="#1a94ecff">
</g>
<g id="#fdfeffff">
<path fill="#fdfeff" opacity="1.00" d=" M 11.67 36.01 C 11.42 24.46 20.55 13.69 31.97 12.00 C 42.29 10.09 53.36 15.78 57.82 25.27 C 62.46 34.34 60.42 46.05 53.25 53.22 C 55.61 55.60 57.98 57.97 60.37 60.31 C 51.57 60.20 42.76 60.42 33.96 60.21 C 21.73 59.52 11.38 48.25 11.67 36.01 M 33.36 16.40 C 23.50 17.53 15.55 26.99 16.25 36.92 C 16.47 47.48 26.38 56.51 36.92 55.75 C 47.48 55.51 56.52 45.61 55.75 35.07 C 55.54 23.87 44.42 14.59 33.36 16.40 Z" />
<path fill="#fdfeff" opacity="1.00" d=" M 27.50 26.43 C 30.02 23.34 34.69 28.06 31.60 30.56 C 29.06 33.10 25.02 28.94 27.50 26.43 Z" />
<path fill="#fdfeff" opacity="1.00" d=" M 32.48 39.15 C 34.85 35.66 37.11 32.10 39.48 28.61 C 43.02 34.06 46.63 39.46 50.16 44.92 C 45.42 44.92 40.68 44.86 35.95 44.96 C 34.76 43.04 33.60 41.10 32.48 39.15 Z" />
<path fill="#fdfeff" opacity="1.00" d=" M 21.88 44.92 C 23.92 41.46 26.02 38.02 28.05 34.54 C 30.11 38.00 32.19 41.45 34.23 44.93 C 30.11 44.90 25.99 44.90 21.88 44.92 Z" />
</g>
</svg>
