<?xml version="1.0" encoding="UTF-8" ?>
<!DOCTYPE svg PUBLIC "-//W3C//DTD SVG 1.1//EN" "http://www.w3.org/Graphics/SVG/1.1/DTD/svg11.dtd">
<svg width="256pt" height="256pt" viewBox="0 0 256 256" version="1.1" xmlns="http://www.w3.org/2000/svg">
<g id="#fc6822ff">
</g>
<g id="#fd7424ff">
</g>
<g id="#fd8227ff">
</g>
<g id="#fd9129ff">
</g>
<g id="#fc5e20ff">
</g>
<g id="#fc511fff">
</g>
<g id="#fee937ff">
<path fill="#fee937" opacity="1.00" d=" M 51.34 52.47 C 61.72 49.22 73.55 58.08 72.92 69.03 C 73.45 79.32 62.89 88.05 52.87 85.86 C 44.16 84.58 37.58 75.69 38.87 66.98 C 39.55 60.19 44.75 54.19 51.34 52.47 Z" />
</g>
<g id="#ffffffff">
<path fill="#ffffff" opacity="1.00" d=" M 95.26 51.94 C 98.68 52.90 102.11 53.86 105.53 54.81 C 110.43 56.26 115.36 57.57 120.26 59.01 C 118.37 63.15 116.24 67.17 114.03 71.14 C 126.98 67.55 140.12 64.51 153.49 62.97 C 163.27 61.88 173.18 61.50 182.97 62.73 C 193.45 64.18 204.27 67.50 211.93 75.15 C 216.50 79.49 219.42 85.41 220.14 91.67 C 223.13 111.80 223.42 132.25 222.28 152.54 C 221.32 163.09 221.67 174.22 216.98 183.98 C 214.57 189.03 210.79 193.38 206.18 196.53 C 189.88 206.87 169.18 204.90 151.21 200.75 C 152.37 195.99 153.51 191.22 154.74 186.48 C 163.27 188.02 172.03 191.53 180.71 188.71 C 187.26 187.17 191.99 181.68 194.01 175.45 C 186.77 177.38 180.12 180.95 173.14 183.60 C 171.97 179.30 170.82 175.00 169.65 170.70 C 154.53 181.76 135.47 185.98 117.00 186.20 C 110.18 186.20 102.91 186.77 96.64 183.54 C 91.69 181.17 88.08 176.58 86.29 171.45 C 83.58 163.70 83.87 155.24 85.28 147.25 C 93.58 147.00 101.90 147.19 110.20 147.14 C 109.99 152.91 107.97 159.09 110.53 164.58 C 113.35 169.14 119.39 169.14 124.12 169.61 C 124.14 159.81 124.14 150.01 124.12 140.22 C 112.59 140.24 101.06 140.13 89.53 140.28 C 89.33 136.16 89.38 132.04 89.41 127.92 C 93.16 127.90 96.91 127.88 100.66 127.94 C 96.84 125.07 93.37 121.79 89.77 118.67 C 97.46 110.08 103.53 100.20 109.13 90.16 C 105.29 92.02 100.93 93.01 97.45 95.53 C 93.24 100.47 89.10 105.49 84.41 109.99 C 78.66 106.76 72.95 103.47 67.25 100.17 C 69.45 98.05 71.64 95.91 73.61 93.57 C 83.68 81.42 90.17 66.75 95.26 51.94 M 152.11 76.15 L 152.23 76.26 C 142.83 78.10 133.63 80.92 124.66 84.24 C 128.09 85.28 131.58 86.15 135.02 87.15 C 132.94 92.07 129.54 96.22 126.30 100.40 C 143.00 100.42 159.70 100.40 176.40 100.38 C 179.84 100.41 183.28 100.40 186.72 100.40 C 186.74 104.50 186.73 108.60 186.73 112.70 C 185.98 112.71 184.49 112.74 183.74 112.76 C 173.36 112.72 162.98 112.73 152.61 112.74 C 152.59 117.80 152.58 122.86 152.61 127.92 C 163.95 127.99 175.30 127.78 186.64 128.00 C 186.55 132.09 186.71 136.18 186.49 140.26 C 175.21 140.13 163.93 140.23 152.65 140.19 L 152.60 141.00 C 152.60 149.28 152.57 157.56 152.62 165.84 C 157.54 164.08 162.52 162.03 166.52 158.57 C 165.33 154.97 164.46 151.27 163.46 147.62 C 167.45 146.35 171.45 145.12 175.45 143.87 C 176.78 143.45 178.11 143.03 179.44 142.61 C 184.08 153.55 188.59 164.54 192.90 175.61 C 194.81 173.95 194.41 171.30 194.55 169.04 C 194.52 153.82 194.55 138.60 194.51 123.38 C 194.50 113.92 194.68 104.45 194.41 94.99 C 194.26 87.82 190.76 80.27 183.97 77.20 C 173.99 72.49 162.56 74.36 152.11 76.15 M 113.55 114.48 C 109.42 119.10 104.72 123.18 100.70 127.89 C 108.51 127.94 116.32 127.90 124.12 127.90 C 124.14 122.85 124.14 117.80 124.12 112.75 C 120.64 113.27 116.05 111.25 113.55 114.48 Z" />
<path fill="#ffffff" opacity="1.00" d=" M 41.33 97.83 C 42.37 96.24 43.40 94.66 44.44 93.07 C 46.48 94.59 48.51 96.11 50.56 97.62 C 56.03 101.70 61.41 105.93 66.24 110.75 C 70.84 115.23 76.19 119.79 77.27 126.50 C 79.15 138.01 74.59 149.24 70.84 159.90 C 64.76 173.53 58.00 186.86 51.87 200.46 C 42.84 194.82 33.81 189.19 24.80 183.54 C 35.41 173.58 45.96 163.48 55.21 152.22 C 58.68 147.74 62.61 142.92 62.91 137.00 C 63.11 131.53 59.35 126.79 54.93 123.99 C 47.67 119.45 40.38 114.96 33.13 110.40 C 35.86 106.21 38.59 102.01 41.33 97.83 Z" />
</g>
<g id="#fd6e23ff">
</g>
<g id="#fc6422ff">
</g>
<g id="#fd7224ff">
</g>
<g id="#fc6121ff">
</g>
<g id="#fc541fff">
</g>
</svg>
