<?xml version="1.0" encoding="UTF-8" ?>
<!DOCTYPE svg PUBLIC "-//W3C//DTD SVG 1.1//EN" "http://www.w3.org/Graphics/SVG/1.1/DTD/svg11.dtd">
<svg width="256pt" height="256pt" viewBox="0 0 256 256" version="1.1" xmlns="http://www.w3.org/2000/svg">
<g id="#ffffffff">
<path fill="#ffffff" opacity="1.00" d=" M 86.74 103.81 C 87.20 100.52 87.49 96.32 90.89 94.67 C 99.05 96.63 106.72 100.14 114.28 103.71 C 125.67 109.34 137.03 115.23 147.33 122.71 C 149.14 124.27 152.14 125.87 151.66 128.67 C 149.60 132.48 145.52 134.56 142.03 136.87 C 127.69 145.45 112.74 153.13 97.20 159.31 C 94.60 160.06 90.80 162.25 88.69 159.51 C 86.83 155.29 86.82 150.56 86.33 146.05 C 85.81 131.98 85.43 117.85 86.74 103.81 Z" />
</g>
<g id="#49bbfbff">
<path fill="#49bbfb" opacity="1.00" d=" M 80.63 39.47 C 86.23 36.59 92.99 36.06 98.95 38.10 C 133.43 50.12 165.89 67.50 196.01 88.06 C 205.32 94.57 214.31 101.59 222.57 109.40 C 227.39 114.03 231.57 120.11 231.51 127.06 C 231.64 133.52 228.28 139.40 224.23 144.18 C 207.47 162.57 185.61 175.11 164.40 187.62 C 144.06 199.52 122.64 209.56 100.48 217.60 C 92.65 220.67 83.22 219.58 76.56 214.33 C 71.67 210.38 67.42 204.31 67.58 197.97 C 89.03 190.86 110.26 182.85 130.37 172.46 C 147.36 164.04 163.99 154.69 179.02 143.07 C 183.51 139.59 188.02 135.02 188.48 129.04 C 189.07 122.83 185.10 117.31 180.51 113.56 C 163.17 99.64 143.29 89.36 123.33 79.75 C 105.33 71.04 86.56 64.05 67.50 58.04 C 68.43 50.18 73.51 42.94 80.63 39.47 Z" />
</g>
<g id="#fd9627ff">
<path fill="#fd9627" opacity="1.00" d=" M 36.78 71.80 C 39.21 64.98 44.56 58.66 51.90 57.08 C 57.06 55.71 62.51 56.56 67.46 58.33 C 62.70 86.90 60.14 115.96 61.72 144.93 C 62.36 162.72 64.46 180.45 67.58 197.97 C 61.92 200.34 55.38 201.18 49.44 199.40 C 43.00 197.28 38.96 191.19 36.78 185.08 C 31.28 169.35 29.55 152.59 29.12 136.01 C 28.90 114.46 29.28 92.28 36.78 71.80 Z" />
</g>
<g id="#7ccd2cff">
<path fill="#7ccd2c" opacity="1.00" d=" M 67.46 58.33 L 67.50 58.04 C 86.56 64.05 105.33 71.04 123.33 79.75 C 143.29 89.36 163.17 99.64 180.51 113.56 C 185.10 117.31 189.07 122.83 188.48 129.04 C 188.02 135.02 183.51 139.59 179.02 143.07 C 163.99 154.69 147.36 164.04 130.37 172.46 C 110.26 182.85 89.03 190.86 67.58 197.97 C 64.46 180.45 62.36 162.72 61.72 144.93 C 60.14 115.96 62.70 86.90 67.46 58.33 M 86.74 103.81 C 85.43 117.85 85.81 131.98 86.33 146.05 C 86.82 150.56 86.83 155.29 88.69 159.51 C 90.80 162.25 94.60 160.06 97.20 159.31 C 112.74 153.13 127.69 145.45 142.03 136.87 C 145.52 134.56 149.60 132.48 151.66 128.67 C 152.14 125.87 149.14 124.27 147.33 122.71 C 137.03 115.23 125.67 109.34 114.28 103.71 C 106.72 100.14 99.05 96.63 90.89 94.67 C 87.49 96.32 87.20 100.52 86.74 103.81 Z" />
</g>
</svg>
