<?xml version="1.0" encoding="UTF-8" ?>
<!DOCTYPE svg PUBLIC "-//W3C//DTD SVG 1.1//EN" "http://www.w3.org/Graphics/SVG/1.1/DTD/svg11.dtd">
<svg width="96pt" height="96pt" viewBox="0 0 96 96" version="1.1" xmlns="http://www.w3.org/2000/svg">
<g id="#3273ecff">
</g>
<g id="#f0f7fcff">
<path fill="#f0f7fc" opacity="1.00" d=" M 39.80 33.86 C 52.76 23.26 67.92 15.35 83.96 10.63 C 80.18 16.29 76.34 21.94 73.28 28.04 C 74.01 27.93 75.46 27.71 76.19 27.59 C 72.05 33.15 68.18 38.91 64.77 44.94 C 73.11 46.41 81.58 48.65 88.68 53.45 C 77.22 55.24 65.68 57.04 54.63 60.68 C 58.83 70.06 63.74 79.15 67.32 88.81 C 61.97 82.76 56.17 77.06 49.53 72.44 C 44.11 68.21 37.12 66.62 31.90 62.07 C 26.48 57.82 22.65 51.01 23.41 43.97 C 23.64 40.14 25.13 35.81 22.71 32.37 C 18.94 26.17 11.58 24.06 5.60 20.67 C 10.27 21.69 14.80 23.24 19.34 24.70 C 22.50 25.86 25.78 23.61 28.98 24.71 C 33.75 26.01 36.94 30.10 39.80 33.86 Z" />
</g>
</svg>
