<?xml version="1.0" encoding="UTF-8" ?>
<!DOCTYPE svg PUBLIC "-//W3C//DTD SVG 1.1//EN" "http://www.w3.org/Graphics/SVG/1.1/DTD/svg11.dtd">
<svg width="225pt" height="225pt" viewBox="0 0 225 225" version="1.1" xmlns="http://www.w3.org/2000/svg">
<g id="#fffefcff">
<path fill="#fffefc" opacity="1.00" d=" M 39.79 48.79 C 50.37 38.29 64.79 30.85 79.96 31.31 C 97.55 30.96 115.26 44.08 118.26 61.75 C 120.66 76.33 113.58 91.23 102.52 100.55 C 90.38 111.19 73.67 116.59 64.55 130.58 C 57.96 140.31 55.15 152.76 58.15 164.25 C 60.42 174.23 65.93 183.65 74.42 189.57 C 78.52 192.82 83.62 194.25 88.40 196.17 C 77.95 196.51 67.35 194.35 57.84 190.00 C 45.43 184.22 36.46 172.56 32.23 159.73 C 28.62 146.68 29.89 132.23 36.30 120.23 C 40.37 112.64 46.11 106.19 51.77 99.77 C 55.94 95.26 59.95 90.46 62.58 84.87 C 64.83 80.13 65.27 74.64 64.10 69.54 C 62.49 63.07 56.81 57.79 50.22 56.71 C 43.08 55.32 35.68 57.83 30.31 62.58 C 32.22 57.24 35.99 52.88 39.79 48.79 Z" />
<path fill="#fffefc" opacity="1.00" d=" M 157.31 60.30 C 157.57 60.33 158.08 60.39 158.34 60.43 C 162.20 64.94 164.43 70.59 165.47 76.39 C 172.48 78.05 178.60 82.25 183.70 87.22 C 190.25 94.16 193.59 103.58 194.25 113.00 C 194.38 115.17 194.36 117.38 193.72 119.47 C 184.47 122.12 173.93 122.75 165.42 117.54 C 155.03 111.28 143.97 105.84 132.02 103.36 C 126.86 101.79 121.44 101.98 116.16 101.26 C 123.20 99.04 129.85 95.76 136.47 92.53 C 141.40 89.65 146.74 87.04 150.47 82.58 C 150.68 74.79 151.78 66.27 157.31 60.30 Z" />
<path fill="#fffefc" opacity="1.00" d=" M 94.11 112.19 C 101.49 108.55 109.92 107.89 118.02 108.60 C 127.54 109.68 137.00 112.01 145.56 116.40 C 152.63 119.86 158.75 125.16 166.38 127.46 C 172.64 129.88 179.47 129.63 185.88 131.31 C 190.29 132.38 193.55 135.77 195.15 139.92 C 194.96 140.45 194.56 141.51 194.36 142.04 C 193.36 141.32 192.35 140.42 191.03 140.45 C 185.54 139.88 179.75 139.99 174.77 142.66 C 168.39 145.92 160.94 148.27 153.83 146.07 C 150.94 145.74 150.09 142.58 148.64 140.56 C 140.99 127.43 128.00 117.34 113.16 113.82 C 106.96 112.04 100.47 112.51 94.11 112.19 Z" />
<path fill="#fffefc" opacity="1.00" d=" M 73.98 131.99 C 81.96 120.84 97.26 118.11 109.99 120.77 C 123.00 124.17 134.84 133.17 140.31 145.63 C 145.09 156.82 145.52 170.03 141.29 181.46 C 146.16 182.32 151.32 182.64 155.72 185.12 C 159.37 186.67 161.75 189.90 163.82 193.12 C 163.41 193.40 162.57 193.95 162.16 194.23 C 142.55 195.38 122.92 196.30 103.28 196.19 C 109.40 193.44 115.73 190.45 120.04 185.10 C 131.39 173.02 130.89 152.29 119.70 140.28 C 112.63 132.28 101.44 128.92 91.02 129.74 C 82.49 130.41 74.64 134.92 68.92 141.14 C 69.20 140.48 69.74 139.16 70.02 138.50 C 69.99 137.46 69.42 136.42 69.66 135.40 C 71.18 134.37 72.98 133.62 73.98 131.99 Z" />
<path fill="#fffefc" opacity="1.00" d=" M 88.41 139.59 C 94.31 138.73 100.64 139.10 105.82 142.34 C 113.17 146.34 118.19 154.54 117.93 162.97 C 118.51 171.80 113.04 180.17 105.54 184.47 C 99.83 187.61 92.69 188.46 86.50 186.28 C 78.66 183.82 72.32 177.04 70.42 169.04 C 68.40 161.45 70.71 152.82 75.99 147.04 C 79.19 143.29 83.82 141.13 88.41 139.59 M 88.12 153.75 C 85.51 156.17 83.00 159.19 83.23 162.99 C 82.58 168.93 88.04 174.54 93.99 174.07 C 98.19 174.34 102.02 171.45 103.86 167.84 C 105.70 163.13 104.46 156.74 99.66 154.31 C 96.27 151.68 91.86 152.47 88.12 153.75 Z" />
</g>
<g id="#fd9b32ff">
</g>
<g id="#fc7e28ff">
</g>
</svg>
