<?xml version="1.0" encoding="UTF-8" ?>
<!DOCTYPE svg PUBLIC "-//W3C//DTD SVG 1.1//EN" "http://www.w3.org/Graphics/SVG/1.1/DTD/svg11.dtd">
<svg width="256pt" height="256pt" viewBox="0 0 256 256" version="1.1" xmlns="http://www.w3.org/2000/svg">
<g id="#113f1671">
<path fill="#113f16" opacity="0.44" d=" M 27.00 10.04 C 94.32 9.99 161.64 9.95 228.95 10.06 L 229.03 11.02 C 161.68 10.99 94.34 10.99 27.00 11.02 L 27.00 10.04 Z" />
<path fill="#113f16" opacity="0.44" d=" M 14.05 19.13 C 12.49 16.61 17.66 12.40 17.77 14.80 C 16.45 16.18 15.21 17.62 14.05 19.13 Z" />
<path fill="#113f16" opacity="0.44" d=" M 238.23 14.80 C 238.34 12.40 243.51 16.61 241.96 19.13 C 240.79 17.62 239.55 16.18 238.23 14.80 Z" />
<path fill="#113f16" opacity="0.44" d=" M 10.07 27.06 L 11.02 26.98 C 10.95 94.66 11.05 162.34 10.97 230.02 L 10.01 229.97 C 10.03 162.34 9.91 94.69 10.07 27.06 Z" />
<path fill="#113f16" opacity="0.44" d=" M 244.98 27.00 L 245.96 27.00 C 246.01 94.64 246.06 162.28 245.94 229.90 L 245.02 230.05 C 244.96 162.36 245.04 94.68 244.98 27.00 Z" />
<path fill="#113f16" opacity="0.44" d=" M 12.27 234.04 C 13.09 234.89 13.60 235.97 13.95 237.09 C 12.20 238.00 10.96 235.14 12.27 234.04 Z" />
<path fill="#113f16" opacity="0.44" d=" M 242.05 237.09 C 242.40 235.97 242.91 234.89 243.73 234.04 C 245.03 235.14 243.80 238.00 242.05 237.09 Z" />
<path fill="#113f16" opacity="0.44" d=" M 14.31 237.92 C 15.65 239.04 16.95 240.23 17.93 241.68 C 15.92 242.78 13.19 239.89 14.31 237.92 Z" />
<path fill="#113f16" opacity="0.44" d=" M 238.07 241.68 C 239.05 240.23 240.35 239.04 241.69 237.92 C 242.81 239.89 240.07 242.78 238.07 241.68 Z" />
<path fill="#113f16" opacity="0.44" d=" M 25.94 245.02 C 93.96 244.99 161.99 244.98 230.02 245.03 L 229.98 245.99 C 162.02 245.96 94.07 246.10 26.12 245.93 L 25.94 245.02 Z" />
</g>
<g id="#30b93aff">
</g>
<g id="#4b4c4bff">
<path fill="#4b4c4b" opacity="1.00" d=" M 105.36 45.36 C 116.84 45.03 136.02 41.84 140.35 56.76 C 154.68 57.16 169.26 57.92 183.11 61.85 C 189.36 63.62 192.25 70.37 192.55 76.37 C 194.95 106.49 198.45 137.02 192.94 167.01 C 189.35 181.25 187.96 201.02 172.02 207.08 C 158.81 207.51 141.89 211.92 131.00 201.98 C 125.74 194.09 125.85 182.89 129.31 174.29 C 133.10 165.12 144.73 166.13 152.82 166.09 C 155.15 169.29 152.78 173.93 152.77 177.76 C 148.40 178.40 138.31 178.47 141.02 185.93 C 144.02 195.67 158.58 190.52 165.71 189.70 C 171.99 181.67 169.88 167.24 163.71 159.28 C 153.99 154.77 140.86 158.38 132.73 150.28 C 128.53 146.92 130.28 140.89 128.25 136.66 C 128.29 144.37 127.00 152.44 123.23 159.23 C 121.04 163.23 116.12 162.03 112.30 161.73 C 102.12 160.52 92.17 158.04 82.22 155.68 C 77.03 154.12 70.14 151.87 69.19 145.73 C 63.81 127.53 59.32 108.35 60.32 89.29 C 63.89 76.47 81.20 82.52 90.73 80.71 C 100.71 75.94 91.54 61.55 96.06 53.07 C 97.01 48.59 101.68 47.08 105.36 45.36 M 160.34 113.27 C 156.52 114.28 155.89 118.63 154.97 121.86 C 160.73 121.95 166.48 122.39 172.04 123.96 C 172.50 117.63 167.78 110.12 160.34 113.27 Z" />
<path fill="#4b4c4b" opacity="1.00" d=" M 89.28 53.33 C 90.74 58.23 89.92 68.72 89.91 75.94 C 80.88 76.19 71.63 75.15 62.89 77.95 C 70.80 68.75 81.36 62.60 89.28 53.33 Z" />
</g>
<g id="#4bd846ff">
</g>
</svg>
