<?xml version="1.0" encoding="UTF-8" ?>
<!DOCTYPE svg PUBLIC "-//W3C//DTD SVG 1.1//EN" "http://www.w3.org/Graphics/SVG/1.1/DTD/svg11.dtd">
<svg width="256pt" height="256pt" viewBox="0 0 256 256" version="1.1" xmlns="http://www.w3.org/2000/svg">
<g id="#e14d43ff">
</g>
<g id="#faf4f4ff">
<path fill="#faf4f4" opacity="1.00" d=" M 28.90 63.97 C 29.55 59.68 33.65 56.31 37.99 56.53 C 59.66 56.47 81.33 56.49 103.00 56.52 C 107.03 56.37 110.82 58.92 112.36 62.62 C 116.40 71.23 120.41 79.86 124.42 88.49 C 120.14 97.57 115.87 106.66 111.72 115.80 C 106.58 105.04 101.61 94.20 96.50 83.42 C 95.45 80.87 92.74 79.41 90.03 79.69 C 80.57 79.74 71.10 79.56 61.64 79.81 C 60.89 82.54 62.67 84.93 63.71 87.31 C 73.45 107.88 83.12 128.48 92.84 149.05 C 94.43 152.26 95.54 155.80 98.05 158.46 C 98.96 157.18 99.84 155.86 100.52 154.43 C 109.69 134.56 119.01 114.76 128.21 94.90 C 133.28 84.06 138.29 73.19 143.40 62.36 C 145.02 58.68 148.93 56.31 152.95 56.50 C 174.28 56.49 195.61 56.50 216.95 56.50 C 221.14 56.11 224.99 58.77 226.51 62.61 C 226.83 64.74 226.92 66.99 225.92 68.96 C 206.76 109.81 187.66 150.70 168.51 191.57 C 166.92 195.08 163.95 198.19 160.04 198.94 C 155.02 200.15 149.62 197.16 147.54 192.53 C 142.05 180.95 136.75 169.29 131.27 157.71 C 135.47 148.62 139.69 139.54 143.96 130.48 C 148.44 139.57 152.19 149.05 157.09 157.92 C 158.85 158.07 159.30 156.21 160.01 154.99 C 171.19 131.19 182.45 107.42 193.64 83.61 C 194.24 82.49 194.90 80.05 192.95 79.88 C 184.65 79.40 176.30 79.86 167.99 79.67 C 165.85 79.81 163.43 79.28 161.56 80.58 C 159.18 82.03 158.48 84.93 157.28 87.26 C 140.86 122.26 124.48 157.27 108.14 192.31 C 105.74 197.94 98.78 200.76 93.14 198.24 C 90.58 196.69 88.40 194.53 87.19 191.76 C 68.68 152.29 50.23 112.80 31.71 73.33 C 30.42 70.36 28.30 67.38 28.90 63.97 Z" />
</g>
<g id="#c63931ff">
</g>
</svg>
