<?xml version="1.0" encoding="UTF-8" ?>
<!DOCTYPE svg PUBLIC "-//W3C//DTD SVG 1.1//EN" "http://www.w3.org/Graphics/SVG/1.1/DTD/svg11.dtd">
<svg width="256pt" height="256pt" viewBox="0 0 256 256" version="1.1" xmlns="http://www.w3.org/2000/svg">
<g id="#ffffffff">
</g>
<g id="#5378e4ff">
<path fill="#5378e4" opacity="1.00" d=" M 80.90 35.84 C 98.82 28.40 119.06 27.37 137.91 31.53 C 165.68 37.68 190.48 55.02 206.76 78.21 C 221.15 98.60 228.89 123.97 226.62 148.96 C 225.06 166.88 218.03 184.40 206.16 197.98 C 192.96 213.32 173.95 223.30 153.95 226.05 C 123.86 230.49 92.66 219.93 69.75 200.32 C 72.69 201.55 75.73 202.75 78.96 202.84 C 83.03 203.35 86.84 200.77 90.90 201.68 C 94.60 202.23 97.73 204.43 101.08 205.94 C 118.66 214.20 138.96 217.37 158.03 213.02 C 173.96 209.56 188.68 200.55 198.75 187.70 C 208.37 175.60 213.65 160.32 214.37 144.94 C 215.53 122.38 207.61 99.82 193.91 82.01 C 178.83 62.21 156.61 47.61 132.03 43.01 C 114.06 39.54 94.74 41.74 78.60 50.63 C 65.53 57.74 54.88 69.15 48.64 82.65 C 41.62 97.56 40.01 114.68 42.79 130.83 C 46.45 152.16 57.58 171.94 73.23 186.79 C 75.60 188.76 76.81 192.31 75.16 195.11 C 73.40 198.61 68.21 199.21 65.49 196.52 C 45.48 178.06 31.96 152.33 29.44 125.11 C 27.63 106.19 31.39 86.56 41.18 70.16 C 50.24 54.82 64.42 42.60 80.90 35.84 Z" />
<path fill="#5378e4" opacity="1.00" d=" M 68.29 105.24 C 71.72 103.02 76.71 105.99 76.50 110.04 C 76.65 114.06 71.71 116.96 68.30 114.78 C 64.64 112.95 64.64 107.08 68.29 105.24 Z" />
<path fill="#5378e4" opacity="1.00" d=" M 86.02 106.51 C 97.41 106.52 108.80 106.48 120.20 106.53 C 119.77 110.52 117.25 114.71 112.98 115.31 C 107.01 115.76 101.00 115.36 95.01 115.49 C 94.99 118.49 94.99 121.50 95.02 124.51 C 103.42 124.50 111.81 124.48 120.21 124.52 C 119.79 128.51 117.28 132.70 113.02 133.32 C 107.04 133.78 101.02 133.39 95.03 133.49 C 94.87 137.37 95.77 141.85 93.07 145.09 C 91.43 147.39 88.63 148.15 86.02 148.70 C 85.97 134.64 86.02 120.58 86.02 106.51 Z" />
<path fill="#5378e4" opacity="1.00" d=" M 128.03 106.51 C 131.01 106.51 134.00 106.51 136.98 106.51 C 137.00 117.51 136.98 128.51 137.03 139.50 C 145.42 139.49 153.82 139.47 162.22 139.51 C 161.85 143.87 158.72 148.38 153.99 148.44 C 145.33 148.64 136.66 148.46 128.00 148.51 C 128.00 134.51 127.99 120.51 128.03 106.51 Z" />
<path fill="#5378e4" opacity="1.00" d=" M 152.34 109.09 C 155.47 106.84 159.88 105.30 163.36 107.76 C 166.87 110.56 169.73 114.08 173.00 117.16 C 176.29 114.08 179.14 110.51 182.71 107.74 C 186.14 105.40 190.63 106.71 193.58 109.22 C 188.23 114.64 182.86 120.04 177.51 125.46 C 177.38 130.63 177.77 135.82 177.34 140.97 C 176.86 145.39 172.70 148.27 168.53 148.72 C 168.40 141.46 168.57 134.20 168.48 126.95 C 168.72 125.41 167.49 124.43 166.57 123.45 C 161.78 118.70 157.04 113.92 152.34 109.09 Z" />
<path fill="#5378e4" opacity="1.00" d=" M 66.51 119.00 C 69.50 119.00 72.50 119.00 75.50 119.01 C 75.43 125.97 75.63 132.94 75.45 139.91 C 75.47 144.75 71.09 148.31 66.52 148.72 C 66.44 138.81 66.52 128.91 66.51 119.00 Z" />
</g>
</svg>
