<?xml version="1.0" encoding="UTF-8" ?>
<!DOCTYPE svg PUBLIC "-//W3C//DTD SVG 1.1//EN" "http://www.w3.org/Graphics/SVG/1.1/DTD/svg11.dtd">
<svg width="72pt" height="72pt" viewBox="0 0 72 72" version="1.1" xmlns="http://www.w3.org/2000/svg">
<g id="#d21b1aff">
</g>
<g id="#fffceaff">
<path fill="#fffcea" opacity="1.00" d=" M 19.08 20.62 C 20.36 21.25 21.63 21.89 22.91 22.53 C 22.42 23.50 21.94 24.48 21.45 25.46 C 26.22 25.41 30.96 24.81 35.72 24.70 C 34.67 25.65 33.72 27.00 32.16 27.07 C 28.13 27.63 24.05 27.61 19.99 27.82 C 19.43 28.53 18.33 29.96 17.77 30.67 C 22.19 29.84 27.23 28.31 31.46 30.59 C 35.11 32.76 32.30 37.44 33.44 40.64 C 34.96 41.72 36.86 42.04 38.59 42.63 C 38.89 40.25 37.79 38.43 35.66 37.44 C 35.76 36.00 35.86 34.56 35.98 33.13 C 37.82 34.44 40.54 35.45 40.85 38.02 C 41.46 40.30 39.96 42.21 38.78 43.97 C 46.79 48.49 57.17 49.55 65.07 44.21 C 61.66 49.38 55.08 52.23 48.98 51.07 C 42.91 50.08 37.35 47.28 31.99 44.38 C 31.76 46.39 31.51 48.41 31.27 50.42 C 27.60 49.68 23.08 49.59 20.67 46.27 C 19.95 44.62 19.86 42.53 20.78 40.93 C 22.65 38.53 25.93 38.69 28.65 38.42 C 28.64 37.87 28.60 36.76 28.58 36.21 C 25.61 36.65 22.33 36.89 20.01 39.03 C 17.09 41.63 16.52 45.72 15.24 49.22 C 13.86 49.64 12.48 50.08 11.10 50.52 C 12.83 45.59 13.44 40.40 14.21 35.27 C 12.24 36.85 10.00 38.10 7.47 38.46 C 10.38 35.24 13.21 31.95 15.49 28.25 C 14.59 28.22 12.80 28.14 11.90 28.11 C 11.52 27.47 10.76 26.21 10.38 25.58 C 12.52 25.63 14.65 25.66 16.79 25.64 C 17.56 23.97 18.32 22.29 19.08 20.62 M 18.38 33.54 C 18.22 34.93 18.04 36.32 17.87 37.71 C 21.08 34.82 25.27 33.73 29.40 32.89 C 25.78 31.24 21.87 32.01 18.38 33.54 M 23.47 42.71 C 22.44 45.51 25.19 46.88 27.12 48.09 C 27.42 46.04 27.68 43.99 27.86 41.93 C 26.39 42.15 24.91 42.33 23.47 42.71 Z" />
<path fill="#fffcea" opacity="1.00" d=" M 46.15 22.28 C 47.43 21.84 48.71 21.39 50.00 20.94 C 50.29 22.68 50.60 24.41 50.93 26.14 C 52.56 24.39 54.07 22.54 55.54 20.66 C 56.75 21.27 57.97 21.89 59.19 22.50 C 58.42 23.44 57.65 24.38 56.88 25.32 C 59.21 25.11 61.54 24.87 63.88 24.79 C 61.23 28.64 55.88 26.75 52.13 28.67 C 54.47 29.40 57.35 29.25 59.16 31.17 C 60.07 35.88 58.42 40.61 57.70 45.25 C 52.45 46.09 47.00 45.88 42.09 43.66 C 42.37 39.36 43.05 35.10 43.67 30.84 C 46.02 30.18 48.36 29.39 50.34 27.90 C 47.83 27.96 45.32 28.11 42.82 28.24 C 42.42 27.55 41.61 26.19 41.21 25.51 C 43.25 25.60 45.28 25.67 47.31 25.72 C 46.92 24.57 46.53 23.43 46.15 22.28 M 47.61 31.55 C 47.27 32.58 46.93 33.61 46.58 34.65 C 49.58 33.60 52.72 33.06 55.84 32.53 C 53.47 30.57 50.40 31.19 47.61 31.55 M 46.68 36.64 C 46.52 37.22 46.21 38.38 46.06 38.96 C 49.33 38.07 52.69 37.53 56.03 36.96 C 53.27 34.75 49.71 35.66 46.68 36.64 M 45.00 42.13 C 48.00 43.42 51.23 43.65 54.36 42.74 C 54.36 42.12 54.37 40.87 54.37 40.25 C 51.12 39.96 47.70 40.06 45.00 42.13 Z" />
<path fill="#fffcea" opacity="1.00" d=" M 36.45 30.29 C 36.81 28.83 37.18 27.37 37.56 25.92 C 39.85 27.98 41.88 30.44 41.66 33.73 C 39.92 32.59 38.19 31.44 36.45 30.29 Z" />
</g>
</svg>
