<?xml version="1.0" encoding="UTF-8"?>
<svg width="395px" height="462px" viewBox="0 0 395 462" version="1.1" xmlns="http://www.w3.org/2000/svg" xmlns:xlink="http://www.w3.org/1999/xlink">
    <!-- Generator: Sketch 51.3 (57544) - http://www.bohemiancoding.com/sketch -->
    <title>/svg/fasthub</title>
    <desc>Created with Sketch.</desc>
    <defs></defs>
    <g id="Page-1" stroke="none" stroke-width="1" fill="none" fill-rule="evenodd">
        <g id="Custom-Preset-Copy-7" transform="translate(-343.000000, -309.000000)" fill="#F5F5F5">
            <path d="M473.236766,320.223356 C473.537158,311.09922 486.089233,305.281242 492.912411,311.743277 C505.056812,323.980354 517.329951,336.088619 529.302699,348.518912 C531.190875,351.22395 534.645377,349.978774 537.091423,348.948283 C561.744984,338.557503 589.166439,333.555329 615.772546,338.020789 C630.706296,340.23205 644.99635,345.405972 658.578339,351.868007 C671.795566,338.664845 684.283271,324.710284 697.908172,311.936494 C704.731351,305.60327 716.961578,311.056283 717.369252,320.201888 C718.098774,325.139656 714.837381,329.154275 711.55453,332.331622 C700.955001,342.958556 690.61295,353.886051 679.584289,364.083615 C682.652574,368.01236 686.772229,370.846209 690.505667,374.087961 C715.996034,397.209595 732.925242,429.605645 736.916158,463.84799 C738.310833,474.560799 737.903159,485.380951 737.967528,496.158166 C737.967528,563.440618 737.988985,630.72307 737.946072,697.984053 C738.675594,708.546582 731.938241,719.237923 721.703473,722.350863 C708.164397,727.739471 692.071994,716.74757 690.977711,702.470981 C690.419841,687.357118 690.999167,672.221787 690.741689,657.107924 C690.634406,648.477565 682.073248,641.092382 673.512089,642.079935 C665.873562,642.423432 658.664165,649.186027 658.621252,657.000581 C658.471056,687.163901 658.707078,717.327221 658.513969,747.490541 C658.792904,762.024753 643.365654,774.240361 629.333078,770.204273 C619.119766,767.71392 611.438326,757.924259 611.438326,747.404667 C611.202304,717.305753 611.567065,687.206838 611.266673,657.129393 C610.537151,646.094555 597.362837,638.795246 587.471373,643.389517 C581.227521,645.858401 576.8933,652.427779 577.043496,659.125968 C576.979126,688.559357 577.150778,717.992746 576.979126,747.404667 C577.086409,758.332162 568.675446,768.336508 558.011547,770.440427 C544.150623,773.789521 529.646004,761.595382 529.903482,747.469073 C529.710374,718.035684 529.946395,688.602294 529.7962,659.190374 C529.603091,650.602952 521.063389,643.239237 512.523687,644.248259 C504.906616,644.677631 497.761589,651.440225 497.697219,659.233311 C497.396828,673.66018 497.997611,688.108518 497.461197,702.513918 C496.45274,716.275262 481.476077,726.85926 468.215937,722.951983 C458.131364,720.440162 450.449923,710.779312 450.514293,700.345594 C450.364097,659.018625 450.47138,617.670188 450.449923,576.321751 C432.662454,582.826723 412.686417,584.436865 394.748752,577.609864 C369.04382,568.936568 349.110696,545.643186 344.390258,518.936303 C342.523539,508.974893 341.386342,497.210125 348.788848,489.095011 C358.036616,477.802551 377.368956,478.468077 385.822832,490.383125 C392.367076,498.47677 388.569269,509.833636 393.761751,518.485463 C400.177256,531.710093 417.428312,538.644437 431.053213,532.762053 C441.588373,528.79037 449.548749,518.549869 450.192445,507.214472 C450.793228,495.685858 449.84914,484.135775 450.621576,472.607161 C452.853056,430.056485 475.167855,388.622173 510.378033,364.44858 C501.366287,354.508639 491.539193,345.298629 482.420165,335.423093 C478.450705,331.064977 472.228309,326.985951 473.236766,320.223356 Z M533.887945,435.650535 C512.251784,438.630711 494.124772,457.721112 492.316376,479.575734 C490.034353,498.730922 500.281928,518.533973 517.095701,527.798433 C527.644674,534.233885 540.303443,534.44984 552.187185,535.767164 C588.053696,539.330417 624.286192,538.574576 660.002004,533.888357 C678.882514,531.72881 695.610173,517.367818 700.820074,499.054854 C706.331375,481.821663 701.143002,461.759466 688.075192,449.320471 C677.547746,438.565924 661.767342,433.361414 646.912665,435.456176 C617.763051,439.343361 588.13981,439.796866 558.882554,436.7735 C550.594075,435.974467 542.219481,434.182042 533.887945,435.650535 Z M532.287941,457.451704 C548.639711,453.825684 560.780634,472.775956 557.446155,487.603789 C556.206413,500.640195 542.547875,513.5471 529.359584,507.438982 C509.096213,498.568183 510.464205,463.214486 532.287941,457.451704 Z M652.060546,457.755731 C662.099112,454.456716 672.221682,462.456287 675.119846,472.094583 C679.99212,485.053456 675.329858,502.950069 661.8891,508.189679 C651.997543,511.661191 642.000979,503.424437 639.039812,494.023324 C633.915524,481.086014 638.514783,462.973779 652.060546,457.755731 Z" id="fasthub"></path>
        </g>
    </g>
</svg>