<?xml version="1.0" encoding="UTF-8"?>
<svg width="693px" height="419px" viewBox="0 0 693 419" version="1.1" xmlns="http://www.w3.org/2000/svg" xmlns:xlink="http://www.w3.org/1999/xlink">
    <!-- Generator: Sketch 51.3 (57544) - http://www.bohemiancoding.com/sketch -->
    <title>/svg/lanota</title>
    <desc>Created with Sketch.</desc>
    <defs></defs>
    <g id="Page-1" stroke="none" stroke-width="1" fill="none" fill-rule="evenodd">
        <g id="Custom-Preset-Copy-3" transform="translate(-194.000000, -331.000000)" fill-rule="nonzero">
            <g id="lanota" transform="translate(194.000000, 331.000000)">
                <g id="#c79e40ff" fill="#C79E40">
                    <path d="M401.62,9.51 C417.7,4.8 434.28,1.63 450.99,0.53 C457.33,0.66 463.74,0.04 470,1.37 C484.67,1.39 499.14,4.46 513.45,7.47 C517.87,8.1 521.28,2.98 525.8,4.86 C532.89,7.16 540.22,8.88 547.02,11.94 C551.2,13.5 550.07,19.15 553.5,21.43 C554.9,22.44 556.45,23.22 557.98,24.02 C592.54,41.92 622.72,68.65 643.25,101.84 C654.38,120.14 662.81,140.07 668.29,160.78 C669.11,163.96 669.68,167.21 670.8,170.31 C672.54,174.32 678.24,175 679.09,179.63 C679.9,186.41 680.64,193.23 681.49,200.02 C682.58,205.42 676.41,208.19 675.59,213.05 C675.19,220.06 676.12,227.17 674.63,234.09 C674.85,240.86 672.01,247.27 672.37,254.05 C672.48,255.55 672.05,257.39 673.33,258.53 C677.2,263.34 683.22,265.39 687.98,269.09 C690.98,271.55 693.35,275.5 692.25,279.5 C690.07,287.26 685.47,293.99 681.9,301.14 C676.58,311.06 670.29,321.4 659.97,326.76 C654.99,329.58 649.21,330.44 644.1,332.93 C637.83,336.85 637.31,345.22 632.04,350.05 C626.17,355.58 621.93,362.54 616,368 C611.49,372.49 608.01,377.94 603.16,382.12 C595.44,389.7 585.77,394.73 576.88,400.75 C570.95,404.9 563.57,405.76 557.17,408.95 C549.77,412.45 541.46,412.74 533.43,412.5 C533.54,410.48 533.73,408.44 533.36,406.44 C531.95,406.35 530.56,406.43 529.19,406.68 C513.76,411.73 497.77,414.96 481.73,417.33 C476.78,417.2 471.98,418.63 467.05,418.49 C459.35,418.5 451.66,418.53 443.97,418.47 C428.67,417.26 413.36,414.8 398.75,409.91 C391.2,407.47 384.27,403.48 376.76,400.95 C371.93,399.17 366.87,398.18 361.97,396.66 C357.23,395.23 353.76,391.47 350.26,388.18 C347.15,388.43 344.24,389.9 341.07,389.61 C337.3,389.83 334,387.75 330.72,386.22 C324.34,382.74 317.88,379.29 312.17,374.76 C305.44,369.18 297.96,364.48 292,358 C286.87,352.48 280.62,347.89 276.69,341.35 C274.02,337.12 270.33,333.7 267.07,329.96 C264.11,326.67 264.79,321.84 262.51,318.2 C259.73,318.44 256.57,318.23 254.57,320.57 C249.22,326.33 248.33,335.02 242.44,340.4 C234.91,346.77 225.73,350.78 218.08,357.01 C208.58,364.78 198.41,372.14 191.28,382.31 C188.34,386.15 186.43,390.66 183.45,394.46 C182.01,396.43 179.52,396.6 177.31,396.83 C174.83,392.77 175.41,387.92 175.67,383.39 C176.79,375.7 182.09,369.72 184.93,362.7 C187.4,356.5 192.6,351.75 198.18,348.32 C209.13,342.77 222.87,344.63 232.87,336.88 C229.97,334.72 226.31,335.73 222.98,335.51 C219.54,335.94 216.21,332.29 216.48,328.94 C216.08,325.37 218.18,322.09 220.65,319.72 C226.73,314.78 234.5,312.5 240.64,307.64 C242.11,306.83 241.74,304.98 241.37,303.66 C237.05,301.18 232.18,299.91 227.57,298.13 C202.09,288.33 176.3,279.27 150.08,271.66 C141.77,269.7 133.46,266.41 124.78,267.53 C121.86,268.77 119.68,271.22 117.22,273.15 C103.69,285.3 86.65,293.76 68.62,296.41 C63.44,296.45 57.75,294.78 54.08,290.97 C50.82,287.72 51.19,282.81 51.8,278.63 C53.69,273.69 57.64,269.98 61.5,266.54 C68.8,260.38 78.17,257.44 87.4,255.66 C95.25,255.16 103.13,255.68 110.99,255.41 C113.9,253.98 116.01,251.37 117.88,248.79 C124.59,238.93 129.29,227.91 134.43,217.19 C137.61,210.45 140.1,203.43 142.69,196.46 C143.58,194.3 143.89,191.9 143.37,189.61 C141.44,188.98 139.43,189.61 137.67,190.44 C115.3,200.91 91.65,208.92 67.25,212.97 C63.67,213.8 59.93,213.18 56.35,214.01 C49.11,215.29 41.8,213.92 34.59,213.09 C25.24,211.33 15.95,207.68 9.05,200.94 C1.51,193.01 -0.94,181.34 1.01,170.78 C4.87,151.84 15.55,134.7 29.47,121.47 C41.19,109.15 55.44,99.51 70.35,91.49 C80.04,86.17 90.34,81.63 101.25,79.58 C106.46,79.78 112.77,77.94 116.89,82.11 C119.96,84.5 118.28,88.98 116.31,91.56 C112.5,92.06 109.27,90.03 105.93,88.58 C102.73,88.3 99.45,88.24 96.27,88.8 C82.83,92.38 70.7,99.48 59.24,107.17 C46.84,115.53 35.49,125.57 26.42,137.49 C20.67,145.19 16.1,153.84 13.7,163.17 C13.18,168.41 13.35,173.71 13.55,178.96 C15.34,187.5 20.71,195.45 28.54,199.55 C38.04,204.59 49.15,206.41 59.8,205.19 C89.23,202.13 117.58,191.7 143.47,177.59 C146.63,175.87 150.04,174.05 151.86,170.79 C153.84,167.09 154.9,163.01 156.48,159.15 C164.28,139.92 174.69,121.28 190,107 C199.86,97.66 211.43,89.33 224.82,86.05 C231.69,84.52 239.35,85.62 244.92,90.14 C251.18,96.04 252.19,106.06 248.33,113.56 C242.47,126.33 230.18,134.14 219.11,141.96 C214.28,145.53 208.39,148.1 205.12,153.39 C203.52,153.38 201.77,153.22 200.42,154.28 C195.69,157.25 191.09,160.42 186.25,163.2 C182.03,165.51 177.92,168.57 176.2,173.26 C166.17,197.86 157.56,223.41 142.78,245.71 C140.34,249.8 135.78,253.2 136.3,258.44 C140.6,260.3 145.22,261.15 149.77,262.13 C180.16,269.09 209.69,279.14 239.42,288.39 C244.94,289.92 250.49,291.55 255.41,294.56 C258.04,296.34 261.52,295.69 264,293.97 C278,285.52 292.82,277.86 309.03,274.76 C315.53,272.85 322.33,273.57 329,273.55 C336.36,273.6 343.71,273.37 351.06,273.52 C390.3,277.89 428.78,287.22 467.6,294.24 C490.26,298.33 513.04,302.2 536,303.79 C541.91,305.25 548.09,303.77 554.01,305.17 C558.23,305.88 562.58,304.96 566.77,305.97 C571.65,307.11 576.71,306.49 581.5,305.27 C585.67,304.07 590.03,304.79 594.28,304.34 C597.24,302.65 599.02,299.65 600.94,296.95 C604.24,292 609.39,288.73 612.95,283.99 C617.57,277.88 619.96,270.45 622.08,263.19 C627.53,243.83 629.4,223.62 628.38,203.57 C626.36,200.68 623.15,199.01 620.28,197.12 C622.45,195 624.72,192.92 626.37,190.35 C626.7,187.55 626.63,184.67 625.97,181.93 C623.3,170.29 619.97,158.72 615.02,147.83 C613.54,143.85 608.08,143.13 607.08,139.01 C607.35,137.27 604.62,136.48 604.64,138.57 C602.36,131.19 597.58,124.98 593.32,118.65 C578.37,97.97 558.4,81 535.75,69.28 C531.65,67.2 527.6,64.78 523.04,63.88 C520.99,64.14 518.95,64.44 516.92,64.68 C514.99,61.79 512.44,59.19 509.08,58.04 C501.39,55.37 493.3,54.09 485.3,52.7 C481.88,52.43 478.42,52.51 475.05,51.73 C452.54,50.61 429.64,51.96 408.15,59.26 C403.67,60.72 399.45,62.87 394.95,64.29 C391.21,64.83 387.14,63.72 383.74,65.82 C372.61,71.53 362.15,78.55 352.57,86.59 C350.14,88.79 347.62,90.96 345.68,93.62 C345.29,96.54 345.45,99.5 345.39,102.44 C343.03,102.45 340.66,102.31 338.32,102.6 C333.38,104.56 330.32,109.1 327.18,113.13 C322.46,118.91 318.98,125.55 314.82,131.72 C310.86,137.71 309.58,145.57 303.8,150.23 C299.92,150.77 295.77,151.31 292.39,148.88 C288.03,154.91 286.36,162.35 284.22,169.36 C282.54,174.65 283.21,181.59 278.05,185.05 C275.68,187.08 270.71,187.55 269.63,183.94 C268.74,177.42 270.51,170.98 272.3,164.78 C273.22,164.95 274.13,165.13 275.05,165.32 C274.34,163.7 273.63,162.07 272.82,160.5 C274.75,157.86 274.69,154.58 274.57,151.46 C273.22,151.48 271.88,151.48 270.53,151.48 C266.4,160.39 263.6,169.94 261.77,179.58 C261.45,183.91 260.22,188.1 258.28,191.97 C253.81,191.57 249.81,188.31 248.58,184 C247.76,178.64 250.13,173.62 251.36,168.54 C259.26,138.54 271.74,109.42 290.61,84.63 C292.48,82.27 294.16,79.76 295.7,77.17 C294.92,74.6 293.47,72.11 293.53,69.37 C298.91,63.47 304.84,58.08 310.58,52.54 C313.01,49.79 316.73,50.32 320,50.52 C324.51,51.19 327.33,46.88 330.77,44.74 C352.16,29.13 376.09,16.74 401.62,9.51 Z M393.63,17.7 C376.55,23.36 360.86,32.36 345.47,41.53 C339.19,45.56 332.52,49.38 327.74,55.26 C336.34,49.89 343.92,42.14 354.15,39.97 C345.72,48.55 333.39,53.09 326.83,63.51 C332.21,60.11 336.72,55.55 341.99,51.99 C347.96,47.94 353.88,43.23 361.11,41.75 C352.12,50.82 339.46,56.22 332.47,67.23 C338.94,63.67 344.64,58.88 350.89,54.94 C357.3,50.92 363.72,46.32 371.31,44.88 C367.69,48.53 363.15,51.03 359,54.02 C351.98,58.97 344.86,63.8 338.08,69.1 C335.64,70.91 334.1,73.58 332.94,76.32 C340.16,71.93 346.54,66.31 353.49,61.52 C362.94,54.42 373.62,49.29 383.93,43.6 C383.01,40.34 381.83,37.17 380.6,34.02 C397.42,27.11 414.88,21.34 432.95,18.81 C450.21,16.54 467.7,17.22 484.98,18.85 C491.71,19.61 498.46,20.34 505.04,21.97 C508.1,22.73 511.18,23.43 514.34,23.66 C507.01,19.66 498.24,20.1 490.74,16.63 C499.6,15.23 508.03,18.81 516.63,20.16 C515.28,19.21 513.91,18.26 512.34,17.71 C501.42,14.04 489.81,13.65 478.51,11.89 C479.62,11.26 480.76,10.5 482.09,10.44 C493.88,9.47 505.28,13.17 516.61,15.78 C513,12.38 507.96,11.57 503.28,10.68 C494.47,9.1 485.66,7.39 476.74,6.58 C448.64,3.44 420.14,8.3 393.63,17.7 Z M523.02,9.15 C521.9,22.83 520.82,36.54 520.32,50.25 C523.45,42.45 525.49,34.26 528.57,26.43 C529.65,24.08 529.51,21.49 529.21,19 C530.49,18.34 531.78,17.69 533.08,17.04 C533.59,18.29 534.16,19.53 534.56,20.83 C533.08,22.99 531.02,24.84 530.48,27.52 C528.52,34.92 525.51,42.02 523.91,49.52 C525.56,47.6 527.03,45.53 528.41,43.41 C534.2,34.51 540.38,25.85 545.62,16.61 C538.2,13.81 530.62,11.43 523.02,9.15 Z M426.12,23.03 C411.64,25.4 397.83,30.56 384.24,35.94 C387.41,43.67 390.25,51.54 393.77,59.12 C392.79,55.55 391.48,52.06 391.07,48.36 C393.8,51.06 395.18,54.68 396.97,58 C395.23,52.33 392.81,46.91 390.88,41.31 C390.38,41.8 389.39,42.78 388.9,43.27 C387.85,41.02 386.9,38.73 386.03,36.4 C393.17,33.79 400.19,30.36 407.86,29.61 C402.01,34.12 393.66,34.03 388.41,39.38 C391.44,38.04 394.4,36.51 397.54,35.42 C424.89,25.88 454.33,23.76 483.06,25.96 C494.62,26.8 505.81,29.94 517.17,31.92 C511.32,29.37 504.57,29.26 499.13,25.7 C504.99,25.52 510.56,27.65 516.29,28.55 C509.59,25.44 502.23,24.2 495,23.05 C472.21,19.69 448.89,19.37 426.12,23.03 Z M548.95,26.89 C556.2,31.35 564.57,34.48 570.25,41.08 C562.13,38.36 555.44,32.22 546.81,30.87 C551.81,34.06 557.19,36.63 562.15,39.89 C566.79,42.98 571.99,45.65 575.22,50.37 C564.01,46.35 555.74,36.37 543.87,33.77 C557.84,42.49 572.66,50.03 585.48,60.51 C593.45,67.16 601.4,73.93 608.04,81.96 C620.26,95.43 630.84,110.46 638.59,126.94 C635.49,128.54 632.39,130.16 629.34,131.85 C634.38,143.29 639.83,154.61 643.39,166.63 C645.06,172.14 646.33,178.24 650.89,182.2 C649.43,168.2 642.78,155.41 640.55,141.6 C642.42,143.48 643.95,145.7 644.85,148.21 C648.12,156.73 650.19,165.64 652.79,174.37 C653.4,176.63 654.48,178.73 655.86,180.62 C654.93,169.56 651.73,158.76 647.36,148.58 C645.42,143.74 643,138.95 642.64,133.66 C648.28,141 651.51,149.89 654.49,158.58 C656.9,165.65 657.73,173.11 659.78,180.27 C660.41,164.91 653.15,150.84 649.33,136.33 C658.32,146.98 659.5,161.53 663.76,174.3 C664.41,165.67 661.54,157.35 658.63,149.37 C648.26,119.1 631.22,91.04 608.94,68.06 C597.01,56.09 583.46,45.82 569.23,36.75 C562.72,33.01 556.47,28.35 548.95,26.89 Z M393.51,39.96 C395.42,45.73 397.36,51.51 399.94,57.03 C401.22,56.67 402.51,56.32 403.8,55.96 C402.73,51.77 401.25,47.7 399.28,43.85 C398.38,42.5 399.58,41.04 399.85,39.69 C400.74,40.26 401.59,40.88 402.41,41.55 C403.62,46.14 404.74,50.79 406.87,55.07 C407.48,54.58 408.7,53.58 409.31,53.08 C408.98,50.75 408.33,48.49 407.78,46.21 C408.3,45.95 409.36,45.41 409.88,45.15 C411.17,48.01 410.96,52.96 415.21,52.65 C414.73,49.69 414.19,46.74 413.97,43.76 C416.69,45.33 416.98,48.68 417.99,51.36 C418.73,51.2 420.21,50.89 420.96,50.74 C420.66,48.01 420.31,45.3 420.08,42.56 C423.36,43.09 422.92,47.4 424.04,49.84 C425.03,49.6 426.03,49.38 427.04,49.17 C426.57,46.53 426.12,43.88 425.89,41.2 C428.67,42.59 428.72,46.01 429.62,48.6 C430.71,48.6 431.8,48.62 432.9,48.64 C432.58,43.88 431.55,39.14 429.42,34.85 C429.97,33.97 430.51,33.09 431.05,32.21 C431.83,32.71 432.62,33.21 433.42,33.69 C433.56,38.46 434.63,43.13 435.56,47.8 C436.88,47.64 438.2,47.48 439.53,47.33 C439.1,44.64 438.67,41.94 438.36,39.23 C438.85,39.32 439.84,39.52 440.34,39.62 C440.85,42.06 441.39,44.5 441.92,46.94 C442.72,46.89 444.33,46.79 445.14,46.74 C445.23,43.92 443.16,40.03 446.02,38.06 C446.83,40.87 447.47,43.72 448.21,46.56 C449.35,46.56 450.5,46.58 451.65,46.61 C451.53,43.74 451.4,40.86 451.33,37.98 C451.85,38.12 452.9,38.38 453.43,38.52 C453.7,41.07 453.98,43.61 454.29,46.16 C455.44,46.23 456.6,46.28 457.77,46.33 C457.76,43.45 457.73,40.56 457.84,37.68 C461.22,38.77 459.72,43.29 460.37,46 C461.1,46.09 462.56,46.25 463.29,46.33 C463.34,43.63 463.37,40.93 463.41,38.23 C463.94,38.25 465,38.29 465.52,38.31 C465.63,40.97 465.72,43.64 465.81,46.31 C466.42,46.31 467.64,46.3 468.25,46.3 C468.21,42.22 467.6,38.17 467.33,34.11 C467.79,33.3 468.3,32.52 468.85,31.76 C469.65,32.51 470.46,33.25 471.28,34 C470.06,38.03 470.47,42.27 470.56,46.41 C471.51,46.5 472.46,46.59 473.41,46.7 C473.54,43.7 473.05,40.41 474.92,37.81 C475.65,40.73 475.78,43.76 476.02,46.76 C476.83,46.91 478.45,47.21 479.26,47.36 C480.05,44.39 478.43,39.35 482.26,38.38 C482.31,41.29 482.22,44.2 482.1,47.1 C483.07,47.36 484.04,47.64 485.01,47.92 C485.53,44.9 486.04,41.87 486.89,38.93 C489.8,41 487.81,44.99 488.06,47.94 C489.18,48.24 490.3,48.55 491.43,48.85 C491.84,46.41 492.24,43.96 492.61,41.51 C493.14,41.39 494.21,41.14 494.74,41.02 C494.6,43.68 494.41,46.34 494.17,49 C495.1,49.25 496.02,49.52 496.95,49.8 C497.56,45.34 498.32,40.88 498.39,36.37 C499.31,35.95 500.23,35.53 501.16,35.1 C501.48,36.36 502.27,37.65 501.78,38.98 C500.81,42.57 500.14,46.22 499.63,49.9 C500.26,50.24 501.51,50.92 502.14,51.27 C502.75,48.23 503.35,45.19 504.06,42.18 C504.46,42.44 505.26,42.97 505.66,43.24 C505.8,46.08 505.22,48.9 505.01,51.73 C505.86,51.99 507.57,52.51 508.42,52.77 C509.6,49.76 508.88,45.17 512.33,43.66 C512.11,47 511.57,50.3 511.27,53.62 C513.13,54.1 514.98,54.59 516.85,55.07 C517.52,48.98 517.77,42.86 518.49,36.78 C500.23,29.72 480.42,27.97 461,27.73 C438.09,28.24 414.84,31.19 393.51,39.96 Z M536.83,39.14 C544.37,43.75 552.6,47.13 560.01,51.98 C570.56,58.51 580.59,65.93 589.74,74.32 C592.08,76.73 595.86,76.36 598.29,78.64 C602.2,82.17 606.85,85.45 608.67,90.64 C603.48,87.46 600.08,82.18 595.09,78.74 C597.13,81.4 599.49,83.8 601.74,86.3 C612.14,97.45 620.86,110.07 628.33,123.35 C622.35,127.16 615.89,130.12 609.74,133.62 C611.26,133.46 612.78,133.28 614.31,133.12 C613.25,134.47 612.15,135.79 611.09,137.14 C615.85,134.89 620.61,132.66 625.24,130.16 C622.9,130.5 620.57,130.96 618.23,131.27 C621.84,128.51 626.06,126.72 629.73,124.04 C626.32,117.05 621.89,110.62 618.4,103.68 C620.04,104.69 621.64,105.78 623.27,106.83 C619.36,101.39 615.34,96.03 611.25,90.73 C600.36,77.01 587.33,65.04 572.98,55.03 C565.25,49.64 556.78,45.49 548.59,40.88 C548.63,41.58 548.71,42.96 548.74,43.65 C544.81,42.05 540.92,40.29 536.83,39.14 Z M532.42,41.95 C529.15,47.1 525.68,52.11 522.52,57.31 C523.84,57.87 525.18,58.42 526.52,58.96 C527.68,56.27 528.85,53.59 530.05,50.92 C530.56,51.2 531.57,51.77 532.08,52.05 C531.04,54.88 530.01,57.71 529.13,60.6 C530.31,60.69 531.5,60.77 532.69,60.86 C534.51,56.88 536.24,52.85 537.44,48.62 C538.1,48.5 539.41,48.24 540.06,48.12 C540.29,49.04 540.53,49.97 540.8,50.89 C538.06,54.48 536.33,58.68 534.94,62.93 C535.81,63.19 536.69,63.48 537.56,63.77 C539.13,61.2 539.66,57.19 543.07,56.44 C542.2,59.78 540.83,62.97 540.05,66.33 C544.66,66.43 544.36,60.23 548.26,58.83 C547.71,62.09 546.29,65.08 544.86,68.02 C545.35,68.27 546.34,68.78 546.83,69.03 C548.59,66.37 549.66,62.74 553.01,61.65 C552.14,64.91 550.62,67.93 549.2,70.97 C550.09,71.28 550.98,71.6 551.88,71.93 C553.74,69.42 554.38,64.92 558.05,64.59 C557.13,68.22 553.55,71.41 554.81,75.35 C557.32,72.57 558.48,68.51 561.99,66.74 C561.41,70.65 557.6,73.8 558.71,77.9 C562.21,74.52 563.97,69.94 566.27,65.76 C567.95,64.83 569.57,65.97 569.43,67.86 C566.65,71.82 563.27,75.56 562,80.36 C565.46,78.67 566.91,74.74 570.22,72.84 C569.25,76.49 566.74,79.48 565.81,83.14 C569.42,82.26 570.98,78.57 573.4,76.13 C575.46,79.31 571.21,82.12 569.96,84.93 C570.22,85.47 570.75,86.55 571.01,87.09 C572.78,85.17 574.42,83.13 576.27,81.28 C577,80.24 578.18,80.23 579.25,80.74 C577.31,83.79 574.54,86.46 573.79,90.13 C577.54,88.92 579.17,84.6 583.11,83.79 C582.19,87.1 579.79,89.63 577.62,92.17 C578,92.67 578.78,93.67 579.16,94.17 C581.6,91.98 583.87,89.63 586.21,87.35 C586.44,87.78 586.91,88.66 587.15,89.1 C585.69,91.65 583.54,93.71 581.7,95.98 C582.03,96.51 582.7,97.57 583.03,98.11 C586.46,94.97 589.28,91.27 592.18,87.68 C594.37,86.54 594.65,88.92 595.02,90.48 C591.11,93.03 588.12,96.65 584.97,100.02 C585.46,100.38 586.43,101.1 586.92,101.47 C589.47,99.23 591.66,96.16 595.23,95.56 C593.96,98.91 591.16,101.24 588.76,103.76 C589.18,104.36 590.02,105.56 590.44,106.16 C593.08,104.26 595.55,102.13 597.99,99.97 C598.23,100.51 598.71,101.57 598.94,102.1 C596.69,104.41 594.45,106.73 592.22,109.06 C593.08,109.34 593.94,109.63 594.8,109.93 C597.33,108.38 599.67,103.94 602.98,105.82 C600.77,108.32 598.35,110.62 595.99,112.96 C596.62,113.63 597.25,114.31 597.88,115 C600.25,112.92 602.66,110.88 605.09,108.86 C605.35,109.4 605.85,110.48 606.11,111.02 C603.84,113.11 601.58,115.19 599.31,117.25 C599.94,118.23 600.57,119.22 601.22,120.2 C603.89,118.54 606.25,116.38 609.07,114.97 C609.54,115.16 610.48,115.54 610.95,115.73 C608.32,118.16 605.56,120.46 602.91,122.87 C603.6,123.74 604.29,124.62 604.98,125.5 C609.43,122.93 613.99,120.47 617.89,117.09 C618.55,117.29 619.86,117.7 620.52,117.9 C620.32,118.58 619.92,119.93 619.72,120.6 C614.98,122.52 610.7,125.33 606.38,128.03 C606.77,128.63 607.54,129.81 607.92,130.41 C613.41,127.86 618.84,125.15 623.99,121.95 C608.62,95.69 587.22,72.81 561.39,56.63 C552.14,51.01 542.66,45.54 532.42,41.95 Z M349.45,77.44 C345.7,80.49 341.67,83.34 338.83,87.33 C342.3,85.18 345.34,82.36 349.06,80.61 C348.19,82.19 347.25,83.73 346.33,85.28 C354.47,78.63 362.66,71.93 371.93,66.89 C376.65,64.13 381.91,62.29 386.29,58.94 C379.95,60.38 374.73,64.5 368.62,66.51 C373.42,59.78 382.3,58.7 388.4,53.62 C374.11,59.13 361.45,68.07 349.45,77.44 Z M298.74,71.04 C306.12,75.76 313.64,80.26 320.98,85.05 C325.04,87.63 328.98,90.47 333.36,92.51 C328.74,85.94 322.34,80.92 317.28,74.72 C315.56,72.42 313.09,70.96 310.43,70 C310.55,68.68 310.67,67.37 310.8,66.05 C312.26,66.14 313.72,66.22 315.18,66.3 C315.69,69.19 317.35,71.59 319.52,73.5 C324.97,78.63 329.45,84.75 335.35,89.41 C329.46,77.55 322.43,66.28 315.64,54.91 C309.77,60.03 304.07,65.37 298.74,71.04 Z M287.3,99.29 C281.1,107.81 276.04,117.1 271.75,126.71 C264.02,143.22 258.37,160.65 254.41,178.43 C254.06,180.21 253.59,182.63 255.8,183.41 C257.41,176.8 258.29,170.02 260.45,163.55 C262.74,156.59 265.01,149.62 267.74,142.82 C270.54,136.38 273.04,129.42 278.25,124.49 C277.43,131.58 272.88,137.37 270.57,143.98 C273.66,145.25 276.79,146.46 279.95,147.56 C281.46,144.51 281.83,140.28 285.29,138.72 C284.21,144.37 281.62,149.57 280.16,155.12 C277.86,163.51 274.86,171.82 274.21,180.55 C275.35,179.66 277.05,179.1 277.38,177.51 C278.86,171.83 279.43,165.93 281.33,160.35 C287.41,141.52 295.88,123.4 307,107 C310.08,102.15 314.14,97.65 315.19,91.82 C308.98,96.89 305.59,104.69 298.82,109.17 C301.68,101.28 308.06,95.52 312.18,88.37 C310.15,89.14 307.99,89.85 306.47,91.47 C301.21,96.81 297.6,103.68 291.56,108.25 C293.85,100.19 300.55,94.73 304.92,87.89 C297.39,91.22 293.99,99.18 287.85,104.16 C289.98,97.05 295.77,92.07 299.46,85.85 C294.08,88.95 290.91,94.46 287.3,99.29 Z M343.49,86.32 C342.39,86.83 341.31,87.79 341.17,89.06 C342.23,91.36 346.64,85.85 343.49,86.32 Z M229.47,96.63 C222.18,99.76 216.99,105.99 211.6,111.55 C203.16,121.64 195.44,132.37 188.91,143.79 C187.48,145.91 187.39,148.46 187.38,150.93 C192.88,149.56 197.33,145.89 202.04,142.95 C210.36,137.32 218.82,131.88 226.79,125.75 C232.81,120.72 238.88,114.99 241.21,107.23 C241.77,103.99 242.09,100.08 239.16,97.84 C236.9,94.72 232.55,94.99 229.47,96.63 Z M313.11,117.13 C308.56,124.52 303.28,131.72 300.86,140.16 C305.33,133.28 307.87,125.19 313.6,119.14 C313.87,119.86 314.41,121.28 314.68,121.99 C318.02,117.29 321.52,112.69 325.3,108.33 C328.15,104.95 331.39,101.8 333.29,97.74 C329.84,100.38 327.43,104.2 323.54,106.28 C324.99,102.88 327.36,100.02 329.25,96.87 C322.59,102.48 317.91,109.96 313.11,117.13 Z M633.39,123.56 C632.09,123.74 630.84,125.57 631.57,126.78 C633.31,127.79 635.58,124.28 633.39,123.56 Z M624.47,146.96 C624.42,148.57 624.39,150.18 624.37,151.79 C623.83,151.79 622.75,151.77 622.22,151.76 C625.54,159.83 627.74,168.28 630.1,176.66 C631.03,176.36 631.97,176.07 632.93,175.8 C631.53,165.83 627.66,156.44 624.47,146.96 Z M657.37,185.37 C649.84,188.14 642.18,190.57 634.85,193.83 C642.95,193.62 651.01,192.6 659.08,191.79 C661.66,191.71 663.87,190.34 665.95,188.93 C667.03,189.71 668.11,190.48 669.21,191.24 C668.46,192.48 667.69,193.71 666.94,194.95 C664.59,194.18 662.18,193.23 659.68,193.81 C651.43,195.21 643.07,195.61 634.81,196.82 C648.57,198.9 662.43,200.31 676.22,202.21 C675.66,194.71 674.84,187.23 673.84,179.77 C668.19,181.16 662.87,183.55 657.37,185.37 Z M656.73,204.37 C655.69,214.71 656.23,225.15 654.81,235.47 C653.64,243.84 653.25,252.69 649.3,260.34 C648.41,253.87 649.77,247.4 650.38,240.97 C651.38,229.13 653.3,217.18 651.85,205.3 C648.62,209.09 648.94,214.28 648.58,218.93 C647.66,234.43 647.31,250.23 642.46,265.13 C638.82,277.98 633.69,291.29 623.18,300.11 C635.54,294.98 648.44,291.07 661.73,289.42 C659.98,288 658.06,289 656.31,289.81 C664.47,267.76 668.51,244.37 669.75,220.95 C669.92,218.18 669.42,215.4 668.02,213 C667.42,225.35 667.36,237.98 663.69,249.91 C663.04,248.03 662.54,246.06 662.76,244.06 C663.37,235.38 664.79,226.74 664.61,218.02 C664.51,214.45 664.54,210.74 663,207.44 C662.27,213.22 662.83,219.06 662.44,224.86 C662.22,232.67 660.4,240.3 659.06,247.97 C658.74,249.9 658.04,251.73 657.16,253.47 C656.16,247.28 657.3,241.06 657.79,234.88 C658.88,224.73 659.2,214.48 658.29,204.3 C657.9,204.32 657.12,204.35 656.73,204.37 Z M634.31,213.75 C634.21,228.94 632.74,244.2 628.96,258.93 C625.28,273.08 619.18,287.17 608.41,297.37 C606.67,298.81 605.76,300.86 605.18,303 C608.49,302.6 613.05,303.6 614.96,300.05 C629.95,278.03 635.36,251.06 637.55,224.94 C638.4,220.8 636.21,217.21 634.31,213.75 Z M64.38,277.35 C62.78,279.18 60.05,282.13 62.27,284.48 C64.06,287 67.29,286.69 69.99,286.31 C80.81,283.84 91.01,278.67 99.47,271.5 C101.58,270.09 101.72,267.62 101.77,265.32 C98.93,264.34 95.91,264.4 92.96,264.52 C82.43,265.57 71.5,269.08 64.38,277.35 Z M673.55,268.1 C672.14,274.27 670.34,280.35 669.24,286.59 C670.37,285.63 671.95,284.92 672.27,283.33 C673.71,278.72 674.75,274.01 675.94,269.34 C675.13,268.93 674.33,268.52 673.55,268.1 Z M679.21,271.03 C677.73,275.28 676.39,279.61 675.89,284.1 C679.87,281.57 680.01,276.51 681.06,272.39 C680.6,272.05 679.67,271.37 679.21,271.03 Z M299.92,282.75 C313.2,281.67 326.58,280.27 339.87,282.03 C345.04,282.84 350.5,283.13 355.11,285.87 C351.58,289.34 346.82,287.01 342.69,286.4 C324.77,283.17 306.46,285.28 288.62,288.04 C283.68,288.77 279.43,291.56 275.1,293.87 C294.71,289.53 315,287.84 335,290.11 C339.45,290.63 343.96,291.2 348.17,292.84 C345.92,294.36 343.3,295.58 340.54,294.77 C317.11,290.23 292.85,292.29 269.78,297.86 C265.48,298.98 261.72,301.51 258.33,304.3 C268.11,302.5 277.59,299.23 287.51,298.11 C301.98,296.53 316.62,296.93 331.08,298.41 C334.88,298.78 338.83,298.9 342.28,300.72 C339.61,302.79 336.28,303.03 333.08,302.38 C319.87,300.55 306.49,299.91 293.16,300.64 C278.5,301.56 264.48,306.19 250.31,309.7 C246.08,310.7 242.32,313.1 239.08,315.94 C249.73,314.4 260.1,311.26 270.76,309.71 C280.56,307.96 290.57,307.78 300.35,305.84 C303.34,305.48 306.46,304.2 309.41,305.4 C312.51,306.43 315.58,307.78 318.9,307.84 C324.07,308.26 329.44,306.19 334.43,308.36 C346.54,312.98 359.54,314.07 372.16,316.62 C395.53,320.61 418.48,326.63 441.55,332.01 C461.72,336.83 482.39,338.99 503.04,340.25 C528.62,341.7 554.4,343.05 579.9,339.82 C592.21,338.27 604.72,336.8 616.33,332.17 C622.71,329.5 629.82,330.3 636.38,328.32 C646.91,325.19 659.3,323.44 666.2,313.86 C659.46,316.14 652.95,319.07 646.13,321.14 C619.41,329.6 591.32,333.42 563.38,334.1 C563.96,331.45 566.77,331.19 568.99,331.01 C602.46,329.39 636.41,324.27 667.02,310.01 C669.88,308.82 671.83,306.34 673.84,304.09 C640.81,319.33 604.18,325.45 568.01,326.1 C568.17,325.47 568.49,324.22 568.65,323.59 C604.66,322.25 641.2,316.58 673.95,300.88 C676.62,299.6 677.7,296.65 679.17,294.28 C647.17,309.72 611.74,316.92 576.42,318.85 C574.78,319.18 573.52,318.21 572.49,317.07 C576.82,315.5 581.48,315.78 585.99,315.33 C617.89,312.76 649.73,305.59 678.54,291.39 C681.98,290.1 682.71,286.19 684.05,283.21 C673.19,289.03 661.14,292.01 649.88,296.89 C631.32,304.82 611.2,308.32 591.16,309.7 C586.24,310.1 581.21,310.01 576.47,311.57 C571.69,313.52 566.93,310.38 562.06,310.55 C522.37,310.1 483.14,303.18 444.27,295.68 C424.07,291.7 403.81,288.06 383.57,284.27 C371.14,281.81 358.67,279.29 345.98,278.65 C339.33,278.57 332.69,280.07 326.04,279.25 C317.18,277.74 308.46,280.76 299.92,282.75 Z M292.91,313.44 C288.93,313.5 285.07,314.69 281.08,314.5 C277.52,314.31 274.06,315.63 271.33,317.89 C273.61,319.94 275.95,321.95 278.56,323.58 C286.61,328.62 293.5,335.22 300.66,341.41 C302.2,342.8 304.11,343.59 306.14,343.95 C307.4,342.18 308.63,340.38 309.85,338.58 C312.24,338.61 314.77,338.19 317.04,339.18 C323.13,341.5 329.08,344.23 334.77,347.42 C339.19,349.82 342.38,353.84 346.52,356.63 C349.62,358.78 352.66,361.02 355.45,363.56 C364.21,371.7 375.41,376.33 385.35,382.77 C388.03,384.8 390.09,387.72 393.36,388.91 C402.28,392.67 412.05,393.36 421.48,395.07 C425.35,395.8 429.36,395.24 433.22,396.19 C440.56,396.54 447.59,399.52 455.02,398.44 C463.22,396.71 471.64,397.93 479.94,397.42 C485.77,396.41 491.72,396.46 497.49,395 C504.92,394.23 511.97,391.66 519,389.27 C526.17,386.94 531.43,381.29 537.7,377.4 C537.65,374.46 537.23,371.46 537.82,368.55 C539.39,365.08 541.63,361.94 544.1,359.05 C547.3,355.74 551.56,353.79 555.42,351.38 C555.57,350.66 555.85,349.21 555.99,348.49 C554.71,348.01 553.42,347.44 552.03,347.49 C539.41,347.44 526.77,347.66 514.15,347.31 C507.8,345.71 501.18,347.24 494.83,345.74 C450.29,343.91 407.52,329.74 363.94,321.58 C353.51,319.94 343.3,317.23 333.18,314.3 C330.05,313.26 326.65,313.24 323.45,314 C317.44,315.68 311.93,311.4 305.98,311.43 C301.5,311.16 297.34,313.27 292.91,313.44 Z M242.12,329.07 C244.83,325.56 247.21,321.77 248.94,317.68 C245.57,320.7 243.59,324.87 242.12,329.07 Z M237.62,328.58 C240.25,325.7 242.1,322.19 243.54,318.58 C240.25,320.94 238.94,324.94 237.62,328.58 Z M231.15,330.32 C235.08,328.27 236.2,323.64 237.74,319.84 C233.99,322.1 232.26,326.29 231.15,330.32 Z M222.33,329.15 C224.26,326.99 225.85,324.55 226.97,321.87 C223.87,323.05 222.8,326.13 222.33,329.15 Z M278.87,332.88 C281.51,337.24 283.4,342.23 287.37,345.63 C300.82,358.53 315.66,370.18 332.16,378.94 C330.62,376.1 329.31,373.12 327.58,370.39 C323.43,365.5 317.83,362.19 312.93,358.14 C304.89,351.52 297.32,344.34 289.01,338.04 C286,335.68 282.64,333.71 278.87,332.88 Z M621.53,337.47 C619.03,339.72 617.69,342.96 615.45,345.46 C610.15,351.63 603.82,357.01 596.65,360.89 C600.52,353.55 607.14,348.18 611.38,341.08 C610.5,340.95 608.75,340.7 607.88,340.58 C601.04,352.73 590.51,363.35 577.3,368.28 C580.62,362.96 586.59,360.28 590.61,355.59 C594.57,351.05 599.32,347.05 602.22,341.69 C594.84,346.13 591.11,355.18 582.78,358.3 C586.01,352.48 591.13,348.06 595.04,342.73 C588.48,343.53 581.83,343.82 575.35,345.25 C571.79,345.82 569.79,349.13 567.15,351.23 C562.42,355.7 556.26,358.16 551.32,362.34 C555.67,361.41 559.62,359.3 563.72,357.64 C569.99,355.16 574.28,349.1 581.11,347.76 C579.76,351.24 577.66,354.36 575.27,357.22 C565.68,368.77 552.6,376.7 539.37,383.43 C535.87,384.68 535.82,389.44 532.3,390.63 C523.66,394.56 514.92,398.62 505.52,400.34 C488.13,403.01 470.45,402.7 453.04,405.07 C440.87,405.49 429.08,401.39 416.95,400.82 C407.8,400.63 398.89,398.09 390.4,394.83 C383.56,392.74 376.22,389.81 372.17,383.57 C370.7,381.12 367.39,381.27 365.38,379.5 C350.44,365.87 333.75,354.23 316.2,344.21 C321.1,350.45 328.63,353.53 335.08,357.81 C341.5,362.01 348.6,365.64 353.57,371.65 C341.77,367.34 331.53,359.83 320.85,353.39 C327.7,361.45 339.37,363.87 345.14,372.97 C337.08,370.11 330.21,364.76 323.15,360.07 C331.98,369.54 344.72,373.45 354.85,381.13 C358.35,383.59 359.73,388.28 363.8,390.02 C369.08,392.46 375.08,392.46 380.51,394.48 C403.66,405.57 429.14,412.74 454.99,412.19 C478.6,412.35 501.77,407.12 524.62,401.76 C532.63,399.91 539.74,395.66 547.05,392.08 C551.46,389.84 556.26,388.24 560.11,385.04 C563.01,382.65 566.64,381.52 569.92,379.79 C576.14,376.5 580.66,370.61 587.28,367.98 C583.91,375.22 576.8,379.45 570.53,383.89 C570.9,384.86 571.28,385.83 571.66,386.81 C565.86,394.31 557.94,399.72 550.17,404.96 C555.98,402.33 561,398.31 566.91,395.87 C570.37,393.88 574.72,394.36 577.96,391.91 C586.2,386.32 595.27,381.6 601.87,373.95 C613.23,361.27 624.06,348.1 634.38,334.55 C630.09,335.49 625.64,335.88 621.53,337.47 Z M210.81,349.12 C208.19,349.75 207.03,352.52 204.8,353.82 C199.13,357.61 192.53,361.14 189.85,367.83 C194.54,364.07 198.47,358.41 204.84,357.6 C203.41,361.64 198.78,363 196.05,366.03 C191.11,371.07 185.53,375.95 182.83,382.64 C189.87,372.8 199.43,365.32 208.63,357.63 C213.3,353.5 218.69,350.35 223.66,346.64 C219.33,347.16 215.02,347.95 210.81,349.12 Z" id="Shape"></path>
                    <path d="" id="Shape"></path>
                    <path d="M442.68,11.14 C443.95,7.31 448.31,8.48 451.28,9.08 C448.88,11.2 445.76,11.69 442.68,11.14 Z" id="Shape"></path>
                    <path d="M397.65,18.71 C410.92,13.66 425.1,9.89 439.4,10.53 C436.13,11.52 432.73,11.94 429.38,12.5 C419.67,14.03 410.26,16.93 400.91,19.87 C394.82,21.78 389.05,24.65 382.79,26.02 C387.31,22.79 392.55,20.83 397.65,18.71 Z" id="Shape"></path>
                    <path d="M395.72,23.98 C407.1,17.67 420.28,14.41 433.28,14.41 C430.2,16.71 426.13,16.5 422.57,17.53 C413.52,19.26 404.82,22.51 395.72,23.98 Z" id="Shape"></path>
                    <path d="" id="Shape"></path>
                    <path d="M445.75,22.49 C450.08,21.81 456.26,18.63 459.54,22.95 C455.02,24.07 450.16,24.13 445.75,22.49 Z" id="Shape"></path>
                    <path d="M493.5,23.85 C495.21,24.42 496.9,25.05 498.56,25.76 C496.75,25.83 494.95,25.83 493.16,25.84 C493.24,25.34 493.42,24.35 493.5,23.85 Z" id="Shape"></path>
                    <path d="" id="Shape"></path>
                    <path d="M569.29,55.42 C573.1,56.25 577.16,58.09 578.22,62.23 C574.51,61.11 571.43,58.61 569.29,55.42 Z" id="Shape"></path>
                    <path d="M589.44,56.38 C596.49,60.03 602.07,65.84 607.84,71.16 C617.66,81.3 626.79,92.45 633.07,105.16 C624.2,96.55 617.83,85.69 609.03,76.97 C602.67,69.96 595.13,63.98 589.44,56.38 Z" id="Shape"></path>
                    <path d="" id="Shape"></path>
                    <path d="" id="Shape"></path>
                    <path d="" id="Shape"></path>
                    <path d="M632.93,107.84 C633.62,107.96 635.02,108.2 635.71,108.32 C636.09,109.66 636.46,111 636.82,112.34 C635,111.35 633.81,109.67 632.93,107.84 Z" id="Shape"></path>
                    <path d="" id="Shape"></path>
                    <path d="" id="Shape"></path>
                    <path d="" id="Shape"></path>
                    <path d="" id="Shape"></path>
                    <path d="M284.59,136.16 C285.02,132.68 286.83,129.62 289.79,127.71 C289.45,131.09 289.2,136.26 284.59,136.16 Z" id="Shape"></path>
                    <path d="M337.06,130.01 C338.66,129.49 339.21,130.05 338.7,131.69 C337.08,132.21 336.53,131.65 337.06,130.01 Z" id="Shape"></path>
                    <path d="" id="Shape"></path>
                    <path d="" id="Shape"></path>
                    <path d="" id="Shape"></path>
                    <path d="" id="Shape"></path>
                    <path d="M456.76,152.89 C459.8,150.4 464.34,149.64 467.89,151.17 C470.95,152.86 470.79,156.51 470.3,159.5 C466.94,167.02 460.1,172.04 455.38,178.6 C454.1,179.79 454.35,181.54 454.41,183.11 C457.83,185.8 462.21,186.65 466.26,187.99 C478.06,191.71 489.97,195.22 502.16,197.42 C509.38,197.67 516.62,197.64 523.85,197.46 C532.28,196.17 540.44,193.26 547.82,188.98 C550,187.51 552.62,187.44 555.17,187.49 C555.96,188.37 556.77,189.24 557.59,190.1 C556.68,192.15 556.03,194.64 553.82,195.69 C545.41,200.69 535.66,202.79 526.12,204.4 C518.02,204.24 509.8,205.17 501.79,203.8 C486.4,202.8 471.4,198.61 456.73,194.01 C453.2,193.02 449.77,191.12 446,191.47 C441.42,194.4 438.65,199.27 435.42,203.5 C427.81,214.42 420.28,225.71 416.2,238.49 C414.83,242.64 414.68,248.09 419.09,250.45 C424.44,251.67 428.97,248.03 432.91,244.96 C438.92,239.65 444.1,233.47 450.05,228.09 C457.89,221.42 468.23,218.61 478.28,217.54 C482.74,217.03 486.88,218.98 491.04,220.27 C494.76,221.11 498.62,220.18 502.38,220.7 C505.36,221.33 506.96,224.67 506.31,227.5 C502.98,235.52 493.21,237.93 489.6,245.77 C487.55,248.35 489.51,251.69 488.15,254.48 C486.06,259.65 488.61,265.2 491.48,269.51 C497.44,276.26 506.73,278.4 515.16,280.31 C521.32,280.67 527.57,280.84 533.7,280.18 C543.41,277.84 554.35,274.86 560.34,266.2 C562.7,263.69 561.23,259.59 558.26,258.52 C554.12,258.19 549.96,258.67 545.81,258.47 C545.33,257.25 544.84,256.04 544.35,254.84 C545.89,252.4 547.63,248.93 551.09,249.48 C557.62,248.42 564.15,251.74 567.74,257.16 C570.35,260.37 569.49,264.76 569.36,268.57 C567.36,275.06 561.79,279.78 555.88,282.74 C549.09,286.13 541.67,288.72 534,288.66 C526.13,290.4 518.06,289 510.31,287.38 C499.69,284.45 488.93,279.93 481.39,271.6 C476.59,266.73 473.86,259.85 474.47,253 C475.05,250.61 472.45,248.39 470.23,249.66 C464.26,252.64 459.27,257.25 453.28,260.17 C449.78,262.15 445.54,261.03 441.95,262.78 C440.94,259.48 438.41,256.93 435.84,254.77 C434.56,253.76 432.8,254.63 431.52,255.19 C427.78,256.83 424.25,259.59 419.99,259.53 C415.98,259.42 411.56,260.28 408.02,257.9 C404.23,256.07 402.16,252.17 400.81,248.38 C399.81,243.67 401.51,238.61 399.45,234.1 C392.74,234.44 387.74,240.46 380.92,240.42 C377.9,240.08 374.45,238.39 371.81,240.72 C367.05,244.22 363.38,249.42 357.57,251.36 C354.56,251.67 351.48,251.73 348.48,251.3 C346.08,250.01 344.17,248.01 341.91,246.52 C337.92,245.49 335.32,249.36 332.37,251.3 C326.5,255.59 319.77,260.28 312.12,259.5 C308.17,259.58 304.45,256.38 303.59,252.6 C303.46,247.89 302.84,242.93 304.62,238.43 C307.18,231.03 310.7,224.02 314.48,217.18 C315.95,215.01 315.5,212.33 315.63,209.86 C312.14,211.83 308.8,214.1 305.95,216.94 C301.39,221.41 296.68,225.82 293.04,231.1 C289.12,236.3 286.25,242.2 282.28,247.35 C280.09,249.69 276.94,252.06 273.55,251.35 C272.06,250.7 270.56,249.84 269.71,248.41 C267.33,245.1 269.76,240.6 267.27,237.29 C261.85,243.11 258.29,251.21 250.56,254.44 C245.45,257.09 239,254.79 235.81,250.24 C233.43,246.86 232.33,242.8 230.16,239.3 C227.22,238.58 225.93,241.7 224.48,243.61 C220.45,249.93 216.14,256.66 209.32,260.26 C206.22,260.68 202.62,261.07 200.09,258.84 C197.26,256.46 195.29,252.75 195.45,248.99 C195.53,244.49 194.87,239.78 196.7,235.52 C200.72,224.78 208.83,215.82 218.32,209.53 C223.09,206.25 228.98,205.87 234.52,205.06 C235.26,204.92 235.98,204.75 236.71,204.55 C240.02,203.76 243.2,202.05 246.71,202.53 C247.99,202.37 248.57,203.85 249.29,204.65 C249.68,207.68 249.66,210.78 249.38,213.83 C247.37,219.38 244.42,224.75 244.23,230.79 C243.06,235.38 243.16,240.37 245.93,244.4 C247.77,244.49 250.03,245.2 251.47,243.62 C259.11,237.57 262.92,228.35 267.19,219.89 C268.33,217.71 269.15,215.38 269.73,212.99 C269.81,212.86 269.97,212.6 270.04,212.47 C271.77,210.28 273.26,207.92 274.4,205.37 C275.56,202.44 278.43,200.75 280.93,199.06 C283.82,196.98 288.1,196.82 290.85,199.23 C294.42,201.53 295.95,205.63 297.05,209.52 C300.55,210.44 302.49,206.7 304.1,204.29 C302.65,203.21 301.17,202.15 300.29,200.53 C302.53,200.6 303.61,202.58 304.96,204.05 C309.59,201.83 313.54,198.31 318.44,196.67 C321.74,196.3 325.1,196.3 328.4,196.67 C332.78,199.35 334.24,204.74 333.42,209.58 C331.07,223.32 322.13,234.52 317.03,247.21 C317.55,247.73 318.59,248.77 319.11,249.29 C321.65,250.53 323.94,248.26 325.93,246.95 C332.24,242.17 339.08,236.67 340.7,228.46 C343.83,215.57 350.99,202.33 363.72,196.87 C367.14,196.01 370.76,196.61 374.27,196.56 C375.44,198.74 376.41,201.05 377.89,203.06 C379.77,204.87 382.46,205.7 384.08,207.81 C386.43,211.6 385.18,216.26 385.33,220.46 C386.2,220.39 387.07,220.32 387.94,220.25 C386.55,221.1 385.22,222.04 383.96,223.07 C381.55,225.34 381.05,228.61 381.41,231.77 C383.99,231.66 386.72,231.65 388.81,229.88 C403.92,220.75 413.02,205.14 423.87,191.75 C425.62,189.93 426.17,187.22 425.27,184.86 C420.92,182.64 416.04,181.71 411.21,181.28 C407.24,180.43 403.15,180.29 399.11,180.61 C392.64,181.81 387.11,187.39 380.15,185.29 C381.21,182.62 382.39,179.65 385.19,178.35 C390.92,175.3 397.39,173.12 403.96,173.48 C406.98,173.49 410,173.47 413.02,173.5 C420.19,173.42 426.82,177.43 434.05,176.54 C436.51,175.32 438.15,172.92 439.96,170.92 C444.98,164.42 450.16,157.87 456.76,152.89 Z M355.07,232.9 C354.25,235.28 354.35,237.86 354.64,240.32 C355.57,242.05 357.71,241.51 359.3,241.34 C362.09,239.21 364.71,236.67 366.33,233.51 C366.9,229.47 366.03,225.34 367.01,221.35 C367.67,218.55 367.46,215.65 367.45,212.8 C361.18,217.9 357.59,225.39 355.07,232.9 Z M226.69,217.79 C219.41,223.49 213.74,231.03 209.59,239.25 C207.73,242.35 207.29,245.93 207.51,249.48 C208.79,249.44 210.08,249.42 211.37,249.41 C218.59,241.08 224.13,231.54 230.07,222.3 C231.35,220.54 231.53,218.36 231.66,216.26 C229.93,216.5 228.11,216.65 226.69,217.79 Z M474.35,230.2 C467.4,232.75 460.61,236.1 455.05,241.04 C452.08,243.92 448.88,247.33 449.22,251.78 C454.5,252.17 458.14,247.86 462.29,245.34 C468.92,240.47 476.47,236.77 482.23,230.81 C479.99,228.98 476.88,229.17 474.35,230.2 Z M487.23,251.11 L486.75,251.97 C487.14,254.47 489.43,250.97 487.23,251.11 Z" id="Shape"></path>
                    <path d="" id="Shape"></path>
                    <path d="" id="Shape"></path>
                    <path d="M192.18,164.91 C193.81,164.37 194.37,164.91 193.86,166.52 C192.21,167.04 191.65,166.5 192.18,164.91 Z" id="Shape"></path>
                    <path d="" id="Shape"></path>
                    <path d="" id="Shape"></path>
                    <path d="M307.1,185.96 C308.73,185.42 309.28,185.97 308.76,187.61 C307.12,188.13 306.57,187.58 307.1,185.96 Z" id="Shape"></path>
                    <path d="" id="Shape"></path>
                    <path d="M248.14,191.1 C249.75,190.56 250.29,191.11 249.77,192.76 C248.15,193.3 247.6,192.75 248.14,191.1 Z" id="Shape"></path>
                    <path d="" id="Shape"></path>
                    <path d="" id="Shape"></path>
                    <path d="M253.97,205.41 C255.61,204.9 256.17,205.45 255.65,207.06 C254.01,207.56 253.45,207.01 253.97,205.41 Z" id="Shape"></path>
                    <path d="" id="Shape"></path>
                    <path d="" id="Shape"></path>
                    <path d="" id="Shape"></path>
                    <path d="" id="Shape"></path>
                    <path d="M376.22,289.92 C377.22,289.05 378.41,288.46 379.57,287.84 C380.06,288.98 380.54,290.13 381.02,291.28 C379.22,291.7 376.67,292.51 376.22,289.92 Z" id="Shape"></path>
                    <path d="M366.94,290.14 C368.59,290.01 370.24,289.83 371.91,289.87 C374.19,291.71 375.38,294.49 376.93,296.92 C380.42,295.15 383.75,293.05 387.35,291.5 C386.25,296.01 380.99,296.67 377.66,298.99 C379.44,303.34 382.2,307.16 385.93,310.04 C384.09,310.72 382.15,311.68 380.15,311.05 C374.21,309.77 368.22,308.6 362.41,306.81 C364.87,302.41 370.02,300.85 373.91,298.03 C372.26,294.85 369.92,292.13 366.94,290.14 Z M366.88,305.17 C370.83,306.42 374.89,307.33 378.98,308.06 C377.64,305.38 376.21,302.75 374.76,300.13 C372.02,301.63 369.36,303.27 366.88,305.17 Z" id="Shape"></path>
                    <path d="M398.29,299.17 C400.26,297.69 402.35,295.81 405.02,296.23 C411.15,296.77 417.09,298.8 423.31,298.65 C420.17,301.65 415.85,301.15 411.89,300.75 C411.57,301.07 410.94,301.72 410.63,302.04 C412.73,306.78 413.57,312.67 418.07,315.84 C416.99,316.89 415.89,317.92 414.8,318.96 C411.53,314.49 410.63,308.88 408.09,304.04 C405.45,306.42 402.73,308.77 400.78,311.78 C399.76,313.4 398.23,314.57 396.65,315.6 C396.9,314.03 396.71,312.18 398.04,311.03 C401.68,307.14 406.03,303.93 409.26,299.64 C405.62,299.14 401.95,299.08 398.29,299.17 Z" id="Shape"></path>
                    <path d="M432.78,304.05 C434.69,303.12 436.69,302.42 438.73,301.87 C440.28,304.26 441.7,306.73 443.14,309.19 C446.56,306.99 450.09,304.89 454.03,303.71 C453.47,310.48 451.03,316.97 451.09,323.81 C449.99,324.45 448.9,325.11 447.81,325.77 C445.03,321.96 442.88,317.77 440.74,313.59 C436.32,315.54 433.94,320.05 429.73,322.25 C429.84,316.63 436.18,314.77 439.79,311.58 C438.65,308.08 436.67,304.84 432.78,304.05 Z M443.8,311.31 C444.93,314.01 446.22,316.65 447.75,319.16 C448.82,315.4 449.61,311.56 450.13,307.68 C447.99,308.83 445.89,310.06 443.8,311.31 Z" id="Shape"></path>
                    <path d="M465.33,316 C465.15,309.96 472.34,305.84 477.66,308.23 C481.78,309.75 483.98,314.98 481.91,318.92 C480.45,321.71 477.26,322.65 474.54,323.68 C474.31,325.37 474.24,327.09 473.77,328.75 C472.8,329.72 471.36,329.9 470.14,330.38 C470.09,327.99 470.21,325.61 470.41,323.23 C468.04,321.44 464.99,319.4 465.33,316 Z M471.43,310.24 C467.93,311.79 467.1,317.37 470.2,319.74 C473.03,322.15 478.8,321.45 479.49,317.26 C480.91,312.75 475.75,308.02 471.43,310.24 Z" id="Shape"></path>
                    <path d="M491.8,315.4 C493.98,314.07 496.23,312.37 498.95,312.67 C505.01,312.89 510.92,314.57 517,314.6 C516.83,315.07 516.48,316.01 516.31,316.49 C514.1,317.14 511.8,317.74 509.49,317.25 C503.64,316.28 497.74,315.58 491.8,315.4 Z" id="Shape"></path>
                    <path d="M471.81,315.01 C472.88,314.52 473.96,314.04 475.04,313.57 C475.35,314.66 475.67,315.76 475.99,316.86 C475.02,317.19 474.05,317.53 473.1,317.89 C472.68,316.92 472.25,315.96 471.81,315.01 Z" id="Shape"></path>
                    <path d="M532.01,315.87 C537.89,315.74 543.79,316.6 549.65,315.57 C546.81,319.37 541.95,319.33 537.67,319.56 C539.81,324.93 542.71,330.4 547.43,333.93 C546.51,334.9 545.59,335.87 544.67,336.85 C540.68,333.05 539.2,327.48 535.41,323.52 C533.1,326.32 530.87,329.22 529.43,332.57 C528.79,334.22 527.46,335.4 525.96,336.25 C526.08,334.54 525.99,332.65 527.14,331.24 C530.06,327.08 533.59,323.34 536.1,318.89 C532.34,318.72 528.61,319.15 524.9,319.7 C526.98,317.99 529.11,315.86 532.01,315.87 Z" id="Shape"></path>
                    <path d="M499.41,318.31 C504.95,315.97 513.13,320.27 511.55,326.95 C510.65,334.58 499.63,336.42 495.2,330.77 C491.66,326.59 494.4,319.83 499.41,318.31 Z M499.54,320.53 C496.91,322.11 496.2,325.81 497.35,328.51 C499.31,331.92 505.11,333.02 507.51,329.53 C508.69,327.35 509.06,324.48 507.75,322.27 C506,319.75 502.17,319.09 499.54,320.53 Z" id="Shape"></path>
                </g>
                <g id="#ffffffff" transform="translate(182.000000, 5.000000)" fill="#FFFFFF">
                    <path d="M211.63,12.7 C238.14,3.3 266.64,-1.56 294.74,1.58 C303.66,2.39 312.47,4.1 321.28,5.68 C325.96,6.57 331,7.38 334.61,10.78 C323.28,8.17 311.88,4.47 300.09,5.44 C298.76,5.5 297.62,6.26 296.51,6.89 C307.81,8.65 319.42,9.04 330.34,12.71 C331.91,13.26 333.28,14.21 334.63,15.16 C326.03,13.81 317.6,10.23 308.74,11.63 C316.24,15.1 325.01,14.66 332.34,18.66 C329.18,18.43 326.1,17.73 323.04,16.97 C316.46,15.34 309.71,14.61 302.98,13.85 C285.7,12.22 268.21,11.54 250.95,13.81 C232.88,16.34 215.42,22.11 198.6,29.02 C199.83,32.17 201.01,35.34 201.93,38.6 C191.62,44.29 180.94,49.42 171.49,56.52 C164.54,61.31 158.16,66.93 150.94,71.32 C152.1,68.58 153.64,65.91 156.08,64.1 C162.86,58.8 169.98,53.97 177,49.02 C181.15,46.03 185.69,43.53 189.31,39.88 C181.72,41.32 175.3,45.92 168.89,49.94 C162.64,53.88 156.94,58.67 150.47,62.23 C157.46,51.22 170.12,45.82 179.11,36.75 C171.88,38.23 165.96,42.94 159.99,46.99 C154.72,50.55 150.21,55.11 144.83,58.51 C151.39,48.09 163.72,43.55 172.15,34.97 C161.92,37.14 154.34,44.89 145.74,50.26 C150.52,44.38 157.19,40.56 163.47,36.53 C178.86,27.36 194.55,18.36 211.63,12.7 Z M260.68,6.14 C263.76,6.69 266.88,6.2 269.28,4.08 C266.31,3.48 261.95,2.31 260.68,6.14 Z M215.65,13.71 C210.55,15.83 205.31,17.79 200.79,21.02 C207.05,19.65 212.82,16.78 218.91,14.87 C228.26,11.93 237.67,9.03 247.38,7.5 C250.73,6.94 254.13,6.52 257.4,5.53 C243.1,4.89 228.92,8.66 215.65,13.71 Z M213.72,18.98 C222.82,17.51 231.52,14.26 240.57,12.53 C244.13,11.5 248.2,11.71 251.28,9.41 C238.28,9.41 225.1,12.67 213.72,18.98 Z" id="Shape"></path>
                    <path d="M341.02,4.15 C348.62,6.43 356.2,8.81 363.62,11.61 C358.38,20.85 352.2,29.51 346.41,38.41 C345.03,40.53 343.56,42.6 341.91,44.52 C343.51,37.02 346.52,29.92 348.48,22.52 C349.02,19.84 351.08,17.99 352.56,15.83 C352.16,14.53 351.59,13.29 351.08,12.04 C349.78,12.69 348.49,13.34 347.21,14 C347.51,16.49 347.65,19.08 346.57,21.43 C343.49,29.26 341.45,37.45 338.32,45.25 C338.82,31.54 339.9,17.83 341.02,4.15 Z" id="Shape"></path>
                    <path d="M408.99,9.69 C410.38,9.25 410.84,9.74 410.38,11.15 C408.99,11.56 408.53,11.07 408.99,9.69 Z" id="Shape"></path>
                    <path d="M244.12,18.03 C266.89,14.37 290.21,14.69 313,18.05 C320.23,19.2 327.59,20.44 334.29,23.55 C328.56,22.65 322.99,20.52 317.13,20.7 C322.57,24.26 329.32,24.37 335.17,26.92 C323.81,24.94 312.62,21.8 301.06,20.96 C272.33,18.76 242.89,20.88 215.54,30.42 C212.4,31.51 209.44,33.04 206.41,34.38 C211.66,29.03 220.01,29.12 225.86,24.61 C218.19,25.36 211.17,28.79 204.03,31.4 C204.9,33.73 205.85,36.02 206.9,38.27 C207.39,37.78 208.38,36.8 208.88,36.31 C210.81,41.91 213.23,47.33 214.97,53 C213.18,49.68 211.8,46.06 209.07,43.36 C209.48,47.06 210.79,50.55 211.77,54.12 C208.25,46.54 205.41,38.67 202.24,30.94 C215.83,25.56 229.64,20.4 244.12,18.03 Z M263.75,17.49 C268.16,19.13 273.02,19.07 277.54,17.95 C274.26,13.63 268.08,16.81 263.75,17.49 Z M311.5,18.85 C311.42,19.35 311.24,20.34 311.16,20.84 C312.95,20.83 314.75,20.83 316.56,20.76 C314.9,20.05 313.21,19.42 311.5,18.85 Z" id="Shape"></path>
                    <path d="M366.95,21.89 C374.47,23.35 380.72,28.01 387.23,31.75 C401.46,40.82 415.01,51.09 426.94,63.06 C449.22,86.04 466.26,114.1 476.63,144.37 C479.54,152.35 482.41,160.67 481.76,169.3 C477.5,156.53 476.32,141.98 467.33,131.33 C471.15,145.84 478.41,159.91 477.78,175.27 C475.73,168.11 474.9,160.65 472.49,153.58 C469.51,144.89 466.28,136 460.64,128.66 C461,133.95 463.42,138.74 465.36,143.58 C469.73,153.76 472.93,164.56 473.86,175.62 C472.48,173.73 471.4,171.63 470.79,169.37 C468.19,160.64 466.12,151.73 462.85,143.21 C461.95,140.7 460.42,138.48 458.55,136.6 C460.78,150.41 467.43,163.2 468.89,177.2 C464.33,173.24 463.06,167.14 461.39,161.63 C457.83,149.61 452.38,138.29 447.34,126.85 C450.39,125.16 453.49,123.54 456.59,121.94 C448.84,105.46 438.26,90.43 426.04,76.96 C419.4,68.93 411.45,62.16 403.48,55.51 C390.66,45.03 375.84,37.49 361.87,28.77 C373.74,31.37 382.01,41.35 393.22,45.37 C389.99,40.65 384.79,37.98 380.15,34.89 C375.19,31.63 369.81,29.06 364.81,25.87 C373.44,27.22 380.13,33.36 388.25,36.08 C382.57,29.48 374.2,26.35 366.95,21.89 Z M407.44,51.38 C413.13,58.98 420.67,64.96 427.03,71.97 C435.83,80.69 442.2,91.55 451.07,100.16 C444.79,87.45 435.66,76.3 425.84,66.16 C420.07,60.84 414.49,55.03 407.44,51.38 Z M450.93,102.84 C451.81,104.67 453,106.35 454.82,107.34 C454.46,106 454.09,104.66 453.71,103.32 C453.02,103.2 451.62,102.96 450.93,102.84 Z" id="Shape"></path>
                    <path d="M211.51,34.96 C232.84,26.19 256.09,23.24 279,22.73 C298.42,22.97 318.23,24.72 336.49,31.78 C335.77,37.86 335.52,43.98 334.85,50.07 C332.98,49.59 331.13,49.1 329.27,48.62 C329.57,45.3 330.11,42 330.33,38.66 C326.88,40.17 327.6,44.76 326.42,47.77 C325.57,47.51 323.86,46.99 323.01,46.73 C323.22,43.9 323.8,41.08 323.66,38.24 C323.26,37.97 322.46,37.44 322.06,37.18 C321.35,40.19 320.75,43.23 320.14,46.27 C319.51,45.92 318.26,45.24 317.63,44.9 C318.14,41.22 318.81,37.57 319.78,33.98 C320.27,32.65 319.48,31.36 319.16,30.1 C318.23,30.53 317.31,30.95 316.39,31.37 C316.32,35.88 315.56,40.34 314.95,44.8 C314.02,44.52 313.1,44.25 312.17,44 C312.41,41.34 312.6,38.68 312.74,36.02 C312.21,36.14 311.14,36.39 310.61,36.51 C310.24,38.96 309.84,41.41 309.43,43.85 C308.3,43.55 307.18,43.24 306.06,42.94 C305.81,39.99 307.8,36 304.89,33.93 C304.04,36.87 303.53,39.9 303.01,42.92 C302.04,42.64 301.07,42.36 300.1,42.1 C300.22,39.2 300.31,36.29 300.26,33.38 C296.43,34.35 298.05,39.39 297.26,42.36 C296.45,42.21 294.83,41.91 294.02,41.76 C293.78,38.76 293.65,35.73 292.92,32.81 C291.05,35.41 291.54,38.7 291.41,41.7 C290.46,41.59 289.51,41.5 288.56,41.41 C288.47,37.27 288.06,33.03 289.28,29 C288.46,28.25 287.65,27.51 286.85,26.76 C286.3,27.52 285.79,28.3 285.33,29.11 C285.6,33.17 286.21,37.22 286.25,41.3 C285.64,41.3 284.42,41.31 283.81,41.31 C283.72,38.64 283.63,35.97 283.52,33.31 C283,33.29 281.94,33.25 281.41,33.23 C281.37,35.93 281.34,38.63 281.29,41.33 C280.56,41.25 279.1,41.09 278.37,41 C277.72,38.29 279.22,33.77 275.84,32.68 C275.73,35.56 275.76,38.45 275.77,41.33 C274.6,41.28 273.44,41.23 272.29,41.16 C271.98,38.61 271.7,36.07 271.43,33.52 C270.9,33.38 269.85,33.12 269.33,32.98 C269.4,35.86 269.53,38.74 269.65,41.61 C268.5,41.58 267.35,41.56 266.21,41.56 C265.47,38.72 264.83,35.87 264.02,33.06 C261.16,35.03 263.23,38.92 263.14,41.74 C262.33,41.79 260.72,41.89 259.92,41.94 C259.39,39.5 258.85,37.06 258.34,34.62 C257.84,34.52 256.85,34.32 256.36,34.23 C256.67,36.94 257.1,39.64 257.53,42.33 C256.2,42.48 254.88,42.64 253.56,42.8 C252.63,38.13 251.56,33.46 251.42,28.69 C250.62,28.21 249.83,27.71 249.05,27.21 C248.51,28.09 247.97,28.97 247.42,29.85 C249.55,34.14 250.58,38.88 250.9,43.64 C249.8,43.62 248.71,43.6 247.62,43.6 C246.72,41.01 246.67,37.59 243.89,36.2 C244.12,38.88 244.57,41.53 245.04,44.17 C244.03,44.38 243.03,44.6 242.04,44.84 C240.92,42.4 241.36,38.09 238.08,37.56 C238.31,40.3 238.66,43.01 238.96,45.74 C238.21,45.89 236.73,46.2 235.99,46.36 C234.98,43.68 234.69,40.33 231.97,38.76 C232.19,41.74 232.73,44.69 233.21,47.65 C228.96,47.96 229.17,43.01 227.88,40.15 C227.36,40.41 226.3,40.95 225.78,41.21 C226.33,43.49 226.98,45.75 227.31,48.08 C226.7,48.58 225.48,49.58 224.87,50.07 C222.74,45.79 221.62,41.14 220.41,36.55 C219.59,35.88 218.74,35.26 217.85,34.69 C217.58,36.04 216.38,37.5 217.28,38.85 C219.25,42.7 220.73,46.77 221.8,50.96 C220.51,51.32 219.22,51.67 217.94,52.03 C215.36,46.51 213.42,40.73 211.51,34.96 Z" id="Shape"></path>
                    <path d="M354.83,34.14 C358.92,35.29 362.81,37.05 366.74,38.65 C366.71,37.96 366.63,36.58 366.59,35.88 C374.78,40.49 383.25,44.64 390.98,50.03 C405.33,60.04 418.36,72.01 429.25,85.73 C433.34,91.03 437.36,96.39 441.27,101.83 C439.64,100.78 438.04,99.69 436.4,98.68 C439.89,105.62 444.32,112.05 447.73,119.04 C444.06,121.72 439.84,123.51 436.23,126.27 C438.57,125.96 440.9,125.5 443.24,125.16 C438.61,127.66 433.85,129.89 429.09,132.14 C430.15,130.79 431.25,129.47 432.31,128.12 C430.78,128.28 429.26,128.46 427.74,128.62 C433.89,125.12 440.35,122.16 446.33,118.35 C438.86,105.07 430.14,92.45 419.74,81.3 C417.49,78.8 415.13,76.4 413.09,73.74 C418.08,77.18 421.48,82.46 426.67,85.64 C424.85,80.45 420.2,77.17 416.29,73.64 C413.86,71.36 410.08,71.73 407.74,69.32 C398.59,60.93 388.56,53.51 378.01,46.98 C370.6,42.13 362.37,38.75 354.83,34.14 Z M387.29,50.42 C389.43,53.61 392.51,56.11 396.22,57.23 C395.16,53.09 391.1,51.25 387.29,50.42 Z" id="Shape"></path>
                    <path d="M350.42,36.95 C360.66,40.54 370.14,46.01 379.39,51.63 C405.22,67.81 426.62,90.69 441.99,116.95 C436.84,120.15 431.41,122.86 425.92,125.41 C425.54,124.81 424.77,123.63 424.38,123.03 C428.7,120.33 432.98,117.52 437.72,115.6 C437.92,114.93 438.32,113.58 438.52,112.9 C437.86,112.7 436.55,112.29 435.89,112.09 C431.99,115.47 427.43,117.93 422.98,120.5 C422.29,119.62 421.6,118.74 420.91,117.87 C423.56,115.46 426.32,113.16 428.95,110.73 C428.48,110.54 427.54,110.16 427.07,109.97 C424.25,111.38 421.89,113.54 419.22,115.2 C418.57,114.22 417.94,113.23 417.31,112.25 C419.58,110.19 421.84,108.11 424.11,106.02 C423.85,105.48 423.35,104.4 423.09,103.86 C420.66,105.88 418.25,107.92 415.88,110 C415.25,109.31 414.62,108.63 413.99,107.96 C416.35,105.62 418.77,103.32 420.98,100.82 C417.67,98.94 415.33,103.38 412.8,104.93 C411.94,104.63 411.08,104.34 410.22,104.06 C412.45,101.73 414.69,99.41 416.94,97.1 C416.71,96.57 416.23,95.51 415.99,94.97 C413.55,97.13 411.08,99.26 408.44,101.16 C408.02,100.56 407.18,99.36 406.76,98.76 C409.16,96.24 411.96,93.91 413.23,90.56 C409.66,91.16 407.47,94.23 404.92,96.47 C404.43,96.1 403.46,95.38 402.97,95.02 C406.12,91.65 409.11,88.03 413.02,85.48 C412.65,83.92 412.37,81.54 410.18,82.68 C407.28,86.27 404.46,89.97 401.03,93.11 C400.7,92.57 400.03,91.51 399.7,90.98 C401.54,88.71 403.69,86.65 405.15,84.1 C404.91,83.66 404.44,82.78 404.21,82.35 C401.87,84.63 399.6,86.98 397.16,89.17 C396.78,88.67 396,87.67 395.62,87.17 C397.79,84.63 400.19,82.1 401.11,78.79 C397.17,79.6 395.54,83.92 391.79,85.13 C392.54,81.46 395.31,78.79 397.25,75.74 C396.18,75.23 395,75.24 394.27,76.28 C392.42,78.13 390.78,80.17 389.01,82.09 C388.75,81.55 388.22,80.47 387.96,79.93 C389.21,77.12 393.46,74.31 391.4,71.13 C388.98,73.57 387.42,77.26 383.81,78.14 C384.74,74.48 387.25,71.49 388.22,67.84 C384.91,69.74 383.46,73.67 380,75.36 C381.27,70.56 384.65,66.82 387.43,62.86 C387.57,60.97 385.95,59.83 384.27,60.76 C381.97,64.94 380.21,69.52 376.71,72.9 C375.6,68.8 379.41,65.65 379.99,61.74 C376.48,63.51 375.32,67.57 372.81,70.35 C371.55,66.41 375.13,63.22 376.05,59.59 C372.38,59.92 371.74,64.42 369.88,66.93 C368.98,66.6 368.09,66.28 367.2,65.97 C368.62,62.93 370.14,59.91 371.01,56.65 C367.66,57.74 366.59,61.37 364.83,64.03 C364.34,63.78 363.35,63.27 362.86,63.02 C364.29,60.08 365.71,57.09 366.26,53.83 C362.36,55.23 362.66,61.43 358.05,61.33 C358.83,57.97 360.2,54.78 361.07,51.44 C357.66,52.19 357.13,56.2 355.56,58.77 C354.69,58.48 353.81,58.19 352.94,57.93 C354.33,53.68 356.06,49.48 358.8,45.89 C358.53,44.97 358.29,44.04 358.06,43.12 C357.41,43.24 356.1,43.5 355.44,43.62 C354.24,47.85 352.51,51.88 350.69,55.86 C349.5,55.77 348.31,55.69 347.13,55.6 C348.01,52.71 349.04,49.88 350.08,47.05 C349.57,46.77 348.56,46.2 348.05,45.92 C346.85,48.59 345.68,51.27 344.52,53.96 C343.18,53.42 341.84,52.87 340.52,52.31 C343.68,47.11 347.15,42.1 350.42,36.95 Z" id="Shape"></path>
                    <path d="M167.45,72.44 C179.45,63.07 192.11,54.13 206.4,48.62 C200.3,53.7 191.42,54.78 186.62,61.51 C192.73,59.5 197.95,55.38 204.29,53.94 C199.91,57.29 194.65,59.13 189.93,61.89 C180.66,66.93 172.47,73.63 164.33,80.28 C165.25,78.73 166.19,77.19 167.06,75.61 C163.34,77.36 160.3,80.18 156.83,82.33 C159.67,78.34 163.7,75.49 167.45,72.44 Z" id="Shape"></path>
                    <path d="M116.74,66.04 C122.07,60.37 127.77,55.03 133.64,49.91 C140.43,61.28 147.46,72.55 153.35,84.41 C147.45,79.75 142.97,73.63 137.52,68.5 C135.35,66.59 133.69,64.19 133.18,61.3 C131.72,61.22 130.26,61.14 128.8,61.05 C128.67,62.37 128.55,63.68 128.43,65 C131.09,65.96 133.56,67.42 135.28,69.72 C140.34,75.92 146.74,80.94 151.36,87.51 C146.98,85.47 143.04,82.63 138.98,80.05 C131.64,75.26 124.12,70.76 116.74,66.04 Z" id="Shape"></path>
                    <path d="M464.34,60.17 C464.94,60.17 466.13,60.18 466.73,60.18 C466.73,60.75 466.75,61.9 466.76,62.47 C466.18,62.46 465.03,62.43 464.46,62.42 C464.43,61.86 464.37,60.73 464.34,60.17 Z" id="Shape"></path>
                    <path d="M104.05,74.23 C105.76,73.65 106.49,76.59 104.81,76.99 C103.09,77.53 102.32,74.64 104.05,74.23 Z" id="Shape"></path>
                    <path d="M274.71,74.91 C275.42,75.11 276.83,75.5 277.53,75.7 C277.45,77.17 277.68,78.93 276,79.6 C273.65,78.98 274.03,76.65 274.71,74.91 Z" id="Shape"></path>
                    <path d="M105.3,94.29 C108.91,89.46 112.08,83.95 117.46,80.85 C113.77,87.07 107.98,92.05 105.85,99.16 C111.99,94.18 115.39,86.22 122.92,82.89 C118.55,89.73 111.85,95.19 109.56,103.25 C115.6,98.68 119.21,91.81 124.47,86.47 C125.99,84.85 128.15,84.14 130.18,83.37 C126.06,90.52 119.68,96.28 116.82,104.17 C123.59,99.69 126.98,91.89 133.19,86.82 C132.14,92.65 128.08,97.15 125,102 C113.88,118.4 105.41,136.52 99.33,155.35 C97.43,160.93 96.86,166.83 95.38,172.51 C95.05,174.1 93.35,174.66 92.21,175.55 C92.86,166.82 95.86,158.51 98.16,150.12 C99.62,144.57 102.21,139.37 103.29,133.72 C99.83,135.28 99.46,139.51 97.95,142.56 C94.79,141.46 91.66,140.25 88.57,138.98 C90.88,132.37 95.43,126.58 96.25,119.49 C91.04,124.42 88.54,131.38 85.74,137.82 C83.01,144.62 80.74,151.59 78.45,158.55 C76.29,165.02 75.41,171.8 73.8,178.41 C71.59,177.63 72.06,175.21 72.41,173.43 C76.37,155.65 82.02,138.22 89.75,121.71 C94.04,112.1 99.1,102.81 105.3,94.29 Z M102.59,131.16 C107.2,131.26 107.45,126.09 107.79,122.71 C104.83,124.62 103.02,127.68 102.59,131.16 Z" id="Shape"></path>
                    <path d="M161.49,81.32 C164.64,80.85 160.23,86.36 159.17,84.06 C159.31,82.79 160.39,81.83 161.49,81.32 Z" id="Shape"></path>
                    <path d="M322.74,86.41 C324.01,86.36 325.29,86.33 326.57,86.33 C327.12,88.68 326.17,90.53 324.08,91.67 C323.17,90.81 322.28,89.95 321.39,89.09 C321.73,88.42 322.41,87.08 322.74,86.41 Z" id="Shape"></path>
                    <path d="M460.25,89.25 C461.25,87.54 463.47,89.73 462.45,91.06 C461.35,92.71 459.2,90.64 460.25,89.25 Z" id="Shape"></path>
                    <path d="M131.11,112.13 C135.91,104.96 140.59,97.48 147.25,91.87 C145.36,95.02 142.99,97.88 141.54,101.28 C145.43,99.2 147.84,95.38 151.29,92.74 C149.39,96.8 146.15,99.95 143.3,103.33 C139.52,107.69 136.02,112.29 132.68,116.99 C132.41,116.28 131.87,114.86 131.6,114.14 C125.87,120.19 123.33,128.28 118.86,135.16 C121.28,126.72 126.56,119.52 131.11,112.13 Z" id="Shape"></path>
                    <path d="M353.37,92.51 C354.99,92.03 355.56,92.58 355.08,94.17 C353.47,94.69 352.9,94.13 353.37,92.51 Z" id="Shape"></path>
                    <path d="M340.88,101.15 C342.5,100.53 343.03,101.06 342.49,102.72 C340.86,103.3 340.33,102.78 340.88,101.15 Z" id="Shape"></path>
                    <path d="M389.19,102.35 C390.86,101.92 391.68,104.76 390.02,105.26 C388.42,105.61 387.44,102.77 389.19,102.35 Z" id="Shape"></path>
                    <path d="M280.97,104.2 C282.6,103.66 283.15,104.21 282.61,105.85 C280.98,106.37 280.43,105.81 280.97,104.2 Z" id="Shape"></path>
                    <path d="M349.08,114.3 C350.76,113.85 351.35,114.42 350.88,116.02 C349.23,116.46 348.64,115.88 349.08,114.3 Z" id="Shape"></path>
                    <path d="M338.59,120.99 C340.66,118.64 343.51,118.12 346.51,118.44 C348.98,120.39 350.12,123.11 349.65,126.26 C346.67,130.13 340.66,129.29 338.35,125.16 C338.43,123.77 338.51,122.38 338.59,120.99 Z" id="Shape"></path>
                    <path d="M451.39,118.56 C453.58,119.28 451.31,122.79 449.57,121.78 C448.84,120.57 450.09,118.74 451.39,118.56 Z" id="Shape"></path>
                    <path d="M253.6,118.9 C255.19,118.35 255.72,118.88 255.19,120.51 C253.56,121.08 253.03,120.54 253.6,118.9 Z" id="Shape"></path>
                    <path d="M275.13,119.63 C276.79,119.11 277.38,119.63 276.88,121.19 C275.22,121.71 274.64,121.19 275.13,119.63 Z" id="Shape"></path>
                    <path d="M412.99,122.68 C414.38,122.21 414.85,122.69 414.39,124.12 C412.99,124.55 412.53,124.07 412.99,122.68 Z" id="Shape"></path>
                    <path d="" id="Shape"></path>
                    <path d="M192.35,127.51 C193.54,127.36 194.73,127.23 195.94,127.13 C195.85,128.8 195.52,130.54 193.99,131.5 C191.73,131.32 192.31,129.1 192.35,127.51 Z" id="Shape"></path>
                    <path d="M246.16,128.68 C247.6,127.5 249.38,129.96 247.75,130.93 C246.32,132.16 244.56,129.63 246.16,128.68 Z" id="Shape"></path>
                    <path d="M409.08,132.46 C407.57,129.82 410.05,128.12 412.54,128.38 C412.58,129.72 412.59,131.06 412.59,132.4 C411.41,132.43 410.24,132.45 409.08,132.46 Z" id="Shape"></path>
                    <path d="M267.02,130.92 C268.43,130.44 268.89,130.9 268.41,132.3 C266.97,132.76 266.51,132.3 267.02,130.92 Z" id="Shape"></path>
                    <path d="" id="Shape"></path>
                    <path d="M422.64,133.57 C422.62,131.48 425.35,132.27 425.08,134.01 L424.33,134.55 C423.91,134.3 423.06,133.82 422.64,133.57 Z" id="Shape"></path>
                    <path d="M301.58,133.13 C302.59,131.79 305.09,133.47 304.05,134.88 C303,136.25 300.53,134.59 301.58,133.13 Z" id="Shape"></path>
                    <path d="M168.34,134.33 C169.68,134.11 172.62,135.34 170.79,136.81 C169.27,138.8 167.85,135.84 168.34,134.33 Z" id="Shape"></path>
                    <path d="M402.29,134.58 C403.35,134.58 404.43,134.56 405.5,134.55 C405.52,135.64 405.53,136.73 405.55,137.82 C404.58,137.71 403.63,137.56 402.69,137.36 C402.51,136.44 402.38,135.51 402.29,134.58 Z" id="Shape"></path>
                    <path d="M137.82,136.06 C140.23,133.72 140.26,139.57 137.75,137.43 C137.77,137.09 137.8,136.4 137.82,136.06 Z" id="Shape"></path>
                    <path d="M412.54,136.49 C413.13,136.48 414.32,136.47 414.91,136.47 C415.2,137.35 415.51,138.24 415.83,139.12 C414.31,139.8 412.78,140.47 411.23,141.05 C411.59,139.51 412.05,138 412.54,136.49 Z" id="Shape"></path>
                    <path d="M139.6,141.62 C140.52,140.47 141.63,139.49 142.7,138.48 C143.49,138.52 145.07,138.6 145.86,138.64 C149.69,141.2 149.24,146.56 146.22,149.58 C143.93,149.6 141.6,149.59 139.49,148.56 C139.4,146.25 139.18,143.91 139.6,141.62 Z" id="Shape"></path>
                    <path d="M349.41,139.99 C350.96,139.05 352.61,138.29 354.42,139.01 C354.37,140.15 354.32,141.3 354.29,142.45 C352.14,142.85 350.44,141.88 349.41,139.99 Z" id="Shape"></path>
                    <path d="M367.22,141.69 C367.33,140.39 367.01,138.57 368.89,138.64 C369.39,139.01 370.37,139.75 370.86,140.13 C369.83,141.04 368.55,141.47 367.22,141.69 Z" id="Shape"></path>
                    <path d="M215.39,140.56 C217.03,140.05 217.58,140.58 217.07,142.16 C215.44,142.71 214.89,142.17 215.39,140.56 Z" id="Shape"></path>
                    <path d="M374.54,140.33 C376.76,140.13 378.28,141.45 377.19,143.64 C376.53,143.54 375.2,143.34 374.53,143.24 C374.54,142.27 374.54,141.3 374.54,140.33 Z" id="Shape"></path>
                    <path d="M359.52,141.21 C361.5,141.18 363.28,142.01 364.95,143.03 C363.7,145.21 361.35,144.17 359.54,143.57 C359.53,142.98 359.52,141.8 359.52,141.21 Z" id="Shape"></path>
                    <path d="M442.47,141.96 C445.66,151.44 449.53,160.83 450.93,170.8 C449.97,171.07 449.03,171.36 448.1,171.66 C445.74,163.28 443.54,154.83 440.22,146.76 C440.75,146.77 441.83,146.79 442.37,146.79 C442.39,145.18 442.42,143.57 442.47,141.96 Z" id="Shape"></path>
                    <path d="M225.2,143.67 C226.86,143.12 227.4,143.65 226.83,145.24 C225.16,145.78 224.62,145.26 225.2,143.67 Z" id="Shape"></path>
                    <path d="M154.34,145.28 C154.89,144.75 155.99,143.7 156.54,143.17 C157.19,144.52 157.52,145.99 157.61,147.49 C156.59,147.56 155.58,147.63 154.56,147.71 C154.51,147.1 154.4,145.89 154.34,145.28 Z" id="Shape"></path>
                    <path d="M400.89,146.88 C402.49,146.37 403.05,146.92 402.59,148.55 C400.95,149.04 400.39,148.48 400.89,146.88 Z" id="Shape"></path>
                    <path d="M129.54,154.37 C129.43,152.27 129.67,150.18 130.7,148.31 C131.46,148.68 132.97,149.43 133.73,149.8 C133.71,151.33 133.57,152.85 133.42,154.37 C132.45,154.37 130.51,154.37 129.54,154.37 Z" id="Shape"></path>
                    <path d="M148.05,155.59 C148.19,154.08 148.94,152.85 150.26,152.07 C150.98,153.9 150.69,156.37 148.05,155.59 Z" id="Shape"></path>
                    <path d="M194.26,153.67 C195.22,152.94 196.17,152.19 197.12,151.43 C197.7,151.79 198.86,152.51 199.44,152.88 C199.51,154.06 199.6,155.23 199.69,156.42 C199.23,156.92 198.32,157.92 197.86,158.43 C197.03,158.43 195.38,158.44 194.56,158.44 C194.39,156.86 194.3,155.26 194.26,153.67 Z" id="Shape"></path>
                    <path d="M174.41,155.26 C177.28,152.35 177.28,159.66 174.34,157.03 C174.35,156.59 174.39,155.7 174.41,155.26 Z" id="Shape"></path>
                    <path d="M341.49,155.31 C344.3,152.56 344.48,159.84 341.47,157.09 C341.47,156.64 341.49,155.75 341.49,155.31 Z" id="Shape"></path>
                    <path d="M369.56,155.63 C370.08,155.61 371.11,155.57 371.63,155.55 C371.63,156.05 371.63,157.03 371.64,157.53 C371.07,157.51 369.95,157.48 369.38,157.46 C369.43,157.01 369.51,156.09 369.56,155.63 Z" id="Shape"></path>
                    <path d="M88.29,159.43 C88.49,157.7 88.24,155.08 90.82,155.5 C91.63,157.07 92.34,158.7 93.05,160.32 C92.13,160.13 91.22,159.95 90.3,159.78 C89.8,159.69 88.8,159.51 88.29,159.43 Z" id="Shape"></path>
                    <path d="M211.4,160.11 C213.25,158.83 215.04,157.43 217,156.29 C217.4,156.99 218.22,158.41 218.62,159.11 C217.59,159.92 216.64,162.1 215.03,161.21 C213.82,160.81 212.61,160.44 211.4,160.11 Z" id="Shape"></path>
                    <path d="M387.04,157.92 C388.68,157.38 389.27,157.9 388.81,159.49 C387.15,160.01 386.56,159.49 387.04,157.92 Z" id="Shape"></path>
                    <path d="M147.97,169.45 C149.3,168.38 151.52,170.52 149.74,171.54 C148.35,172.68 146.31,170.54 147.97,169.45 Z" id="Shape"></path>
                    <path d="M189.67,172.95 C189,168.99 193.81,169.4 196.37,169.48 C194.78,171.39 192.4,175.3 189.67,172.95 Z" id="Shape"></path>
                    <path d="M133.53,170.13 C136.47,167.2 136.2,174.6 133.44,171.95 C133.46,171.49 133.51,170.58 133.53,170.13 Z" id="Shape"></path>
                    <path d="M152.2,173.16 C153.28,171.12 155.04,170.18 157.34,170.42 C157.34,171.43 157.32,173.45 157.32,174.46 C155.38,174.93 153.48,174.9 152.2,173.16 Z" id="Shape"></path>
                    <path d="" id="Shape"></path>
                    <path d="M340.68,172.78 C341.27,172.45 342.45,171.78 343.05,171.45 C343.55,171.86 344.56,172.67 345.06,173.08 C344.91,173.73 344.62,175.02 344.48,175.67 C343.1,175.66 341.74,175.64 340.38,175.6 C340.48,174.66 340.58,173.72 340.68,172.78 Z" id="Shape"></path>
                    <path d="M118.56,172.95 C119.83,172.8 121.11,172.66 122.39,172.53 C121.62,173.47 120.85,174.42 120.07,175.35 C120.63,176.63 121.21,177.9 121.78,179.18 C121.33,179.34 120.41,179.65 119.96,179.8 C117.86,178.01 118.15,175.41 118.56,172.95 Z" id="Shape"></path>
                    <path d="M387.61,174.67 C389.74,174.34 391.91,174.29 394.06,174.58 C394.53,175.8 395.03,177.01 395.58,178.21 C394.24,179.53 393.28,181.89 391.03,181.54 C389.27,181.85 388.28,180.05 387.12,179.11 C387.28,177.63 387.45,176.15 387.61,174.67 Z" id="Shape"></path>
                    <path d="M358.9,174.89 C360.5,174.38 361.07,174.93 360.6,176.55 C358.96,177.02 358.39,176.46 358.9,174.89 Z" id="Shape"></path>
                    <path d="M475.37,180.37 C480.87,178.55 486.19,176.16 491.84,174.77 C492.84,182.23 493.66,189.71 494.22,197.21 C480.43,195.31 466.57,193.9 452.81,191.82 C461.07,190.61 469.43,190.21 477.68,188.81 C480.18,188.23 482.59,189.18 484.94,189.95 C485.69,188.71 486.46,187.48 487.21,186.24 C486.11,185.48 485.03,184.71 483.95,183.93 C481.87,185.34 479.66,186.71 477.08,186.79 C469.01,187.6 460.95,188.62 452.85,188.83 C460.18,185.57 467.84,183.14 475.37,180.37 Z" id="Shape"></path>
                    <path d="M120.46,185.08 C122.17,183.13 124.08,187.21 121.83,187.78 C120.28,188.25 119.45,186.09 120.46,185.08 Z" id="Shape"></path>
                    <path d="M129.28,186.2 C130.25,184.5 132.58,186.52 131.46,187.9 C130.42,189.55 128.16,187.61 129.28,186.2 Z" id="Shape"></path>
                    <path d="M395.53,190.41 C397.16,189.88 397.71,190.42 397.17,192.03 C395.55,192.57 395.01,192.03 395.53,190.41 Z" id="Shape"></path>
                    <path d="M52.52,200.06 C50.82,197.37 55.42,196.4 54.71,199.55 C53.98,199.75 53.26,199.92 52.52,200.06 Z" id="Shape"></path>
                    <path d="M203.94,197.53 C205.58,197.01 206.14,197.55 205.62,199.17 C203.98,199.66 203.42,199.12 203.94,197.53 Z" id="Shape"></path>
                    <path d="M34.49,198.78 C35.93,199.08 37.42,199.45 37.66,201.16 C36.65,201.52 35.62,201.78 34.55,201.92 C34.54,201.13 34.51,199.57 34.49,198.78 Z" id="Shape"></path>
                    <path d="M474.73,199.37 C475.12,199.35 475.9,199.32 476.29,199.3 C477.2,209.48 476.88,219.73 475.79,229.88 C475.3,236.06 474.16,242.28 475.16,248.47 C476.04,246.73 476.74,244.9 477.06,242.97 C478.4,235.3 480.22,227.67 480.44,219.86 C480.83,214.06 480.27,208.22 481,202.44 C482.54,205.74 482.51,209.45 482.61,213.02 C482.79,221.74 481.37,230.38 480.76,239.06 C480.54,241.06 481.04,243.03 481.69,244.91 C485.36,232.98 485.42,220.35 486.02,208 C487.42,210.4 487.92,213.18 487.75,215.95 C486.51,239.37 482.47,262.76 474.31,284.81 C476.06,284 477.98,283 479.73,284.42 C466.44,286.07 453.54,289.98 441.18,295.11 C451.69,286.29 456.82,272.98 460.46,260.13 C465.31,245.23 465.66,229.43 466.58,213.93 C466.94,209.28 466.62,204.09 469.85,200.3 C471.3,212.18 469.38,224.13 468.38,235.97 C467.77,242.4 466.41,248.87 467.3,255.34 C471.25,247.69 471.64,238.84 472.81,230.47 C474.23,220.15 473.69,209.71 474.73,199.37 Z" id="Shape"></path>
                    <path d="M381.81,206.57 C382.17,204.11 384.4,202.72 386.02,201.07 C387.4,200.88 387.7,202.15 388.11,203.18 C385.82,203.95 383.9,205.41 381.81,206.57 Z" id="Shape"></path>
                    <path d="M87.73,207.99 C87.81,207.86 87.97,207.6 88.04,207.47 C87.97,207.6 87.81,207.86 87.73,207.99 Z" id="Shape"></path>
                    <path d="M452.31,208.75 C454.21,212.21 456.4,215.8 455.55,219.94 C453.36,246.06 447.95,273.03 432.96,295.05 C431.05,298.6 426.49,297.6 423.18,298 C423.76,295.86 424.67,293.81 426.41,292.37 C437.18,282.17 443.28,268.08 446.96,253.93 C450.74,239.2 452.21,223.94 452.31,208.75 Z" id="Shape"></path>
                    <path d="M77.48,213.33 C78.06,213.3 79.21,213.24 79.79,213.21 C79.77,213.82 79.72,215.03 79.7,215.64 C79.19,215.56 78.19,215.41 77.69,215.34 C77.64,214.84 77.53,213.83 77.48,213.33 Z" id="Shape"></path>
                    <path d="M348.83,213.57 C350.69,213.02 353.49,212.77 354.25,215.07 C355.46,217.59 352.56,220.36 350.05,219.64 C349.03,218.86 348.08,218.01 347.2,217.1 C347.66,215.88 348.2,214.71 348.83,213.57 Z" id="Shape"></path>
                    <path d="M68.52,214.88 C70.1,214.38 70.65,214.94 70.16,216.55 C68.55,217.07 68,216.52 68.52,214.88 Z" id="Shape"></path>
                    <path d="M201.96,218.07 C203.22,217.04 204.55,216.1 205.94,215.25 C208.89,216.58 207.14,219.7 205,220.78 C204.24,220.1 202.72,218.74 201.96,218.07 Z" id="Shape"></path>
                    <path d="M305.23,246.11 C307.43,245.97 305.14,249.47 304.75,246.97 L305.23,246.11 Z" id="Shape"></path>
                    <path d="M0.42,254.58 C2.05,254.07 2.62,254.61 2.11,256.2 C0.49,256.73 -0.07,256.19 0.42,254.58 Z" id="Shape"></path>
                    <path d="M491.55,263.1 C492.33,263.52 493.13,263.93 493.94,264.34 C492.75,269.01 491.71,273.72 490.27,278.33 C489.95,279.92 488.37,280.63 487.24,281.59 C488.34,275.35 490.14,269.27 491.55,263.1 Z" id="Shape"></path>
                    <path d="M497.21,266.03 C497.67,266.37 498.6,267.05 499.06,267.39 C498.01,271.51 497.87,276.57 493.89,279.1 C494.39,274.61 495.73,270.28 497.21,266.03 Z" id="Shape"></path>
                    <path d="M117.92,277.75 C126.46,275.76 135.18,272.74 144.04,274.25 C150.69,275.07 157.33,273.57 163.98,273.65 C176.67,274.29 189.14,276.81 201.57,279.27 C221.81,283.06 242.07,286.7 262.27,290.68 C301.14,298.18 340.37,305.1 380.06,305.55 C384.93,305.38 389.69,308.52 394.47,306.57 C399.21,305.01 404.24,305.1 409.16,304.7 C429.2,303.32 449.32,299.82 467.88,291.89 C479.14,287.01 491.19,284.03 502.05,278.21 C500.71,281.19 499.98,285.1 496.54,286.39 C467.73,300.59 435.89,307.76 403.99,310.33 C399.48,310.78 394.82,310.5 390.49,312.07 C391.52,313.21 392.78,314.18 394.42,313.85 C429.74,311.92 465.17,304.72 497.17,289.28 C495.7,291.65 494.62,294.6 491.95,295.88 C459.2,311.58 422.66,317.25 386.65,318.59 C386.49,319.22 386.17,320.47 386.01,321.1 C422.18,320.45 458.81,314.33 491.84,299.09 C489.83,301.34 487.88,303.82 485.02,305.01 C454.41,319.27 420.46,324.39 386.99,326.01 C384.77,326.19 381.96,326.45 381.38,329.1 C409.32,328.42 437.41,324.6 464.13,316.14 C470.95,314.07 477.46,311.14 484.2,308.86 C477.3,318.44 464.91,320.19 454.38,323.32 C447.82,325.3 440.71,324.5 434.33,327.17 C422.72,331.8 410.21,333.27 397.9,334.82 C372.4,338.05 346.62,336.7 321.04,335.25 C300.39,333.99 279.72,331.83 259.55,327.01 C236.48,321.63 213.53,315.61 190.16,311.62 C177.54,309.07 164.54,307.98 152.43,303.36 C147.44,301.19 142.07,303.26 136.9,302.84 C133.58,302.78 130.51,301.43 127.41,300.4 C124.46,299.2 121.34,300.48 118.35,300.84 C108.57,302.78 98.56,302.96 88.76,304.71 C78.1,306.26 67.73,309.4 57.08,310.94 C60.32,308.1 64.08,305.7 68.31,304.7 C82.48,301.19 96.5,296.56 111.16,295.64 C124.49,294.91 137.87,295.55 151.08,297.38 C154.28,298.03 157.61,297.79 160.28,295.72 C156.83,293.9 152.88,293.78 149.08,293.41 C134.62,291.93 119.98,291.53 105.51,293.11 C95.59,294.23 86.11,297.5 76.33,299.3 C79.72,296.51 83.48,293.98 87.78,292.86 C110.85,287.29 135.11,285.23 158.54,289.77 C161.3,290.58 163.92,289.36 166.17,287.84 C161.96,286.2 157.45,285.63 153,285.11 C133,282.84 112.71,284.53 93.1,288.87 C97.43,286.56 101.68,283.77 106.62,283.04 C124.46,280.28 142.77,278.17 160.69,281.4 C164.82,282.01 169.58,284.34 173.11,280.87 C168.5,278.13 163.04,277.84 157.87,277.03 C144.58,275.27 131.2,276.67 117.92,277.75 Z M194.22,284.92 C194.67,287.51 197.22,286.7 199.02,286.28 C198.54,285.13 198.06,283.98 197.57,282.84 C196.41,283.46 195.22,284.05 194.22,284.92 Z M184.94,285.14 C187.92,287.13 190.26,289.85 191.91,293.03 C188.02,295.85 182.87,297.41 180.41,301.81 C186.22,303.6 192.21,304.77 198.15,306.05 C200.15,306.68 202.09,305.72 203.93,305.04 C200.2,302.16 197.44,298.34 195.66,293.99 C198.99,291.67 204.25,291.01 205.35,286.5 C201.75,288.05 198.42,290.15 194.93,291.92 C193.38,289.49 192.19,286.71 189.91,284.87 C188.24,284.83 186.59,285.01 184.94,285.14 Z M216.29,294.17 C219.95,294.08 223.62,294.14 227.26,294.64 C224.03,298.93 219.68,302.14 216.04,306.03 C214.71,307.18 214.9,309.03 214.65,310.6 C216.23,309.57 217.76,308.4 218.78,306.78 C220.73,303.77 223.45,301.42 226.09,299.04 C228.63,303.88 229.53,309.49 232.8,313.96 C233.89,312.92 234.99,311.89 236.07,310.84 C231.57,307.67 230.73,301.78 228.63,297.04 C228.94,296.72 229.57,296.07 229.89,295.75 C233.85,296.15 238.17,296.65 241.31,293.65 C235.09,293.8 229.15,291.77 223.02,291.23 C220.35,290.81 218.26,292.69 216.29,294.17 Z M250.78,299.05 C254.67,299.84 256.65,303.08 257.79,306.58 C254.18,309.77 247.84,311.63 247.73,317.25 C251.94,315.05 254.32,310.54 258.74,308.59 C260.88,312.77 263.03,316.96 265.81,320.77 C266.9,320.11 267.99,319.45 269.09,318.81 C269.03,311.97 271.47,305.48 272.03,298.71 C268.09,299.89 264.56,301.99 261.14,304.19 C259.7,301.73 258.28,299.26 256.73,296.87 C254.69,297.42 252.69,298.12 250.78,299.05 Z M283.33,311 C282.99,314.4 286.04,316.44 288.41,318.23 C288.21,320.61 288.09,322.99 288.14,325.38 C289.36,324.9 290.8,324.72 291.77,323.75 C292.24,322.09 292.31,320.37 292.54,318.68 C295.26,317.65 298.45,316.71 299.91,313.92 C301.98,309.98 299.78,304.75 295.66,303.23 C290.34,300.84 283.15,304.96 283.33,311 Z M309.8,310.4 C315.74,310.58 321.64,311.28 327.49,312.25 C329.8,312.74 332.1,312.14 334.31,311.49 C334.48,311.01 334.83,310.07 335,309.6 C328.92,309.57 323.01,307.89 316.95,307.67 C314.23,307.37 311.98,309.07 309.8,310.4 Z M350.01,310.87 C347.11,310.86 344.98,312.99 342.9,314.7 C346.61,314.15 350.34,313.72 354.1,313.89 C351.59,318.34 348.06,322.08 345.14,326.24 C343.99,327.65 344.08,329.54 343.96,331.25 C345.46,330.4 346.79,329.22 347.43,327.57 C348.87,324.22 351.1,321.32 353.41,318.52 C357.2,322.48 358.68,328.05 362.67,331.85 C363.59,330.87 364.51,329.9 365.43,328.93 C360.71,325.4 357.81,319.93 355.67,314.56 C359.95,314.33 364.81,314.37 367.65,310.57 C361.79,311.6 355.89,310.74 350.01,310.87 Z M317.41,313.31 C312.4,314.83 309.66,321.59 313.2,325.77 C317.63,331.42 328.65,329.58 329.55,321.95 C331.13,315.27 322.95,310.97 317.41,313.31 Z" id="Shape"></path>
                    <path d="M184.88,300.17 C187.36,298.27 190.02,296.63 192.76,295.13 C194.21,297.75 195.64,300.38 196.98,303.06 C192.89,302.33 188.83,301.42 184.88,300.17 Z" id="Shape"></path>
                    <path d="M261.8,306.31 C263.89,305.06 265.99,303.83 268.13,302.68 C267.61,306.56 266.82,310.4 265.75,314.16 C264.22,311.65 262.93,309.01 261.8,306.31 Z" id="Shape"></path>
                    <path d="M289.43,305.24 C293.75,303.02 298.91,307.75 297.49,312.26 C296.8,316.45 291.03,317.15 288.2,314.74 C285.1,312.37 285.93,306.79 289.43,305.24 Z M289.81,310.01 C290.25,310.96 290.68,311.92 291.1,312.89 C292.05,312.53 293.02,312.19 293.99,311.86 C293.67,310.76 293.35,309.66 293.04,308.57 C291.96,309.04 290.88,309.52 289.81,310.01 Z" id="Shape"></path>
                    <path d="M60.12,324.07 C61.59,319.87 63.57,315.7 66.94,312.68 C65.21,316.77 62.83,320.56 60.12,324.07 Z" id="Shape"></path>
                    <path d="M55.62,323.58 C56.94,319.94 58.25,315.94 61.54,313.58 C60.1,317.19 58.25,320.7 55.62,323.58 Z" id="Shape"></path>
                    <path d="M49.15,325.32 C50.26,321.29 51.99,317.1 55.74,314.84 C54.2,318.64 53.08,323.27 49.15,325.32 Z" id="Shape"></path>
                    <path d="M317.54,315.53 C320.17,314.09 324,314.75 325.75,317.27 C327.06,319.48 326.69,322.35 325.51,324.53 C323.11,328.02 317.31,326.92 315.35,323.51 C314.2,320.81 314.91,317.11 317.54,315.53 Z" id="Shape"></path>
                    <path d="M40.33,324.15 C40.8,321.13 41.87,318.05 44.97,316.87 C43.85,319.55 42.26,321.99 40.33,324.15 Z" id="Shape"></path>
                    <path d="M96.87,327.88 C100.64,328.71 104,330.68 107.01,333.04 C115.32,339.34 122.89,346.52 130.93,353.14 C135.83,357.19 141.43,360.5 145.58,365.39 C147.31,368.12 148.62,371.1 150.16,373.94 C133.66,365.18 118.82,353.53 105.37,340.63 C101.4,337.23 99.51,332.24 96.87,327.88 Z" id="Shape"></path>
                    <path d="M439.53,332.47 C443.64,330.88 448.09,330.49 452.38,329.55 C442.06,343.1 431.23,356.27 419.87,368.95 C413.27,376.6 404.2,381.32 395.96,386.91 C392.72,389.36 388.37,388.88 384.91,390.87 C379,393.31 373.98,397.33 368.17,399.96 C375.94,394.72 383.86,389.31 389.66,381.81 C389.28,380.83 388.9,379.86 388.53,378.89 C394.8,374.45 401.91,370.22 405.28,362.98 C398.66,365.61 394.14,371.5 387.92,374.79 C384.64,376.52 381.01,377.65 378.11,380.04 C374.26,383.24 369.46,384.84 365.05,387.08 C357.74,390.66 350.63,394.91 342.62,396.76 C319.77,402.12 296.6,407.35 272.99,407.19 C247.14,407.74 221.66,400.57 198.51,389.48 C193.08,387.46 187.08,387.46 181.8,385.02 C177.73,383.28 176.35,378.59 172.85,376.13 C162.72,368.45 149.98,364.54 141.15,355.07 C148.21,359.76 155.08,365.11 163.14,367.97 C157.37,358.87 145.7,356.45 138.85,348.39 C149.53,354.83 159.77,362.34 171.57,366.65 C166.6,360.64 159.5,357.01 153.08,352.81 C146.63,348.53 139.1,345.45 134.2,339.21 C151.75,349.23 168.44,360.87 183.38,374.5 C185.39,376.27 188.7,376.12 190.17,378.57 C194.22,384.81 201.56,387.74 208.4,389.83 C216.89,393.09 225.8,395.63 234.95,395.82 C247.08,396.39 258.87,400.49 271.04,400.07 C288.45,397.7 306.13,398.01 323.52,395.34 C332.92,393.62 341.66,389.56 350.3,385.63 C353.82,384.44 353.87,379.68 357.37,378.43 C370.6,371.7 383.68,363.77 393.27,352.22 C395.66,349.36 397.76,346.24 399.11,342.76 C392.28,344.1 387.99,350.16 381.72,352.64 C377.62,354.3 373.67,356.41 369.32,357.34 C374.26,353.16 380.42,350.7 385.15,346.23 C387.79,344.13 389.79,340.82 393.35,340.25 C399.83,338.82 406.48,338.53 413.04,337.73 C409.13,343.06 404.01,347.48 400.78,353.3 C409.11,350.18 412.84,341.13 420.22,336.69 C417.32,342.05 412.57,346.05 408.61,350.59 C404.59,355.28 398.62,357.96 395.3,363.28 C408.51,358.35 419.04,347.73 425.88,335.58 C426.75,335.7 428.5,335.95 429.38,336.08 C425.14,343.18 418.52,348.55 414.65,355.89 C421.82,352.01 428.15,346.63 433.45,340.46 C435.69,337.96 437.03,334.72 439.53,332.47 Z" id="Shape"></path>
                    <path d="M28.81,344.12 C33.02,342.95 37.33,342.16 41.66,341.64 C36.69,345.35 31.3,348.5 26.63,352.63 C17.43,360.32 7.87,367.8 0.83,377.64 C3.53,370.95 9.11,366.07 14.05,361.03 C16.78,358 21.41,356.64 22.84,352.6 C16.47,353.41 12.54,359.07 7.85,362.83 C10.53,356.14 17.13,352.61 22.8,348.82 C25.03,347.52 26.19,344.75 28.81,344.12 Z" id="Shape"></path>
                </g>
            </g>
        </g>
    </g>
</svg>