<?xml version="1.0" encoding="UTF-8"?>
<svg width="613px" height="799px" viewBox="0 0 613 799" version="1.1" xmlns="http://www.w3.org/2000/svg" xmlns:xlink="http://www.w3.org/1999/xlink">
    <!-- Generator: Sketch 51.3 (57544) - http://www.bohemiancoding.com/sketch -->
    <title>/svg/Pinterest</title>
    <desc>Created with Sketch.</desc>
    <defs></defs>
    <g id="Page-1" stroke="none" stroke-width="1" fill="none" fill-rule="evenodd">
        <g id="Custom-Preset-Copy-8" transform="translate(-235.000000, -236.000000)" fill="#F5F5F5">
            <path d="M384.54227,1034.73883 C372.295823,1030.96907 360.260167,1026.71539 348.457432,1022 C344.534656,983.935888 359.054137,889.670298 368.232968,850.08688 C376.950878,812.500052 424.484521,610.701302 424.484521,610.701302 C424.484521,610.701302 410.135558,581.850915 410.135558,539.199083 C410.135558,472.232864 448.797932,422.238159 496.937149,422.238159 C537.864528,422.238159 557.6322,453.086124 557.6322,490.076837 C557.6322,531.398267 531.427353,593.1771 517.904173,650.427828 C506.602743,698.361791 541.847948,737.452724 588.941173,737.452724 C674.201303,737.452724 739.740948,647.198543 739.740948,516.917804 C739.740948,401.607053 657.209835,320.985458 539.362734,320.985458 C402.868667,320.985458 322.751986,423.76595 322.751986,529.984961 C322.751986,571.37745 338.634546,615.762358 358.453338,639.891199 C362.373841,644.660119 362.947957,648.836872 361.780064,653.704487 C358.138754,668.915289 350.046081,701.626607 348.457432,708.322044 C346.365448,717.137441 341.505125,719.008689 332.413647,714.760876 C272.501124,686.763209 235.042033,598.822428 235.042033,528.18872 C235.042033,376.270191 344.989143,236.751643 552.005079,236.751643 C718.416085,236.751643 847.737637,355.800943 847.737637,514.900487 C847.737637,680.877067 743.496295,814.454203 598.811247,814.454203 C550.200153,814.454203 504.502894,789.10155 488.860205,759.15368 C488.860205,759.15368 464.806325,851.105407 458.974724,873.639344 C452.07995,900.271392 427.269132,953.97122 384.54227,1034.73883 Z" id="Pinterest"></path>
        </g>
    </g>
</svg>