<?xml version="1.0" encoding="UTF-8"?>
<svg width="373px" height="373px" viewBox="0 0 373 373" version="1.1" xmlns="http://www.w3.org/2000/svg" xmlns:xlink="http://www.w3.org/1999/xlink">
    <!-- Generator: Sketch 51.3 (57544) - http://www.bohemiancoding.com/sketch -->
    <title>/svg/stitch</title>
    <desc>Created with Sketch.</desc>
    <defs></defs>
    <g id="Page-1" stroke="none" stroke-width="1" fill="none" fill-rule="evenodd">
        <g id="Custom-Preset-Copy-2" transform="translate(-354.000000, -354.000000)" fill="#000000">
            <path d="M588.028849,354.0311 C634.352566,354.0311 680.676283,353.961125 727,354.0311 C727,400.284842 727,446.538583 727,492.792325 C711.605411,492.792325 696.210823,492.792325 680.816234,492.792325 C680.816234,461.863197 680.816234,430.934068 680.746258,400.00494 C649.887106,400.00494 618.957977,400.00494 588.028849,400.00494 C588.028849,384.680327 588.028849,369.355714 588.028849,354.0311 Z M376.983032,376.983032 C437.581732,376.913057 498.110456,376.913057 558.709155,376.983032 C558.709155,392.377621 558.709155,407.77221 558.709155,423.236774 C513.57502,423.236774 468.370909,423.166799 423.236774,423.236774 C423.166799,468.370909 423.236774,513.57502 423.236774,558.709155 C407.77221,558.709155 392.377621,558.709155 376.983032,558.709155 C376.913057,498.110456 376.913057,437.581732 376.983032,376.983032 Z M657.724351,521.972068 C672.978989,521.972068 688.233627,521.972068 703.488264,521.902093 C704.048068,582.500792 703.628215,643.169467 703.768166,703.768166 C643.169467,703.628215 582.500792,704.048068 521.902093,703.488264 C521.972068,688.233627 521.972068,672.978989 521.972068,657.724351 C567.106203,657.234523 612.310314,657.654375 657.514424,657.514424 C657.654375,612.310314 657.234523,567.106203 657.724351,521.972068 Z M354.0311,588.028849 C369.355714,588.028849 384.680327,588.028849 400.00494,588.028849 C400.00494,618.957977 400.00494,649.81713 400.00494,680.746258 C430.934068,680.816234 461.863197,680.816234 492.792325,680.816234 C492.792325,696.210823 492.792325,711.605411 492.792325,727 C446.538583,727 400.284842,727 354.0311,727 C353.961125,680.676283 354.0311,634.352566 354.0311,588.028849 Z" id="stitch"></path>
        </g>
    </g>
</svg>