<?xml version="1.0" encoding="UTF-8"?>
<svg width="541px" height="538px" viewBox="0 0 541 538" version="1.1" xmlns="http://www.w3.org/2000/svg" xmlns:xlink="http://www.w3.org/1999/xlink">
    <!-- Generator: Sketch 51.3 (57544) - http://www.bohemiancoding.com/sketch -->
    <title>/svg/TGP</title>
    <desc>Created with Sketch.</desc>
    <defs></defs>
    <g id="Page-1" stroke="none" stroke-width="1" fill="none" fill-rule="evenodd">
        <g id="Custom-Preset-Copy" transform="translate(-288.000000, -265.000000)" fill="#F5F5F5">
            <path d="M389.361111,720.253968 C423.191686,765.497206 438.404762,779.214286 469.031746,802.488095 C446.56746,800.329365 424.980159,793.785714 404.269841,785.083333 C357,759 313.627518,703.754694 300,663 C287.215154,624.765416 286.28168,577.82398 292.420635,552.615079 C300.246032,523.269841 314.480159,496.420635 331.412698,471.460317 C346.72619,454.325397 363.186508,438.269841 381.603175,424.373016 C409.059524,409.261905 437.188738,394.366056 467.884921,386.730159 C507,377 634.309524,359.543651 702.916667,332.559524 C743.392857,319.202381 777.460317,292.960317 809.166667,265.301587 C822.996032,291.206349 833.115079,320.956349 826.638889,350.503968 C816.452381,399.615079 777.93254,436.853175 735.56746,460.531746 C688.81746,480.634921 637.75,487.718254 587.222222,489.607143 C533.186508,492.373016 471.194444,492.718254 432,521 C402.947525,541.963551 387.204818,566.646317 381.603175,579 C368,609 363,685 389.361111,720.253968 Z M506.607143,524.079365 C549,516 602.659348,525.898562 667,516 C706,510 722.007937,492.575397 744.539683,484.81746 C744.134921,503.571429 740.761905,522.123016 735.837302,540.202381 C708.043651,596.261905 607.445616,603.734127 583.687679,601 C559.929743,598.265873 517,587 482.051587,589.380952 C457.765873,594.642857 438.269841,609.349206 422.888889,628.373016 C422.118206,620.280841 429.697858,579.021433 447,556.595238 C466.04611,531.908596 495.487668,526.19855 506.607143,524.079365 Z M422,670 C431.210317,682.452381 471,710 504,689 C537,668 523.742063,626.146825 521.718254,614.40873 C542.22619,618.996032 565.657915,625.643705 587,626 C627.40873,626.674603 663.924603,621.087302 700.420635,602.940476 C699.543651,637.412698 689.123016,670.777778 673,701 C646.892857,746.738095 603.007937,780.361111 553.289683,796.821429 C538,805 499,805 479,790 C456.357695,773.018271 433.076274,746.613535 422,718 C414.270925,698.033344 414.270925,679 422,670 Z" id="TGP"></path>
        </g>
    </g>
</svg>