<?xml version="1.0" encoding="UTF-8"?>
<svg width="707px" height="346px" viewBox="0 0 707 346" version="1.1" xmlns="http://www.w3.org/2000/svg" xmlns:xlink="http://www.w3.org/1999/xlink">
    <!-- Generator: Sketch 51.3 (57544) - http://www.bohemiancoding.com/sketch -->
    <title>/svg/互动作业</title>
    <desc>Created with Sketch.</desc>
    <defs></defs>
    <g id="Page-1" stroke="none" stroke-width="1" fill="none" fill-rule="evenodd">
        <g id="Custom-Preset-Copy-4" transform="translate(-186.000000, -366.000000)" fill="#F5F5F5">
            <path d="M189.199095,444.309469 L635.472851,400.360277 C636.006033,377.986143 636.272624,366.799076 636.272624,366.799076 C636.272624,366.799076 642.937406,366.532717 656.266968,366 L655.467195,398.762125 L698.62388,394.112032 C699.947163,393.969449 701.277605,393.903784 702.608497,393.915367 C721.606373,394.08071 736.873157,409.615568 736.707814,428.613444 L734.98729,626.301179 C734.794148,648.493179 717.520862,666.781646 695.376021,668.240472 L661.865385,670.448037 L661.865385,649.672055 L689.837249,648.837803 C704.104765,648.412278 715.450226,636.723397 715.450226,622.449536 L715.450226,430.162681 C715.450226,429.834395 715.439591,429.506195 715.418337,429.178598 C714.874843,420.801482 707.643259,414.451077 699.266143,414.994571 L653.867647,417.939954 C649.174049,479.010519 644.641998,521.361558 640.271493,544.993072 C626.675339,618.508083 606.36563,673.523345 589.885747,677.639723 C568.025264,680.30331 533.634992,682.43418 486.714932,684.032333 L496.312217,517.025404 L465.121041,519.422633 L465.121041,499.445727 L593.084842,488.258661 L593.084842,507.43649 L516.306561,515.427252 L509.108597,664.854503 C543.232278,662.190916 566.692308,660.060046 579.488688,658.461894 C596.283937,652.069284 610.94734,586.753793 619.477376,544.993072 C625.164066,517.152591 629.962709,475.600628 633.873303,420.337182 L247.582579,458.692841 L238.785068,520.221709 L445.126697,501.04388 L431.530543,668.849885 L462.721719,667.251732 L461.921946,688.027714 L186,712 L186.799774,692.822171 L411.536199,671.247113 L416.334842,612.115473 L204.394796,632.092379 L226.788462,461.090069 L189.199095,463.487298 L189.199095,444.309469 Z M236.385747,541.796767 L226.788462,610.517321 L417.934389,592.138568 L423.532805,523.418014 L236.385747,541.796767 Z M759.437783,421.621141 C759.437783,402.738899 773.728821,386.920626 792.514152,385.010015 L862.166803,377.92581 C863.108167,377.830066 864.053779,377.782101 865,377.782101 C880.463973,377.782101 893,390.318128 893,405.782101 L893,618.0232 C893,636.905443 878.708961,652.723715 859.923631,654.634327 L790.27098,661.718532 C789.329616,661.814276 788.384003,661.86224 787.437783,661.86224 C771.97381,661.86224 759.437783,649.326213 759.437783,633.86224 L759.437783,421.621141 Z M801.026018,418.73903 L781.031674,423.533487 L781.031674,432.323326 L793.828054,429.127021 L793.828054,509.833718 L801.026018,509.034642 L801.026018,418.73903 Z M809.823529,418.73903 L809.823529,435.51963 L826.618778,433.921478 L826.618778,505.838337 L833.016968,505.039261 L833.016968,486.660508 L872.205882,482.665127 L872.205882,475.473441 L833.016968,480.267898 L833.016968,458.692841 L872.205882,453.099307 L872.205882,446.706697 L833.016968,452.300231 L833.016968,433.122402 L873.80543,428.327945 L873.80543,420.337182 L817.821267,426.729792 L817.821267,417.140878 L809.823529,418.73903 Z M784.230769,542.595843 C786.50086,556.782597 788.366999,567.436947 789.829186,574.558891 C791.291373,581.680836 793.690694,591.802468 797.027149,604.923788 L804.225113,603.325635 C801.548117,593.371896 799.085287,583.174748 796.836624,572.734192 C794.587961,562.293635 792.518739,551.448443 790.628959,540.198614 L784.230769,542.595843 Z M863.408371,532.207852 C860.656219,547.824882 858.256898,559.278308 856.210407,566.568129 C854.163916,573.857951 850.431639,584.245942 845.013575,597.732102 L850.611991,600.928406 C856.29085,587.589694 860.289718,576.935344 862.608597,568.965358 C864.927476,560.995372 867.593389,548.74287 870.606335,532.207852 L863.408371,532.207852 Z M810.623303,533.006928 L810.623303,613.713626 L782.631222,617.709007 L782.631222,624.900693 L872.205882,613.713626 L872.205882,606.52194 L842.614253,610.517321 L842.614253,528.212471 L836.216063,529.011547 L836.216063,611.316397 L817.821267,612.91455 L817.821267,532.207852 L810.623303,533.006928 Z" id="互动作业"></path>
        </g>
    </g>
</svg>