<?xml version="1.0" encoding="UTF-8"?>
<svg width="401px" height="460px" viewBox="0 0 401 460" version="1.1" xmlns="http://www.w3.org/2000/svg" xmlns:xlink="http://www.w3.org/1999/xlink">
    <!-- Generator: Sketch 51.3 (57544) - http://www.bohemiancoding.com/sketch -->
    <title>/svg/有道翻译官</title>
    <desc>Created with Sketch.</desc>
    <defs>
        <path d="M40.0530818,81.9645402 C46.3752202,73.4624087 51.8082778,64.3664118 57.3898718,55.3448201 C64.0213458,62.1001926 70.2780386,69.2310379 75.9888028,76.7685314 C70.1462491,69.0056134 63.7257401,61.6707877 56.9112912,54.7305426 C62.6798951,51.1286822 69.010376,48.6524031 75.4906908,46.663876 C124.86095,31.4310078 174.268668,16.1231008 223.601469,0.815193798 C246.713343,18.4117829 270.424553,35.1454264 293.798636,52.3668217 C276.380449,77.8049612 257.613757,102.267597 239.633693,127.293023 C226.485771,112.660465 206.670242,104.218605 187.004547,107.107597 C164.45455,109.32124 146.287193,126.392558 137.671746,146.615504 C131.416182,158.734264 133.888441,172.728992 133.888441,185.785736 C97.3664354,158.246512 58.9715068,133.221085 22.2996677,105.869457 C27.5438531,97.4275969 33.6495832,89.5860465 39.4556456,81.5193798 C39.6547674,81.6678045 39.853913,81.816191 40.0530818,81.9645402 Z M130.98179,150.049407 C130.98924,150.055367 130.996689,150.061327 131.004139,150.067287 C119.45391,134.606881 107.443778,119.478143 95.8246028,104.048347 C107.429696,119.47717 119.434453,134.598359 130.98179,150.049407 Z" id="path-1"></path>
        <filter x="-2.4%" y="-3.5%" width="104.8%" height="107.0%" filterUnits="objectBoundingBox" id="filter-2">
            <feOffset dx="0" dy="13" in="SourceAlpha" result="shadowOffsetInner1"></feOffset>
            <feComposite in="shadowOffsetInner1" in2="SourceAlpha" operator="arithmetic" k2="-1" k3="1" result="shadowInnerInner1"></feComposite>
            <feColorMatrix values="0 0 0 0 1   0 0 0 0 1   0 0 0 0 1  0 0 0 0.25 0" type="matrix" in="shadowInnerInner1"></feColorMatrix>
        </filter>
        <path d="M288.287606,76.3556294 C290.191426,69.6642441 292.767181,63.159769 295.342936,56.6926759 C328.865085,131.419376 363.208489,205.809637 397.029277,280.42419 C398.783777,284.685743 400.01566,289.171588 400.948904,293.732197 C386.352957,343.375547 354.547979,387.411591 312.551968,417.504134 C284.965255,388.084468 257.005245,359.00124 229.567851,329.432046 C229.306543,328.497495 228.783926,326.553629 228.522617,325.581696 C228.261309,310.853171 233.039521,296.72276 236.473862,282.592349 C254.018862,213.92154 270.555957,144.989056 288.287606,76.3556294 Z" id="path-3"></path>
        <filter x="-2.3%" y="-1.1%" width="104.6%" height="102.2%" filterUnits="objectBoundingBox" id="filter-4">
            <feOffset dx="-8" dy="3" in="SourceAlpha" result="shadowOffsetInner1"></feOffset>
            <feComposite in="shadowOffsetInner1" in2="SourceAlpha" operator="arithmetic" k2="-1" k3="1" result="shadowInnerInner1"></feComposite>
            <feColorMatrix values="0 0 0 0 1   0 0 0 0 1   0 0 0 0 1  0 0 0 0.25 0" type="matrix" in="shadowInnerInner1"></feColorMatrix>
        </filter>
        <path d="M22.7435826,104.791603 C59.3652394,131.893406 97.7076278,156.690255 134.179656,183.977942 C134.179656,171.040455 131.71078,157.173552 137.957784,145.165483 C127.932652,174.23765 143.718494,207.250546 171.923529,218.998379 C167.659107,224.314645 163.432093,229.668087 159.130264,234.947177 C128.755611,252.754809 98.2687359,270.859854 70.437773,292.496685 C54.8763744,303.64969 38.641646,313.836102 22.7061754,324.505811 C15.1499193,273.908342 9.01513717,223.124991 1.45888112,172.527523 C0.561108123,165.687013 -0.860365788,158.326029 2.61850457,151.931639 C9.46402367,136.280255 16.0476923,120.517341 22.7435826,104.791603 Z" id="path-5"></path>
        <filter x="-3.8%" y="-3.0%" width="107.6%" height="105.9%" filterUnits="objectBoundingBox" id="filter-6">
            <feOffset dx="13" dy="-10" in="SourceAlpha" result="shadowOffsetInner1"></feOffset>
            <feComposite in="shadowOffsetInner1" in2="SourceAlpha" operator="arithmetic" k2="-1" k3="1" result="shadowInnerInner1"></feComposite>
            <feColorMatrix values="0 0 0 0 1   0 0 0 0 1   0 0 0 0 1  0 0 0 0.25 0" type="matrix" in="shadowInnerInner1"></feColorMatrix>
        </filter>
    </defs>
    <g id="Page-1" stroke="none" stroke-width="1" fill="none" fill-rule="evenodd">
        <g id="Custom-Preset" transform="translate(-340.000000, -310.000000)" fill-rule="nonzero">
            <g id="有道翻译官" transform="translate(340.000000, 310.000000)">
                <path d="M293.513478,52.2719339 C293.96163,53.4256502 294.857935,55.6958661 295.306087,56.8495824 C292.729212,63.2880637 236.15,311.336638 236.411422,326 C175.500072,356.406007 105.102835,382.272011 43.4819112,411.114919 C42.6229529,412.529152 40.9423822,415.320401 40.0834239,416.734634 C36.7969746,414.576068 33.9960236,411.747602 30.9709964,409.254086 C56.5903623,375.535797 81.3881159,341.184825 106.521984,307.131586 C123.850534,283.16406 171.742554,218.321982 176,213 C201.059176,222.974063 221.323632,217.553293 236.411422,195 C251.872672,173.786507 254.618976,147.91091 238,128 C255.926087,103.176491 276.147582,77.5048258 293.513478,52.2719339 Z" id="Shape" fill="#0058BE"></path>
                <path d="M137.3,146.6875 C145.925,126.475 164.1125,109.4125 186.6875,107.2 C206.375,104.3125 226.2125,112.75 239.375,127.375 C256.0625,147.4375 258.2,178.375 242.675,199.75 C227.525,222.475 196.5125,231.2125 171.35,221.1625 C143.075,209.3125 127.25,176.0125 137.3,146.6875 Z M169.9625,123.5125 C144.1625,136.9 136.8875,174.7375 155.825,196.75 C173.4125,220.075 212.3,221.0125 230.75,198.2875 C243.65,184.375 244.925,164.125 240.875,146.425 C236.825,153.8125 233,162.775 224.075,165.25 C210.5,169.8625 195.125,157.6375 196.7375,143.3875 C197.075,131.425 208.4,123.25 219.6875,123.025 C203.9,116.575 185.15,114.0625 169.9625,123.5125 Z" id="Shape" fill="#FFFFFF"></path>
                <g id="Combined-Shape">
                    <use fill="#F85257" xlink:href="#path-1"></use>
                    <use fill="black" fill-opacity="1" filter="url(#filter-2)" xlink:href="#path-1"></use>
                </g>
                <path d="M43.556285,413.179047 C105.080323,384.228058 167.424682,356.808669 228.240262,326.288723 C228.501273,327.259982 229.023295,329.2025 229.284307,330.136403 C222.535306,335.06741 215.264283,339.475432 210.193211,346.274245 C181.481993,383.070018 150.682686,418.184766 121.785032,454.868471 C92.2907809,448.592644 65.6676515,434.285252 39.6411189,419.716367 L40.163141,418.81982 C41.0207488,417.400288 42.6986772,414.598579 43.556285,413.179047 Z" id="Shape" fill="#F84633"></path>
                <g id="Shape">
                    <use fill="#009FDB" xlink:href="#path-3"></use>
                    <use fill="black" fill-opacity="1" filter="url(#filter-4)" xlink:href="#path-3"></use>
                </g>
                <g id="Shape">
                    <use fill="#451F15" xlink:href="#path-5"></use>
                    <use fill="black" fill-opacity="1" filter="url(#filter-6)" xlink:href="#path-5"></use>
                </g>
                <path d="M170.539462,122.190291 C185.689381,112.821767 204.392985,115.312605 220.14142,121.706995 C208.88185,121.930055 197.584874,130.034572 197.248209,141.893934 C195.639699,156.021075 210.976654,168.140674 224.518063,163.567942 C233.420979,161.114281 237.236514,152.229053 241.276493,144.905246 C245.316471,162.452641 244.044626,182.528051 231.176547,196.320601 C212.7722,218.849672 173.980925,217.920255 156.436945,194.796357 C137.546304,172.973643 144.803303,135.462368 170.539462,122.190291 Z" id="Shape" fill="#451F15"></path>
                <path d="M69.2293548,293.95712 C97.3093548,272.16704 128.069032,253.93376 158.715484,236 C141.316452,260.1488 123.200323,283.81088 105.688065,307.92224 C93.6483871,303.0176 81.4954839,298.37504 69.2293548,293.95712 Z" id="Shape" fill="#160902"></path>
                <path d="M209.954078,344.734505 C215.013372,337.914505 222.267507,333.492747 229.000833,328.546374 C256.343343,358.187143 284.206663,387.340769 311.697976,416.831648 C257.198959,455.390879 186.554841,468.768571 121.751232,453.667143 C150.58177,416.869121 181.309543,381.644945 209.954078,344.734505 Z" id="Shape" fill="#FB7600"></path>
            </g>
        </g>
    </g>
</svg>