<?xml version="1.0" encoding="UTF-8"?>
<svg width="655px" height="718px" viewBox="0 0 655 718" version="1.1" xmlns="http://www.w3.org/2000/svg" xmlns:xlink="http://www.w3.org/1999/xlink">
    <!-- Generator: Sketch 51.3 (57544) - http://www.bohemiancoding.com/sketch -->
    <title>/svg/机锋 论坛</title>
    <desc>Created with Sketch.</desc>
    <defs></defs>
    <g id="Page-1" stroke="none" stroke-width="1" fill="none" fill-rule="evenodd">
        <g id="Custom-Preset-Copy-6" transform="translate(-213.000000, -181.000000)" fill="#00B4B4">
            <path d="M586.175111,189.187783 C595.035111,181.427783 608.115111,178.857783 619.215111,182.887783 C629.875111,186.527783 638.325111,195.887783 640.795111,206.887783 C645.085111,226.417783 649.225111,245.987783 653.485111,265.527783 C686.825111,277.957783 718.065111,295.947783 745.675111,318.377783 C751.855111,323.477783 758.725111,328.417783 762.005111,336.027783 C768.835111,349.817783 764.515111,367.937783 752.085111,377.067783 C740.045111,386.477783 721.605111,386.067783 710.085111,375.987783 C680.635111,350.447783 645.525111,331.357783 607.855111,321.167783 C564.265111,309.197783 517.575111,309.317783 473.885111,320.787783 C425.485111,333.287783 381.005111,360.307783 347.525111,397.427783 C315.015111,433.247783 292.735111,478.277783 284.205111,525.907783 C276.815111,566.437783 279.535111,608.687783 291.655111,648.047783 C302.425111,683.287783 320.835111,716.177783 345.375111,743.677783 C388.955111,792.757783 451.595111,824.607783 517.085111,830.037783 C591.355111,836.457783 667.605111,809.737783 722.205111,759.107783 C763.835111,720.777783 792.685111,667.887783 798.755111,611.337783 C713.545111,627.507783 625.315111,624.787783 540.455111,607.787783 C533.345111,606.177783 525.785111,605.437783 519.465111,601.487783 C508.145111,594.827783 501.595111,581.077783 503.605111,568.087783 C505.025111,557.597783 511.745111,547.967783 521.205111,543.167783 C528.485111,539.257783 537.175111,538.417783 545.165111,540.337783 C594.375111,550.857783 644.785111,555.937783 695.115111,554.777783 C739.285111,553.617783 783.665111,548.357783 826.055111,535.507783 C840.215111,532.407783 855.785111,539.747783 862.395111,552.637783 C867.055111,560.947783 866.395111,570.767783 866.935111,579.957783 C868.895111,642.977783 848.615111,705.927783 812.305111,757.257783 C779.575111,803.887783 734.215111,841.337783 682.715111,865.547783 C616.945111,896.647783 540.905111,906.377783 469.715111,890.557783 C394.285111,874.117783 325.285111,829.897783 278.805111,768.257783 C227.595111,700.877783 204.495111,612.987783 215.825111,529.137783 C223.715111,468.977783 248.965111,411.287783 287.515111,364.467783 C313.275111,333.057783 344.945111,306.547783 380.385111,286.707783 C371.245111,274.157783 362.075111,261.647783 352.935111,249.097783 C346.695111,240.607783 344.935111,229.107783 348.215111,219.107783 C351.655111,208.037783 361.295111,199.257783 372.615111,196.787783 C385.145111,193.807783 399.165111,198.827783 406.795111,209.237783 C419.155111,226.037783 431.425111,242.907783 443.775111,259.727783 C488.005111,246.097783 535.115111,241.977783 581.035111,247.727783 C579.145111,238.837783 577.155111,229.967783 575.295111,221.077783 C572.865111,209.507783 577.185111,196.857783 586.175111,189.187783 Z M789.625111,380.747783 C805.625111,376.887783 823.335111,386.827783 828.425111,402.457783 C830.925111,411.217783 832.385111,420.237783 834.465111,429.097783 C836.535111,437.257783 835.715111,446.187783 831.695111,453.627783 C826.905111,462.927783 817.455111,469.677783 807.075111,471.047783 C803.375111,471.337783 799.645111,471.367783 795.965111,470.907783 C786.015111,469.177783 777.085111,462.547783 772.425111,453.607783 C769.015111,447.207783 768.395111,439.847783 766.685111,432.917783 C765.095111,424.557783 762.045111,416.107783 763.795111,407.517783 C765.985111,394.447783 776.625111,383.367783 789.625111,380.747783 Z M620.445111,391.547783 C627.165111,390.357783 634.365111,390.567783 640.695111,393.347783 C650.585111,397.397783 658.205111,406.467783 660.455111,416.917783 C662.265111,425.227783 664.075111,433.537783 665.815111,441.857783 C668.055111,452.067783 665.115111,463.197783 658.155111,470.987783 C648.925111,481.777783 632.515111,485.157783 619.615111,479.467783 C610.285111,475.457783 602.995111,466.977783 600.615111,457.087783 C598.635111,448.457783 596.815111,439.787783 594.945111,431.137783 C593.315111,423.437783 594.475111,415.187783 598.275111,408.287783 C602.745111,399.807783 611.105111,393.617783 620.445111,391.547783 Z" id="机锋-论坛"></path>
        </g>
    </g>
</svg>