<?xml version="1.0" encoding="UTF-8"?>
<svg width="600px" height="146px" viewBox="0 0 600 146" version="1.1" xmlns="http://www.w3.org/2000/svg" xmlns:xlink="http://www.w3.org/1999/xlink">
    <!-- Generator: Sketch 51 (57462) - http://www.bohemiancoding.com/sketch -->
    <title>SVG/中国联通-2</title>
    <desc>Created with Sketch.</desc>
    <defs></defs>
    <g id="Page-2" stroke="none" stroke-width="1" fill="none" fill-rule="evenodd">
        <g id="chinaunicom_2" transform="translate(-240.000000, -468.000000)" fill-rule="nonzero">
            <g id="中国联通-2" transform="translate(240.000000, 468.000000)">
                <path d="M230.294302,71.5766724 L230.294302,65.838423 C225.527714,70.5667405 220.119469,72.8620402 214.115402,72.8620402 C207.14885,72.8620402 201.373945,70.4290225 196.744855,65.562987 C192.115764,60.6510456 189.778303,54.4537362 189.778303,47.0628711 C189.778303,39.6720059 192.115764,33.3369786 196.744855,28.3791311 C201.419778,23.4671897 207.286348,21.0341719 214.43623,21.0341719 C220.119469,21.0341719 225.390216,23.1917537 230.294302,27.6446352 L230.294302,22.4572578 L242.302437,22.4572578 L242.302437,71.5766724 L230.294302,71.5766724 M226.902691,35.5863723 C224.198569,32.6942947 220.577795,31.3171148 216.2237,31.3171148 C212.098768,31.3171148 208.661325,32.7861066 205.957203,35.7240903 C203.298913,38.662074 201.969768,42.4722716 201.969768,47.2005891 C201.969768,51.5157526 203.344746,55.1882322 206.048868,58.2180278 C208.798823,61.1560115 212.190433,62.5790974 216.315365,62.5790974 C220.66946,62.5790974 224.198569,61.1560115 226.902691,58.2180278 C229.606813,55.2800442 230.981791,51.4698466 230.981791,46.9251531 C230.981791,42.3345536 229.606813,38.570262 226.902691,35.5863723" id="path11" fill="#231F20" transform="translate(216.040370, 46.948106) scale(-1, 1) rotate(-180.000000) translate(-216.040370, -46.948106) "></path>
                <path d="M64.9166098,71.7143903 L77.3693213,71.7143903 L77.3693213,43.8494514 C77.3693213,43.8494514 82.0167447,50.2762907 91.6924603,50.2762907 C100.647688,50.2762907 108.79672,44.3085114 108.79672,29.297251 L108.79672,0.101038259 L97.4531571,0.101038259 L97.4531571,30.1235589 C97.4531571,35.2650304 95.372358,41.7836817 88.0212708,41.7836817 C81.0130113,41.7836817 77.4105706,36.5044922 77.3693213,30.1235589 L77.3693213,0.101038259 L64.9166098,0.101038259 L64.9166098,71.7143903" id="path13" fill="#231F20" transform="translate(86.856665, 35.907714) scale(-1, 1) rotate(-180.000000) translate(-86.856665, -35.907714) "></path>
                <path d="M60.4296004,21.8145739 C57.6704792,17.9125643 54.2147028,14.7450506 49.9568563,12.3579389 C44.938189,9.51176722 39.3099484,8.04277538 33.2142154,8.04277538 C24.2310301,8.04277538 16.5769896,11.256195 10.2062612,17.5453163 C3.88136538,23.8803436 0.673084906,31.5007388 0.673084906,40.5901258 C0.673084906,50.2762907 4.24802601,58.3557458 11.4437408,64.7825851 C17.7686366,70.4749285 25.0101839,73.2751942 33.1683829,73.2751942 C39.0807855,73.2751942 44.6265274,71.8062023 49.8514413,68.8682187 C54.1322042,66.4352009 57.6704792,63.3594993 60.4112674,59.4574897 L49.7276934,51.7911885 C48.9806224,53.6274283 47.889807,55.1882322 46.6385776,56.70313 C43.0682198,60.8346695 38.5766271,62.8545333 33.0308851,62.8545333 C27.6684735,62.8545333 23.1768808,60.8346695 19.5561071,56.611318 C16.0269986,52.4338725 14.2395281,47.1546831 14.2395281,40.6360318 C14.2395281,33.9337565 15.981166,28.5627551 19.5561071,24.3853096 C23.0393831,20.25377 27.5309757,18.1880003 32.9850526,18.1880003 C38.3932968,18.1880003 42.930722,20.299676 46.5331627,24.5230276 C47.8623074,26.0379254 48.9347898,27.6905412 49.7276934,29.526781 C49.7276934,29.526781 57.6704792,23.8344376 60.4296004,21.8145739" id="path15" fill="#231F20" transform="translate(30.551343, 40.658985) scale(-1, 1) rotate(-180.000000) translate(-30.551343, -40.658985) "></path>
                <path d="M166.816181,71.6647285 C154.991376,71.8483525 151.141439,65.2378892 151.141439,65.2378892 L150.545616,71.0220446 L139.866625,71.0220446 L139.866625,21.535382 L152.241421,21.535382 L152.241421,51.5579027 C152.287254,57.89293 155.95386,63.2180254 162.920412,63.2180254 C170.299457,63.2180254 172.453588,56.6534681 172.453588,51.5579027 L172.453588,21.535382 L183.911733,21.535382 L183.911733,50.6856888 C183.911733,65.7428551 175.753534,71.6188225 166.816181,71.6647285" id="path17" fill="#231F20" transform="translate(161.889179, 46.601933) scale(-1, 1) rotate(-180.000000) translate(-161.889179, -46.601933) "></path>
                <polygon id="path19" fill="#D61920" transform="translate(123.946679, 46.856294) scale(-1, 1) rotate(-180.000000) translate(-123.946679, -46.856294) " points="118.1374 22.0441038 129.755958 22.0441038 129.755958 71.6684843 118.1374 71.6684843"></polygon>
                <path d="M123.871055,3.77351785 C119.828622,3.77351785 117.142833,6.75740752 117.142833,10.3380751 C117.142833,14.1482727 119.95237,16.9944444 123.971887,16.9944444 C128.128902,16.9944444 130.709276,14.1482727 130.814691,10.3380751 C130.814691,6.75740752 128.128902,3.77351785 123.971887,3.77351785 L123.871055,3.77351785" id="path21" fill="#D61920" transform="translate(123.978762, 10.383981) scale(-1, 1) rotate(-180.000000) translate(-123.978762, -10.383981) "></path>
                <path d="M123.871055,76.9017678 C119.828622,76.9017678 117.142833,79.8397514 117.142833,83.3745131 C117.142833,87.1847106 119.95237,90.0767883 123.971887,90.0767883 C128.128902,90.0767883 130.709276,87.1847106 130.814691,83.3745131 C130.814691,79.8397514 128.128902,76.9017678 123.971887,76.9017678 L123.871055,76.9017678" id="path23" fill="#D61920" transform="translate(123.978762, 83.489278) scale(-1, 1) rotate(-180.000000) translate(-123.978762, -83.489278) "></path>
                <path d="M299.913988,144.710376 C292.534943,144.894 287.401694,141.818298 283.093432,137.044075 C280.160147,142.36917 275.347726,144.572658 270.26031,144.710376 C259.810482,144.985812 255.227224,138.329443 255.227224,138.329443 L254.814731,144.343128 L243.58575,144.343128 L243.58575,94.8426936 L256.098043,94.8426936 L256.098043,124.695362 C256.143876,131.076295 259.489654,136.263673 265.906215,136.263673 C272.643604,136.263673 274.614405,129.790928 274.614405,124.649456 L274.614405,94.8426936 L285.935052,94.8426936 C285.935052,94.8426936 285.935052,123.91496 285.935052,124.052678 L285.935052,124.006772 C285.980884,132.315757 289.830821,136.263673 295.559893,136.263673 C302.343115,136.263673 304.268083,129.790928 304.268083,124.649456 L304.268083,94.8426936 L315.58873,94.8426936 L315.58873,123.823148 C315.58873,138.788503 308.072187,144.526752 299.913988,144.710376" id="path25" fill="#231F20" transform="translate(279.587240, 119.780694) scale(-1, 1) rotate(-180.000000) translate(-279.587240, -119.780694) "></path>
                <polygon id="path27" fill="#D61920" transform="translate(123.946679, 119.975363) scale(-1, 1) rotate(-180.000000) translate(-123.946679, -119.975363) " points="118.1374 95.2320315 129.755958 95.2320315 129.755958 144.718694 118.1374 144.718694"></polygon>
                <path d="M211.915438,145.765351 C216.544528,145.765351 220.898623,144.571795 224.93189,142.276495 C229.056822,139.935289 232.21927,136.767776 234.510899,132.865766 C236.802528,128.871945 237.948342,124.556781 237.948342,120.012088 C237.948342,115.375582 236.802528,111.014513 234.465066,106.974785 C232.173438,102.935057 229.056822,99.7629532 225.069388,97.5411031 C221.127786,95.2136691 216.727859,94.1165159 211.961271,94.1165159 C204.903053,94.1165159 198.898986,96.6046208 193.903235,101.64969 C188.953316,106.607537 186.478357,112.713034 186.478357,119.87437 C186.478357,127.540671 189.319977,133.96751 194.911551,139.063075 C199.86147,143.515957 205.498877,145.765351 211.915438,145.765351 M212.83209,137.135024 C208.844655,137.135024 205.54471,135.482408 202.932253,132.314894 C200.273963,129.055569 198.944818,124.924029 198.944818,119.87437 C198.944818,114.778804 200.273963,110.555453 202.88642,107.342033 C205.498877,104.174519 208.75299,102.56781 212.740424,102.56781 C216.773691,102.56781 220.073637,104.174519 222.686094,107.387939 C225.390216,110.647265 226.673528,114.82471 226.673528,119.87437 C226.673528,124.969935 225.390216,129.101475 222.777759,132.3608 C220.165302,135.482408 216.865356,137.135024 212.83209,137.135024" id="path29" fill="#231F20" transform="translate(212.213350, 119.940933) scale(-1, 1) rotate(-180.000000) translate(-212.213350, -119.940933) "></path>
                <path d="M91.6924603,144.716557 C79.9130294,144.854275 76.0218435,138.289718 76.0218435,138.289718 L75.42602,144.073873 L64.7378628,144.073873 L64.7378628,94.5734388 L77.1722412,94.5734388 L77.1722412,124.563825 C77.1997408,130.944759 80.8434307,136.178042 87.8425238,136.178042 C95.175278,136.178042 97.2881598,129.705297 97.2881598,124.563825 L97.2881598,94.5734388 L108.79672,94.5734388 L108.79672,123.645705 C108.79672,138.748778 100.647688,144.532933 91.6924603,144.716557" id="path31" fill="#231F20" transform="translate(86.767291, 119.646066) scale(-1, 1) rotate(-180.000000) translate(-86.767291, -119.646066) "></path>
                <path d="M27.8518038,95.2211458 C39.676609,95.0604749 43.5723781,101.661757 43.5723781,101.661757 L44.1682016,95.8867828 L54.8517756,95.8867828 L54.8517756,145.387217 L42.4265637,145.387217 L42.4265637,115.364696 C42.3807311,108.983763 38.7599574,103.704574 31.7475729,103.704574 C24.4143604,103.704574 21.4810754,110.223225 21.4810754,115.364696 L21.4810754,145.387217 L9.06044672,145.387217 L9.06044672,116.282816 C9.06044672,101.188925 18.914451,95.3359108 27.8518038,95.2211458" id="path33" fill="#231F20" transform="translate(31.956111, 120.302738) scale(-1, 1) rotate(-180.000000) translate(-31.956111, -120.302738) "></path>
                <path d="M185.561705,105.129364 C183.361742,102.007756 180.611787,99.5058797 177.266009,97.6420963 C173.232742,95.3330247 168.786982,94.2542338 163.974561,94.2542338 C156.870512,94.2542338 150.820611,96.705614 145.733195,101.718549 C140.691611,106.78198 138.17082,112.841571 138.17082,120.048812 C138.17082,127.669208 141.012439,134.050141 146.741512,139.191612 C151.69143,143.644494 157.420502,145.893888 163.928729,145.893888 C168.603652,145.893888 173.003579,144.746238 177.174344,142.405032 C180.565954,140.522886 183.361742,138.043962 185.515873,135.014167 L176.257692,128.357797 C175.707701,129.689071 174.928547,130.882627 174.011896,131.938465 C171.445271,135.060073 168.191158,136.574971 164.203724,136.574971 C160.262122,136.574971 157.053842,135.014167 154.441385,131.938465 C151.87476,128.862763 150.545616,124.868942 150.545616,120.048812 C150.545616,115.090965 151.87476,111.005331 154.395552,107.975536 C156.962177,104.853928 160.21629,103.384936 164.157891,103.384936 C168.053661,103.384936 171.307774,104.853928 173.920231,108.021442 C174.882715,109.169092 175.707701,110.408553 176.257692,111.785733 L185.561705,105.129364" id="path35" fill="#231F20" transform="translate(161.866263, 120.074061) scale(-1, 1) rotate(-180.000000) translate(-161.866263, -120.074061) "></path>
                <path d="M554.101467,91.4631494 C552.268164,91.4631494 550.434861,93.1616712 550.434861,95.3192529 L550.434861,125.984458 L537.09758,125.984458 L537.09758,120.062584 L541.497508,120.062584 L541.497508,92.9780472 C541.497508,88.3415417 545.576607,85.5320948 548.601558,85.5320948 L599.475719,85.5320948 L599.475719,91.4631494 L554.101467,91.4631494 M575.642779,132.089955 C571.517847,134.660691 567.392915,136.680554 567.392915,136.680554 L564.184634,132.594921 L567.392915,129.794655 L555.476444,129.794655 L555.476444,94.2175091 L557.768073,94.2175091 C560.518028,94.2175091 563.267983,95.9160309 563.267983,99.5885105 L563.267983,104.500452 L572.892824,104.500452 L572.892824,94.2175091 L575.184453,94.2175091 C578.392733,94.2175091 580.684362,95.8242189 580.684362,99.5885105 L580.684362,104.500452 L590.309204,104.500452 L590.309204,102.067434 C590.309204,100.919784 588.934226,100.139382 587.559249,100.139382 L583.892643,100.139382 L585.725946,94.2175091 L591.684181,94.2175091 C595.350787,94.2175091 598.559068,97.4309287 598.559068,101.332938 L598.559068,124.92862 C598.559068,127.591167 596.267439,129.794655 593.97581,129.794655 L584.350969,129.794655 L596.725765,137.231426 L596.725765,144.07142 L555.018119,144.07142 L555.018119,138.149546 L585.26762,138.149546 L575.642779,132.089955 M572.892824,110.192795 L563.267983,110.192795 L563.267983,114.186617 L572.892824,114.186617 L572.892824,110.192795 M572.892824,119.87896 L563.267983,119.87896 L563.267983,123.872782 L572.892824,123.872782 L572.892824,119.87896 M590.309204,110.192795 L580.684362,110.192795 L580.684362,114.186617 L590.309204,114.186617 L590.309204,110.192795 M580.684362,123.872782 L590.309204,123.872782 L590.309204,119.87896 L580.684362,119.87896 L580.684362,123.872782 M551.809838,133.237605 C547.089083,139.389008 542.322494,142.740146 542.322494,142.740146 L537.693404,139.389008 L545.484942,128.647005 L551.809838,133.237605" id="path37" fill="#231F20" transform="translate(568.286650, 114.801757) scale(-1, 1) rotate(-180.000000) translate(-568.286650, -114.801757) "></path>
                <path d="M499.148206,106.685577 L495.160771,105.583833 L495.160771,138.773868 C495.160771,142.446347 492.914975,144.695741 490.16502,144.695741 L469.082034,144.695741 L469.082034,138.773868 L486.681744,138.773868 L486.681744,129.592669 L479.48603,129.592669 L479.48603,135.698166 L471.511161,135.698166 L471.511161,98.9274641 L467.982053,97.9175322 L467.982053,91.2657536 L486.681744,96.5403524 L486.681744,84.5221629 L489.98169,84.5221629 C492.777477,84.5221629 494.519115,86.1747787 495.160771,89.3331112 L495.160771,98.8815581 L499.148206,100.029208 L499.148206,106.685577 M486.681744,103.196722 L479.48603,101.176858 L479.48603,110.449869 L486.681744,110.449869 L486.681744,103.196722 M486.681744,116.371742 L479.48603,116.371742 L479.48603,123.670795 L486.681744,123.670795 L486.681744,116.371742 M519.268708,111.872955 L529.489373,111.872955 L529.489373,117.794828 L518.077061,117.794828 L518.077061,126.930121 L529.489373,126.930121 L529.489373,132.806088 L522.064495,132.806088 L528.847716,141.298697 L522.431155,145.935203 L513.952128,132.806088 L507.902228,132.806088 L512.852147,136.386756 C508.543884,142.308629 504.968943,145.935203 504.968943,145.935203 L500.248188,143.134937 L506.298088,132.806088 L498.87321,132.806088 L498.87321,126.930121 L508.727215,126.930121 L508.727215,117.794828 L498.87321,117.794828 L498.87321,111.872955 L507.627233,111.872955 L497.26907,85.2612494 L501.71483,85.2612494 C504.098124,85.2612494 506.481418,86.8909123 507.443902,89.025541 L513.768798,104.895243 L522.522821,85.2612494 L531.185178,85.2612494 L519.268708,111.872955" id="path39" fill="#231F20" transform="translate(499.583615, 115.228683) scale(-1, 1) rotate(-180.000000) translate(-499.583615, -115.228683) "></path>
                <path d="M382.183466,137.672124 L362.750453,137.672124 L362.750453,145.935203 L352.667286,145.935203 L352.667286,137.672124 L339.971662,137.672124 L339.971662,131.704345 L352.667286,131.704345 L352.667286,107.557791 L336.900879,107.557791 L336.900879,137.672124 L326.771879,137.672124 L326.771879,101.590012 L352.667286,101.590012 L352.667286,84.5221629 L354.271426,84.5221629 C359.954666,84.6920151 362.52129,87.203073 362.750453,91.513646 L362.750453,101.590012 L379.846005,101.590012 C384.56676,101.590012 388.370864,105.354303 388.600027,109.990809 L388.600027,131.612533 C388.370864,134.96367 385.620909,137.672124 382.183466,137.672124 M378.471027,111.367989 C378.471027,109.256313 376.775222,107.557791 374.666923,107.557791 L362.750453,107.557791 L362.750453,131.704345 L378.471027,131.704345 L378.471027,111.367989" id="path41" fill="#231F20" transform="translate(357.685953, 115.228683) scale(-1, 1) rotate(-180.000000) translate(-357.685953, -115.228683) "></path>
                <path d="M452.12398,144.245862 L410.141339,144.245862 L410.141339,138.323989 L449.236528,138.323989 L449.236528,95.3100717 C449.236528,93.198396 447.49489,91.4631494 445.386591,91.4631494 L407.024723,91.4631494 L407.024723,144.245862 L397.72071,144.245862 L397.72071,85.5320948 L450.107347,85.5320948 C454.78227,85.5320948 458.540541,89.3147488 458.540541,93.9787979 L458.540541,137.819023 C458.540541,141.353785 455.653089,144.245862 452.12398,144.245862 M446.119913,103.297715 L441.62832,103.297715 L444.607438,106.970194 C440.574171,110.550862 437.549221,112.52482 437.549221,112.52482 L433.928447,108.898246 L439.015863,103.297715 L432.186809,103.297715 L432.186809,113.21341 L445.89075,113.21341 L445.89075,119.135283 L432.186809,119.135283 L432.186809,126.480242 L445.89075,126.480242 L445.89075,132.402116 L410.370502,132.402116 L410.370502,126.480242 L422.836963,126.480242 L422.836963,119.135283 L410.370502,119.135283 L410.370502,113.21341 L422.836963,113.21341 L422.836963,103.297715 L410.141339,103.297715 L410.141339,97.3758415 L446.119913,97.3758415 L446.119913,103.297715" id="path43" fill="#231F20" transform="translate(428.130626, 114.888979) scale(-1, 1) rotate(-180.000000) translate(-428.130626, -114.888979) "></path>
            </g>
        </g>
    </g>
</svg>