<?xml version="1.0" encoding="UTF-8"?>
<svg width="584px" height="449px" viewBox="0 0 584 449" version="1.1" xmlns="http://www.w3.org/2000/svg" xmlns:xlink="http://www.w3.org/1999/xlink">
    <!-- Generator: Sketch 51 (57462) - http://www.bohemiancoding.com/sketch -->
    <title>SVG/中国联通</title>
    <desc>Created with Sketch.</desc>
    <defs>
        <path d="M430.860179,482.00815 L463.943991,515.168446 L437.550461,541.490809 L463.943991,567.886699 L430.860179,600.973469 L404.466649,574.651105 C404.466649,574.651105 395.056142,584.062453 387.042508,592.076804 C359.105066,620.016743 313.817003,620.016743 285.879562,592.076804 C271.98436,578.106834 265,559.798822 265,541.490809 C265,523.182797 271.98436,504.94831 285.879562,490.978341 C313.817003,463.038402 359.105066,463.038402 387.042508,490.978341 C395.056142,498.919166 404.466649,508.40404 404.466649,508.40404 L430.860179,482.00815 M353.885176,524.065111 C344.25411,514.50671 328.667959,514.50671 319.036893,524.065111 C314.258121,528.917837 311.831974,535.16756 311.831974,541.490809 C311.831974,547.814059 314.258121,554.137308 319.036893,558.916508 C328.667959,568.548434 344.25411,568.548434 353.885176,558.916508 C361.751771,551.122736 371.309317,541.490809 371.309317,541.490809 C371.309317,541.490809 361.751771,531.932409 353.885176,524.065111 M794.414517,592.076804 C766.477075,620.016743 720.894934,620.016743 692.957492,592.076804 C684.870338,584.062453 675.68039,574.651105 675.68039,574.651105 L649.36038,600.973469 L616.203048,567.886699 L642.596578,541.490809 L616.203048,515.168446 L649.36038,482.00815 L675.68039,508.40404 C675.68039,508.40404 684.870338,498.919166 692.957492,490.978341 C720.894934,463.038402 766.477075,463.038402 794.414517,490.978341 C808.383238,504.94831 815,523.182797 815,541.490809 C815,559.798822 808.383238,578.106834 794.414517,592.076804 M761.330704,524.065111 C751.773159,514.50671 735.59885,514.50671 726.041305,524.065111 C718.689346,531.932409 709.131801,541.490809 709.131801,541.490809 C709.131801,541.490809 718.689346,551.122736 726.041305,558.916508 C735.59885,568.548434 751.773159,568.548434 761.330704,558.916508 C765.741879,554.137308 767.947467,547.814059 767.947467,541.490809 C767.947467,535.16756 765.741879,528.917837 761.330704,524.065111 M573.56169,541.490809 C573.56169,541.490809 651.198369,619.207955 658.991445,626.928201 C687.075926,654.86814 687.075926,700.160252 658.991445,728.10019 C631.054003,755.966603 585.76594,755.966603 557.828499,728.10019 C546.874081,717.144793 540.477877,710.674492 540.477877,710.674492 C540.477877,710.674492 533.934634,717.144793 523.053736,728.10019 C495.042775,755.966603 449.828232,755.966603 421.89079,728.10019 C393.953348,700.160252 393.953348,654.86814 421.89079,626.928201 C429.610346,619.207955 507.320545,541.490809 507.320545,541.490809 C507.320545,541.490809 429.610346,463.84719 421.89079,456.126943 C393.953348,428.187004 393.953348,382.894893 421.89079,354.954954 C449.828232,327.015015 495.042775,327.015015 523.053736,354.954954 C533.934634,365.910351 540.477877,372.380653 540.477877,372.380653 C540.477877,372.380653 546.874081,365.910351 557.828499,354.954954 C585.76594,327.015015 631.054003,327.015015 658.991445,354.954954 C687.075926,382.894893 687.075926,428.187004 658.991445,456.126943 C651.198369,463.84719 573.56169,541.490809 573.56169,541.490809 M455.048122,660.088497 C445.417057,669.720423 445.417057,685.307968 455.048122,694.939895 C464.605668,704.571821 480.265339,704.571821 489.896404,694.939895 C499.159872,685.675599 507.320545,677.514196 507.320545,677.514196 L480.927015,651.118306 L514.084347,618.031537 L540.477877,644.3539 L566.797888,618.031537 L599.95522,651.118306 L573.56169,677.514196 C573.56169,677.514196 581.722363,685.675599 590.985831,694.939895 C600.616896,704.571821 616.203048,704.571821 625.834113,694.939895 C635.465178,685.307968 635.465178,669.720423 625.834113,660.088497 C615.76193,649.941888 540.110279,574.283474 540.110279,574.283474 C540.110279,574.283474 465.120305,649.941888 455.048122,660.088497 M625.834113,388.11525 C616.203048,378.483324 600.616896,378.483324 590.985831,388.11525 C581.722363,397.379546 573.56169,405.540949 573.56169,405.540949 L599.95522,431.936838 L566.797888,465.023608 L540.477877,438.701245 L514.084347,465.023608 L480.927015,431.936838 L507.320545,405.540949 C507.320545,405.540949 499.159872,397.379546 489.896404,388.11525 C480.265339,378.483324 464.605668,378.483324 455.048122,388.11525 C445.417057,397.747176 445.417057,413.334721 455.048122,422.966647 C465.120305,433.039731 540.110279,508.77167 540.110279,508.77167 C540.110279,508.77167 615.76193,433.039731 625.834113,422.966647 C635.465178,413.334721 635.465178,397.747176 625.834113,388.11525" id="path-1"></path>
        <filter x="-7.6%" y="-6.5%" width="115.3%" height="120.2%" filterUnits="objectBoundingBox" id="filter-2">
            <feOffset dx="0" dy="4" in="SourceAlpha" result="shadowOffsetOuter1"></feOffset>
            <feGaussianBlur stdDeviation="2.5" in="shadowOffsetOuter1" result="shadowBlurOuter1"></feGaussianBlur>
            <feColorMatrix values="0 0 0 0 0   0 0 0 0 0   0 0 0 0 0  0 0 0 0.2 0" type="matrix" in="shadowBlurOuter1" result="shadowMatrixOuter1"></feColorMatrix>
            <feMorphology radius="1.5" operator="dilate" in="SourceAlpha" result="shadowSpreadOuter2"></feMorphology>
            <feOffset dx="0" dy="3" in="shadowSpreadOuter2" result="shadowOffsetOuter2"></feOffset>
            <feGaussianBlur stdDeviation="7" in="shadowOffsetOuter2" result="shadowBlurOuter2"></feGaussianBlur>
            <feColorMatrix values="0 0 0 0 0   0 0 0 0 0   0 0 0 0 0  0 0 0 0.12 0" type="matrix" in="shadowBlurOuter2" result="shadowMatrixOuter2"></feColorMatrix>
            <feMorphology radius="0.5" operator="dilate" in="SourceAlpha" result="shadowSpreadOuter3"></feMorphology>
            <feOffset dx="0" dy="8" in="shadowSpreadOuter3" result="shadowOffsetOuter3"></feOffset>
            <feGaussianBlur stdDeviation="5" in="shadowOffsetOuter3" result="shadowBlurOuter3"></feGaussianBlur>
            <feColorMatrix values="0 0 0 0 0   0 0 0 0 0   0 0 0 0 0  0 0 0 0.14 0" type="matrix" in="shadowBlurOuter3" result="shadowMatrixOuter3"></feColorMatrix>
            <feMerge>
                <feMergeNode in="shadowMatrixOuter1"></feMergeNode>
                <feMergeNode in="shadowMatrixOuter2"></feMergeNode>
                <feMergeNode in="shadowMatrixOuter3"></feMergeNode>
            </feMerge>
        </filter>
    </defs>
    <g id="Page-2" stroke="none" stroke-width="1" fill="none" fill-rule="evenodd">
        <g id="chinaunicom" transform="translate(-248.000000, -314.000000)" fill-rule="nonzero">
            <g id="中国联通" transform="translate(540.000000, 541.500000) scale(-1, 1) rotate(-180.000000) translate(-540.000000, -541.500000) ">
                <use fill="black" fill-opacity="1" filter="url(#filter-2)" xlink:href="#path-1"></use>
                <use fill="#FFFFFF" xlink:href="#path-1"></use>
            </g>
        </g>
    </g>
</svg>