<?xml version="1.0" encoding="UTF-8"?>
<svg width="562px" height="465px" viewBox="0 0 562 465" version="1.1" xmlns="http://www.w3.org/2000/svg" xmlns:xlink="http://www.w3.org/1999/xlink">
    <!-- Generator: Sketch 51 (57462) - http://www.bohemiancoding.com/sketch -->
    <title>SVG/爱奇艺</title>
    <desc>Created with Sketch.</desc>
    <defs>
        <filter x="-8.4%" y="-6.8%" width="116.9%" height="120.7%" filterUnits="objectBoundingBox" id="filter-1">
            <feOffset dx="0" dy="4" in="SourceAlpha" result="shadowOffsetOuter1"></feOffset>
            <feGaussianBlur stdDeviation="3" in="shadowOffsetOuter1" result="shadowBlurOuter1"></feGaussianBlur>
            <feColorMatrix values="0 0 0 0 0   0 0 0 0 0   0 0 0 0 0  0 0 0 0.2 0" type="matrix" in="shadowBlurOuter1" result="shadowMatrixOuter1"></feColorMatrix>
            <feMorphology radius="1.5" operator="dilate" in="SourceAlpha" result="shadowSpreadOuter2"></feMorphology>
            <feOffset dx="0" dy="3" in="shadowSpreadOuter2" result="shadowOffsetOuter2"></feOffset>
            <feGaussianBlur stdDeviation="8" in="shadowOffsetOuter2" result="shadowBlurOuter2"></feGaussianBlur>
            <feColorMatrix values="0 0 0 0 0   0 0 0 0 0   0 0 0 0 0  0 0 0 0.12 0" type="matrix" in="shadowBlurOuter2" result="shadowMatrixOuter2"></feColorMatrix>
            <feMorphology radius="0.5" operator="dilate" in="SourceAlpha" result="shadowSpreadOuter3"></feMorphology>
            <feOffset dx="0" dy="9" in="shadowSpreadOuter3" result="shadowOffsetOuter3"></feOffset>
            <feGaussianBlur stdDeviation="5.5" in="shadowOffsetOuter3" result="shadowBlurOuter3"></feGaussianBlur>
            <feColorMatrix values="0 0 0 0 0   0 0 0 0 0   0 0 0 0 0  0 0 0 0.14 0" type="matrix" in="shadowBlurOuter3" result="shadowMatrixOuter3"></feColorMatrix>
            <feMerge>
                <feMergeNode in="shadowMatrixOuter1"></feMergeNode>
                <feMergeNode in="shadowMatrixOuter2"></feMergeNode>
                <feMergeNode in="shadowMatrixOuter3"></feMergeNode>
                <feMergeNode in="SourceGraphic"></feMergeNode>
            </feMerge>
        </filter>
    </defs>
    <g id="Page-2" stroke="none" stroke-width="1" fill="none" fill-rule="evenodd">
        <g id="iqiyi" transform="translate(-259.000000, -314.000000)" fill="#FFFFFF" fill-rule="nonzero">
            <g id="爱奇艺" filter="url(#filter-1)" transform="translate(265.000000, 316.000000)">
                <path d="M549.834259,115.053027 C549.834259,112.712462 547.929124,110.797453 545.55213,110.797453 L503.002156,110.797453 C500.678245,110.797453 498.749517,112.712462 498.749517,115.053027 L498.749517,336.951672 C498.749517,339.321791 500.678245,341.24862 503.002156,341.24862 L545.55213,341.24862 C547.929124,341.24862 549.834259,339.321791 549.834259,336.951672 L549.834259,115.053027 Z" id="path4"></path>
                <path d="M168.354335,304.795489 C168.354335,308.542759 167.575766,312.963828 164.93335,315.789056 C161.63033,319.299905 155.938519,319.542236 151.444052,319.364921 C145.805326,319.577699 141.617568,318.549269 138.863086,316.309182 C135.630845,314.405994 134.002928,310.564157 134.002928,304.795489 L134.002928,146.742279 C134.002928,141.080001 135.630845,137.179058 138.863086,135.057182 C141.617568,133.236742 145.805326,132.296969 151.444052,132.296969 C155.49615,132.296969 160.556848,132.5393 164.072205,134.820761 C167.953254,137.285448 168.307149,142.593094 168.354335,146.742279 L168.354335,304.795489 Z M220.070189,342.758758 L220.070189,342.723295 L201.63226,342.723295 C196.742611,342.723295 194.123788,342.008122 193.793486,340.471387 C201.526092,337.610695 207.795931,333.449689 212.632496,327.976548 C217.20364,322.763469 219.486262,316.072761 219.486262,307.963528 L219.486262,143.893409 C219.486262,135.973312 217.492654,129.524935 213.470048,124.483262 C209.482831,119.276094 204.180304,115.221477 197.609654,112.319412 C183.465651,106.864002 167.953254,104.239731 150.925006,104.458421 C143.080334,104.458421 135.235662,105.002188 127.332007,106.060172 C119.345777,107.466875 112.167607,109.541468 105.726718,112.319412 C99.1324747,115.191925 93.8535411,119.22881 89.8486295,124.483262 C85.1831138,129.489472 82.8651017,135.973312 82.8651017,143.857946 L82.8651017,307.99308 C83.2072002,322.763469 90.8985179,332.965027 105.992139,338.58002 C112.539197,341.470265 119.817637,343.538946 127.951323,344.803798 C135.913961,346.405549 143.853005,347.203469 151.833337,347.203469 C157.837755,347.203469 163.51777,346.736538 168.885177,345.767212 C169.215479,352.150574 171.214986,357.4464 175.019357,361.642869 C178.623188,366.004832 186.361691,368.304024 198.158191,368.516803 L220.070189,368.516803 C222.441286,368.516803 224.358217,366.601795 224.358217,364.219855 L224.358217,347.043885 C224.358217,344.691498 222.441286,342.758758 220.070189,342.758758 Z" id="path6"></path>
                <path d="M47.7109429,110.798635 L5.14327385,110.798635 C2.80166867,110.798635 0.884737474,112.707733 0.884737474,115.05421 L0.884737474,157.781357 C0.884737474,160.169207 2.79577042,162.084216 5.14327385,162.084216 L47.7109429,162.084216 C50.0584463,162.084216 51.963581,160.169207 51.963581,157.781357 L51.963581,115.05421 C51.963581,112.707733 50.0584463,110.798635 47.7109429,110.798635" id="path8"></path>
                <path d="M302.830892,115.053027 C302.830892,112.712462 300.925757,110.797453 298.548762,110.797453 L255.998788,110.797453 C253.674878,110.797453 251.74615,112.712462 251.74615,115.053027 L251.74615,336.951672 C251.74615,339.321791 253.674878,341.24862 255.998788,341.24862 L298.548762,341.24862 C300.925757,341.24862 302.830892,339.321791 302.830892,336.951672 L302.830892,115.053027 Z" id="path4"></path>
                <path d="M47.7109429,180.328217 L5.14327385,180.328217 C2.80166867,180.328217 0.884737474,182.249136 0.884737474,184.625165 L0.884737474,336.968813 C0.884737474,339.3212 2.80166867,341.248029 5.14327385,341.248029 L47.7109429,341.248029 C50.0584463,341.248029 51.963581,339.3212 51.963581,336.956992 L51.963581,184.625165 C51.963581,182.249136 50.0584463,180.328217 47.7109429,180.328217" id="path12"></path>
                <path d="M475.397757,116.530657 L475.380062,116.512926 C475.551111,116.045995 475.663178,115.555422 475.663178,115.047117 C475.663178,112.830672 473.958584,111.039784 471.817519,110.832916 L471.835214,110.809274 L471.628775,110.809274 C471.546199,110.809274 471.493115,110.797453 471.422336,110.797453 L428.158674,110.797453 C426.41869,110.797453 424.955924,111.843615 424.283524,113.333066 L424.271727,113.333066 L424.271727,113.350798 C424.242236,113.451277 424.212745,113.557666 424.177355,113.628592 C424.177355,113.628592 401.787599,183.792373 399.652432,195.761175 C397.505469,183.792373 375.151102,113.628592 375.151102,113.628592 C375.103916,113.557666 375.103916,113.451277 375.015443,113.350798 L375.015443,113.333066 L375.003646,113.333066 C374.343042,111.843615 372.897971,110.797453 371.146191,110.797453 L327.888427,110.797453 C327.799953,110.797453 327.752767,110.809274 327.664293,110.809274 L327.463753,110.809274 L327.469651,110.832916 C325.346281,111.039784 323.641687,112.830672 323.641687,115.047117 C323.641687,115.555422 323.76555,116.045995 323.913006,116.512926 L323.883515,116.530657 L374.225077,256.568603 L374.225077,336.81573 L374.225077,336.969404 C374.225077,339.321791 376.130212,341.230889 378.465919,341.230889 L396.538156,341.230889 L402.766708,341.230889 L420.844844,341.230889 C423.192347,341.230889 425.109278,339.321791 425.109278,336.969404 C425.109278,336.910299 425.085685,336.857104 425.085685,336.81573 L425.085685,256.568603 L475.397757,116.530657 Z" id="path14"></path>
                <path d="M539.984772,50.8104056 C535.832404,42.0037311 528.719115,33.155683 520.744681,27.7534679 C491.383193,7.85865824 336.996504,0.695108246 309.622726,0.269550821 C298.946894,0.104056266 287.710728,0.0508615883 275.442369,0.0626826279 L274.870239,0.0626826279 C274.687393,0.0626826279 250.799481,0.104056266 240.129547,0.269550821 C212.743973,0.695108246 58.3631821,7.85865824 29.0016944,27.7534679 C21.0390571,33.155683 13.9080731,42.0037311 9.76750172,50.8104056 C3.5979324,64.1149857 1.25632721,82.58536 1.25632721,93.1060853 L52.647778,93.0292485 C52.8011325,89.3942789 54.4762354,79.3641268 58.6580945,72.7029709 C65.3585063,62.0522143 78.075133,58.6300233 89.6416009,56.9514357 C136.42062,50.1543379 178.020976,46.5902945 221.856769,45.2781591 C239.303792,44.7757649 274.687393,44.5866283 274.870239,44.5866283 C275.070779,44.5866283 275.247726,44.5570757 275.442369,44.5570757 C292.942476,44.5393441 310.413092,44.7757649 327.889606,45.2781591 C371.737195,46.5902945 413.313958,50.1543379 460.08708,56.9514357 C471.671242,58.6300233 484.370174,62.0522143 491.076484,72.7029709 C495.287835,79.3641268 496.951141,89.3942789 497.12219,93.0292485 L548.490048,93.1060853 C548.490048,82.58536 546.142545,64.1149857 539.984772,50.8104056" id="path30"></path>
                <path d="M539.984772,410.317045 C535.832404,401.510371 528.719115,392.662323 520.744681,387.260108 C491.383193,367.365298 336.996504,360.201748 309.622726,359.776191 C298.946894,359.610696 287.710728,359.557501 275.442369,359.569322 L274.870239,359.569322 C274.687393,359.569322 250.799481,359.610696 240.129547,359.776191 C212.743973,360.201748 58.3631821,367.365298 29.0016944,387.260108 C21.0390571,392.662323 13.9080731,401.510371 9.76750172,410.317045 C3.5979324,423.621625 1.25632721,442.092 1.25632721,452.612725 L52.647778,452.535888 C52.8011325,448.900919 54.4762354,438.870766 58.6580945,432.209611 C65.3585063,421.558854 78.075133,418.136663 89.6416009,416.458075 C136.42062,409.660978 178.020976,406.096934 221.856769,404.784799 C239.303792,404.282405 274.687393,404.093268 274.870239,404.093268 C275.070779,404.093268 275.247726,404.063715 275.442369,404.063715 C292.942476,404.045984 310.413092,404.282405 327.889606,404.784799 C371.737195,406.096934 413.313958,409.660978 460.08708,416.458075 C471.671242,418.136663 484.370174,421.558854 491.076484,432.209611 C495.287835,438.870766 496.951141,448.900919 497.12219,452.535888 L548.490048,452.612725 C548.490048,442.092 546.142545,423.621625 539.984772,410.317045" id="path30" transform="translate(274.873188, 406.090235) scale(-1, 1) rotate(-180.000000) translate(-274.873188, -406.090235) "></path>
            </g>
        </g>
    </g>
</svg>