<?xml version="1.0" encoding="UTF-8"?>
<svg width="552px" height="518px" viewBox="0 0 552 518" version="1.1" xmlns="http://www.w3.org/2000/svg" xmlns:xlink="http://www.w3.org/1999/xlink">
    <!-- Generator: Sketch 51 (57462) - http://www.bohemiancoding.com/sketch -->
    <title>SVG/高德导航</title>
    <desc>Created with Sketch.</desc>
    <defs>
        <filter x="-8.3%" y="-5.7%" width="116.2%" height="117.2%" filterUnits="objectBoundingBox" id="filter-1">
            <feOffset dx="0" dy="4" in="SourceAlpha" result="shadowOffsetOuter1"></feOffset>
            <feGaussianBlur stdDeviation="2.5" in="shadowOffsetOuter1" result="shadowBlurOuter1"></feGaussianBlur>
            <feColorMatrix values="0 0 0 0 0   0 0 0 0 0   0 0 0 0 0  0 0 0 0.2 0" type="matrix" in="shadowBlurOuter1" result="shadowMatrixOuter1"></feColorMatrix>
            <feMorphology radius="1.5" operator="dilate" in="SourceAlpha" result="shadowSpreadOuter2"></feMorphology>
            <feOffset dx="0" dy="3" in="shadowSpreadOuter2" result="shadowOffsetOuter2"></feOffset>
            <feGaussianBlur stdDeviation="7" in="shadowOffsetOuter2" result="shadowBlurOuter2"></feGaussianBlur>
            <feColorMatrix values="0 0 0 0 0   0 0 0 0 0   0 0 0 0 0  0 0 0 0.12 0" type="matrix" in="shadowBlurOuter2" result="shadowMatrixOuter2"></feColorMatrix>
            <feMorphology radius="0.5" operator="dilate" in="SourceAlpha" result="shadowSpreadOuter3"></feMorphology>
            <feOffset dx="0" dy="8" in="shadowSpreadOuter3" result="shadowOffsetOuter3"></feOffset>
            <feGaussianBlur stdDeviation="5" in="shadowOffsetOuter3" result="shadowBlurOuter3"></feGaussianBlur>
            <feColorMatrix values="0 0 0 0 0   0 0 0 0 0   0 0 0 0 0  0 0 0 0.14 0" type="matrix" in="shadowBlurOuter3" result="shadowMatrixOuter3"></feColorMatrix>
            <feMerge>
                <feMergeNode in="shadowMatrixOuter1"></feMergeNode>
                <feMergeNode in="shadowMatrixOuter2"></feMergeNode>
                <feMergeNode in="shadowMatrixOuter3"></feMergeNode>
                <feMergeNode in="SourceGraphic"></feMergeNode>
            </feMerge>
        </filter>
    </defs>
    <g id="Page-2" stroke="none" stroke-width="1" fill="none" fill-rule="evenodd">
        <g id="amap" transform="translate(-220.000000, -317.000000)" fill-rule="nonzero">
            <g id="高德导航" filter="url(#filter-1)" transform="translate(224.000000, 317.000000)">
                <path d="M155.208534,477.976663 C166.457845,441.367691 175.3125,403.979804 187.731293,367.760289 C203.853448,377.774902 219.947759,387.761696 235.902845,397.998855 C222.955,410.850941 209.97931,423.675209 197.031466,436.582932 C192.019397,441.590238 186.979483,446.625362 181.911724,451.632669 C173.001379,460.395455 164.230259,469.297332 155.208534,477.976663 Z" id="Shape" fill="#0A509B"></path>
                <path d="M412.132759,60.8680533 C455.932672,40.7553733 499.704741,20.5870564 543.5325,0.557831485 C534.288017,36.3600711 525.099224,72.1901291 515.826897,107.992369 C510.870517,127.131406 505.969828,146.298261 501.013448,165.437299 C484.835603,228.278992 468.657759,291.120685 452.424224,353.93456 C445.323793,381.307834 438.251207,408.708927 431.23431,436.110019 C425.108448,460.395455 418.704138,484.597435 412.522586,508.88287 C394.757586,497.755523 376.936897,486.683812 359.255431,475.47301 C338.566724,462.565287 317.905862,449.685383 297.30069,436.694205 C277.00181,423.508299 256.257414,411.073488 235.902845,397.998855 C219.947759,387.761696 203.853448,377.774902 187.731293,367.760289 C192.743362,360.722242 199.064138,354.79693 205.078621,348.676889 C308.438621,242.494178 411.631552,136.144557 515.047241,30.0174832 C517.107759,27.3747382 521.228793,22.06143 523.28931,19.418685 C513.71069,24.9545402 505.663534,32.493318 497.365776,39.6704569 C379.303707,139.760945 261.269483,239.879251 143.207414,339.96974 C120.430345,325.754553 97.7646552,311.400276 74.9040517,297.352 C50.0107759,281.578985 24.8668966,266.251064 0.112844828,250.283321 C25.3959483,238.37706 50.8739655,226.888074 76.2406034,215.204359 C111.074483,199.153161 145.991897,183.241054 180.797931,167.134219 C223.70681,147.438815 266.643534,127.771228 309.524569,107.96455 C325.089828,101.009958 340.571552,93.7493643 356.081121,86.6278621 C374.737155,78.004168 393.476724,69.4917474 412.132759,60.8680533 Z" id="Shape" fill="#1995FA"></path>
                <path d="M497.365776,39.6704569 C505.663534,32.493318 513.71069,24.9545402 523.28931,19.418685 C521.228793,22.06143 517.107759,27.3747382 515.047241,30.0174832 C411.631552,136.144557 308.438621,242.494178 205.078621,348.676889 C199.064138,354.79693 192.743362,360.722242 187.731293,367.760289 C175.3125,403.979804 166.457845,441.367691 155.208534,477.976663 C151.115345,431.992901 147.133534,385.98132 143.207414,339.96974 C261.269483,239.879251 379.303707,139.760945 497.365776,39.6704569 Z" id="Shape" fill="#0F68BA"></path>
            </g>
        </g>
    </g>
</svg>