<?xml version="1.0" encoding="UTF-8"?>
<svg width="747px" height="193px" viewBox="0 0 747 193" version="1.1" xmlns="http://www.w3.org/2000/svg" xmlns:xlink="http://www.w3.org/1999/xlink">
    <!-- Generator: Sketch 50 (54983) - http://www.bohemiancoding.com/sketch -->
    <title>12123</title>
    <desc>Created with Sketch.</desc>
    <defs>
        <path d="M184.097321,477.950914 C202.721978,470.79293 220.373706,457.380396 241.326447,460.542418 C241.361194,513.636593 241.326447,566.765514 241.395942,619.859688 C226.767246,619.929183 212.13855,619.929183 197.509854,619.894436 C197.405612,581.706938 197.544602,543.484692 197.544602,505.297193 C193.062175,505.262446 188.614495,505.227698 184.166816,505.192951 C184.23631,496.089107 184.166816,487.02001 184.097321,477.950914 Z M284.969302,460.507671 C327.708722,460.507671 370.448142,460.333933 413.187563,460.577166 C424.654236,460.507671 434.904748,470.897172 434.696263,482.363846 C435.113233,497.965472 435.043738,513.601845 434.765758,529.203471 C435.252223,538.967517 426.912824,546.611966 417.843727,548.418836 C388.065123,555.403083 358.078034,561.69238 328.264682,568.572384 C328.264682,575.382893 328.29943,582.193402 328.29943,589.003912 C363.846118,589.003912 399.392807,588.899669 434.939495,589.038659 C434.974243,599.323918 434.939495,609.609177 434.939495,619.894436 C384.764111,619.929183 334.553979,619.929183 284.378594,619.894436 C284.413342,599.184928 284.100614,578.47542 284.482837,557.80066 C283.822634,547.550149 293.412943,540.357417 302.62103,538.79378 C332.538624,532.26125 362.595208,526.319429 392.443307,519.578414 C392.68654,510.19659 392.790782,500.814766 392.54755,491.46769 C356.688134,491.18971 320.828718,491.398195 284.969302,491.3287 C284.969302,481.078189 284.934554,470.79293 284.969302,460.507671 Z M466.351232,478.333136 C484.767405,470.480202 502.766608,457.519386 523.788843,460.507671 C523.754095,513.636593 523.754095,566.800262 523.788843,619.929183 C509.021157,619.894436 494.288219,619.894436 479.55528,619.929183 C479.55528,581.706938 479.55528,543.484692 479.55528,505.262446 C475.211843,505.227698 470.903154,505.192951 466.559717,505.158203 C466.698707,496.193349 466.629212,487.263243 466.351232,478.333136 Z M567.362203,460.577166 C609.893138,460.403428 652.389326,460.403428 694.885514,460.542418 C706.45643,460.194943 716.811184,470.37596 717.123912,481.842634 C717.679871,497.756987 717.471387,513.740835 717.228154,529.655188 C717.262902,539.870952 707.98532,547.237421 698.603496,548.835806 C669.311357,555.542073 639.949723,561.866117 610.657583,568.537636 C610.657583,575.348146 610.657583,582.158655 610.657583,588.969164 C646.239019,589.073407 681.855203,588.760679 717.471387,589.142902 C717.436639,599.393413 717.401892,609.609177 717.436639,619.859688 C667.087517,619.963931 616.738395,619.894436 566.424021,619.929183 C566.563011,599.150181 566.111293,578.371178 566.563011,557.592175 C566.563011,547.619644 575.632107,540.357417 584.840194,538.828527 C614.72304,532.365493 644.675382,526.284681 674.488734,519.717404 C675.287926,510.300833 675.253179,500.849514 674.801461,491.432942 C638.976793,491.18971 603.186872,491.432942 567.362203,491.293953 C567.362203,481.043441 567.396951,470.827677 567.362203,460.577166 Z M751.489185,460.611913 C792.803958,460.368681 834.153479,460.368681 875.468252,460.577166 C888.185835,460.194943 898.227862,472.5998 896.976952,484.900413 C897.081194,521.941244 897.185437,558.982075 896.976952,596.022906 C898.019377,608.427762 887.664623,619.824941 875.225019,619.755446 C833.979741,620.102921 792.734463,619.859688 751.489185,619.859688 C751.489185,609.574429 751.523933,599.323918 751.523933,589.073407 C784.499307,588.517447 817.509428,589.664114 850.450054,588.517447 C858.685211,581.81118 852.500157,568.051172 853.751066,558.530358 C819.69852,557.175205 785.611226,558.426115 751.523933,557.870155 C751.489185,545.917016 751.454438,533.998625 751.69767,522.045487 C785.402741,521.559022 819.212055,523.122659 852.812884,521.315789 C856.113896,512.00346 853.716319,501.718201 853.612076,492.02365 C819.629025,490.425265 785.541731,491.815165 751.523933,491.293953 C751.55868,481.078189 751.523933,470.827677 751.489185,460.611913 Z" id="path-1"></path>
        <filter x="-6.0%" y="-17.5%" width="112.1%" height="153.8%" filterUnits="objectBoundingBox" id="filter-2">
            <feOffset dx="0" dy="4" in="SourceAlpha" result="shadowOffsetOuter1"></feOffset>
            <feGaussianBlur stdDeviation="2.5" in="shadowOffsetOuter1" result="shadowBlurOuter1"></feGaussianBlur>
            <feColorMatrix values="0 0 0 0 0   0 0 0 0 0   0 0 0 0 0  0 0 0 0.2 0" type="matrix" in="shadowBlurOuter1" result="shadowMatrixOuter1"></feColorMatrix>
            <feMorphology radius="1.5" operator="dilate" in="SourceAlpha" result="shadowSpreadOuter2"></feMorphology>
            <feOffset dx="0" dy="3" in="shadowSpreadOuter2" result="shadowOffsetOuter2"></feOffset>
            <feGaussianBlur stdDeviation="7" in="shadowOffsetOuter2" result="shadowBlurOuter2"></feGaussianBlur>
            <feColorMatrix values="0 0 0 0 0   0 0 0 0 0   0 0 0 0 0  0 0 0 0.12 0" type="matrix" in="shadowBlurOuter2" result="shadowMatrixOuter2"></feColorMatrix>
            <feMorphology radius="0.5" operator="dilate" in="SourceAlpha" result="shadowSpreadOuter3"></feMorphology>
            <feOffset dx="0" dy="8" in="shadowSpreadOuter3" result="shadowOffsetOuter3"></feOffset>
            <feGaussianBlur stdDeviation="5" in="shadowOffsetOuter3" result="shadowBlurOuter3"></feGaussianBlur>
            <feColorMatrix values="0 0 0 0 0   0 0 0 0 0   0 0 0 0 0  0 0 0 0.14 0" type="matrix" in="shadowBlurOuter3" result="shadowMatrixOuter3"></feColorMatrix>
            <feMerge>
                <feMergeNode in="shadowMatrixOuter1"></feMergeNode>
                <feMergeNode in="shadowMatrixOuter2"></feMergeNode>
                <feMergeNode in="shadowMatrixOuter3"></feMergeNode>
            </feMerge>
        </filter>
    </defs>
    <g id="归档" stroke="none" stroke-width="1" fill="none" fill-rule="evenodd">
        <g id="tmri" transform="translate(-167.000000, -447.000000)" fill-rule="nonzero">
            <g id="12123">
                <use fill="black" fill-opacity="1" filter="url(#filter-2)" xlink:href="#path-1"></use>
                <use fill="#FFFFFF" fill-rule="evenodd" xlink:href="#path-1"></use>
            </g>
        </g>
    </g>
</svg>