<?xml version="1.0" encoding="UTF-8"?>
<svg width="706px" height="334px" viewBox="0 0 706 334" version="1.1" xmlns="http://www.w3.org/2000/svg" xmlns:xlink="http://www.w3.org/1999/xlink">
    <!-- Generator: Sketch 50 (54983) - http://www.bohemiancoding.com/sketch -->
    <title>bilibili</title>
    <desc>Created with Sketch.</desc>
    <defs>
        <path d="M544.159122,411.556352 C562.643335,405.249402 579.793385,394.309271 599.175125,391.180054 C594.857291,454.006972 600.388,516.882404 606.064255,579.442489 C643.80892,576.386045 682.378341,583.347946 716.387351,600.085619 C724.004206,604.063849 731.475515,609.060893 736.448302,616.241112 C742.342873,632.057 730.4567,646.854074 718.667556,655.974893 C679.297638,684.695769 628.745014,691.002718 581.29735,691.584898 C575.063173,613.960908 566.524534,536.458204 553.619546,459.658968 C550.441814,443.624763 548.379926,427.347982 544.159122,411.556352 Z M630.515812,610.006936 C632.723244,627.132729 635.246024,644.234264 637.356426,661.384314 C652.565877,651.560028 666.999087,640.547124 680.947148,629.024813 C664.815913,621.044097 647.617347,615.513387 630.515812,610.006936 Z M203.22,411.435064 C221.194805,404.667222 238.344856,395.716206 256.901841,390.525102 C256.513721,415.486066 256.343919,440.471288 256.707781,465.432253 C257.556794,503.516523 261.535023,541.430991 264.8583,579.345459 C302.894056,576.62862 341.875854,583.396461 376.054667,600.546512 C384.690336,605.737616 395.678982,611.826248 396.57651,623.057469 C397.401264,635.16196 389.29926,645.544169 380.809136,653.209538 C351.190732,676.812083 313.203492,686.248249 276.162294,689.886874 C263.912258,691.172521 251.589449,691.657671 239.290898,690.711628 C239.315156,676.981885 237.568616,663.349172 236.355741,649.716458 C228.835917,569.860778 219.035888,490.126385 203.22,411.435064 Z M288.848965,611.680703 C292.147984,628.175801 293.603434,644.961989 295.980669,661.602632 C308.351993,653.500628 320.092621,644.525354 331.93028,635.695625 C334.768407,633.682253 337.218414,631.159473 338.867924,628.054513 C322.300053,622.523804 306.459908,613.039123 288.848965,611.680703 Z M431.410275,427.76036 C443.733084,426.01382 456.152922,423.951933 468.645533,424.970748 C472.429703,486.657563 477.717837,548.247348 482.617852,609.861391 C484.437164,626.089656 484.995087,642.487724 487.687669,658.61896 C478.518335,658.81302 469.324743,658.376385 460.155409,658.206582 C453.508855,581.091999 445.625169,503.904643 431.410275,427.76036 Z M774.047422,426.329167 C785.957853,426.086592 797.819769,424.340053 809.778715,424.631143 C815.406455,502.813056 820.888649,581.019226 828.723821,659.00708 C819.554487,658.861535 810.40941,658.473415 801.288591,657.964007 C796.461349,592.32322 788.626178,526.876493 778.874664,461.793628 C777.419214,449.95597 773.19841,438.385143 774.047422,426.329167 Z M403.926531,480.835763 C409.918133,480.690218 415.933992,480.617446 421.925594,480.641703 C423.575104,496.506107 425.006296,512.394767 427.116698,528.210655 C421.197869,528.574518 415.27904,528.889865 409.384468,529.3265 C408.244366,513.098235 405.673071,497.015514 403.926531,480.835763 Z M745.520606,480.738733 C751.463692,480.617446 757.406779,480.665961 763.374123,480.835763 C764.732543,496.772939 766.964233,512.637342 767.76473,528.623033 C762.209764,528.792835 756.654797,528.986895 751.124087,529.180955 C749.377548,513.025462 746.757738,496.942741 745.520606,480.738733 Z M381.658149,485.687263 C387.140343,484.911023 392.622537,484.159041 398.080474,483.334286 C400.748799,498.762054 402.980489,514.286852 403.975046,529.90868 C399.269092,530.830465 394.587395,531.75225 389.905698,532.674035 C387.771038,516.906662 384.302216,501.357606 381.658149,485.687263 Z M723.324996,485.760035 C728.61313,484.911023 733.925522,484.110526 739.262171,483.407058 C742.464161,498.689281 744.259216,514.238337 745.399318,529.787393 C740.766136,530.78195 736.132954,531.75225 731.499772,532.698292 C728.928478,517.027949 725.532428,501.503151 723.324996,485.760035 Z M514.80755,485.299143 C520.944697,485.541718 527.081844,485.857065 533.243248,486.220928 C533.024931,501.891271 532.927901,517.585872 533.267506,533.280472 C527.445706,533.134927 521.648165,532.965125 515.826365,532.771065 C516.06894,516.930919 515.511018,501.115031 514.80755,485.299143 Z M856.304595,485.42043 C862.320454,485.590233 868.336313,485.832808 874.37643,486.123898 C874.497718,501.891271 874.424945,517.682902 874.47346,533.450275 C868.821463,533.256215 863.145209,533.086412 857.493212,532.892352 C857.12935,517.076464 856.911032,501.236318 856.304595,485.42043 Z M492.563426,486.68182 C498.021362,486.48776 503.503557,486.317958 508.985751,486.148155 C509.495159,501.794241 510.489716,517.488842 509.543674,533.134927 C504.837719,533.353245 500.131765,533.571562 495.42581,533.69285 C495.03769,517.998249 493.291151,502.376421 492.563426,486.68182 Z M833.890668,486.77885 C839.445634,486.609048 844.976344,486.39073 850.531311,486.148155 C851.137748,501.769983 851.477353,517.416069 851.064975,533.037897 C846.456051,533.2077 841.871384,533.377502 837.286717,533.523047 C835.855525,517.973991 835.006512,502.376421 833.890668,486.77885 Z M392.185903,547.107246 C404.557226,545.118131 417.049837,541.794854 429.663736,543.686938 C436.237517,584.754881 439.196932,626.283716 444.291006,667.545719 C434.75781,668.588791 425.224614,669.656121 415.66716,670.383846 C408.317138,629.218873 398.662654,588.442021 392.185903,547.107246 Z M733.319084,547.374078 C745.763181,545.215161 758.280049,541.600794 771.015235,543.468621 C777.419214,584.682109 781.276156,626.259459 785.133098,667.788294 C775.769704,668.467504 766.430568,669.437803 757.115689,670.602163 C749.814183,629.412933 740.159699,588.660338 733.319084,547.374078 Z M495.983733,548.853785 C508.549116,547.762198 521.30856,546.816156 533.801171,549.144875 C535.232363,590.746483 535.208106,632.372348 535.450681,673.998213 C526.063029,673.876925 516.675378,674.070985 507.287726,674.143758 C504.085737,632.34809 498.943147,590.697968 495.983733,548.853785 Z M837.55355,548.562695 C849.779328,547.665168 862.150652,546.864671 874.327915,548.99933 C876.947725,590.57668 875.904653,632.299575 876.22,673.949698 C866.880864,673.876925 857.541727,674.02247 848.226848,674.168015 C845.364464,632.25106 839.300089,590.552423 837.55355,548.562695 Z" id="path-1"></path>
        <filter x="-6.4%" y="-9.3%" width="112.8%" height="128.6%" filterUnits="objectBoundingBox" id="filter-2">
            <feOffset dx="0" dy="4" in="SourceAlpha" result="shadowOffsetOuter1"></feOffset>
            <feGaussianBlur stdDeviation="2.5" in="shadowOffsetOuter1" result="shadowBlurOuter1"></feGaussianBlur>
            <feColorMatrix values="0 0 0 0 0   0 0 0 0 0   0 0 0 0 0  0 0 0 0.2 0" type="matrix" in="shadowBlurOuter1" result="shadowMatrixOuter1"></feColorMatrix>
            <feMorphology radius="1.5" operator="dilate" in="SourceAlpha" result="shadowSpreadOuter2"></feMorphology>
            <feOffset dx="0" dy="3" in="shadowSpreadOuter2" result="shadowOffsetOuter2"></feOffset>
            <feGaussianBlur stdDeviation="7" in="shadowOffsetOuter2" result="shadowBlurOuter2"></feGaussianBlur>
            <feColorMatrix values="0 0 0 0 0   0 0 0 0 0   0 0 0 0 0  0 0 0 0.12 0" type="matrix" in="shadowBlurOuter2" result="shadowMatrixOuter2"></feColorMatrix>
            <feMorphology radius="0.5" operator="dilate" in="SourceAlpha" result="shadowSpreadOuter3"></feMorphology>
            <feOffset dx="0" dy="8" in="shadowSpreadOuter3" result="shadowOffsetOuter3"></feOffset>
            <feGaussianBlur stdDeviation="5" in="shadowOffsetOuter3" result="shadowBlurOuter3"></feGaussianBlur>
            <feColorMatrix values="0 0 0 0 0   0 0 0 0 0   0 0 0 0 0  0 0 0 0.14 0" type="matrix" in="shadowBlurOuter3" result="shadowMatrixOuter3"></feColorMatrix>
            <feMerge>
                <feMergeNode in="shadowMatrixOuter1"></feMergeNode>
                <feMergeNode in="shadowMatrixOuter2"></feMergeNode>
                <feMergeNode in="shadowMatrixOuter3"></feMergeNode>
            </feMerge>
        </filter>
    </defs>
    <g id="Page-1" stroke="none" stroke-width="1" fill="none" fill-rule="evenodd">
        <g id="bilibili" transform="translate(-187.000000, -377.000000)" fill-rule="nonzero">
            <g>
                <use fill="black" fill-opacity="1" filter="url(#filter-2)" xlink:href="#path-1"></use>
                <use fill="#FFFFFF" fill-rule="evenodd" xlink:href="#path-1"></use>
            </g>
        </g>
    </g>
</svg>