<?xml version="1.0" encoding="UTF-8" ?>
<!DOCTYPE svg PUBLIC "-//W3C//DTD SVG 1.1//EN" "http://www.w3.org/Graphics/SVG/1.1/DTD/svg11.dtd">
<svg width="256pt" height="256pt" viewBox="0 0 256 256" version="1.1" xmlns="http://www.w3.org/2000/svg">
<g id="#fcfbf8ff">
<path fill="#fcfbf8" opacity="1.00" d=" M 72.38 53.72 C 79.49 52.09 87.19 52.96 93.69 56.31 C 104.14 61.55 111.10 73.21 110.34 84.94 C 109.94 99.17 98.22 111.95 84.12 113.70 C 72.25 115.71 59.62 109.96 53.25 99.78 C 47.63 91.19 46.92 79.61 51.51 70.42 C 55.45 62.09 63.37 55.69 72.38 53.72 Z" />
<path fill="#fcfbf8" opacity="1.00" d=" M 188.51 63.86 C 192.87 63.80 197.22 63.77 201.58 63.89 C 201.59 79.90 201.58 95.92 201.58 111.94 C 197.23 111.91 192.88 111.90 188.53 111.94 C 188.48 95.92 188.51 79.89 188.51 63.86 Z" />
<path fill="#fcfbf8" opacity="1.00" d=" M 52.01 140.42 C 62.51 140.42 73.01 140.37 83.51 140.46 C 87.56 155.03 97.70 167.78 110.93 175.09 C 124.93 182.95 142.21 184.72 157.46 179.66 C 175.65 174.05 190.34 158.74 195.51 140.45 C 198.24 140.45 200.97 140.44 203.70 140.45 C 199.97 158.63 189.32 175.31 174.31 186.25 C 148.65 205.96 110.35 206.74 83.94 188.03 C 67.62 177.16 55.93 159.63 52.01 140.42 Z" />
</g>
<g id="#f99236ff">
</g>
</svg>
