<?xml version="1.0" encoding="UTF-8"?>
<svg width="632px" height="645px" viewBox="0 0 632 645" version="1.1" xmlns="http://www.w3.org/2000/svg" xmlns:xlink="http://www.w3.org/1999/xlink">
    <!-- Generator: Sketch 50 (54983) - http://www.bohemiancoding.com/sketch -->
    <title>Google</title>
    <desc>Created with Sketch.</desc>
    <defs>
        <filter x="-6.9%" y="-4.4%" width="113.8%" height="113.5%" filterUnits="objectBoundingBox" id="filter-1">
            <feOffset dx="0" dy="4" in="SourceAlpha" result="shadowOffsetOuter1"></feOffset>
            <feGaussianBlur stdDeviation="2.5" in="shadowOffsetOuter1" result="shadowBlurOuter1"></feGaussianBlur>
            <feColorMatrix values="0 0 0 0 0   0 0 0 0 0   0 0 0 0 0  0 0 0 0.2 0" type="matrix" in="shadowBlurOuter1" result="shadowMatrixOuter1"></feColorMatrix>
            <feMorphology radius="1.5" operator="dilate" in="SourceAlpha" result="shadowSpreadOuter2"></feMorphology>
            <feOffset dx="0" dy="3" in="shadowSpreadOuter2" result="shadowOffsetOuter2"></feOffset>
            <feGaussianBlur stdDeviation="7" in="shadowOffsetOuter2" result="shadowBlurOuter2"></feGaussianBlur>
            <feColorMatrix values="0 0 0 0 0   0 0 0 0 0   0 0 0 0 0  0 0 0 0.12 0" type="matrix" in="shadowBlurOuter2" result="shadowMatrixOuter2"></feColorMatrix>
            <feMorphology radius="0.5" operator="dilate" in="SourceAlpha" result="shadowSpreadOuter3"></feMorphology>
            <feOffset dx="0" dy="8" in="shadowSpreadOuter3" result="shadowOffsetOuter3"></feOffset>
            <feGaussianBlur stdDeviation="5" in="shadowOffsetOuter3" result="shadowBlurOuter3"></feGaussianBlur>
            <feColorMatrix values="0 0 0 0 0   0 0 0 0 0   0 0 0 0 0  0 0 0 0.14 0" type="matrix" in="shadowBlurOuter3" result="shadowMatrixOuter3"></feColorMatrix>
            <feMerge>
                <feMergeNode in="shadowMatrixOuter1"></feMergeNode>
                <feMergeNode in="shadowMatrixOuter2"></feMergeNode>
                <feMergeNode in="shadowMatrixOuter3"></feMergeNode>
                <feMergeNode in="SourceGraphic"></feMergeNode>
            </feMerge>
        </filter>
    </defs>
    <g id="归档" stroke="none" stroke-width="1" fill="none" fill-rule="evenodd">
        <g id="google" transform="translate(-218.000000, -223.000000)" fill-rule="nonzero">
            <g id="Google" filter="url(#filter-1)" transform="translate(223.000000, 224.000000)">
                <path d="M33.5333333,174 C88.8666667,72 198.466667,-2.26666667 316.6,0.8 C395.666667,-2.53333333 472.2,30.6666667 530.733333,82.4 C500.466667,111.466667 470.2,140.533333 440.2,170 C387.933333,123.333333 309.533333,108.666667 245.133333,138 C193.4,158.4 156.333333,204 136.066667,254.666667 C102.6,226.933333 68.3333333,200.133333 33.5333333,174 Z" id="Shape" fill="#E95148"></path>
                <path d="M33.4,460.4 C-10.2,370.933333 -10.4666667,263.333333 33.5333333,174 C68.3333333,200.133333 102.6,226.933333 136.066667,254.666667 C125.533333,295.866667 125.533333,338.266667 136.2,379.466667 C102.333333,406.933333 68.0666667,433.866667 33.4,460.4 Z" id="Shape" fill="#FABF33"></path>
                <path d="M316.733333,258.8 C415.933333,258.266667 515.133333,258.8 614.2,258.133333 C637.533333,363.733333 607.533333,481.066667 528.866667,556.8 C495,531.866667 461.666667,506.133333 429,479.6 C461.533333,453.2 483.133333,416.8 495,377.066667 C435.4,376.266667 375.666667,377.466667 316.066667,376.266667 C317.933333,337.2 318.333333,298 316.733333,258.8 Z" id="Shape" fill="#4C8CF1"></path>
                <path d="M33.4,460.4 C68.0666667,433.866667 102.333333,406.933333 136.2,379.466667 C153.4,420.133333 178.866667,459.066667 217.666667,482 C280.733333,522.533333 366.333333,519.066667 429,479.6 C461.666667,506.133333 495,531.866667 528.866667,556.8 C432.866667,643.2 282.733333,658.133333 169.933333,596.933333 C111.4,566.933333 66.3333333,516.533333 33.4,460.4 Z" id="Shape" fill="#41AA5C"></path>
            </g>
        </g>
    </g>
</svg>