<?xml version="1.0" encoding="UTF-8" ?>
<!DOCTYPE svg PUBLIC "-//W3C//DTD SVG 1.1//EN" "http://www.w3.org/Graphics/SVG/1.1/DTD/svg11.dtd">
<svg width="130pt" height="130pt" viewBox="0 0 130 130" version="1.1" xmlns="http://www.w3.org/2000/svg">
<g id="#ffffffff">
<path fill="#ffffff" opacity="1.00" d=" M 60.46 33.70 C 71.20 31.89 82.73 33.96 91.65 40.37 C 99.57 45.75 105.33 55.26 104.19 65.04 C 103.11 70.87 97.29 73.82 91.99 74.92 C 81.50 77.21 70.66 76.91 60.05 78.24 C 52.62 78.50 44.59 79.79 37.72 76.25 C 32.04 73.14 31.66 65.84 32.53 60.15 C 34.74 46.37 47.20 36.23 60.46 33.70 M 61.34 43.41 C 59.29 44.83 59.45 47.71 58.81 49.90 C 58.62 55.75 58.09 62.53 61.86 67.41 C 65.37 68.45 68.70 66.20 71.73 64.71 C 75.79 62.21 80.22 59.53 82.44 55.13 C 82.78 53.60 81.44 52.52 80.54 51.52 C 76.77 47.97 72.02 45.63 67.22 43.80 C 65.32 43.30 63.26 42.79 61.34 43.41 Z" />
<path fill="#ffffff" opacity="1.00" d=" M 81.10 90.94 C 83.90 90.33 86.46 88.97 88.84 87.41 C 88.74 89.92 88.37 92.44 87.22 94.70 C 84.94 94.02 82.55 92.90 81.10 90.94 Z" />
<path fill="#ffffff" opacity="1.00" d=" M 52.29 91.30 C 55.22 91.20 58.04 92.99 61.09 92.84 C 59.77 94.94 57.91 96.62 55.85 97.97 C 54.10 96.09 53.31 93.60 52.29 91.30 Z" />
</g>
<g id="#ad4613ff">
<path fill="#ad4613" opacity="1.00" d=" M 69.88 23.46 C 72.57 21.05 76.34 18.03 80.18 19.60 C 87.91 22.72 93.89 28.99 98.38 35.86 C 95.56 33.97 93.53 31.23 91.03 28.98 C 87.49 25.73 83.32 23.14 78.83 21.42 C 75.75 21.16 72.80 22.68 69.88 23.46 Z" />
<path fill="#ad4613" opacity="1.00" d=" M 25.29 42.89 C 26.24 34.66 28.90 26.41 33.72 19.62 C 39.53 20.68 45.42 21.92 50.63 24.85 C 45.46 23.96 40.31 22.26 35.02 22.75 C 29.88 28.30 27.77 35.92 25.29 42.89 Z" />
<path fill="#ad4613" opacity="1.00" d=" M 62.48 31.72 C 75.09 30.09 88.65 34.10 97.56 43.36 C 103.25 49.14 106.84 57.48 105.56 65.66 C 104.81 70.07 101.30 73.52 97.33 75.28 C 89.64 78.56 81.12 78.46 72.94 79.30 C 63.21 79.76 53.44 81.56 43.70 80.25 C 38.79 79.56 33.90 76.74 32.00 71.98 C 29.61 65.87 30.66 58.96 33.06 53.02 C 38.06 41.26 50.00 33.36 62.48 31.72 M 60.46 33.70 C 47.20 36.23 34.74 46.37 32.53 60.15 C 31.66 65.84 32.04 73.14 37.72 76.25 C 44.59 79.79 52.62 78.50 60.05 78.24 C 70.66 76.91 81.50 77.21 91.99 74.92 C 97.29 73.82 103.11 70.87 104.19 65.04 C 105.33 55.26 99.57 45.75 91.65 40.37 C 82.73 33.96 71.20 31.89 60.46 33.70 Z" />
<path fill="#ad4613" opacity="1.00" d=" M 61.34 43.41 C 63.26 42.79 65.32 43.30 67.22 43.80 C 72.02 45.63 76.77 47.97 80.54 51.52 C 81.44 52.52 82.78 53.60 82.44 55.13 C 80.22 59.53 75.79 62.21 71.73 64.71 C 68.70 66.20 65.37 68.45 61.86 67.41 C 58.09 62.53 58.62 55.75 58.81 49.90 C 59.45 47.71 59.29 44.83 61.34 43.41 Z" />
<path fill="#ad4613" opacity="1.00" d=" M 104.93 69.73 C 108.71 69.50 112.48 69.93 116.14 70.85 C 116.19 73.70 116.40 76.60 115.63 79.39 C 111.88 76.42 108.93 72.48 104.93 69.73 Z" />
<path fill="#ad4613" opacity="1.00" d=" M 15.03 80.03 C 20.14 76.87 26.02 75.20 31.94 74.43 C 27.05 79.65 22.83 85.54 20.04 92.16 C 17.58 88.53 15.58 84.43 15.03 80.03 Z" />
<path fill="#ad4613" opacity="1.00" d=" M 97.55 82.27 C 103.22 82.72 108.52 85.35 112.64 89.22 C 110.77 93.21 107.81 96.59 104.54 99.50 C 103.21 93.43 101.47 87.24 97.55 82.27 Z" />
<path fill="#ad4613" opacity="1.00" d=" M 84.75 86.84 C 87.05 86.25 87.68 83.29 90.04 83.04 C 91.52 84.38 89.67 86.30 89.83 87.93 C 89.89 90.72 89.13 93.40 88.05 95.95 C 84.63 95.70 82.02 93.33 79.37 91.44 C 73.84 92.88 68.08 93.19 62.38 93.19 C 60.37 95.48 58.43 98.89 55.03 98.93 C 52.17 95.82 51.82 91.40 49.53 87.98 L 49.77 86.62 C 52.44 87.22 54.52 89.38 57.32 89.65 C 66.42 91.40 76.24 90.61 84.75 86.84 M 81.10 90.94 C 82.55 92.90 84.94 94.02 87.22 94.70 C 88.37 92.44 88.74 89.92 88.84 87.41 C 86.46 88.97 83.90 90.33 81.10 90.94 M 52.29 91.30 C 53.31 93.60 54.10 96.09 55.85 97.97 C 57.91 96.62 59.77 94.94 61.09 92.84 C 58.04 92.99 55.22 91.20 52.29 91.30 Z" />
<path fill="#ad4613" opacity="1.00" d=" M 25.82 98.66 C 29.45 92.12 35.74 87.42 42.86 85.27 C 39.44 91.60 38.38 98.83 38.33 105.95 C 37.78 105.79 36.69 105.47 36.14 105.31 C 32.45 103.52 28.97 101.30 25.82 98.66 Z" />
</g>
<g id="#f3a027ff">
<path fill="#f3a027" opacity="1.00" d=" M 69.88 23.46 C 72.80 22.68 75.75 21.16 78.83 21.42 C 83.32 23.14 87.49 25.73 91.03 28.98 C 93.53 31.23 95.56 33.97 98.38 35.86 C 99.11 37.00 99.79 38.21 100.85 39.10 C 109.35 47.54 115.09 58.85 116.14 70.85 C 112.48 69.93 108.71 69.50 104.93 69.73 C 108.93 72.48 111.88 76.42 115.63 79.39 L 115.84 79.52 C 115.10 82.84 114.33 86.24 112.64 89.22 C 108.52 85.35 103.22 82.72 97.55 82.27 C 101.47 87.24 103.21 93.43 104.54 99.50 C 95.26 107.35 82.93 110.41 71.05 111.23 C 59.19 111.83 46.98 110.41 36.14 105.31 C 36.69 105.47 37.78 105.79 38.33 105.95 C 38.38 98.83 39.44 91.60 42.86 85.27 C 35.74 87.42 29.45 92.12 25.82 98.66 C 23.66 96.72 21.64 94.60 20.04 92.16 C 22.83 85.54 27.05 79.65 31.94 74.43 C 26.02 75.20 20.14 76.87 15.03 80.03 C 11.92 67.01 17.05 53.12 25.29 42.89 C 27.77 35.92 29.88 28.30 35.02 22.75 C 40.31 22.26 45.46 23.96 50.63 24.85 C 50.99 25.03 51.72 25.40 52.08 25.58 C 56.99 24.42 62.04 23.63 67.10 23.86 C 68.05 23.94 69.02 23.93 69.88 23.46 M 62.48 31.72 C 50.00 33.36 38.06 41.26 33.06 53.02 C 30.66 58.96 29.61 65.87 32.00 71.98 C 33.90 76.74 38.79 79.56 43.70 80.25 C 53.44 81.56 63.21 79.76 72.94 79.30 C 81.12 78.46 89.64 78.56 97.33 75.28 C 101.30 73.52 104.81 70.07 105.56 65.66 C 106.84 57.48 103.25 49.14 97.56 43.36 C 88.65 34.10 75.09 30.09 62.48 31.72 M 84.75 86.84 C 76.24 90.61 66.42 91.40 57.32 89.65 C 54.52 89.38 52.44 87.22 49.77 86.62 L 49.53 87.98 C 51.82 91.40 52.17 95.82 55.03 98.93 C 58.43 98.89 60.37 95.48 62.38 93.19 C 68.08 93.19 73.84 92.88 79.37 91.44 C 82.02 93.33 84.63 95.70 88.05 95.95 C 89.13 93.40 89.89 90.72 89.83 87.93 C 89.67 86.30 91.52 84.38 90.04 83.04 C 87.68 83.29 87.05 86.25 84.75 86.84 Z" />
</g>
</svg>
