<?xml version="1.0" encoding="UTF-8" ?>
<!DOCTYPE svg PUBLIC "-//W3C//DTD SVG 1.1//EN" "http://www.w3.org/Graphics/SVG/1.1/DTD/svg11.dtd">
<svg width="72pt" height="72pt" viewBox="0 0 72 72" version="1.1" xmlns="http://www.w3.org/2000/svg">
<g id="#459ef9ff">
</g>
<g id="#feffffff">
<path fill="#feffff" opacity="1.00" d=" M 29.44 7.54 C 44.56 3.65 61.25 14.12 64.46 29.35 C 68.51 44.56 57.86 61.47 42.49 64.59 C 27.29 68.53 10.53 57.78 7.46 42.45 C 3.64 27.35 14.21 10.67 29.44 7.54 M 29.32 10.35 C 17.29 13.33 8.50 25.58 9.61 37.94 C 10.22 50.64 21.33 61.59 33.97 62.33 C 43.73 63.18 53.65 58.06 58.67 49.66 C 63.48 41.92 63.68 31.66 59.37 23.65 C 53.97 12.99 40.87 7.12 29.32 10.35 Z" />
<path fill="#feffff" opacity="1.00" d=" M 23.28 50.15 C 23.94 40.71 24.81 31.28 25.55 21.84 C 27.97 21.83 30.39 21.82 32.81 21.84 C 32.53 25.02 32.28 28.21 32.01 31.39 C 35.34 28.13 38.79 24.99 42.21 21.83 C 45.62 21.83 49.02 21.82 52.43 21.82 C 48.41 25.72 44.20 29.40 40.23 33.35 C 39.10 34.32 38.53 36.12 39.60 37.36 C 43.02 41.77 46.86 45.85 50.39 50.18 C 47.26 50.16 44.14 50.14 41.01 50.16 C 37.79 46.35 34.53 42.57 31.41 38.67 C 31.12 42.50 30.76 46.33 30.43 50.16 C 28.05 50.16 25.67 50.16 23.28 50.15 Z" />
</g>
</svg>
