<?xml version="1.0" encoding="UTF-8" ?>
<!DOCTYPE svg PUBLIC "-//W3C//DTD SVG 1.1//EN" "http://www.w3.org/Graphics/SVG/1.1/DTD/svg11.dtd">
<svg width="130pt" height="130pt" viewBox="0 0 130 130" version="1.1" xmlns="http://www.w3.org/2000/svg">
<g id="#20ca79ff">
</g>
<g id="#ffffffff">
<path fill="#ffffff" opacity="1.00" d=" M 76.72 12.72 C 78.45 11.15 81.09 10.52 83.24 11.61 C 84.92 12.78 85.52 14.85 86.05 16.72 C 88.12 24.51 90.04 32.34 92.23 40.10 C 87.45 35.17 81.53 31.24 74.85 29.43 C 69.06 27.70 62.91 27.99 56.98 28.78 C 63.63 23.51 70.12 18.04 76.72 12.72 Z" />
<path fill="#ffffff" opacity="1.00" d=" M 19.39 31.44 C 20.95 29.43 23.75 29.60 26.02 29.71 C 34.07 30.29 42.13 30.76 50.20 30.94 C 38.39 36.50 29.48 47.95 28.11 61.08 C 25.25 53.23 22.06 45.50 19.08 37.70 C 18.31 35.72 17.78 33.16 19.39 31.44 Z" />
<path fill="#ffffff" opacity="1.00" d=" M 55.47 33.84 C 71.10 28.66 89.48 37.67 95.14 53.08 C 101.18 67.52 94.71 85.55 81.04 93.06 C 67.58 101.18 48.62 97.38 39.27 84.76 C 30.26 73.58 30.23 56.33 39.21 45.12 C 43.29 39.81 49.04 35.78 55.47 33.84 M 48.56 81.66 C 51.29 81.68 54.03 81.69 56.76 81.71 C 57.51 76.64 57.42 71.47 58.61 66.46 C 59.02 67.90 59.20 69.51 60.28 70.64 C 63.36 74.36 66.60 77.94 69.66 81.67 C 73.26 81.71 76.86 81.70 80.46 81.61 C 76.20 76.82 71.84 72.11 67.74 67.18 C 66.29 65.68 66.46 63.38 68.00 62.01 C 72.82 57.08 77.94 52.45 82.89 47.64 C 79.69 47.57 76.50 47.57 73.30 47.59 C 68.31 52.80 61.44 56.62 58.43 63.43 C 58.80 58.15 59.39 52.88 59.71 47.59 C 56.97 47.58 54.23 47.58 51.50 47.58 C 50.44 58.93 49.62 70.31 48.56 81.66 Z" />
<path fill="#ffffff" opacity="1.00" d=" M 96.76 46.22 C 103.62 50.75 110.59 55.11 117.49 59.58 C 119.43 60.79 121.30 62.60 121.24 65.07 C 120.86 67.11 119.34 68.61 117.64 69.64 C 110.82 74.03 104.00 78.41 97.16 82.76 C 103.49 71.60 103.18 57.28 96.76 46.22 Z" />
<path fill="#ffffff" opacity="1.00" d=" M 18.74 92.78 C 21.74 84.61 25.12 76.59 28.11 68.41 C 29.47 81.20 37.70 92.96 49.41 98.36 C 40.58 98.68 31.78 99.67 22.94 99.70 C 19.44 99.82 17.33 95.81 18.74 92.78 Z" />
<path fill="#ffffff" opacity="1.00" d=" M 57.74 101.20 C 70.16 103.35 83.31 99.16 92.00 90.00 C 90.04 97.74 87.95 105.45 85.96 113.18 C 85.46 115.32 84.37 117.56 82.16 118.35 C 79.54 119.02 77.34 117.17 75.44 115.65 C 69.56 110.82 63.69 105.96 57.74 101.20 Z" />
</g>
</svg>
