<?xml version="1.0" encoding="UTF-8" ?>
<!DOCTYPE svg PUBLIC "-//W3C//DTD SVG 1.1//EN" "http://www.w3.org/Graphics/SVG/1.1/DTD/svg11.dtd">
<svg width="256pt" height="256pt" viewBox="0 0 256 256" version="1.1" xmlns="http://www.w3.org/2000/svg">
<g id="#ffffffff">
</g>
<g id="#fff8f0ff">
</g>
<g id="#e12421ff">
<path fill="#e12421" opacity="1.00" d=" M 85.51 40.47 C 89.80 37.42 96.12 38.11 99.78 41.85 C 101.42 43.93 102.57 46.44 102.52 49.13 C 102.59 65.58 102.50 82.04 102.59 98.49 C 102.46 103.06 102.57 107.63 102.55 112.19 C 98.02 112.75 93.40 112.02 88.92 112.87 C 85.07 113.61 82.71 116.98 81.05 120.24 C 81.04 106.73 81.06 93.22 81.05 79.71 C 81.04 69.36 81.08 59.01 81.02 48.66 C 81.20 45.43 82.81 42.30 85.51 40.47 Z" />
<path fill="#e12421" opacity="1.00" d=" M 117.38 89.56 C 115.36 83.19 120.10 75.59 127.00 75.58 C 141.99 75.47 156.98 75.56 171.97 75.54 C 176.98 75.22 181.76 78.94 182.73 83.85 C 184.20 89.63 180.22 95.80 174.41 96.99 C 158.95 97.07 143.48 97.02 128.01 97.03 C 123.24 97.37 118.84 94.01 117.38 89.56 Z" />
<path fill="#e12421" opacity="1.00" d=" M 102.55 112.53 C 118.36 112.50 134.17 112.44 149.97 112.55 C 155.41 112.59 160.08 117.58 159.98 122.97 C 160.38 128.39 155.98 133.43 150.62 134.01 C 132.01 133.93 113.40 134.00 94.79 133.97 C 98.20 132.23 101.71 129.63 102.34 125.58 C 102.88 121.25 102.47 116.87 102.55 112.53 Z" />
<path fill="#e12421" opacity="1.00" d=" M 121.38 150.29 C 123.37 149.20 125.55 148.34 127.87 148.46 C 142.59 148.45 157.31 148.46 172.02 148.47 C 175.06 148.37 178.12 149.56 180.16 151.84 C 184.47 156.35 183.67 164.28 178.73 168.01 C 176.70 169.18 174.45 170.11 172.06 169.95 C 157.34 169.96 142.61 169.95 127.89 169.96 C 124.53 170.11 121.19 168.54 119.18 165.85 C 115.48 161.17 116.67 153.85 121.38 150.29 Z" />
</g>
<g id="#fff8f1ff">
</g>
<g id="#fff3e8ff">
</g>
<g id="#fff0e2ff">
</g>
<g id="#b02028ff">
<path fill="#b02028" opacity="1.00" d=" M 88.92 112.87 C 93.40 112.02 98.02 112.75 102.55 112.19 L 102.55 112.53 C 102.47 116.87 102.88 121.25 102.34 125.58 C 101.71 129.63 98.20 132.23 94.79 133.97 C 89.31 134.92 83.39 132.32 81.44 126.90 C 80.98 124.71 81.00 122.46 81.05 120.24 C 82.71 116.98 85.07 113.61 88.92 112.87 Z" />
</g>
<g id="#ffebd7ff">
</g>
<g id="#f74436ff">
</g>
<g id="#fee5cdff">
</g>
<g id="#fffcfaff">
</g>
<g id="#fc9642ff">
</g>
<g id="#fdcb9fff">
</g>
<g id="#fdaa45ff">
</g>
<g id="#fba391ff">
</g>
<g id="#fedab2ff">
</g>
<g id="#fdbe90ff">
</g>
<g id="#fbab9dff">
</g>
<g id="#fb9e87ff">
</g>
<g id="#fba492ff">
</g>
<g id="#fff4ebff">
</g>
<g id="#f9643aff">
</g>
<g id="#fb7e3eff">
</g>
<g id="#fba798ff">
</g>
<g id="#f85239ff">
</g>
<g id="#fedcb2ff">
</g>
<g id="#fba48eff">
</g>
<g id="#fc9541ff">
</g>
<g id="#fb9876ff">
</g>
<g id="#ed4c2aff">
</g>
<g id="#eb4729ff">
</g>
<g id="#ec4329ff">
</g>
<g id="#ed482aff">
</g>
<g id="#fb9c7eff">
</g>
<g id="#fb936dff">
</g>
<g id="#ed4b2aff">
</g>
<g id="#fed9aeff">
</g>
<g id="#ed4b2cff">
</g>
<g id="#f8864eff">
</g>
<g id="#fa723dff">
</g>
<g id="#f16135ff">
</g>
<g id="#fb9874ff">
</g>
<g id="#ec4a29ff">
</g>
<g id="#fb9e7fff">
</g>
<g id="#fb926aff">
</g>
<g id="#fec899ff">
</g>
<g id="#fcb681ff">
</g>
<g id="#ea4227ff">
</g>
<g id="#fb893fff">
</g>
<g id="#ec4c2aff">
</g>
<g id="#fb9b78ff">
</g>
<g id="#fb966fff">
</g>
<g id="#ed472bff">
</g>
</svg>
