<?xml version="1.0" encoding="UTF-8" ?>
<!DOCTYPE svg PUBLIC "-//W3C//DTD SVG 1.1//EN" "http://www.w3.org/Graphics/SVG/1.1/DTD/svg11.dtd">
<svg width="96pt" height="96pt" viewBox="0 0 96 96" version="1.1" xmlns="http://www.w3.org/2000/svg">
<g id="#ffffffff">
<path fill="#ffffff" opacity="1.00" d=" M 23.32 33.38 C 24.20 33.47 25.96 33.65 26.85 33.74 C 27.44 34.71 28.03 35.69 28.63 36.67 C 30.81 36.66 32.98 36.66 35.17 36.64 C 35.77 35.64 36.38 34.65 37.00 33.65 C 37.85 33.59 39.57 33.47 40.42 33.41 C 39.82 34.49 39.22 35.58 38.61 36.66 C 40.89 36.67 43.16 36.67 45.43 36.68 C 45.43 37.44 45.44 38.97 45.45 39.74 C 41.46 39.75 37.48 39.75 33.50 39.75 L 33.31 41.63 C 36.71 41.71 40.11 41.72 43.52 41.71 C 43.53 42.75 43.54 43.80 43.55 44.84 C 40.33 44.89 37.09 44.60 33.90 45.07 L 32.75 46.49 C 37.17 46.99 41.63 46.77 46.07 46.80 C 46.07 47.56 46.07 49.08 46.08 49.84 C 36.62 49.87 27.16 49.85 17.71 49.85 C 17.71 49.09 17.71 47.57 17.72 46.80 C 21.89 46.80 26.07 46.80 30.24 46.80 C 30.25 46.31 30.26 45.34 30.27 44.85 C 26.92 44.85 23.57 44.84 20.21 44.84 C 20.22 44.05 20.23 42.48 20.23 41.69 C 23.51 41.64 26.84 42.02 30.08 41.42 L 30.54 39.78 C 26.46 39.73 22.38 39.76 18.29 39.74 C 18.30 38.72 18.31 37.70 18.32 36.68 C 20.58 36.66 22.85 36.66 25.12 36.65 C 24.53 35.56 23.92 34.47 23.32 33.38 Z" />
<path fill="#ffffff" opacity="1.00" d=" M 50.54 34.12 C 59.33 34.10 68.13 34.13 76.92 34.10 C 77.21 42.08 77.05 50.07 77.12 58.06 C 77.04 59.78 77.29 62.63 74.97 62.96 C 66.84 63.38 58.68 63.00 50.54 63.12 C 50.54 53.45 50.54 43.79 50.54 34.12 M 53.67 37.22 C 53.65 44.80 53.66 52.37 53.67 59.95 C 60.39 59.93 67.12 60.03 73.84 59.89 C 73.99 52.33 73.91 44.78 73.92 37.22 C 67.17 37.20 60.42 37.21 53.67 37.22 Z" />
<path fill="#ffffff" opacity="1.00" d=" M 66.25 41.74 C 66.28 40.68 66.30 39.62 66.33 38.56 C 67.10 38.56 68.63 38.57 69.39 38.57 C 69.42 39.36 69.46 40.94 69.49 41.73 C 70.54 41.74 71.60 41.75 72.65 41.77 C 72.66 42.53 72.68 44.05 72.69 44.82 C 71.60 44.84 70.52 44.86 69.43 44.88 C 69.18 49.13 70.10 53.58 68.89 57.69 C 66.60 58.20 64.23 58.07 61.90 58.12 C 61.91 57.31 61.91 55.70 61.91 54.90 C 63.36 54.89 64.81 54.88 66.26 54.87 C 66.28 52.53 66.29 50.19 66.30 47.86 C 62.91 50.70 59.55 53.59 56.19 56.47 C 56.19 55.10 56.20 53.73 56.20 52.36 C 59.13 49.86 62.06 47.37 64.99 44.87 C 61.62 44.86 58.26 44.85 54.90 44.81 C 54.91 44.05 54.91 42.52 54.92 41.76 C 58.70 41.74 62.47 41.74 66.25 41.74 Z" />
<path fill="#ffffff" opacity="1.00" d=" M 29.57 52.43 C 30.26 50.18 33.54 49.64 33.87 52.42 C 37.94 52.47 42.00 52.44 46.07 52.45 C 46.07 53.22 46.08 54.75 46.09 55.51 C 42.25 55.52 38.41 55.50 34.57 55.66 C 37.76 59.02 42.37 59.93 46.80 60.19 C 46.77 60.95 46.73 62.48 46.70 63.24 C 41.11 63.30 35.46 61.40 31.80 57.01 C 28.25 61.44 22.51 62.77 17.12 63.23 C 17.10 62.47 17.04 60.97 17.01 60.21 C 21.20 59.70 25.63 58.86 28.66 55.65 C 25.01 55.49 21.36 55.52 17.71 55.52 C 17.71 54.76 17.71 53.22 17.71 52.46 C 21.66 52.44 25.61 52.46 29.57 52.43 Z" />
</g>
<g id="#22c3a2ff">
<path fill="#22c3a2" opacity="1.00" d=" M 43.40 7.44 C 54.79 6.28 66.58 10.31 74.84 18.24 C 86.49 29.00 90.50 46.95 84.66 61.67 C 80.85 71.64 72.88 79.91 63.06 84.08 C 52.99 88.42 41.12 88.36 31.11 83.89 C 19.91 79.01 11.24 68.72 8.42 56.82 C 5.73 46.07 7.80 34.25 14.00 25.07 C 20.53 15.19 31.61 8.53 43.40 7.44 M 23.32 33.38 C 23.92 34.47 24.53 35.56 25.12 36.65 C 22.85 36.66 20.58 36.66 18.32 36.68 C 18.31 37.70 18.30 38.72 18.29 39.74 C 22.38 39.76 26.46 39.73 30.54 39.78 L 30.08 41.42 C 26.84 42.02 23.51 41.64 20.23 41.69 C 20.23 42.48 20.22 44.05 20.21 44.84 C 23.57 44.84 26.92 44.85 30.27 44.85 C 30.26 45.34 30.25 46.31 30.24 46.80 C 26.07 46.80 21.89 46.80 17.72 46.80 C 17.71 47.57 17.71 49.09 17.71 49.85 C 27.16 49.85 36.62 49.87 46.08 49.84 C 46.07 49.08 46.07 47.56 46.07 46.80 C 41.63 46.77 37.17 46.99 32.75 46.49 L 33.90 45.07 C 37.09 44.60 40.33 44.89 43.55 44.84 C 43.54 43.80 43.53 42.75 43.52 41.71 C 40.11 41.72 36.71 41.71 33.31 41.63 L 33.50 39.75 C 37.48 39.75 41.46 39.75 45.45 39.74 C 45.44 38.97 45.43 37.44 45.43 36.68 C 43.16 36.67 40.89 36.67 38.61 36.66 C 39.22 35.58 39.82 34.49 40.42 33.41 C 39.57 33.47 37.85 33.59 37.00 33.65 C 36.38 34.65 35.77 35.64 35.17 36.64 C 32.98 36.66 30.81 36.66 28.63 36.67 C 28.03 35.69 27.44 34.71 26.85 33.74 C 25.96 33.65 24.20 33.47 23.32 33.38 M 50.54 34.12 C 50.54 43.79 50.54 53.45 50.54 63.12 C 58.68 63.00 66.84 63.38 74.97 62.96 C 77.29 62.63 77.04 59.78 77.12 58.06 C 77.05 50.07 77.21 42.08 76.92 34.10 C 68.13 34.13 59.33 34.10 50.54 34.12 M 29.57 52.43 C 25.61 52.46 21.66 52.44 17.71 52.46 C 17.71 53.22 17.71 54.76 17.71 55.52 C 21.36 55.52 25.01 55.49 28.66 55.65 C 25.63 58.86 21.20 59.70 17.01 60.21 C 17.04 60.97 17.10 62.47 17.12 63.23 C 22.51 62.77 28.25 61.44 31.80 57.01 C 35.46 61.40 41.11 63.30 46.70 63.24 C 46.73 62.48 46.77 60.95 46.80 60.19 C 42.37 59.93 37.76 59.02 34.57 55.66 C 38.41 55.50 42.25 55.52 46.09 55.51 C 46.08 54.75 46.07 53.22 46.07 52.45 C 42.00 52.44 37.94 52.47 33.87 52.42 C 33.54 49.64 30.26 50.18 29.57 52.43 Z" />
<path fill="#22c3a2" opacity="1.00" d=" M 53.67 37.22 C 60.42 37.21 67.17 37.20 73.92 37.22 C 73.91 44.78 73.99 52.33 73.84 59.89 C 67.12 60.03 60.39 59.93 53.67 59.95 C 53.66 52.37 53.65 44.80 53.67 37.22 M 66.25 41.74 C 62.47 41.74 58.70 41.74 54.92 41.76 C 54.91 42.52 54.91 44.05 54.90 44.81 C 58.26 44.85 61.62 44.86 64.99 44.87 C 62.06 47.37 59.13 49.86 56.20 52.36 C 56.20 53.73 56.19 55.10 56.19 56.47 C 59.55 53.59 62.91 50.70 66.30 47.86 C 66.29 50.19 66.28 52.53 66.26 54.87 C 64.81 54.88 63.36 54.89 61.91 54.90 C 61.91 55.70 61.91 57.31 61.90 58.12 C 64.23 58.07 66.60 58.20 68.89 57.69 C 70.10 53.58 69.18 49.13 69.43 44.88 C 70.52 44.86 71.60 44.84 72.69 44.82 C 72.68 44.05 72.66 42.53 72.65 41.77 C 71.60 41.75 70.54 41.74 69.49 41.73 C 69.46 40.94 69.42 39.36 69.39 38.57 C 68.63 38.57 67.10 38.56 66.33 38.56 C 66.30 39.62 66.28 40.68 66.25 41.74 Z" />
</g>
</svg>
