<?xml version="1.0" encoding="UTF-8" ?>
<!DOCTYPE svg PUBLIC "-//W3C//DTD SVG 1.1//EN" "http://www.w3.org/Graphics/SVG/1.1/DTD/svg11.dtd">
<svg width="130pt" height="130pt" viewBox="0 0 130 130" version="1.1" xmlns="http://www.w3.org/2000/svg">
<g id="#ee312af1">
</g>
<g id="#ffffffff">
<path fill="#ffffff" opacity="1.00" d=" M 45.82 34.97 C 52.75 29.27 59.82 21.98 59.61 12.32 C 72.07 15.86 83.38 25.78 86.01 38.79 C 89.11 36.75 88.50 32.18 89.45 28.97 C 100.35 39.04 107.45 53.17 108.26 68.05 C 109.34 81.83 103.48 95.99 92.76 104.75 C 84.82 111.45 74.38 115.11 64.01 114.78 C 50.96 114.62 38.18 108.06 30.40 97.59 C 23.19 88.13 20.16 75.63 22.29 63.92 C 23.97 50.68 30.72 38.37 40.44 29.30 C 41.61 31.03 42.80 32.76 43.86 34.56 C 44.35 34.66 45.33 34.86 45.82 34.97 M 53.50 56.65 C 51.91 57.52 51.39 59.34 51.53 61.05 C 51.58 70.04 51.54 79.04 51.57 88.04 C 51.26 91.11 55.15 93.52 57.66 91.55 C 65.28 87.27 72.79 82.76 80.42 78.50 C 81.85 77.63 83.73 76.76 83.81 74.83 C 84.31 72.69 82.61 71.00 80.87 70.12 C 73.45 65.85 66.02 61.60 58.64 57.27 C 57.13 56.33 55.16 55.63 53.50 56.65 Z" />
</g>
</svg>
