<?xml version="1.0" encoding="UTF-8" ?>
<!DOCTYPE svg PUBLIC "-//W3C//DTD SVG 1.1//EN" "http://www.w3.org/Graphics/SVG/1.1/DTD/svg11.dtd">
<svg width="256pt" height="256pt" viewBox="0 0 256 256" version="1.1" xmlns="http://www.w3.org/2000/svg">
<g id="#1ec426ff">
</g>
<g id="#ffffffff">
<path fill="#ffffff" opacity="1.00" d=" M 69.01 47.97 C 90.40 40.07 114.92 40.76 135.71 50.19 C 154.26 58.44 169.96 74.83 173.94 95.17 C 155.74 94.36 136.99 99.44 122.59 110.84 C 112.18 119.02 104.21 130.75 101.97 143.94 C 100.52 151.80 101.29 159.96 103.73 167.54 C 94.60 167.88 85.39 167.00 76.58 164.56 C 74.33 163.94 71.78 163.43 69.64 164.67 C 63.81 167.82 58.18 171.33 52.38 174.53 C 50.78 175.89 48.07 174.11 48.67 172.14 C 49.73 166.96 51.56 161.98 52.58 156.79 C 52.96 154.24 50.78 152.45 48.93 151.13 C 36.14 141.55 26.62 127.03 24.87 110.96 C 23.46 98.81 26.55 86.30 33.14 76.01 C 41.43 62.90 54.59 53.34 69.01 47.97 M 71.42 75.53 C 64.42 77.53 62.19 87.56 67.69 92.34 C 72.79 97.63 82.79 94.79 84.35 87.61 C 86.67 80.28 78.58 72.72 71.42 75.53 M 122.22 75.32 C 115.15 76.83 112.20 86.54 117.22 91.73 C 121.90 97.46 132.21 95.40 134.27 88.27 C 137.10 81.12 129.55 73.05 122.22 75.32 Z" />
<path fill="#ffffff" opacity="1.00" d=" M 160.48 100.70 C 176.86 98.61 194.08 102.00 208.05 110.94 C 217.32 116.87 225.13 125.40 229.24 135.69 C 233.57 146.30 233.51 158.61 229.05 169.17 C 225.48 177.77 219.34 185.18 211.93 190.76 C 210.55 191.81 208.91 193.09 209.05 195.03 C 209.86 199.74 211.75 204.21 212.44 208.95 C 212.06 209.32 211.31 210.07 210.93 210.44 C 204.86 208.52 199.81 203.96 193.90 201.48 C 192.46 200.86 190.92 201.35 189.49 201.69 C 170.62 206.85 149.54 204.46 132.77 194.20 C 121.59 187.40 112.35 176.76 108.86 163.99 C 105.19 151.29 107.91 137.15 115.47 126.39 C 125.65 111.63 142.93 102.84 160.48 100.70 M 146.40 127.56 C 140.13 129.23 138.53 138.49 143.85 142.19 C 148.49 146.09 156.47 143.00 157.22 136.98 C 158.56 131.05 152.08 125.42 146.40 127.56 M 188.35 127.50 C 184.16 128.64 181.41 133.38 182.59 137.57 C 183.53 141.68 187.90 144.58 192.05 143.83 C 196.22 143.23 199.55 139.12 199.07 134.89 C 198.90 129.77 193.21 125.84 188.35 127.50 Z" />
</g>
</svg>
