<?xml version="1.0" encoding="UTF-8" ?>
<!DOCTYPE svg PUBLIC "-//W3C//DTD SVG 1.1//EN" "http://www.w3.org/Graphics/SVG/1.1/DTD/svg11.dtd">
<svg width="72pt" height="72pt" viewBox="0 0 72 72" version="1.1" xmlns="http://www.w3.org/2000/svg">
<g id="#1e8be9ff">
</g>
<g id="#ffffffff">
<path fill="#ffffff" opacity="1.00" d=" M 17.69 15.74 C 18.38 13.48 20.79 12.81 22.75 12.09 C 22.10 14.34 21.40 16.59 20.67 18.82 C 25.95 19.07 31.29 18.36 36.52 19.38 C 36.62 20.48 36.73 21.58 36.83 22.68 C 33.97 22.70 31.12 22.70 28.26 22.71 C 28.23 26.86 28.19 31.00 28.14 35.14 C 31.17 35.14 34.21 35.14 37.24 35.18 C 37.41 36.38 37.58 37.57 37.75 38.77 C 34.42 38.78 31.08 38.77 27.74 38.78 C 27.33 40.97 26.90 43.16 26.44 45.34 C 27.21 44.74 27.99 44.13 28.76 43.53 C 30.79 45.81 33.00 47.96 34.73 50.49 C 36.07 52.42 35.14 54.91 35.19 57.06 C 32.09 53.53 29.15 49.87 26.11 46.28 C 24.89 50.30 23.36 54.40 20.42 57.49 C 18.19 59.76 14.82 59.66 11.90 59.49 C 18.24 54.37 22.94 47.06 23.60 38.80 C 19.95 38.77 16.29 38.78 12.64 38.74 C 13.05 37.62 13.46 36.51 13.86 35.39 C 17.13 35.07 20.41 35.08 23.69 35.23 C 24.38 31.10 24.13 26.90 24.22 22.73 C 22.71 22.71 21.20 22.71 19.69 22.70 C 18.53 25.90 16.16 28.54 12.60 28.94 C 14.48 24.61 16.05 20.16 17.69 15.74 Z" />
<path fill="#ffffff" opacity="1.00" d=" M 39.77 18.51 C 46.58 18.48 53.39 18.47 60.20 18.51 C 60.20 30.49 60.20 42.47 60.19 54.44 C 57.43 54.51 54.62 54.18 51.89 54.68 C 49.46 55.81 47.28 57.40 44.98 58.77 C 44.62 57.36 44.27 55.96 43.91 54.56 C 42.53 54.50 41.15 54.44 39.76 54.39 C 39.76 42.43 39.76 30.47 39.77 18.51 M 43.57 22.30 C 43.57 31.73 43.58 41.16 43.56 50.59 C 44.19 50.63 45.45 50.70 46.08 50.74 C 46.25 51.50 46.61 53.01 46.78 53.77 C 49.50 51.45 52.77 50.11 56.38 50.59 C 56.38 41.16 56.38 31.73 56.38 22.30 C 52.11 22.28 47.84 22.28 43.57 22.30 Z" />
</g>
</svg>
