<?xml version="1.0" encoding="UTF-8" ?>
<!DOCTYPE svg PUBLIC "-//W3C//DTD SVG 1.1//EN" "http://www.w3.org/Graphics/SVG/1.1/DTD/svg11.dtd">
<svg width="256pt" height="256pt" viewBox="0 0 256 256" version="1.1" xmlns="http://www.w3.org/2000/svg">
<g id="#1e2939ff">
</g>
<g id="#ffffffff">
<path fill="#ffffff" opacity="1.00" d=" M 46.70 61.70 C 59.16 49.20 77.51 43.94 94.85 45.23 C 108.08 46.39 121.80 50.92 130.90 61.04 C 125.04 67.04 119.09 72.94 113.12 78.83 C 102.54 65.97 81.01 65.90 69.39 77.38 C 57.01 89.47 56.23 110.90 66.42 124.57 C 73.90 134.59 87.90 138.17 99.66 134.72 C 105.32 133.15 109.97 129.32 113.80 124.99 C 119.82 130.72 125.90 136.39 131.94 142.10 C 122.36 153.38 107.67 159.71 92.99 160.11 C 76.86 161.02 60.04 156.06 48.19 144.81 C 25.47 123.70 24.66 83.57 46.70 61.70 Z" />
<path fill="#ffffff" opacity="1.00" d=" M 167.53 49.51 C 177.94 45.18 189.72 44.08 200.76 46.39 C 209.75 48.43 218.93 52.03 225.34 58.86 C 219.83 64.59 214.41 70.41 208.91 76.15 C 201.83 68.61 190.43 64.55 180.49 68.47 C 175.73 70.32 172.76 75.71 174.31 80.70 C 175.66 85.15 180.45 87.01 184.40 88.56 C 194.35 92.34 205.27 94.48 213.84 101.17 C 219.00 105.26 223.17 111.00 224.24 117.61 C 226.01 128.22 223.43 139.91 215.78 147.77 C 206.92 157.08 193.46 160.33 180.99 160.02 C 166.80 159.47 152.05 154.74 142.04 144.28 C 147.72 138.47 153.41 132.66 159.12 126.88 C 164.73 132.57 171.86 137.18 179.94 138.10 C 184.34 138.50 189.06 138.23 192.96 135.98 C 197.89 133.22 199.54 126.13 196.64 121.37 C 193.42 116.84 187.89 114.95 182.85 113.24 C 172.75 109.83 161.51 107.16 154.18 98.82 C 147.26 91.23 146.13 80.01 148.51 70.37 C 150.97 60.84 158.62 53.29 167.53 49.51 Z" />
</g>
<g id="#31c3a3ff">
</g>
</svg>
