<?xml version="1.0" encoding="UTF-8" ?>
<!DOCTYPE svg PUBLIC "-//W3C//DTD SVG 1.1//EN" "http://www.w3.org/Graphics/SVG/1.1/DTD/svg11.dtd">
<svg width="130pt" height="130pt" viewBox="0 0 130 130" version="1.1" xmlns="http://www.w3.org/2000/svg">
<g id="#e62619ff">
</g>
<g id="#ffffffff">
<path fill="#ffffff" opacity="1.00" d=" M 74.89 16.92 C 81.17 14.46 88.37 16.61 93.53 20.58 C 96.08 22.47 97.33 26.48 95.25 29.15 C 93.90 31.04 91.28 31.12 89.22 30.61 C 86.75 29.57 84.76 27.53 82.08 26.96 C 79.74 26.16 76.62 27.59 76.23 30.16 C 75.65 33.39 76.93 36.55 77.74 39.63 C 93.63 40.51 107.43 54.17 109.09 69.89 C 110.90 83.43 104.23 97.17 93.45 105.26 C 84.81 111.77 73.73 114.66 63.00 114.07 C 51.00 113.32 39.51 107.40 31.80 98.21 C 22.68 87.56 18.60 72.63 21.59 58.88 C 24.75 43.19 36.69 29.44 51.97 24.56 C 55.93 23.41 59.98 27.55 58.50 31.46 C 57.07 35.19 52.52 35.54 49.54 37.51 C 36.27 44.80 28.82 61.30 32.60 76.04 C 35.39 88.52 45.41 99.24 57.93 102.24 C 70.82 105.43 86.06 100.83 93.52 89.45 C 99.04 81.58 100.08 70.45 95.06 62.08 C 91.89 56.95 86.93 52.67 81.02 51.14 C 82.44 57.08 85.22 62.83 84.79 69.08 C 84.59 78.36 76.22 86.40 67.01 86.63 C 61.06 87.03 55.13 84.17 51.53 79.45 C 46.48 72.86 45.97 63.51 48.98 55.95 C 51.98 48.41 59.05 43.23 66.67 41.00 C 65.73 37.05 63.98 33.10 64.65 28.96 C 65.50 23.45 69.82 18.94 74.89 16.92 M 61.02 56.99 C 58.25 60.23 57.73 64.79 58.48 68.86 C 59.21 72.40 62.18 75.88 66.05 75.71 C 70.59 75.92 74.49 71.49 73.81 67.01 C 73.15 61.63 71.09 56.52 69.41 51.40 C 66.34 52.79 63.13 54.24 61.02 56.99 Z" />
</g>
</svg>
