<?xml version="1.0" encoding="UTF-8" ?>
<!DOCTYPE svg PUBLIC "-//W3C//DTD SVG 1.1//EN" "http://www.w3.org/Graphics/SVG/1.1/DTD/svg11.dtd">
<svg width="130pt" height="130pt" viewBox="0 0 130 130" version="1.1" xmlns="http://www.w3.org/2000/svg">
<g id="#fc4223ff">
<path fill="#fc4223" opacity="1.00" d=" M 25.55 0.00 L 104.43 0.00 C 111.34 0.89 118.06 4.00 122.72 9.27 C 126.68 13.49 128.82 19.04 130.00 24.63 L 130.00 104.44 C 129.14 110.87 126.44 117.17 121.75 121.75 C 117.18 126.44 110.89 129.13 104.46 130.00 L 25.58 130.00 C 19.13 129.15 12.83 126.44 8.25 121.75 C 3.56 117.18 0.87 110.89 0.00 104.46 L 0.00 24.69 C 1.16 19.08 3.30 13.51 7.28 9.27 C 11.93 4.00 18.64 0.90 25.55 0.00 M 40.36 20.19 C 39.88 27.07 40.47 33.99 40.10 40.88 C 35.99 41.46 31.43 42.22 28.71 45.71 C 24.06 51.04 26.07 58.58 25.66 65.00 C 26.07 71.43 24.06 78.95 28.69 84.30 C 31.40 87.79 35.96 88.53 40.04 89.19 C 40.52 96.06 39.87 102.95 40.35 109.82 C 40.58 113.07 44.75 115.29 47.60 113.74 C 50.39 112.27 52.74 110.11 55.26 108.25 C 58.93 105.20 63.16 102.81 66.43 99.32 C 68.35 96.12 64.98 91.84 61.42 93.34 C 56.84 95.86 53.15 99.71 48.69 102.45 C 48.50 97.98 48.50 93.51 48.69 89.04 C 52.63 88.59 56.98 87.91 59.68 84.67 C 64.68 79.39 62.79 71.55 63.15 65.00 C 62.79 58.45 64.68 50.60 59.66 45.34 C 56.96 42.12 52.63 41.42 48.69 40.99 C 48.51 36.55 48.50 32.11 48.69 27.68 C 53.11 30.45 56.78 34.27 61.32 36.83 C 64.81 38.76 68.59 33.87 66.29 30.79 C 63.00 27.34 58.82 24.87 55.16 21.83 C 52.18 19.71 49.55 16.83 45.95 15.81 C 43.44 15.84 40.57 17.45 40.36 20.19 M 75.49 41.22 C 73.52 42.39 73.83 44.98 73.73 46.93 C 73.75 59.31 73.69 71.69 73.62 84.07 C 73.66 85.79 73.51 87.82 74.99 89.05 C 76.93 90.61 79.66 89.87 81.40 88.36 C 88.99 82.63 96.51 76.80 104.13 71.11 C 106.06 69.59 108.52 67.80 108.30 65.03 C 108.17 62.33 105.76 60.71 103.86 59.18 C 96.43 53.62 89.13 47.88 81.76 42.25 C 80.06 40.82 77.49 39.56 75.49 41.22 Z" />
<path fill="#fc4223" opacity="1.00" d=" M 34.32 53.20 C 34.31 50.22 37.76 49.56 40.10 49.51 C 40.27 59.84 40.27 70.18 40.10 80.50 C 37.74 80.47 34.30 79.79 34.32 76.80 C 34.10 68.94 34.10 61.06 34.32 53.20 Z" />
<path fill="#fc4223" opacity="1.00" d=" M 48.72 49.45 C 51.08 49.54 54.34 50.35 54.47 53.25 C 54.81 59.17 54.45 65.10 54.61 71.03 C 54.53 73.40 54.86 75.87 54.13 78.16 C 53.06 80.14 50.69 80.34 48.71 80.57 C 48.50 70.20 48.49 59.82 48.72 49.45 Z" />
<path fill="#fc4223" opacity="1.00" d=" M 82.28 53.46 C 87.56 57.19 92.66 61.17 97.69 65.24 C 92.69 69.34 87.50 73.22 82.26 77.01 C 82.17 69.16 82.14 61.31 82.28 53.46 Z" />
</g>
<g id="#ffffffff">
<path fill="#ffffff" opacity="1.00" d=" M 40.36 20.19 C 40.57 17.45 43.44 15.84 45.95 15.81 C 49.55 16.83 52.18 19.71 55.16 21.83 C 58.82 24.87 63.00 27.34 66.29 30.79 C 68.59 33.87 64.81 38.76 61.32 36.83 C 56.78 34.27 53.11 30.45 48.69 27.68 C 48.50 32.11 48.51 36.55 48.69 40.99 C 52.63 41.42 56.96 42.12 59.66 45.34 C 64.68 50.60 62.79 58.45 63.15 65.00 C 62.79 71.55 64.68 79.39 59.68 84.67 C 56.98 87.91 52.63 88.59 48.69 89.04 C 48.50 93.51 48.50 97.98 48.69 102.45 C 53.15 99.71 56.84 95.86 61.42 93.34 C 64.98 91.84 68.35 96.12 66.43 99.32 C 63.16 102.81 58.93 105.20 55.26 108.25 C 52.74 110.11 50.39 112.27 47.60 113.74 C 44.75 115.29 40.58 113.07 40.35 109.82 C 39.87 102.95 40.52 96.06 40.04 89.19 C 35.96 88.53 31.40 87.79 28.69 84.30 C 24.06 78.95 26.07 71.43 25.66 65.00 C 26.07 58.58 24.06 51.04 28.71 45.71 C 31.43 42.22 35.99 41.46 40.10 40.88 C 40.47 33.99 39.88 27.07 40.36 20.19 M 34.32 53.20 C 34.10 61.06 34.10 68.94 34.32 76.80 C 34.30 79.79 37.74 80.47 40.10 80.50 C 40.27 70.18 40.27 59.84 40.10 49.51 C 37.76 49.56 34.31 50.22 34.32 53.20 M 48.72 49.45 C 48.49 59.82 48.50 70.20 48.71 80.57 C 50.69 80.34 53.06 80.14 54.13 78.16 C 54.86 75.87 54.53 73.40 54.61 71.03 C 54.45 65.10 54.81 59.17 54.47 53.25 C 54.34 50.35 51.08 49.54 48.72 49.45 Z" />
<path fill="#ffffff" opacity="1.00" d=" M 75.49 41.22 C 77.49 39.56 80.06 40.82 81.76 42.25 C 89.13 47.88 96.43 53.62 103.86 59.18 C 105.76 60.71 108.17 62.33 108.30 65.03 C 108.52 67.80 106.06 69.59 104.13 71.11 C 96.51 76.80 88.99 82.63 81.40 88.36 C 79.66 89.87 76.93 90.61 74.99 89.05 C 73.51 87.82 73.66 85.79 73.62 84.07 C 73.69 71.69 73.75 59.31 73.73 46.93 C 73.83 44.98 73.52 42.39 75.49 41.22 M 82.28 53.46 C 82.14 61.31 82.17 69.16 82.26 77.01 C 87.50 73.22 92.69 69.34 97.69 65.24 C 92.66 61.17 87.56 57.19 82.28 53.46 Z" />
</g>
</svg>
