<?xml version="1.0" encoding="UTF-8" ?>
<!DOCTYPE svg PUBLIC "-//W3C//DTD SVG 1.1//EN" "http://www.w3.org/Graphics/SVG/1.1/DTD/svg11.dtd">
<svg width="130pt" height="130pt" viewBox="0 0 130 130" version="1.1" xmlns="http://www.w3.org/2000/svg">
<g id="#000000ff">
<path fill="#000000" opacity="1.00" d=" M 73.24 31.76 C 70.19 29.62 70.36 22.56 74.81 22.44 C 80.26 23.23 77.57 31.59 73.24 31.76 Z" />
<path fill="#000000" opacity="1.00" d=" M 39.37 30.34 C 43.51 29.32 45.79 34.36 44.90 37.77 C 43.16 39.99 40.25 37.62 38.69 36.28 C 36.38 34.82 37.40 31.59 39.37 30.34 Z" />
<path fill="#000000" opacity="1.00" d=" M 100.44 44.45 C 103.88 43.09 106.49 47.56 104.30 50.25 C 102.14 51.36 99.53 51.72 97.19 50.99 C 94.63 48.64 98.39 45.61 100.44 44.45 Z" />
<path fill="#000000" opacity="1.00" d=" M 23.42 62.35 C 26.04 60.14 31.64 62.20 31.66 65.69 C 29.54 67.78 26.20 68.85 23.35 67.68 C 22.39 66.16 21.43 63.46 23.42 62.35 Z" />
<path fill="#000000" opacity="1.00" d=" M 96.16 79.24 C 98.82 78.37 101.81 78.39 104.31 79.74 C 105.46 81.73 105.20 85.02 102.59 85.63 C 99.16 86.23 96.07 82.49 96.16 79.24 Z" />
<path fill="#000000" opacity="1.00" d=" M 37.33 97.63 C 36.49 93.83 40.43 91.37 43.74 91.21 C 46.21 92.72 44.62 96.43 43.25 98.29 C 41.84 100.75 38.69 99.42 37.33 97.63 Z" />
<path fill="#000000" opacity="1.00" d=" M 73.24 98.29 C 76.02 98.18 77.64 101.57 77.80 103.99 C 78.52 107.88 71.55 108.48 71.23 104.78 C 71.05 102.57 70.82 99.38 73.24 98.29 Z" />
</g>
<g id="#f62445ff">
<path fill="#f62445" opacity="1.00" d=" M 58.42 11.57 C 73.63 9.73 89.65 14.65 100.92 25.10 C 112.44 35.27 119.18 50.68 118.74 66.04 C 118.68 89.08 101.90 110.76 79.65 116.70 C 67.40 120.39 53.85 119.14 42.30 113.70 C 28.82 107.48 18.12 95.37 13.77 81.16 C 9.52 68.52 10.64 54.31 16.30 42.29 C 23.85 25.72 40.37 13.81 58.42 11.57 M 73.24 31.76 C 77.57 31.59 80.26 23.23 74.81 22.44 C 70.36 22.56 70.19 29.62 73.24 31.76 M 39.37 30.34 C 37.40 31.59 36.38 34.82 38.69 36.28 C 40.25 37.62 43.16 39.99 44.90 37.77 C 45.79 34.36 43.51 29.32 39.37 30.34 M 51.44 42.47 C 49.36 43.44 48.09 45.65 48.33 47.95 C 48.33 58.65 48.44 69.35 48.30 80.05 C 48.33 82.37 48.06 85.20 50.23 86.71 C 52.30 88.69 55.47 87.97 57.69 86.64 C 66.79 81.42 75.84 76.10 84.97 70.93 C 87.14 69.61 89.95 67.93 89.77 65.00 C 89.94 62.06 87.14 60.39 84.97 59.07 C 76.06 54.00 67.19 48.85 58.33 43.70 C 56.28 42.54 53.78 41.41 51.44 42.47 M 100.44 44.45 C 98.39 45.61 94.63 48.64 97.19 50.99 C 99.53 51.72 102.14 51.36 104.30 50.25 C 106.49 47.56 103.88 43.09 100.44 44.45 M 23.42 62.35 C 21.43 63.46 22.39 66.16 23.35 67.68 C 26.20 68.85 29.54 67.78 31.66 65.69 C 31.64 62.20 26.04 60.14 23.42 62.35 M 96.16 79.24 C 96.07 82.49 99.16 86.23 102.59 85.63 C 105.20 85.02 105.46 81.73 104.31 79.74 C 101.81 78.39 98.82 78.37 96.16 79.24 M 37.33 97.63 C 38.69 99.42 41.84 100.75 43.25 98.29 C 44.62 96.43 46.21 92.72 43.74 91.21 C 40.43 91.37 36.49 93.83 37.33 97.63 M 73.24 98.29 C 70.82 99.38 71.05 102.57 71.23 104.78 C 71.55 108.48 78.52 107.88 77.80 103.99 C 77.64 101.57 76.02 98.18 73.24 98.29 Z" />
</g>
<g id="#ffffffff">
<path fill="#ffffff" opacity="1.00" d=" M 51.44 42.47 C 53.78 41.41 56.28 42.54 58.33 43.70 C 67.19 48.85 76.06 54.00 84.97 59.07 C 87.14 60.39 89.94 62.06 89.77 65.00 C 89.95 67.93 87.14 69.61 84.97 70.93 C 75.84 76.10 66.79 81.42 57.69 86.64 C 55.47 87.97 52.30 88.69 50.23 86.71 C 48.06 85.20 48.33 82.37 48.30 80.05 C 48.44 69.35 48.33 58.65 48.33 47.95 C 48.09 45.65 49.36 43.44 51.44 42.47 Z" />
</g>
</svg>
