<?xml version="1.0" encoding="UTF-8" ?>
<!DOCTYPE svg PUBLIC "-//W3C//DTD SVG 1.1//EN" "http://www.w3.org/Graphics/SVG/1.1/DTD/svg11.dtd">
<svg width="130pt" height="130pt" viewBox="0 0 130 130" version="1.1" xmlns="http://www.w3.org/2000/svg">
<g id="#24d6c8ff">
</g>
<g id="#272d2cff">
<path fill="#272d2c" opacity="1.00" d=" M 23.79 18.74 C 27.68 15.48 29.95 21.63 33.35 22.59 C 40.13 23.45 47.04 22.15 53.81 23.25 C 58.16 24.03 61.72 26.86 64.81 29.86 C 67.75 26.92 71.15 24.17 75.33 23.33 C 82.34 22.02 89.55 23.60 96.56 22.49 C 98.97 21.19 100.63 18.90 102.98 17.51 C 104.19 18.11 106.34 18.39 106.41 20.08 C 106.96 25.78 104.17 31.35 100.10 35.22 C 102.33 38.53 104.43 42.06 105.03 46.07 C 105.90 50.06 104.45 53.99 104.09 57.94 C 104.68 60.08 106.23 61.78 107.27 63.71 C 111.90 71.25 112.87 80.59 111.16 89.15 C 110.59 91.53 109.91 94.36 107.50 95.55 C 105.36 96.32 103.17 95.26 101.11 94.70 C 99.38 97.35 97.22 99.74 95.72 102.54 C 95.29 105.81 95.60 110.56 91.54 111.56 C 87.47 111.90 83.37 111.51 79.29 111.69 C 77.31 111.64 74.99 112.12 73.37 110.66 C 71.62 109.12 71.19 106.70 70.35 104.63 C 66.81 104.43 63.21 104.01 59.70 104.73 C 57.82 107.05 57.36 111.41 53.76 111.65 C 49.15 111.75 44.54 111.58 39.94 111.71 C 37.72 111.93 35.32 110.62 34.66 108.42 C 34.15 106.43 34.11 104.37 33.65 102.37 C 32.24 99.59 30.07 97.28 28.28 94.74 C 25.47 95.69 21.37 96.53 19.89 93.07 C 16.51 84.96 17.06 75.46 20.40 67.42 C 21.70 64.05 24.22 61.32 25.58 58.00 C 25.09 54.39 23.87 50.81 24.39 47.12 C 24.73 42.73 26.98 38.84 29.38 35.27 C 25.27 31.08 21.60 24.62 23.79 18.74 M 27.72 25.69 C 29.43 27.62 31.05 29.63 32.66 31.65 C 37.56 29.11 43.07 26.93 48.69 27.96 C 53.87 28.62 58.09 31.88 62.34 34.61 C 59.88 31.80 57.16 28.79 53.32 28.01 C 44.88 26.20 35.84 29.45 27.72 25.69 M 76.53 27.92 C 72.41 28.64 69.56 31.92 67.01 34.96 C 71.14 32.08 75.31 28.77 80.46 28.07 C 86.24 26.93 91.92 29.14 97.02 31.64 C 98.42 29.64 99.88 27.68 101.43 25.79 C 93.49 29.21 84.78 26.47 76.53 27.92 M 41.31 33.14 C 33.54 35.07 27.86 43.01 28.68 50.99 C 29.36 59.60 37.37 66.78 46.01 66.43 C 55.80 66.39 64.14 56.65 62.37 46.95 C 61.11 37.37 50.63 30.34 41.31 33.14 M 78.43 33.50 C 71.68 35.83 66.56 42.73 67.14 49.99 C 66.92 58.88 75.23 66.64 84.00 66.44 C 93.09 66.57 101.46 58.18 100.77 49.00 C 101.00 38.09 88.60 29.47 78.43 33.50 M 28.05 62.55 C 22.07 70.90 20.33 82.04 23.91 91.73 C 30.56 86.25 35.29 77.96 35.50 69.27 C 33.86 66.39 30.48 64.78 28.05 62.55 M 93.68 69.01 C 94.69 77.81 98.68 86.19 105.48 91.97 C 109.67 82.28 107.50 70.76 101.34 62.40 C 98.82 64.65 96.27 66.85 93.68 69.01 M 40.00 70.37 C 39.42 74.62 38.37 78.81 36.42 82.65 C 34.86 85.53 33.14 88.32 31.37 91.07 C 32.90 93.42 34.45 95.77 36.01 98.11 C 39.54 95.49 43.63 93.69 48.08 93.63 C 49.75 94.37 51.46 95.04 53.03 95.98 C 58.40 100.17 65.66 98.58 71.97 98.41 C 75.34 96.94 78.32 94.64 81.87 93.51 C 86.09 93.85 90.01 95.54 93.36 98.10 C 95.00 95.86 96.89 93.71 97.82 91.05 C 96.69 88.32 94.88 85.95 93.31 83.46 C 91.38 79.30 90.16 74.87 89.45 70.35 C 83.20 71.53 76.72 70.47 71.35 67.02 C 69.54 68.69 67.98 70.81 65.66 71.79 C 62.19 72.61 60.26 69.01 58.12 66.99 C 52.77 70.54 46.26 71.48 40.00 70.37 M 39.66 108.04 C 40.84 106.64 41.96 105.20 43.13 103.80 C 44.14 105.18 45.14 106.58 46.14 107.97 C 47.21 106.67 48.23 105.32 49.27 104.00 C 50.58 105.33 51.66 106.88 53.16 108.00 C 55.85 103.02 50.25 97.26 45.13 98.33 C 40.90 98.65 36.37 104.24 39.66 108.04 M 76.57 108.07 C 77.83 106.68 79.02 105.24 80.25 103.83 C 81.23 105.19 82.19 106.57 83.14 107.95 C 84.27 106.63 85.38 105.30 86.52 103.99 C 87.73 105.46 88.95 106.93 90.25 108.33 C 92.65 103.49 88.13 97.77 83.00 98.28 C 78.38 98.15 73.52 103.81 76.57 108.07 Z" />
<path fill="#272d2c" opacity="1.00" d=" M 42.47 39.72 C 49.28 37.30 57.00 43.71 55.68 50.85 C 55.13 58.66 44.44 62.67 38.87 57.16 C 32.85 52.39 35.18 41.80 42.47 39.72 M 41.34 42.03 C 38.40 42.98 37.19 47.16 39.81 49.17 C 42.19 52.09 47.49 49.72 46.92 46.01 C 47.29 43.18 43.86 40.83 41.34 42.03 M 50.32 53.39 C 48.77 53.29 48.22 56.06 50.06 55.96 C 51.63 56.07 52.15 53.29 50.32 53.39 Z" />
<path fill="#272d2c" opacity="1.00" d=" M 81.46 39.55 C 89.17 37.21 96.91 46.11 93.36 53.37 C 90.86 60.70 79.76 61.93 75.62 55.44 C 71.23 49.97 74.71 40.99 81.46 39.55 M 85.36 42.23 C 81.49 43.06 80.94 49.09 84.50 50.72 C 87.78 53.10 92.80 48.89 91.20 45.21 C 90.41 42.79 87.76 41.54 85.36 42.23 M 78.11 53.58 C 76.80 54.61 78.65 56.63 79.90 55.73 C 81.21 54.71 79.35 52.67 78.11 53.58 Z" />
</g>
<g id="#a67660ff">
<path fill="#a67660" opacity="1.00" d=" M 27.72 25.69 C 35.84 29.45 44.88 26.20 53.32 28.01 C 57.16 28.79 59.88 31.80 62.34 34.61 C 58.09 31.88 53.87 28.62 48.69 27.96 C 43.07 26.93 37.56 29.11 32.66 31.65 C 31.05 29.63 29.43 27.62 27.72 25.69 Z" />
<path fill="#a67660" opacity="1.00" d=" M 76.53 27.92 C 84.78 26.47 93.49 29.21 101.43 25.79 C 99.88 27.68 98.42 29.64 97.02 31.64 C 91.92 29.14 86.24 26.93 80.46 28.07 C 75.31 28.77 71.14 32.08 67.01 34.96 C 69.56 31.92 72.41 28.64 76.53 27.92 Z" />
<path fill="#a67660" opacity="1.00" d=" M 28.05 62.55 C 30.48 64.78 33.86 66.39 35.50 69.27 C 35.29 77.96 30.56 86.25 23.91 91.73 C 20.33 82.04 22.07 70.90 28.05 62.55 Z" />
<path fill="#a67660" opacity="1.00" d=" M 93.68 69.01 C 96.27 66.85 98.82 64.65 101.34 62.40 C 107.50 70.76 109.67 82.28 105.48 91.97 C 98.68 86.19 94.69 77.81 93.68 69.01 Z" />
<path fill="#a67660" opacity="1.00" d=" M 31.37 91.07 C 33.14 88.32 34.86 85.53 36.42 82.65 C 38.95 87.50 42.93 91.63 48.08 93.63 C 43.63 93.69 39.54 95.49 36.01 98.11 C 34.45 95.77 32.90 93.42 31.37 91.07 Z" />
<path fill="#a67660" opacity="1.00" d=" M 93.31 83.46 C 94.88 85.95 96.69 88.32 97.82 91.05 C 96.89 93.71 95.00 95.86 93.36 98.10 C 90.01 95.54 86.09 93.85 81.87 93.51 C 86.67 91.48 90.12 87.42 93.31 83.46 Z" />
</g>
<g id="#ffffffff">
<path fill="#ffffff" opacity="1.00" d=" M 41.31 33.14 C 50.63 30.34 61.11 37.37 62.37 46.95 C 64.14 56.65 55.80 66.39 46.01 66.43 C 37.37 66.78 29.36 59.60 28.68 50.99 C 27.86 43.01 33.54 35.07 41.31 33.14 M 42.47 39.72 C 35.18 41.80 32.85 52.39 38.87 57.16 C 44.44 62.67 55.13 58.66 55.68 50.85 C 57.00 43.71 49.28 37.30 42.47 39.72 Z" />
<path fill="#ffffff" opacity="1.00" d=" M 78.43 33.50 C 88.60 29.47 101.00 38.09 100.77 49.00 C 101.46 58.18 93.09 66.57 84.00 66.44 C 75.23 66.64 66.92 58.88 67.14 49.99 C 66.56 42.73 71.68 35.83 78.43 33.50 M 81.46 39.55 C 74.71 40.99 71.23 49.97 75.62 55.44 C 79.76 61.93 90.86 60.70 93.36 53.37 C 96.91 46.11 89.17 37.21 81.46 39.55 Z" />
<path fill="#ffffff" opacity="1.00" d=" M 41.34 42.03 C 43.86 40.83 47.29 43.18 46.92 46.01 C 47.49 49.72 42.19 52.09 39.81 49.17 C 37.19 47.16 38.40 42.98 41.34 42.03 Z" />
<path fill="#ffffff" opacity="1.00" d=" M 85.36 42.23 C 87.76 41.54 90.41 42.79 91.20 45.21 C 92.80 48.89 87.78 53.10 84.50 50.72 C 80.94 49.09 81.49 43.06 85.36 42.23 Z" />
<path fill="#ffffff" opacity="1.00" d=" M 39.66 108.04 C 36.37 104.24 40.90 98.65 45.13 98.33 C 50.25 97.26 55.85 103.02 53.16 108.00 C 51.66 106.88 50.58 105.33 49.27 104.00 C 48.23 105.32 47.21 106.67 46.14 107.97 C 45.14 106.58 44.14 105.18 43.13 103.80 C 41.96 105.20 40.84 106.64 39.66 108.04 Z" />
<path fill="#ffffff" opacity="1.00" d=" M 76.57 108.07 C 73.52 103.81 78.38 98.15 83.00 98.28 C 88.13 97.77 92.65 103.49 90.25 108.33 C 88.95 106.93 87.73 105.46 86.52 103.99 C 85.38 105.30 84.27 106.63 83.14 107.95 C 82.19 106.57 81.23 105.19 80.25 103.83 C 79.02 105.24 77.83 106.68 76.57 108.07 Z" />
</g>
<g id="#f6d7c4ff">
<path fill="#f6d7c4" opacity="1.00" d=" M 50.32 53.39 C 52.15 53.29 51.63 56.07 50.06 55.96 C 48.22 56.06 48.77 53.29 50.32 53.39 Z" />
<path fill="#f6d7c4" opacity="1.00" d=" M 78.11 53.58 C 79.35 52.67 81.21 54.71 79.90 55.73 C 78.65 56.63 76.80 54.61 78.11 53.58 Z" />
<path fill="#f6d7c4" opacity="1.00" d=" M 40.00 70.37 C 46.26 71.48 52.77 70.54 58.12 66.99 C 60.26 69.01 62.19 72.61 65.66 71.79 C 67.98 70.81 69.54 68.69 71.35 67.02 C 76.72 70.47 83.20 71.53 89.45 70.35 C 90.16 74.87 91.38 79.30 93.31 83.46 C 90.12 87.42 86.67 91.48 81.87 93.51 C 78.32 94.64 75.34 96.94 71.97 98.41 C 65.66 98.58 58.40 100.17 53.03 95.98 C 51.46 95.04 49.75 94.37 48.08 93.63 C 42.93 91.63 38.95 87.50 36.42 82.65 C 38.37 78.81 39.42 74.62 40.00 70.37 Z" />
</g>
</svg>
