<?xml version="1.0" encoding="UTF-8" ?>
<!DOCTYPE svg PUBLIC "-//W3C//DTD SVG 1.1//EN" "http://www.w3.org/Graphics/SVG/1.1/DTD/svg11.dtd">
<svg width="256pt" height="256pt" viewBox="0 0 256 256" version="1.1" xmlns="http://www.w3.org/2000/svg">
<g id="#f2f2f2ff">
</g>
<g id="#ffffffff">
</g>
<g id="#37acfcff">
<path fill="#37acfc" opacity="1.00" d=" M 111.02 34.26 C 115.45 33.75 119.97 32.71 124.41 33.41 C 124.44 33.42 124.50 33.43 124.53 33.44 L 124.59 33.41 C 130.11 32.43 135.83 33.48 141.37 34.15 C 141.45 34.16 141.62 34.19 141.71 34.20 C 143.47 34.49 145.25 34.76 146.98 35.24 C 147.42 35.44 148.32 35.85 148.76 36.05 C 149.43 36.10 150.77 36.19 151.44 36.24 C 151.52 36.26 151.69 36.31 151.78 36.33 C 152.66 36.60 154.44 37.13 155.33 37.39 C 155.41 37.42 155.56 37.47 155.64 37.49 C 156.33 37.73 157.70 38.19 158.38 38.43 C 158.46 38.46 158.63 38.51 158.71 38.54 L 160.40 39.16 C 160.49 39.19 160.67 39.26 160.76 39.29 C 161.42 39.55 162.74 40.08 163.40 40.34 C 163.49 40.38 163.67 40.45 163.76 40.49 L 165.43 41.24 C 165.52 41.28 165.70 41.36 165.79 41.40 L 167.46 42.18 C 167.55 42.22 167.74 42.31 167.84 42.36 L 169.42 43.14 C 169.52 43.19 169.71 43.29 169.81 43.34 L 171.44 44.18 C 171.54 44.23 171.73 44.33 171.83 44.38 L 173.40 45.25 C 173.49 45.30 173.67 45.40 173.76 45.45 C 175.35 46.34 176.90 47.30 178.43 48.30 C 178.50 48.35 178.65 48.44 178.72 48.49 C 179.40 48.95 180.76 49.86 181.44 50.32 C 181.51 50.37 181.66 50.47 181.73 50.52 C 183.06 51.47 184.34 52.48 185.61 53.51 C 185.74 53.61 185.99 53.82 186.12 53.92 C 186.25 54.03 186.51 54.23 186.64 54.33 C 188.69 55.88 190.55 57.64 192.41 59.41 C 192.47 59.47 192.60 59.59 192.66 59.65 C 193.59 60.54 194.50 61.45 195.40 62.38 C 195.46 62.44 195.57 62.56 195.63 62.62 C 197.41 64.49 199.11 66.43 200.67 68.48 C 200.77 68.60 200.96 68.85 201.06 68.98 C 201.16 69.10 201.35 69.33 201.44 69.45 C 201.98 70.14 203.05 71.50 203.59 72.19 C 203.65 72.26 203.76 72.41 203.81 72.49 C 204.29 73.21 205.24 74.64 205.72 75.36 C 205.81 75.50 205.99 75.77 206.08 75.91 C 206.18 76.06 206.37 76.35 206.46 76.49 L 207.62 78.22 C 207.67 78.31 207.77 78.48 207.83 78.57 L 208.75 80.27 C 208.84 80.43 209.03 80.76 209.12 80.92 C 209.21 81.08 209.39 81.40 209.48 81.57 L 210.48 83.30 C 210.53 83.38 210.62 83.54 210.66 83.62 L 211.52 85.26 C 211.57 85.36 211.66 85.54 211.71 85.63 L 212.49 87.25 C 212.53 87.34 212.62 87.52 212.66 87.61 C 212.95 88.26 213.52 89.56 213.81 90.21 C 213.85 90.29 213.92 90.46 213.96 90.55 L 214.66 92.19 C 214.69 92.28 214.76 92.47 214.79 92.56 L 215.06 94.36 C 215.08 94.80 215.13 95.68 215.15 96.12 C 215.08 97.29 215.49 98.26 216.38 99.03 L 216.70 99.59 C 216.80 99.74 217.02 100.02 217.12 100.16 C 217.39 100.90 217.91 102.36 218.18 103.10 C 215.74 102.85 217.45 106.19 218.53 103.85 C 218.76 104.97 218.99 106.08 219.22 107.19 C 217.80 107.69 217.83 108.25 219.31 108.87 C 219.96 110.04 220.63 111.75 220.02 113.05 L 219.68 113.47 C 219.86 113.47 220.22 113.49 220.40 113.50 C 223.77 135.37 219.02 158.41 207.22 177.13 C 207.10 173.55 207.22 169.88 206.29 166.38 C 205.02 162.90 201.77 160.65 198.74 158.79 C 198.59 158.72 198.29 158.59 198.14 158.52 C 197.30 158.30 195.63 157.85 194.80 157.63 C 194.63 157.60 194.29 157.54 194.12 157.52 C 193.30 157.52 191.67 157.53 190.86 157.53 C 190.69 157.57 190.35 157.65 190.18 157.69 C 188.16 158.53 186.09 159.33 183.86 159.08 C 183.98 158.50 184.23 157.34 184.35 156.76 C 185.34 157.39 185.34 157.39 184.35 156.76 L 185.06 155.59 C 185.32 155.52 185.86 155.38 186.12 155.31 C 186.52 155.44 186.52 155.44 186.12 155.31 C 186.28 154.76 186.60 153.66 186.75 153.11 C 186.88 153.18 187.13 153.33 187.26 153.40 C 187.13 153.33 186.88 153.18 186.75 153.11 C 187.02 152.44 187.56 151.11 187.82 150.44 L 187.89 150.29 C 187.91 150.23 187.95 150.09 187.96 150.03 C 188.12 149.49 188.42 148.41 188.58 147.87 C 189.63 150.28 191.22 146.85 188.83 147.07 C 189.15 146.06 189.45 145.04 189.74 144.03 C 189.84 144.43 190.02 145.24 190.12 145.65 L 190.90 145.70 L 191.14 144.98 C 190.79 144.74 190.09 144.26 189.74 144.03 C 190.06 142.65 190.35 141.28 190.64 139.90 C 190.07 141.90 193.16 142.29 192.12 140.09 C 191.79 139.85 191.13 139.37 190.81 139.14 C 191.82 133.48 191.99 127.70 191.64 121.98 C 192.85 120.49 193.25 117.74 190.98 117.04 C 190.86 116.20 190.61 114.53 190.48 113.69 C 190.46 113.60 190.42 113.42 190.40 113.32 C 190.19 112.60 189.78 111.16 189.58 110.44 L 189.48 110.10 C 189.45 109.99 189.38 109.77 189.35 109.66 C 189.13 108.97 188.71 107.59 188.50 106.90 C 188.43 106.70 188.29 106.30 188.22 106.10 C 188.02 105.56 187.63 104.47 187.43 103.93 C 187.34 103.70 187.15 103.26 187.06 103.04 L 186.57 101.97 C 186.46 101.75 186.26 101.31 186.16 101.09 L 185.66 99.97 C 185.54 99.75 185.32 99.29 185.21 99.07 L 184.67 97.99 C 184.52 97.65 184.21 96.98 184.06 96.64 L 183.63 95.86 C 183.53 95.69 183.32 95.34 183.22 95.17 L 182.64 94.26 C 182.45 93.97 182.07 93.40 181.88 93.11 C 181.73 92.88 181.43 92.43 181.28 92.21 L 180.42 90.92 C 180.28 90.71 180.00 90.30 179.86 90.10 C 179.76 89.95 179.54 89.66 179.44 89.51 C 178.91 88.81 177.86 87.40 177.33 86.70 C 177.21 86.55 176.97 86.25 176.85 86.10 C 176.73 85.96 176.48 85.68 176.35 85.54 C 174.47 83.44 172.54 81.37 170.44 79.48 C 170.28 79.33 169.94 79.03 169.78 78.88 C 169.60 78.73 169.25 78.42 169.07 78.26 C 168.90 78.12 168.55 77.83 168.38 77.69 C 167.11 76.68 165.86 75.65 164.61 74.63 C 164.55 74.58 164.41 74.47 164.34 74.42 C 163.67 73.98 162.33 73.09 161.66 72.65 C 161.57 72.60 161.40 72.49 161.31 72.44 C 159.73 71.57 158.15 70.71 156.59 69.79 C 156.41 69.69 156.04 69.49 155.85 69.39 L 154.96 68.96 C 154.77 68.87 154.38 68.69 154.18 68.60 C 152.66 67.99 151.15 67.31 149.65 66.64 C 149.56 66.61 149.39 66.54 149.30 66.50 C 147.40 65.93 145.52 65.32 143.66 64.65 C 143.57 64.62 143.39 64.57 143.29 64.54 C 142.42 64.35 140.66 63.97 139.78 63.78 C 139.60 63.67 139.24 63.44 139.07 63.33 L 138.03 62.82 L 137.05 63.19 C 131.25 62.55 125.44 62.56 119.61 62.56 L 119.57 62.56 C 119.53 62.56 119.44 62.58 119.39 62.59 C 118.55 62.77 116.86 63.13 116.01 63.31 C 114.63 62.24 113.57 62.44 112.83 63.89 C 112.05 64.05 110.47 64.37 109.69 64.53 C 109.60 64.55 109.42 64.60 109.33 64.63 C 108.43 64.92 106.63 65.51 105.73 65.80 L 105.15 65.60 C 104.67 65.59 103.72 65.55 103.24 65.54 C 102.83 65.77 102.01 66.22 101.61 66.45 L 101.07 66.84 C 100.93 66.94 100.64 67.14 100.49 67.25 C 99.94 67.50 98.84 68.02 98.28 68.28 C 97.77 68.53 96.74 69.03 96.23 69.28 C 95.75 69.55 94.77 70.10 94.29 70.37 C 92.82 69.89 91.30 70.65 91.11 72.25 C 90.61 72.58 89.60 73.26 89.10 73.59 C 88.93 73.75 88.58 74.06 88.40 74.22 C 88.20 74.44 87.78 74.88 87.57 75.10 C 86.93 75.49 85.65 76.25 85.02 76.64 C 84.81 76.83 84.40 77.20 84.20 77.39 C 83.96 77.60 83.49 78.01 83.25 78.21 C 83.02 78.42 82.57 78.84 82.34 79.05 C 82.12 79.35 81.69 79.96 81.48 80.27 C 81.20 80.55 80.65 81.12 80.37 81.41 C 80.14 81.65 79.66 82.13 79.42 82.37 C 79.15 82.65 78.60 83.21 78.33 83.49 C 78.03 83.69 77.43 84.11 77.13 84.31 C 76.93 84.51 76.51 84.91 76.30 85.10 L 75.59 85.38 C 75.03 83.23 74.77 81.03 74.52 78.83 C 74.48 78.67 74.39 78.34 74.34 78.17 C 73.16 75.16 71.09 72.54 68.57 70.53 C 68.53 70.51 68.46 70.46 68.43 70.44 C 63.06 67.24 56.65 68.02 51.15 70.40 C 59.80 58.27 72.05 48.90 85.36 42.34 C 86.62 41.72 87.90 41.02 89.35 41.02 C 89.81 42.09 89.81 42.09 89.35 41.02 L 89.25 40.33 C 89.68 40.34 90.52 40.34 90.94 40.34 C 91.09 40.28 91.39 40.14 91.54 40.08 L 91.88 39.35 C 92.42 39.34 93.51 39.34 94.05 39.33 C 94.15 39.36 94.35 39.42 94.45 39.44 L 94.46 39.18 L 94.51 38.35 C 95.21 38.20 96.62 37.89 97.32 37.74 C 97.68 39.33 98.20 39.33 98.88 37.76 C 99.55 37.79 100.87 37.86 101.54 37.89 C 101.45 37.58 101.26 36.97 101.17 36.66 L 101.05 36.38 C 101.82 36.25 103.36 36.00 104.13 35.87 C 104.38 36.12 104.88 36.61 105.12 36.86 L 106.04 36.69 C 105.56 36.48 104.61 36.07 104.13 35.87 C 104.93 34.51 106.85 35.11 108.14 35.13 C 109.14 35.75 110.37 36.34 111.54 35.77 C 111.44 35.46 111.23 34.84 111.13 34.53 L 111.02 34.26 Z" />
<path fill="#37acfc" opacity="1.00" d=" M 38.58 163.65 C 27.24 136.04 29.72 103.11 45.78 77.85 C 45.57 80.58 45.48 83.36 46.02 86.06 C 46.63 91.04 50.91 94.77 55.37 96.48 C 60.38 98.35 65.84 96.95 70.28 94.32 C 63.51 105.64 60.43 119.00 61.28 132.14 C 59.69 132.97 59.26 135.23 60.34 136.64 C 61.73 136.35 61.10 133.86 61.35 132.75 C 61.56 134.55 61.76 136.35 62.02 138.15 C 60.33 139.01 59.82 142.22 61.93 142.81 L 62.86 143.02 C 63.02 143.59 63.33 144.72 63.49 145.29 C 63.53 145.41 63.61 145.64 63.64 145.76 C 63.83 146.29 64.21 147.34 64.40 147.86 C 64.50 148.11 64.69 148.62 64.79 148.88 C 64.99 149.43 65.37 150.53 65.57 151.08 C 65.66 151.31 65.84 151.77 65.94 152.00 L 66.35 152.95 C 66.47 153.19 66.70 153.69 66.81 153.93 L 67.28 154.92 C 67.40 155.16 67.65 155.64 67.77 155.89 L 68.35 157.04 C 68.50 157.38 68.80 158.05 68.95 158.39 L 69.37 159.15 C 69.47 159.32 69.67 159.65 69.77 159.82 L 70.32 160.69 C 70.52 160.98 70.91 161.57 71.11 161.87 C 71.27 162.12 71.58 162.61 71.74 162.86 L 72.46 164.00 C 72.62 164.22 72.93 164.67 73.09 164.89 C 73.21 165.05 73.45 165.36 73.56 165.51 C 74.09 166.21 75.13 167.60 75.66 168.30 C 75.78 168.45 76.03 168.76 76.15 168.91 C 76.28 169.05 76.53 169.34 76.66 169.48 C 89.88 185.02 110.58 193.86 130.97 192.30 C 149.14 191.25 166.46 181.99 177.81 167.82 C 177.60 174.20 179.28 181.47 185.34 184.76 C 190.46 188.00 196.64 186.64 201.88 184.51 C 182.48 211.27 147.72 225.47 115.06 221.33 C 91.20 218.59 68.42 206.39 53.33 187.66 C 53.22 187.49 52.98 187.17 52.86 187.00 C 52.68 186.77 52.30 186.31 52.12 186.08 C 51.99 185.95 51.74 185.67 51.61 185.54 C 51.06 184.85 49.96 183.49 49.41 182.80 C 49.35 182.72 49.24 182.56 49.18 182.48 C 48.72 181.77 47.80 180.36 47.33 179.66 C 47.24 179.50 47.04 179.20 46.94 179.04 C 46.84 178.90 46.64 178.60 46.54 178.45 L 45.45 176.84 C 45.40 176.75 45.29 176.56 45.24 176.47 L 44.32 174.67 L 44.44 174.05 C 45.25 172.02 44.04 169.68 41.91 169.18 C 42.24 167.39 41.84 167.04 40.72 168.12 L 39.86 167.14 C 39.95 166.80 40.13 166.12 40.22 165.79 C 40.30 165.71 40.47 165.54 40.55 165.46 C 40.47 165.54 40.30 165.71 40.22 165.79 C 39.85 165.48 39.09 164.88 38.71 164.57 C 39.01 164.01 39.60 162.87 39.89 162.31 C 39.56 162.64 38.91 163.32 38.58 163.65 M 67.26 159.28 C 67.80 159.66 67.80 159.66 67.26 159.28 Z" />
</g>
<g id="#48dffdff">
<path fill="#48dffd" opacity="1.00" d=" M 124.41 33.41 L 124.59 33.41 L 124.53 33.44 C 124.50 33.43 124.44 33.42 124.41 33.41 Z" />
<path fill="#48dffd" opacity="1.00" d=" M 165.43 41.24 C 165.52 41.28 165.70 41.36 165.79 41.40 C 165.70 41.36 165.52 41.28 165.43 41.24 Z" />
<path fill="#48dffd" opacity="1.00" d=" M 167.46 42.18 C 167.55 42.22 167.74 42.31 167.84 42.36 C 167.74 42.31 167.55 42.22 167.46 42.18 Z" />
<path fill="#48dffd" opacity="1.00" d=" M 169.42 43.14 C 169.52 43.19 169.71 43.29 169.81 43.34 C 169.71 43.29 169.52 43.19 169.42 43.14 Z" />
<path fill="#48dffd" opacity="1.00" d=" M 171.44 44.18 C 171.54 44.23 171.73 44.33 171.83 44.38 C 171.73 44.33 171.54 44.23 171.44 44.18 Z" />
<path fill="#48dffd" opacity="1.00" d=" M 173.40 45.25 C 173.49 45.30 173.67 45.40 173.76 45.45 C 173.67 45.40 173.49 45.30 173.40 45.25 Z" />
<path fill="#48dffd" opacity="1.00" d=" M 178.43 48.30 C 178.50 48.35 178.65 48.44 178.72 48.49 C 178.65 48.44 178.50 48.35 178.43 48.30 Z" />
<path fill="#48dffd" opacity="1.00" d=" M 181.44 50.32 C 181.51 50.37 181.66 50.47 181.73 50.52 C 181.66 50.47 181.51 50.37 181.44 50.32 Z" />
<path fill="#48dffd" opacity="1.00" d=" M 185.61 53.51 C 185.74 53.61 185.99 53.82 186.12 53.92 C 185.99 53.82 185.74 53.61 185.61 53.51 Z" />
<path fill="#48dffd" opacity="1.00" d=" M 186.12 53.92 C 186.25 54.03 186.51 54.23 186.64 54.33 C 186.51 54.23 186.25 54.03 186.12 53.92 Z" />
<path fill="#48dffd" opacity="1.00" d=" M 192.41 59.41 C 192.47 59.47 192.60 59.59 192.66 59.65 C 192.60 59.59 192.47 59.47 192.41 59.41 Z" />
<path fill="#48dffd" opacity="1.00" d=" M 119.39 62.59 C 119.44 62.58 119.53 62.56 119.57 62.56 L 119.61 62.56 L 119.39 62.59 Z" />
<path fill="#48dffd" opacity="1.00" d=" M 195.40 62.38 C 195.46 62.44 195.57 62.56 195.63 62.62 C 195.57 62.56 195.46 62.44 195.40 62.38 Z" />
<path fill="#48dffd" opacity="1.00" d=" M 139.07 63.33 C 139.24 63.44 139.60 63.67 139.78 63.78 L 139.21 63.89 L 139.07 63.33 Z" />
<path fill="#48dffd" opacity="1.00" d=" M 143.29 64.54 C 143.39 64.57 143.57 64.62 143.66 64.65 C 143.57 64.62 143.39 64.57 143.29 64.54 Z" />
<path fill="#48dffd" opacity="1.00" d=" M 105.15 65.60 L 105.73 65.80 C 105.55 65.88 105.19 66.05 105.02 66.13 L 105.15 65.60 Z" />
<path fill="#48dffd" opacity="1.00" d=" M 149.30 66.50 C 149.39 66.54 149.56 66.61 149.65 66.64 C 149.56 66.61 149.39 66.54 149.30 66.50 Z" />
<path fill="#48dffd" opacity="1.00" d=" M 154.18 68.60 C 154.38 68.69 154.77 68.87 154.96 68.96 C 154.77 68.87 154.38 68.69 154.18 68.60 Z" />
<path fill="#48dffd" opacity="1.00" d=" M 200.67 68.48 C 200.77 68.60 200.96 68.85 201.06 68.98 C 200.96 68.85 200.77 68.60 200.67 68.48 Z" />
<path fill="#48dffd" opacity="1.00" d=" M 155.85 69.39 C 156.04 69.49 156.41 69.69 156.59 69.79 C 156.41 69.69 156.04 69.49 155.85 69.39 Z" />
<path fill="#48dffd" opacity="1.00" d=" M 201.06 68.98 C 201.16 69.10 201.35 69.33 201.44 69.45 C 201.35 69.33 201.16 69.10 201.06 68.98 Z" />
<path fill="#48dffd" opacity="1.00" d=" M 161.31 72.44 C 161.40 72.49 161.57 72.60 161.66 72.65 C 161.57 72.60 161.40 72.49 161.31 72.44 Z" />
<path fill="#48dffd" opacity="1.00" d=" M 203.59 72.19 C 203.65 72.26 203.76 72.41 203.81 72.49 C 203.76 72.41 203.65 72.26 203.59 72.19 Z" />
<path fill="#48dffd" opacity="1.00" d=" M 164.34 74.42 C 164.41 74.47 164.55 74.58 164.61 74.63 C 164.55 74.58 164.41 74.47 164.34 74.42 Z" />
<path fill="#48dffd" opacity="1.00" d=" M 205.72 75.36 C 205.81 75.50 205.99 75.77 206.08 75.91 C 205.99 75.77 205.81 75.50 205.72 75.36 Z" />
<path fill="#48dffd" opacity="1.00" d=" M 206.08 75.91 C 206.18 76.06 206.37 76.35 206.46 76.49 C 206.37 76.35 206.18 76.06 206.08 75.91 Z" />
<path fill="#48dffd" opacity="1.00" d=" M 168.38 77.69 C 168.55 77.83 168.90 78.12 169.07 78.26 C 168.90 78.12 168.55 77.83 168.38 77.69 Z" />
<path fill="#48dffd" opacity="1.00" d=" M 169.07 78.26 C 169.25 78.42 169.60 78.73 169.78 78.88 C 169.60 78.73 169.25 78.42 169.07 78.26 Z" />
<path fill="#48dffd" opacity="1.00" d=" M 207.62 78.22 C 207.67 78.31 207.77 78.48 207.83 78.57 C 207.77 78.48 207.67 78.31 207.62 78.22 Z" />
<path fill="#48dffd" opacity="1.00" d=" M 169.78 78.88 C 169.94 79.03 170.28 79.33 170.44 79.48 C 170.28 79.33 169.94 79.03 169.78 78.88 Z" />
<path fill="#48dffd" opacity="1.00" d=" M 176.35 85.54 C 176.48 85.68 176.73 85.96 176.85 86.10 C 176.73 85.96 176.48 85.68 176.35 85.54 Z" />
<path fill="#48dffd" opacity="1.00" d=" M 176.85 86.10 C 176.97 86.25 177.21 86.55 177.33 86.70 C 177.21 86.55 176.97 86.25 176.85 86.10 Z" />
<path fill="#48dffd" opacity="1.00" d=" M 212.49 87.25 C 212.53 87.34 212.62 87.52 212.66 87.61 C 212.62 87.52 212.53 87.34 212.49 87.25 Z" />
<path fill="#48dffd" opacity="1.00" d=" M 179.44 89.51 C 179.54 89.66 179.76 89.95 179.86 90.10 C 179.76 89.95 179.54 89.66 179.44 89.51 Z" />
<path fill="#48dffd" opacity="1.00" d=" M 179.86 90.10 C 180.00 90.30 180.28 90.71 180.42 90.92 C 180.28 90.71 180.00 90.30 179.86 90.10 Z" />
<path fill="#48dffd" opacity="1.00" d=" M 181.28 92.21 C 181.43 92.43 181.73 92.88 181.88 93.11 C 181.73 92.88 181.43 92.43 181.28 92.21 Z" />
<path fill="#48dffd" opacity="1.00" d=" M 214.66 92.19 C 214.69 92.28 214.76 92.47 214.79 92.56 C 214.76 92.47 214.69 92.28 214.66 92.19 Z" />
<path fill="#48dffd" opacity="1.00" d=" M 181.88 93.11 C 182.07 93.40 182.45 93.97 182.64 94.26 C 182.45 93.97 182.07 93.40 181.88 93.11 Z" />
<path fill="#48dffd" opacity="1.00" d=" M 215.06 94.36 L 215.79 94.31 C 215.82 94.76 215.88 95.65 215.90 96.10 L 215.15 96.12 C 215.13 95.68 215.08 94.80 215.06 94.36 Z" />
<path fill="#48dffd" opacity="1.00" d=" M 183.22 95.17 C 183.32 95.34 183.53 95.69 183.63 95.86 C 183.53 95.69 183.32 95.34 183.22 95.17 Z" />
<path fill="#48dffd" opacity="1.00" d=" M 184.06 96.64 C 184.21 96.98 184.52 97.65 184.67 97.99 C 184.52 97.65 184.21 96.98 184.06 96.64 Z" />
<path fill="#48dffd" opacity="1.00" d=" M 216.66 98.36 C 216.74 98.53 216.88 98.88 216.95 99.05 L 216.38 99.03 L 216.66 98.36 Z" />
<path fill="#48dffd" opacity="1.00" d=" M 185.21 99.07 C 185.32 99.29 185.54 99.75 185.66 99.97 C 185.54 99.75 185.32 99.29 185.21 99.07 Z" />
<path fill="#48dffd" opacity="1.00" d=" M 186.16 101.09 C 186.26 101.31 186.46 101.75 186.57 101.97 C 186.46 101.75 186.26 101.31 186.16 101.09 Z" />
<path fill="#48dffd" opacity="1.00" d=" M 187.06 103.04 C 187.15 103.26 187.34 103.70 187.43 103.93 C 187.34 103.70 187.15 103.26 187.06 103.04 Z" />
<path fill="#48dffd" opacity="1.00" d=" M 188.22 106.10 C 188.29 106.30 188.43 106.70 188.50 106.90 C 188.43 106.70 188.29 106.30 188.22 106.10 Z" />
<path fill="#48dffd" opacity="1.00" d=" M 189.35 109.66 C 189.38 109.77 189.45 109.99 189.48 110.10 L 189.44 109.99 L 189.35 109.66 Z" />
<path fill="#48dffd" opacity="1.00" d=" M 190.40 113.32 C 190.42 113.42 190.46 113.60 190.48 113.69 C 190.46 113.60 190.42 113.42 190.40 113.32 Z" />
<path fill="#48dffd" opacity="1.00" d=" M 183.56 159.48 C 183.64 159.38 183.79 159.18 183.86 159.08 C 183.79 159.18 183.64 159.38 183.56 159.48 Z" />
</g>
<g id="#48e0fdff">
<path fill="#48e0fd" opacity="1.00" d=" M 141.37 34.15 C 141.45 34.16 141.62 34.19 141.71 34.20 C 141.62 34.19 141.45 34.16 141.37 34.15 Z" />
<path fill="#48e0fd" opacity="1.00" d=" M 146.98 35.24 C 147.41 35.23 148.27 35.21 148.70 35.21 L 148.76 36.05 C 148.32 35.85 147.42 35.44 146.98 35.24 Z" />
<path fill="#48e0fd" opacity="1.00" d=" M 151.44 36.24 C 151.52 36.26 151.69 36.31 151.78 36.33 C 151.69 36.31 151.52 36.26 151.44 36.24 Z" />
<path fill="#48e0fd" opacity="1.00" d=" M 98.22 37.41 C 98.43 37.35 98.86 37.23 99.08 37.17 L 98.88 37.76 L 98.22 37.41 Z" />
<path fill="#48e0fd" opacity="1.00" d=" M 155.33 37.39 C 155.41 37.42 155.56 37.47 155.64 37.49 C 155.56 37.47 155.41 37.42 155.33 37.39 Z" />
<path fill="#48e0fd" opacity="1.00" d=" M 158.38 38.43 C 158.46 38.46 158.63 38.51 158.71 38.54 C 158.63 38.51 158.46 38.46 158.38 38.43 Z" />
<path fill="#48e0fd" opacity="1.00" d=" M 160.40 39.16 C 160.49 39.19 160.67 39.26 160.76 39.29 C 160.67 39.26 160.49 39.19 160.40 39.16 Z" />
<path fill="#48e0fd" opacity="1.00" d=" M 163.40 40.34 C 163.49 40.38 163.67 40.45 163.76 40.49 C 163.67 40.45 163.49 40.38 163.40 40.34 Z" />
<path fill="#48e0fd" opacity="1.00" d=" M 112.83 63.89 C 113.57 62.44 114.63 62.24 116.01 63.31 C 115.03 64.00 113.97 64.19 112.83 63.89 Z" />
<path fill="#48e0fd" opacity="1.00" d=" M 137.05 63.19 L 138.03 62.82 L 139.07 63.33 L 139.21 63.89 C 138.67 63.72 137.59 63.37 137.05 63.19 Z" />
<path fill="#48e0fd" opacity="1.00" d=" M 109.33 64.63 C 109.42 64.60 109.60 64.55 109.69 64.53 C 109.60 64.55 109.42 64.60 109.33 64.63 Z" />
<path fill="#48e0fd" opacity="1.00" d=" M 103.37 66.28 L 104.01 66.58 C 103.75 66.66 103.21 66.82 102.94 66.90 L 103.37 66.28 Z" />
<path fill="#48e0fd" opacity="1.00" d=" M 100.49 67.25 L 101.11 67.36 C 100.89 67.50 100.45 67.79 100.23 67.93 L 100.49 67.25 Z" />
<path fill="#48e0fd" opacity="1.00" d=" M 98.28 68.28 L 98.99 68.55 C 98.77 68.65 98.32 68.87 98.10 68.98 L 98.28 68.28 Z" />
<path fill="#48e0fd" opacity="1.00" d=" M 96.23 69.28 L 96.93 69.55 C 96.71 69.66 96.29 69.87 96.08 69.98 L 96.23 69.28 Z" />
<path fill="#48e0fd" opacity="1.00" d=" M 94.29 70.37 L 94.96 70.56 C 94.80 70.65 94.49 70.82 94.33 70.91 L 94.29 70.37 Z" />
<path fill="#48e0fd" opacity="1.00" d=" M 91.11 72.25 L 91.67 72.47 C 91.50 72.58 91.16 72.81 90.98 72.92 L 91.11 72.25 Z" />
<path fill="#48e0fd" opacity="1.00" d=" M 89.10 73.59 L 89.84 73.68 C 89.64 73.81 89.23 74.09 89.02 74.22 L 89.10 73.59 Z" />
<path fill="#48e0fd" opacity="1.00" d=" M 88.40 74.22 L 89.02 74.22 C 88.83 74.35 88.46 74.60 88.28 74.73 L 88.40 74.22 Z" />
<path fill="#48e0fd" opacity="1.00" d=" M 85.02 76.64 L 85.71 76.74 C 85.50 76.88 85.09 77.16 84.89 77.29 L 85.02 76.64 Z" />
<path fill="#48e0fd" opacity="1.00" d=" M 84.20 77.39 L 84.89 77.29 C 84.66 77.50 84.21 77.90 83.99 78.10 L 84.20 77.39 Z" />
<path fill="#48e0fd" opacity="1.00" d=" M 83.25 78.21 L 83.99 78.10 C 83.76 78.31 83.30 78.73 83.07 78.93 L 83.25 78.21 Z" />
<path fill="#48e0fd" opacity="1.00" d=" M 82.34 79.05 L 83.07 78.93 C 82.87 79.12 82.47 79.50 82.27 79.68 L 82.34 79.05 Z" />
<path fill="#48e0fd" opacity="1.00" d=" M 77.13 84.31 L 77.76 84.25 C 77.57 84.44 77.19 84.82 77.01 85.01 L 77.13 84.31 Z" />
<path fill="#48e0fd" opacity="1.00" d=" M 76.30 85.10 L 77.01 85.01 C 76.82 85.20 76.45 85.58 76.26 85.78 L 76.30 85.10 Z" />
<path fill="#48e0fd" opacity="1.00" d=" M 75.69 85.92 L 76.26 85.78 C 76.12 85.95 75.84 86.29 75.70 86.46 L 75.69 85.92 Z" />
<path fill="#48e0fd" opacity="1.00" d=" M 189.44 109.99 L 189.48 110.10 L 189.58 110.44 C 189.54 110.33 189.48 110.10 189.44 109.99 Z" />
</g>
<g id="#34a4fcff">
<path fill="#34a4fc" opacity="1.00" d=" M 108.14 35.13 C 108.89 34.98 110.38 34.68 111.13 34.53 C 111.23 34.84 111.44 35.46 111.54 35.77 C 110.37 36.34 109.14 35.75 108.14 35.13 Z" />
<path fill="#34a4fc" opacity="1.00" d=" M 104.13 35.87 C 104.61 36.07 105.56 36.48 106.04 36.69 L 105.12 36.86 C 104.88 36.61 104.38 36.12 104.13 35.87 Z" />
<path fill="#34a4fc" opacity="1.00" d=" M 91.11 72.25 C 91.30 70.65 92.82 69.89 94.29 70.37 L 94.33 70.91 C 93.67 71.30 92.34 72.08 91.67 72.47 L 91.11 72.25 Z" />
<path fill="#34a4fc" opacity="1.00" d=" M 89.10 73.59 C 89.60 73.26 90.61 72.58 91.11 72.25 L 90.98 72.92 L 89.84 73.68 L 89.10 73.59 Z" />
<path fill="#34a4fc" opacity="1.00" d=" M 88.40 74.22 C 88.58 74.06 88.93 73.75 89.10 73.59 L 89.02 74.22 L 88.40 74.22 Z" />
<path fill="#34a4fc" opacity="1.00" d=" M 87.57 75.10 C 87.78 74.88 88.20 74.44 88.40 74.22 L 88.28 74.73 L 87.57 75.10 Z" />
<path fill="#34a4fc" opacity="1.00" d=" M 85.02 76.64 C 85.65 76.25 86.93 75.49 87.57 75.10 C 87.10 75.51 86.17 76.33 85.71 76.74 L 85.02 76.64 Z" />
<path fill="#34a4fc" opacity="1.00" d=" M 84.20 77.39 C 84.40 77.20 84.81 76.83 85.02 76.64 L 84.89 77.29 L 84.20 77.39 Z" />
<path fill="#34a4fc" opacity="1.00" d=" M 83.25 78.21 C 83.49 78.01 83.96 77.60 84.20 77.39 L 83.99 78.10 L 83.25 78.21 Z" />
<path fill="#34a4fc" opacity="1.00" d=" M 82.34 79.05 C 82.57 78.84 83.02 78.42 83.25 78.21 L 83.07 78.93 L 82.34 79.05 Z" />
<path fill="#34a4fc" opacity="1.00" d=" M 81.48 80.27 C 81.69 79.96 82.12 79.35 82.34 79.05 L 82.27 79.68 L 81.48 80.27 Z" />
<path fill="#34a4fc" opacity="1.00" d=" M 80.37 81.41 C 80.65 81.12 81.20 80.55 81.48 80.27 C 81.20 80.55 80.65 81.12 80.37 81.41 Z" />
<path fill="#34a4fc" opacity="1.00" d=" M 79.42 82.37 C 79.66 82.13 80.14 81.65 80.37 81.41 C 80.14 81.65 79.66 82.13 79.42 82.37 Z" />
<path fill="#34a4fc" opacity="1.00" d=" M 78.33 83.49 C 78.60 83.21 79.15 82.65 79.42 82.37 C 79.15 82.65 78.60 83.21 78.33 83.49 Z" />
<path fill="#34a4fc" opacity="1.00" d=" M 77.13 84.31 C 77.43 84.11 78.03 83.69 78.33 83.49 L 77.76 84.25 L 77.13 84.31 Z" />
<path fill="#34a4fc" opacity="1.00" d=" M 76.30 85.10 C 76.51 84.91 76.93 84.51 77.13 84.31 L 77.01 85.01 L 76.30 85.10 Z" />
</g>
<g id="#3ab7fcff">
<path fill="#3ab7fc" opacity="1.00" d=" M 99.08 37.17 C 99.60 37.04 100.65 36.79 101.17 36.66 C 101.26 36.97 101.45 37.58 101.54 37.89 C 100.87 37.86 99.55 37.79 98.88 37.76 L 99.08 37.17 Z" />
<path fill="#3ab7fc" opacity="1.00" d=" M 97.32 37.74 L 98.22 37.41 L 98.88 37.76 C 98.20 39.33 97.68 39.33 97.32 37.74 Z" />
<path fill="#3ab7fc" opacity="1.00" d=" M 94.05 39.33 L 94.46 39.18 L 94.45 39.44 C 94.35 39.42 94.15 39.36 94.05 39.33 Z" />
<path fill="#3ab7fc" opacity="1.00" d=" M 90.94 40.34 L 91.54 40.08 C 91.39 40.14 91.09 40.28 90.94 40.34 Z" />
<path fill="#3ab7fc" opacity="1.00" d=" M 89.35 41.02 C 89.81 42.09 89.81 42.09 89.35 41.02 Z" />
<path fill="#3ab7fc" opacity="1.00" d=" M 68.43 70.44 C 68.46 70.46 68.53 70.51 68.57 70.53 C 68.53 70.51 68.46 70.46 68.43 70.44 Z" />
<path fill="#3ab7fc" opacity="1.00" d=" M 74.34 78.17 C 74.39 78.34 74.48 78.67 74.52 78.83 C 74.48 78.67 74.39 78.34 74.34 78.17 Z" />
<path fill="#3ab7fc" opacity="1.00" d=" M 75.59 85.38 L 76.30 85.10 L 76.26 85.78 L 75.69 85.92 L 75.59 85.38 Z" />
</g>
<g id="#42cbfdff">
<path fill="#42cbfd" opacity="1.00" d=" M 101.61 66.45 C 102.01 66.22 102.83 65.77 103.24 65.54 L 103.37 66.28 L 102.94 66.90 L 101.87 67.08 L 101.61 66.45 Z" />
<path fill="#42cbfd" opacity="1.00" d=" M 100.49 67.25 C 100.64 67.14 100.93 66.94 101.07 66.84 L 101.11 67.36 L 100.49 67.25 Z" />
<path fill="#42cbfd" opacity="1.00" d=" M 208.75 80.27 C 208.84 80.43 209.03 80.76 209.12 80.92 C 209.03 80.76 208.84 80.43 208.75 80.27 Z" />
<path fill="#42cbfd" opacity="1.00" d=" M 209.12 80.92 C 209.21 81.08 209.39 81.40 209.48 81.57 C 209.39 81.40 209.21 81.08 209.12 80.92 Z" />
<path fill="#42cbfd" opacity="1.00" d=" M 210.48 83.30 C 210.53 83.38 210.62 83.54 210.66 83.62 C 210.62 83.54 210.53 83.38 210.48 83.30 Z" />
<path fill="#42cbfd" opacity="1.00" d=" M 211.52 85.26 C 211.57 85.36 211.66 85.54 211.71 85.63 C 211.66 85.54 211.57 85.36 211.52 85.26 Z" />
<path fill="#42cbfd" opacity="1.00" d=" M 213.81 90.21 C 213.85 90.29 213.92 90.46 213.96 90.55 C 213.92 90.46 213.85 90.29 213.81 90.21 Z" />
<path fill="#42cbfd" opacity="1.00" d=" M 190.98 117.04 C 193.25 117.74 192.85 120.49 191.64 121.98 C 191.23 120.36 191.00 118.70 190.98 117.04 Z" />
</g>
<g id="#1f9dfcff">
<path fill="#1f9dfc" opacity="1.00" d=" M 103.24 65.54 C 103.72 65.55 104.67 65.59 105.15 65.60 L 105.02 66.13 L 104.01 66.58 L 103.37 66.28 L 103.24 65.54 Z" />
<path fill="#1f9dfc" opacity="1.00" d=" M 101.07 66.84 L 101.61 66.45 L 101.87 67.08 L 101.11 67.36 L 101.07 66.84 Z" />
<path fill="#1f9dfc" opacity="1.00" d=" M 216.38 99.03 L 216.95 99.05 L 217.14 99.62 L 216.70 99.59 L 216.38 99.03 Z" />
<path fill="#1f9dfc" opacity="1.00" d=" M 218.53 103.85 C 217.45 106.19 215.74 102.85 218.18 103.10 L 218.53 103.85 Z" />
<path fill="#1f9dfc" opacity="1.00" d=" M 219.31 108.87 C 217.83 108.25 217.80 107.69 219.22 107.19 C 219.24 107.61 219.28 108.45 219.31 108.87 Z" />
<path fill="#1f9dfc" opacity="1.00" d=" M 219.68 113.47 L 220.02 113.05 L 220.40 113.50 C 220.22 113.49 219.86 113.47 219.68 113.47 Z" />
<path fill="#1f9dfc" opacity="1.00" d=" M 190.81 139.14 C 191.13 139.37 191.79 139.85 192.12 140.09 C 193.16 142.29 190.07 141.90 190.64 139.90 L 190.81 139.14 Z" />
<path fill="#1f9dfc" opacity="1.00" d=" M 189.74 144.03 C 190.09 144.26 190.79 144.74 191.14 144.98 L 190.90 145.70 L 190.12 145.65 C 190.02 145.24 189.84 144.43 189.74 144.03 Z" />
<path fill="#1f9dfc" opacity="1.00" d=" M 188.83 147.07 C 191.22 146.85 189.63 150.28 188.58 147.87 L 188.83 147.07 Z" />
<path fill="#1f9dfc" opacity="1.00" d=" M 187.96 150.03 C 187.95 150.09 187.91 150.23 187.89 150.29 L 187.82 150.44 L 187.96 150.03 Z" />
<path fill="#1f9dfc" opacity="1.00" d=" M 186.75 153.11 C 186.88 153.18 187.13 153.33 187.26 153.40 C 187.13 153.33 186.88 153.18 186.75 153.11 Z" />
<path fill="#1f9dfc" opacity="1.00" d=" M 186.12 155.31 C 186.52 155.44 186.52 155.44 186.12 155.31 Z" />
<path fill="#1f9dfc" opacity="1.00" d=" M 184.35 156.76 C 185.34 157.39 185.34 157.39 184.35 156.76 Z" />
<path fill="#1f9dfc" opacity="1.00" d=" M 190.86 157.53 C 191.67 157.53 193.30 157.52 194.12 157.52 C 194.29 157.54 194.63 157.60 194.80 157.63 C 195.63 157.85 197.30 158.30 198.14 158.52 C 198.29 158.59 198.59 158.72 198.74 158.79 C 201.77 160.65 205.02 162.90 206.29 166.38 C 207.22 169.88 207.10 173.55 207.22 177.13 C 205.81 179.81 204.16 182.51 201.88 184.51 C 196.64 186.64 190.46 188.00 185.34 184.76 C 179.28 181.47 177.60 174.20 177.81 167.82 C 179.79 165.08 181.56 162.20 183.56 159.48 C 183.64 159.38 183.79 159.18 183.86 159.08 C 186.09 159.33 188.16 158.53 190.18 157.69 C 190.35 157.65 190.69 157.57 190.86 157.53 Z" />
</g>
<g id="#3098fcff">
<path fill="#3098fc" opacity="1.00" d=" M 98.28 68.28 C 98.84 68.02 99.94 67.50 100.49 67.25 L 100.23 67.93 L 98.99 68.55 L 98.28 68.28 Z" />
<path fill="#3098fc" opacity="1.00" d=" M 96.23 69.28 C 96.74 69.03 97.77 68.53 98.28 68.28 L 98.10 68.98 L 96.93 69.55 L 96.23 69.28 Z" />
<path fill="#3098fc" opacity="1.00" d=" M 94.29 70.37 C 94.77 70.10 95.75 69.55 96.23 69.28 L 96.08 69.98 L 94.96 70.56 L 94.29 70.37 Z" />
<path fill="#3098fc" opacity="1.00" d=" M 215.15 96.12 L 215.90 96.10 C 216.09 96.67 216.47 97.79 216.66 98.36 L 216.38 99.03 C 215.49 98.26 215.08 97.29 215.15 96.12 Z" />
<path fill="#3098fc" opacity="1.00" d=" M 216.70 99.59 L 217.14 99.62 L 217.12 100.16 C 217.02 100.02 216.80 99.74 216.70 99.59 Z" />
<path fill="#3098fc" opacity="1.00" d=" M 60.34 136.64 C 59.26 135.23 59.69 132.97 61.28 132.14 L 61.35 132.75 C 61.10 133.86 61.73 136.35 60.34 136.64 Z" />
<path fill="#3098fc" opacity="1.00" d=" M 61.93 142.81 C 59.82 142.22 60.33 139.01 62.02 138.15 C 62.09 138.59 62.24 139.47 62.32 139.91 C 62.22 140.64 62.02 142.09 61.93 142.81 Z" />
<path fill="#3098fc" opacity="1.00" d=" M 190.18 157.69 C 190.35 157.65 190.69 157.57 190.86 157.53 C 190.69 157.57 190.35 157.65 190.18 157.69 Z" />
<path fill="#3098fc" opacity="1.00" d=" M 194.12 157.52 C 194.29 157.54 194.63 157.60 194.80 157.63 C 194.63 157.60 194.29 157.54 194.12 157.52 Z" />
<path fill="#3098fc" opacity="1.00" d=" M 198.14 158.52 C 198.29 158.59 198.59 158.72 198.74 158.79 C 198.59 158.72 198.29 158.59 198.14 158.52 Z" />
<path fill="#3098fc" opacity="1.00" d=" M 38.58 163.65 C 38.91 163.32 39.56 162.64 39.89 162.31 C 39.60 162.87 39.01 164.01 38.71 164.57 L 38.58 163.65 Z" />
<path fill="#3098fc" opacity="1.00" d=" M 40.22 165.79 C 40.30 165.71 40.47 165.54 40.55 165.46 C 40.47 165.54 40.30 165.71 40.22 165.79 Z" />
<path fill="#3098fc" opacity="1.00" d=" M 40.72 168.12 C 41.84 167.04 42.24 167.39 41.91 169.18 L 41.21 169.06 L 40.72 168.12 Z" />
<path fill="#3098fc" opacity="1.00" d=" M 41.91 169.18 C 44.04 169.68 45.25 172.02 44.44 174.05 L 43.96 173.96 C 43.80 173.74 43.48 173.29 43.32 173.07 L 42.76 172.06 C 42.62 171.77 42.34 171.21 42.20 170.93 L 41.81 169.84 L 41.91 169.18 Z" />
</g>
<g id="#1fa0fcff">
<path fill="#1fa0fc" opacity="1.00" d=" M 51.15 70.40 C 56.65 68.02 63.06 67.24 68.43 70.44 C 68.46 70.46 68.53 70.51 68.57 70.53 C 71.09 72.54 73.16 75.16 74.34 78.17 C 74.39 78.34 74.48 78.67 74.52 78.83 C 74.77 81.03 75.03 83.23 75.59 85.38 L 75.69 85.92 L 75.70 86.46 C 73.85 89.05 72.12 91.72 70.28 94.32 C 65.84 96.95 60.38 98.35 55.37 96.48 C 50.91 94.77 46.63 91.04 46.02 86.06 C 45.48 83.36 45.57 80.58 45.78 77.85 C 47.18 75.13 48.92 72.50 51.15 70.40 Z" />
</g>
<g id="#fc5356ff">
<path fill="#fc5356" opacity="1.00" d=" M 94.97 94.92 C 95.30 86.67 103.82 80.17 111.87 81.53 C 116.88 81.96 120.54 85.73 124.62 88.23 C 136.45 96.46 148.61 104.24 160.26 112.72 C 156.37 113.17 152.10 112.47 148.70 114.84 C 142.34 118.92 136.20 123.35 129.83 127.43 C 135.90 131.99 142.37 136.04 148.67 140.28 C 152.09 142.77 156.47 141.74 160.39 142.31 C 146.47 152.22 132.21 161.65 118.11 171.31 C 111.41 176.01 101.36 173.67 97.12 166.76 C 93.16 160.67 94.70 151.78 100.43 147.35 C 110.06 140.53 120.19 134.38 129.67 127.39 C 120.35 121.37 111.23 115.05 101.97 108.93 C 97.26 106.06 94.41 100.41 94.97 94.92 Z" />
<path fill="#fc5356" opacity="1.00" d=" M 164.48 115.18 C 164.55 115.23 164.71 115.34 164.79 115.39 C 164.71 115.34 164.55 115.23 164.48 115.18 Z" />
<path fill="#fc5356" opacity="1.00" d=" M 168.62 119.35 C 168.67 119.43 168.78 119.59 168.83 119.67 C 168.78 119.59 168.67 119.43 168.62 119.35 Z" />
<path fill="#fc5356" opacity="1.00" d=" M 169.70 121.20 C 169.74 121.29 169.82 121.46 169.86 121.55 C 169.82 121.46 169.74 121.29 169.70 121.20 Z" />
<path fill="#fc5356" opacity="1.00" d=" M 170.03 123.14 L 170.86 123.23 C 170.86 123.68 170.88 124.58 170.89 125.02 C 170.67 124.55 170.24 123.61 170.03 123.14 Z" />
<path fill="#fc5356" opacity="1.00" d=" M 170.75 130.80 C 170.77 130.71 170.80 130.53 170.82 130.44 C 170.80 130.53 170.77 130.71 170.75 130.80 Z" />
<path fill="#fc5356" opacity="1.00" d=" M 168.65 135.77 C 168.70 135.70 168.80 135.54 168.85 135.47 C 168.80 135.54 168.70 135.70 168.65 135.77 Z" />
<path fill="#fc5356" opacity="1.00" d=" M 163.34 140.61 C 163.41 140.57 163.57 140.48 163.64 140.43 C 163.57 140.48 163.41 140.57 163.34 140.61 Z" />
<path fill="#fc5356" opacity="1.00" d=" M 161.42 141.71 C 161.50 141.66 161.66 141.57 161.74 141.52 C 161.66 141.57 161.50 141.66 161.42 141.71 Z" />
</g>
<g id="#fc0d1bff">
<path fill="#fc0d1b" opacity="1.00" d=" M 148.70 114.84 C 152.10 112.47 156.37 113.17 160.26 112.72 C 161.67 113.52 163.10 114.31 164.48 115.18 C 164.55 115.23 164.71 115.34 164.79 115.39 C 166.30 116.46 167.56 117.83 168.62 119.35 C 168.67 119.43 168.78 119.59 168.83 119.67 L 169.70 121.20 C 169.74 121.29 169.82 121.46 169.86 121.55 L 170.03 123.14 C 170.24 123.61 170.67 124.55 170.89 125.02 C 171.10 126.82 171.08 128.65 170.82 130.44 C 170.80 130.53 170.77 130.71 170.75 130.80 C 170.33 132.43 169.81 134.06 168.85 135.47 C 168.80 135.54 168.70 135.70 168.65 135.77 C 167.37 137.69 165.63 139.27 163.64 140.43 C 163.57 140.48 163.41 140.57 163.34 140.61 L 161.74 141.52 C 161.66 141.57 161.50 141.66 161.42 141.71 L 160.39 142.31 C 156.47 141.74 152.09 142.77 148.67 140.28 C 142.37 136.04 135.90 131.99 129.83 127.43 C 136.20 123.35 142.34 118.92 148.70 114.84 Z" />
</g>
<g id="#41c9fdff">
<path fill="#41c9fd" opacity="1.00" d=" M 62.32 139.91 C 63.08 140.87 63.26 141.91 62.86 143.02 L 61.93 142.81 C 62.02 142.09 62.22 140.64 62.32 139.91 Z" />
<path fill="#41c9fd" opacity="1.00" d=" M 63.49 145.29 C 63.53 145.41 63.61 145.64 63.64 145.76 C 63.61 145.64 63.53 145.41 63.49 145.29 Z" />
<path fill="#41c9fd" opacity="1.00" d=" M 64.40 147.86 C 64.50 148.11 64.69 148.62 64.79 148.88 C 64.69 148.62 64.50 148.11 64.40 147.86 Z" />
<path fill="#41c9fd" opacity="1.00" d=" M 41.21 169.06 L 41.91 169.18 L 41.81 169.84 C 41.66 169.64 41.36 169.25 41.21 169.06 Z" />
<path fill="#41c9fd" opacity="1.00" d=" M 42.20 170.93 C 42.34 171.21 42.62 171.77 42.76 172.06 C 42.62 171.77 42.34 171.21 42.20 170.93 Z" />
<path fill="#41c9fd" opacity="1.00" d=" M 43.32 173.07 C 43.48 173.29 43.80 173.74 43.96 173.96 C 43.80 173.74 43.48 173.29 43.32 173.07 Z" />
<path fill="#41c9fd" opacity="1.00" d=" M 43.96 173.96 L 44.44 174.05 L 44.32 174.67 C 44.23 174.50 44.05 174.14 43.96 173.96 Z" />
</g>
<g id="#3bb9fcff">
<path fill="#3bb9fc" opacity="1.00" d=" M 65.57 151.08 C 65.66 151.31 65.84 151.77 65.94 152.00 C 65.84 151.77 65.66 151.31 65.57 151.08 Z" />
<path fill="#3bb9fc" opacity="1.00" d=" M 66.35 152.95 C 66.47 153.19 66.70 153.69 66.81 153.93 C 66.70 153.69 66.47 153.19 66.35 152.95 Z" />
<path fill="#3bb9fc" opacity="1.00" d=" M 67.28 154.92 C 67.40 155.16 67.65 155.64 67.77 155.89 C 67.65 155.64 67.40 155.16 67.28 154.92 Z" />
<path fill="#3bb9fc" opacity="1.00" d=" M 68.35 157.04 C 68.50 157.38 68.80 158.05 68.95 158.39 C 68.80 158.05 68.50 157.38 68.35 157.04 Z" />
<path fill="#3bb9fc" opacity="1.00" d=" M 67.26 159.28 C 67.80 159.66 67.80 159.66 67.26 159.28 Z" />
<path fill="#3bb9fc" opacity="1.00" d=" M 69.37 159.15 C 69.47 159.32 69.67 159.65 69.77 159.82 C 69.67 159.65 69.47 159.32 69.37 159.15 Z" />
<path fill="#3bb9fc" opacity="1.00" d=" M 70.32 160.69 C 70.52 160.98 70.91 161.57 71.11 161.87 C 70.91 161.57 70.52 160.98 70.32 160.69 Z" />
<path fill="#3bb9fc" opacity="1.00" d=" M 71.11 161.87 C 71.27 162.12 71.58 162.61 71.74 162.86 C 71.58 162.61 71.27 162.12 71.11 161.87 Z" />
<path fill="#3bb9fc" opacity="1.00" d=" M 72.46 164.00 C 72.62 164.22 72.93 164.67 73.09 164.89 C 72.93 164.67 72.62 164.22 72.46 164.00 Z" />
<path fill="#3bb9fc" opacity="1.00" d=" M 73.09 164.89 C 73.21 165.05 73.45 165.36 73.56 165.51 C 73.45 165.36 73.21 165.05 73.09 164.89 Z" />
<path fill="#3bb9fc" opacity="1.00" d=" M 75.66 168.30 C 75.78 168.45 76.03 168.76 76.15 168.91 C 76.03 168.76 75.78 168.45 75.66 168.30 Z" />
<path fill="#3bb9fc" opacity="1.00" d=" M 76.15 168.91 C 76.28 169.05 76.53 169.34 76.66 169.48 C 76.53 169.34 76.28 169.05 76.15 168.91 Z" />
<path fill="#3bb9fc" opacity="1.00" d=" M 45.24 176.47 C 45.29 176.56 45.40 176.75 45.45 176.84 C 45.40 176.75 45.29 176.56 45.24 176.47 Z" />
<path fill="#3bb9fc" opacity="1.00" d=" M 46.54 178.45 C 46.64 178.60 46.84 178.90 46.94 179.04 C 46.84 178.90 46.64 178.60 46.54 178.45 Z" />
<path fill="#3bb9fc" opacity="1.00" d=" M 46.94 179.04 C 47.04 179.20 47.24 179.50 47.33 179.66 C 47.24 179.50 47.04 179.20 46.94 179.04 Z" />
<path fill="#3bb9fc" opacity="1.00" d=" M 49.18 182.48 C 49.24 182.56 49.35 182.72 49.41 182.80 C 49.35 182.72 49.24 182.56 49.18 182.48 Z" />
<path fill="#3bb9fc" opacity="1.00" d=" M 51.61 185.54 C 51.74 185.67 51.99 185.95 52.12 186.08 C 51.99 185.95 51.74 185.67 51.61 185.54 Z" />
<path fill="#3bb9fc" opacity="1.00" d=" M 52.12 186.08 C 52.30 186.31 52.68 186.77 52.86 187.00 C 52.68 186.77 52.30 186.31 52.12 186.08 Z" />
<path fill="#3bb9fc" opacity="1.00" d=" M 52.86 187.00 C 52.98 187.17 53.22 187.49 53.33 187.66 C 53.22 187.49 52.98 187.17 52.86 187.00 Z" />
</g>
</svg>
