<?xml version="1.0" encoding="UTF-8" ?>
<!DOCTYPE svg PUBLIC "-//W3C//DTD SVG 1.1//EN" "http://www.w3.org/Graphics/SVG/1.1/DTD/svg11.dtd">
<svg width="256pt" height="256pt" viewBox="0 0 256 256" version="1.1" xmlns="http://www.w3.org/2000/svg">
<g id="#1ca6faff">
</g>
<g id="#fefdfdff">
<path fill="#fefdfd" opacity="1.00" d=" M 117.14 30.21 C 145.20 25.33 175.34 40.46 187.92 66.05 C 188.84 67.87 187.78 70.04 186.05 70.91 C 165.24 84.45 144.35 97.89 123.57 111.49 C 121.94 112.66 119.20 112.71 118.22 110.70 C 116.12 107.39 113.06 104.19 113.20 99.99 C 113.34 96.46 115.48 93.19 118.56 91.48 C 131.50 83.09 144.43 74.66 157.40 66.30 C 159.57 65.18 160.86 62.16 158.85 60.24 C 150.91 53.31 140.46 49.34 129.95 48.92 C 117.60 48.24 105.11 52.76 95.89 60.97 C 86.11 69.49 80.08 82.16 79.65 95.13 C 79.07 106.99 83.15 118.99 90.83 128.06 C 99.83 138.97 113.86 145.54 128.02 145.34 C 137.38 145.43 146.59 142.43 154.43 137.40 C 158.91 134.45 165.42 136.35 167.94 140.98 C 169.34 143.56 172.80 146.62 170.46 149.63 C 158.74 159.57 143.32 164.76 128.01 164.93 C 110.93 164.88 93.84 158.34 81.45 146.51 C 70.64 136.38 63.24 122.60 60.96 107.95 C 57.92 90.01 62.70 70.96 73.64 56.45 C 84.03 42.52 99.97 32.90 117.14 30.21 Z" />
<path fill="#fefdfd" opacity="1.00" d=" M 185.39 95.26 C 187.08 94.05 189.70 94.56 190.67 96.44 C 193.41 100.83 197.71 105.38 196.28 111.01 C 195.40 116.86 189.50 119.30 185.16 122.26 C 183.48 123.74 180.93 122.98 179.87 121.15 C 177.10 116.90 174.31 112.66 171.65 108.34 C 170.28 106.65 171.35 104.13 173.11 103.20 C 177.19 100.54 181.25 97.84 185.39 95.26 Z" />
</g>
<g id="#f34a65ff">
</g>
</svg>
