<?xml version="1.0" encoding="UTF-8"?>
<svg width="644px" height="381px" viewBox="0 0 644 381" version="1.1" xmlns="http://www.w3.org/2000/svg" xmlns:xlink="http://www.w3.org/1999/xlink">
    <!-- Generator: Sketch 50 (54983) - http://www.bohemiancoding.com/sketch -->
    <title>taptap</title>
    <desc>Created with Sketch.</desc>
    <defs>
        <path d="M248.658685,388.065387 C255.009841,387.271492 253.984394,393.887279 254.877525,398.121383 C263.841917,403.050145 274.361018,400.800777 284.119305,401.197724 C341.577416,401.396198 399.035528,400.70154 456.460561,401.495435 C466.086531,406.225722 461.12469,418.961113 462.447848,427.42932 C461.620875,434.772844 465.325715,447.078208 455.633587,449.625286 C434.926173,450.617654 414.119523,449.492971 393.37903,450.154549 C388.218716,458.258889 390.004978,468.050254 389.806505,477.146961 C389.872663,534.505836 389.806505,591.89779 389.839584,649.289743 C391.129662,655.210873 386.23398,661.098923 380.048219,660.437345 C364.600356,660.470424 349.119414,660.999687 333.704629,660.139634 C326.063395,659.908082 326.85729,651.406795 326.559579,645.98185 C326.658816,585.215844 326.493421,524.482918 326.658816,463.749992 C326.691895,459.118941 326.493421,453.991706 322.557028,450.849207 C300.989562,447.971339 278.958991,452.337759 257.52384,448.401366 C242.638319,445.854288 232.615401,429.678688 235.493269,415.157035 C237.180294,405.167196 241.414398,395.342752 248.658685,388.065387 Z M627.677133,447.408998 C644.415074,431.16724 672.366775,425.676137 692.280294,439.436974 C704.784132,445.854288 710.308315,458.788151 716.295602,470.630411 C727.410124,459.714362 741.104804,449.82376 757.37964,449.724523 C789.036182,448.831392 819.071856,469.141858 832.998088,497.126638 C846.395057,524.582155 848.115161,556.569486 842.524821,586.241291 C837.794533,609.198073 826.08459,631.824065 806.303386,645.221034 C787.249919,658.485687 761.845297,664.969159 739.517015,656.53403 C731.544991,653.953873 725.954651,646.709586 717.784154,644.691771 L716.03097,646.775744 C713.980076,674.727445 717.717996,703.208409 714.277787,730.928557 C713.153103,731.722452 710.870656,733.31024 709.745973,734.104135 C693.570373,735.328056 677.295536,734.633398 661.119937,734.501082 C655.992702,734.898029 651.427809,730.20082 652.056308,725.106664 C651.923993,647.933507 652.056308,570.793428 652.023229,493.620271 C651.890914,482.108801 651.295493,470.03499 645.771311,459.648204 C641.603365,453.396285 633.796736,451.246154 627.677133,447.408998 Z M556.755894,453.925548 C571.542178,450.683812 586.758489,452.800864 601.776326,452.172364 C607.962087,451.841575 617.621136,452.569312 617.422663,460.905203 C618.018083,503.742425 617.521899,546.612726 617.654215,589.449948 C617.918847,603.541575 615.669479,618.62557 622.119871,631.724828 C625.130055,638.307537 632.275105,641.053088 637.666971,645.287192 C638.593182,650.249032 632.771289,651.472953 629.595711,653.590005 C613.618585,661.661265 593.24196,667.251605 576.76865,657.493319 C565.819523,651.506032 560.692287,639.630694 554.936553,629.276987 C545.145188,639.167589 537.107006,651.936058 523.147695,656.401714 C499.000072,663.612923 470.651424,657.46024 452.854956,639.167589 C434.264595,619.915648 425.829466,592.757842 425.035571,566.460088 C425.002492,539.930781 430.06357,512.045238 446.272248,490.345456 C470.816819,457.498073 517.028092,454.719442 554.010342,462.757624 C554.705,460.574414 556.094315,456.141837 556.755894,453.925548 Z M738.756199,498.251322 C729.064071,500.533769 716.758707,505.991793 715.964813,517.404026 C714.939366,539.236124 715.964813,561.167458 715.468629,583.032635 C715.369392,591.401605 715.038602,602.086102 723.870678,606.452521 C743.38725,617.99707 769.056505,608.106468 780.865685,590.045369 C793.667233,570.495718 793.402601,544.197964 784.372052,523.19284 C776.929291,506.256424 757.346561,493.917981 738.756199,498.251322 Z M517.09425,494.943428 C490.03568,501.261505 476.175606,530.701758 476.936422,556.569486 C477.267211,578.070794 484.875366,603.806206 506.442833,612.770598 C523.743116,617.467807 548.717713,610.918178 553.414922,591.368527 C554.738079,566.526246 553.414922,541.584728 554.010342,516.709368 C553.15029,509.398923 556.88821,497.986691 548.18845,494.314929 C538.000137,492.032482 527.216404,492.528666 517.09425,494.943428 Z" id="path-1"></path>
        <filter x="-7.0%" y="-8.1%" width="114.1%" height="124.8%" filterUnits="objectBoundingBox" id="filter-2">
            <feOffset dx="0" dy="4" in="SourceAlpha" result="shadowOffsetOuter1"></feOffset>
            <feGaussianBlur stdDeviation="2.5" in="shadowOffsetOuter1" result="shadowBlurOuter1"></feGaussianBlur>
            <feColorMatrix values="0 0 0 0 0   0 0 0 0 0   0 0 0 0 0  0 0 0 0.2 0" type="matrix" in="shadowBlurOuter1" result="shadowMatrixOuter1"></feColorMatrix>
            <feMorphology radius="1.5" operator="dilate" in="SourceAlpha" result="shadowSpreadOuter2"></feMorphology>
            <feOffset dx="0" dy="3" in="shadowSpreadOuter2" result="shadowOffsetOuter2"></feOffset>
            <feGaussianBlur stdDeviation="7" in="shadowOffsetOuter2" result="shadowBlurOuter2"></feGaussianBlur>
            <feColorMatrix values="0 0 0 0 0   0 0 0 0 0   0 0 0 0 0  0 0 0 0.12 0" type="matrix" in="shadowBlurOuter2" result="shadowMatrixOuter2"></feColorMatrix>
            <feMorphology radius="0.5" operator="dilate" in="SourceAlpha" result="shadowSpreadOuter3"></feMorphology>
            <feOffset dx="0" dy="8" in="shadowSpreadOuter3" result="shadowOffsetOuter3"></feOffset>
            <feGaussianBlur stdDeviation="5" in="shadowOffsetOuter3" result="shadowBlurOuter3"></feGaussianBlur>
            <feColorMatrix values="0 0 0 0 0   0 0 0 0 0   0 0 0 0 0  0 0 0 0.14 0" type="matrix" in="shadowBlurOuter3" result="shadowMatrixOuter3"></feColorMatrix>
            <feMerge>
                <feMergeNode in="shadowMatrixOuter1"></feMergeNode>
                <feMergeNode in="shadowMatrixOuter2"></feMergeNode>
                <feMergeNode in="shadowMatrixOuter3"></feMergeNode>
            </feMerge>
        </filter>
    </defs>
    <g id="Page-1" stroke="none" stroke-width="1" fill="none" fill-rule="evenodd">
        <g id="taptap" transform="translate(-218.000000, -374.000000)" fill-rule="nonzero">
            <g>
                <use fill="black" fill-opacity="1" filter="url(#filter-2)" xlink:href="#path-1"></use>
                <use fill="#FFFFFF" fill-rule="evenodd" xlink:href="#path-1"></use>
            </g>
        </g>
    </g>
</svg>