<?xml version="1.0" encoding="UTF-8"?>
<svg width="561px" height="466px" viewBox="0 0 561 466" version="1.1" xmlns="http://www.w3.org/2000/svg" xmlns:xlink="http://www.w3.org/1999/xlink">
    <!-- Generator: Sketch 50 (54983) - http://www.bohemiancoding.com/sketch -->
    <title>Wi-Fi万能钥匙</title>
    <desc>Created with Sketch.</desc>
    <defs>
        <path d="M338.346267,346.506081 C353.510739,337.412942 374.524761,350.248684 373.665349,367.825056 C372.805936,373.535991 370.809882,379.163756 366.734603,383.37765 C341.063119,410.629344 323.819423,446.835561 323.320409,484.621989 C322.516443,510.709317 329.308574,537.018429 342.3661,559.612661 C348.96417,571.311761 356.837497,582.317785 366.069251,592.103999 C370.560375,596.650568 372.55643,602.88824 373.249504,609.125911 C373.055443,622.876512 359.720688,634.132043 346.108703,631.941927 C333.35613,630.417163 327.090735,617.830928 319.161962,609.375418 C285.395367,566.654299 269.288313,509.71129 279.046803,455.817808 C284.12011,426.0156 296.734067,397.765879 314.393608,373.314207 C321.93426,364.05473 328.560053,353.547719 338.346267,346.506081 Z M712.495663,351.967509 C720.701667,341.84862 737.779025,340.628808 746.872164,350.220961 C754.911829,358.593302 762.092082,367.76961 768.911936,377.167702 C785.434835,401.148083 796.912151,428.704729 801.708227,457.453464 C808.084513,495.350784 802.207241,534.994651 785.795234,569.676105 C775.593176,590.634681 762.230697,610.123939 745.929582,626.785452 C732.012644,639.427133 707.006512,628.116156 707.228296,609.264526 C707.810479,603.082301 709.751088,596.789183 714.242211,592.270337 C732.650273,572.392957 746.733549,548.163069 753.137558,521.715342 C765.363394,474.558545 749.755354,423.076964 717.347186,387.508375 C712.717447,382.878636 708.863952,377.500377 707.145127,371.124091 C706.590668,364.387406 707.782756,357.151707 712.495663,351.967509 Z M411.313162,394.550013 C425.285546,384.708353 447.519379,395.187641 447.796609,412.569953 C449.182758,426.819566 435.238097,434.554279 429.527162,445.920703 C411.562669,473.089227 413.946845,510.847932 433.96284,536.297632 C440.727248,544.475912 449.903556,553.042314 447.547102,564.880028 C445.772831,582.179171 422.346909,590.911911 409.483445,579.434595 C394.956601,564.935474 383.839684,546.97098 376.992107,527.620337 C360.441485,481.57246 375.855465,427.429472 411.313162,394.550013 Z M632.653468,415.231359 C631.295042,400.84313 645.738717,388.534125 659.738824,391.08464 C670.245835,392.082667 676.344892,401.67482 682.443948,409.132302 C705.259964,438.269159 715.766975,477.330844 707.339188,513.731122 C701.739145,538.432301 688.875681,561.414655 671.022079,579.351426 C658.158614,590.939634 634.649523,582.206894 632.875252,564.852305 C630.352461,546.666028 649.980334,537.461997 655.219978,521.743065 C667.528983,497.430008 665.144806,466.879279 649.952611,444.368216 C644.629798,434.360218 632.847529,427.59581 632.653468,415.231359 Z M505.571308,451.631637 C508.177269,430.201771 542.636938,427.568087 550.787496,446.447439 C553.726132,454.986119 551.619185,464.217872 552.339983,473.061504 C563.068778,473.643687 573.853019,472.534768 584.554091,473.726856 C591.068992,474.586268 596.585866,480.574433 595.948237,487.338841 C595.393778,497.818129 598.914597,510.709317 589.405613,518.305415 C577.678791,521.465835 565.342063,519.247996 553.365733,519.830179 L552.367706,521.271774 C552.284537,547.580886 552.284537,573.889998 552.31226,600.19911 C563.235116,603.026855 573.825296,607.07441 583.583786,612.757622 C606.067126,626.425054 623.116762,649.656914 626.72075,675.993749 C630.43563,701.027604 621.397937,727.031764 604.071072,745.245764 C575.987689,775.546986 528.941784,784.723294 490.850404,769.697436 C471.555207,762.350846 454.671909,748.849752 443.554992,731.439718 C430.941035,711.035602 427.253878,685.19778 434.794529,662.298595 C442.030228,639.39941 459.412539,620.63095 480.454285,609.569479 C488.327612,605.77143 496.505892,602.61101 505.016849,600.587232 C505.987153,575.85833 505.100018,550.990813 505.377247,526.206465 C505.626754,501.338948 505.155464,476.471431 505.571308,451.631637 Z M510.866398,647.189569 C496.977183,651.625246 484.169164,661.771859 479.539426,675.993749 C474.687904,689.661181 479.594872,705.407836 489.963268,715.166326 C504.351497,729.194156 526.502162,733.435773 545.575575,728.11296 C566.755935,722.956485 585.496672,701.554341 579.647122,678.87694 C572.245086,650.349989 536.98145,638.290491 510.866398,647.189569 Z" id="path-1"></path>
        <filter x="-8.1%" y="-6.5%" width="116.3%" height="119.8%" filterUnits="objectBoundingBox" id="filter-2">
            <feOffset dx="0" dy="4" in="SourceAlpha" result="shadowOffsetOuter1"></feOffset>
            <feGaussianBlur stdDeviation="2.5" in="shadowOffsetOuter1" result="shadowBlurOuter1"></feGaussianBlur>
            <feColorMatrix values="0 0 0 0 0   0 0 0 0 0   0 0 0 0 0  0 0 0 0.2 0" type="matrix" in="shadowBlurOuter1" result="shadowMatrixOuter1"></feColorMatrix>
            <feMorphology radius="1.5" operator="dilate" in="SourceAlpha" result="shadowSpreadOuter2"></feMorphology>
            <feOffset dx="0" dy="3" in="shadowSpreadOuter2" result="shadowOffsetOuter2"></feOffset>
            <feGaussianBlur stdDeviation="7" in="shadowOffsetOuter2" result="shadowBlurOuter2"></feGaussianBlur>
            <feColorMatrix values="0 0 0 0 0   0 0 0 0 0   0 0 0 0 0  0 0 0 0.12 0" type="matrix" in="shadowBlurOuter2" result="shadowMatrixOuter2"></feColorMatrix>
            <feMorphology radius="0.5" operator="dilate" in="SourceAlpha" result="shadowSpreadOuter3"></feMorphology>
            <feOffset dx="0" dy="8" in="shadowSpreadOuter3" result="shadowOffsetOuter3"></feOffset>
            <feGaussianBlur stdDeviation="5" in="shadowOffsetOuter3" result="shadowBlurOuter3"></feGaussianBlur>
            <feColorMatrix values="0 0 0 0 0   0 0 0 0 0   0 0 0 0 0  0 0 0 0.14 0" type="matrix" in="shadowBlurOuter3" result="shadowMatrixOuter3"></feColorMatrix>
            <feMerge>
                <feMergeNode in="shadowMatrixOuter1"></feMergeNode>
                <feMergeNode in="shadowMatrixOuter2"></feMergeNode>
                <feMergeNode in="shadowMatrixOuter3"></feMergeNode>
            </feMerge>
        </filter>
    </defs>
    <g id="Page-1" stroke="none" stroke-width="1" fill="none" fill-rule="evenodd">
        <g id="wifilocating" transform="translate(-260.000000, -330.000000)" fill-rule="nonzero">
            <g id="Wi-Fi万能钥匙">
                <use fill="black" fill-opacity="1" filter="url(#filter-2)" xlink:href="#path-1"></use>
                <use fill="#FFFFFF" fill-rule="evenodd" xlink:href="#path-1"></use>
            </g>
        </g>
    </g>
</svg>