<?xml version="1.0" encoding="UTF-8"?>
<svg width="440px" height="557px" viewBox="0 0 440 557" version="1.1" xmlns="http://www.w3.org/2000/svg" xmlns:xlink="http://www.w3.org/1999/xlink">
    <!-- Generator: Sketch 51 (57462) - http://www.bohemiancoding.com/sketch -->
    <title>SVG/magisk</title>
    <desc>Created with Sketch.</desc>
    <defs>
        <filter x="-10.4%" y="-4.9%" width="120.8%" height="116.4%" filterUnits="objectBoundingBox" id="filter-1">
            <feOffset dx="0" dy="4" in="SourceAlpha" result="shadowOffsetOuter1"></feOffset>
            <feGaussianBlur stdDeviation="2.5" in="shadowOffsetOuter1" result="shadowBlurOuter1"></feGaussianBlur>
            <feColorMatrix values="0 0 0 0 0   0 0 0 0 0   0 0 0 0 0  0 0 0 0.2 0" type="matrix" in="shadowBlurOuter1" result="shadowMatrixOuter1"></feColorMatrix>
            <feMorphology radius="1.5" operator="dilate" in="SourceAlpha" result="shadowSpreadOuter2"></feMorphology>
            <feOffset dx="0" dy="3" in="shadowSpreadOuter2" result="shadowOffsetOuter2"></feOffset>
            <feGaussianBlur stdDeviation="7" in="shadowOffsetOuter2" result="shadowBlurOuter2"></feGaussianBlur>
            <feColorMatrix values="0 0 0 0 0   0 0 0 0 0   0 0 0 0 0  0 0 0 0.12 0" type="matrix" in="shadowBlurOuter2" result="shadowMatrixOuter2"></feColorMatrix>
            <feMorphology radius="0.5" operator="dilate" in="SourceAlpha" result="shadowSpreadOuter3"></feMorphology>
            <feOffset dx="0" dy="8" in="shadowSpreadOuter3" result="shadowOffsetOuter3"></feOffset>
            <feGaussianBlur stdDeviation="5" in="shadowOffsetOuter3" result="shadowBlurOuter3"></feGaussianBlur>
            <feColorMatrix values="0 0 0 0 0   0 0 0 0 0   0 0 0 0 0  0 0 0 0.14 0" type="matrix" in="shadowBlurOuter3" result="shadowMatrixOuter3"></feColorMatrix>
            <feMerge>
                <feMergeNode in="shadowMatrixOuter1"></feMergeNode>
                <feMergeNode in="shadowMatrixOuter2"></feMergeNode>
                <feMergeNode in="shadowMatrixOuter3"></feMergeNode>
                <feMergeNode in="SourceGraphic"></feMergeNode>
            </feMerge>
        </filter>
    </defs>
    <g id="Page-1" stroke="none" stroke-width="1" fill="none" fill-rule="evenodd">
        <g id="magisk" transform="translate(-320.000000, -265.000000)" fill-rule="nonzero">
            <g id="Group" filter="url(#filter-1)" transform="translate(324.000000, 266.000000)">
                <g id="magisk">
                    <path d="M139.112955,7.99103139 C151.343864,4.41479821 163.624091,-0.813901345 176.644091,0.369955157 C180.318295,0.567264574 183.400682,2.83632287 186.113182,5.13004484 C204.262273,21.5313901 214.988977,46.1950673 213.090227,70.7600897 C210.895568,99.7152466 212.227159,128.769058 210.870909,157.748879 C209.909205,189.589686 212.128523,221.751121 206.654205,253.2713 C204.360909,233.984305 203.547159,214.5 199.922273,195.360987 C194.817841,162.58296 181.8225,131.630045 176.545455,98.8766816 C173.364432,81.8834081 178.271591,63.8789238 171.145114,47.5762332 C165.424205,31.0515695 152.79875,18.3004484 139.112955,7.99103139 Z" id="Shape" fill="#FDB33B"></path>
                    <path d="M244.21,6.16591928 C247.317045,3.40358744 250.843295,0.443946188 255.232614,0.320627803 C268.153977,-0.715246637 280.360227,4.51345291 292.541818,8.06502242 C277.697045,18.7197309 264.701705,32.8520179 259.276705,50.6591928 C254.369545,63.7802691 257.23,77.8878924 255.775114,91.4775785 C253.506477,115.5 245.097727,138.289238 239.130227,161.522422 C230.770795,191.29148 227.071932,222.096413 225.345795,252.876682 C219.896136,232.331839 222.189432,210.94843 220.783864,189.984305 C219.674205,149.659193 220.931818,109.284753 218.391932,69.0089686 C216.961705,45.5538117 227.269205,22.1973094 244.21,6.16591928 Z" id="Shape" fill="#FDB33B"></path>
                    <path d="M83.3340909,32.5807175 C94.9978409,23.9237668 108.091818,16.2286996 122.566705,13.6390135 C129.791818,14.82287 133.170114,22.2959641 136.153864,28.1412556 C146.56,52.8295964 150.530114,79.6883408 152.478182,106.251121 C155.955114,134.515695 170.528636,159.573991 181.427955,185.421525 C142.195341,154.616592 117.338977,110.443946 89.0303409,70.2914798 C83.8765909,62.3251121 77.4405682,55.1973094 73.0019318,46.8116592 C73.1745455,40.5224215 79.01875,36.3789238 83.3340909,32.5807175 Z" id="Shape" fill="#FFFFFF"></path>
                    <path d="M295.500909,27.9932735 C298.879205,20.8654709 304.797386,10.235426 314.340455,14.7242152 C331.601818,20.7914798 349.972841,29.6457399 359.441932,46.1210762 C323.932841,93.1793722 296.857159,147.982063 250.103523,185.446188 C260.830227,159.549327 275.601023,134.540359 278.979318,106.226457 C281.026023,79.6390135 284.798864,52.6569507 295.500909,27.9932735 Z" id="Shape" fill="#FFFFFF"></path>
                    <path d="M137.485455,375.603139 C153.34125,362.383408 166.829773,346.647982 181.871818,332.540359 C179.38125,345.982063 174.523409,358.831839 172.131477,372.273543 C167.421591,395.186099 167.347614,418.961883 171.24375,441.997758 C173.216477,455.686099 176.3975,469.17713 177.630455,482.964126 C166.829773,477.636771 158.347045,469.004484 150.012273,460.544843 C123.553068,433.217489 98.82,403.867713 78.7228409,371.484305 C88.24125,377.748879 98.1542045,384.827354 110.015227,385.295964 C120.100795,386.307175 130.01375,382.213004 137.485455,375.603139 Z" id="Shape" fill="#FFFFFF"></path>
                    <path d="M248.451364,329.852018 C265.342841,345.09417 279.719091,363.221973 298.262727,376.61435 C307.879773,383.470852 320.924432,384.358744 331.749773,379.96861 C339.098182,377.181614 345.558864,372.59417 352.044205,368.253363 C333.007386,398.491031 310.148409,426.188341 285.686591,452.20852 C275.699659,462.419283 265.860682,473.320628 252.963977,479.930493 C255.972386,450.778027 264.627727,421.921525 261.397386,392.349776 C260.361705,370.91704 253.309205,350.569507 248.451364,329.852018 Z" id="Shape" fill="#FFFFFF"></path>
                    <path d="M367.135568,51.9910314 C376.900568,64.6434978 386.788864,77.7892377 391.548068,93.2286996 C394.161932,101.392377 391.449432,110.073991 387.651932,117.374439 C380.278864,130.914798 367.850682,141.076233 354.3375,148.130045 C340.602386,155.455157 325.091818,158.168161 310.690909,163.79148 C293.774773,169.784753 277.869659,178.170404 261.348068,185.100897 C271.828182,177.775785 283.023409,171.43722 292.936364,163.347534 C302.454773,155.627803 309.704545,145.639013 318.113295,136.809417 C341.243523,113.107623 354.756705,82.2286996 367.135568,51.9910314 Z" id="Shape" fill="#FD7049"></path>
                    <path d="M40.1067045,92.8834081 C44.9398864,77.6659193 54.6309091,64.6188341 64.3219318,52.1390135 C76.6514773,81.735426 89.6714773,112.170404 112.259205,135.576233 C120.322727,144.060538 127.375227,153.506726 136.129205,161.300448 C146.584659,170.401345 158.76625,177.159193 170.109432,185.026906 C147.842273,175.432735 126.092955,164.309417 102.6175,157.773543 C82.1751136,152.32287 62.0286364,142.186099 48.8853409,125.09417 C42.1780682,116.042601 36.7530682,104.327354 40.1067045,92.8834081 Z" id="Shape" fill="#FD7049"></path>
                    <path d="M31.8705682,120.383408 C37.6407955,129.85426 42.7698864,140.040359 51.2032955,147.513453 C64.4698864,159.869955 81.9531818,166.011211 98.9432955,171.289238 C118.867841,177.455157 140.814432,178.639013 158.76625,190.132287 C165.596818,194.941704 173.043864,203.475336 169.936818,212.378924 C163.722727,223.35426 151.393182,229.32287 139.5075,232.060538 C121.974886,235.488789 102.642159,234.896861 86.9589773,225.524664 C67.7742045,214.179372 54.5076136,195.040359 46.2714773,174.692825 C38.7751136,157.452915 33.5967045,139.127803 31.8705682,120.383408 Z" id="Shape" fill="#384BA6"></path>
                    <path d="M377.886932,149.585202 C387.479318,141.988789 393.12625,130.964126 399.586932,120.876682 C398.600568,142.482063 391.2275,163.298206 381.955682,182.659193 C370.489205,205.596413 351.526364,227.793722 325.141136,232.775785 C303.934318,235.908072 278.584773,233.441704 263.887955,215.979821 C258.241023,210.060538 261.372727,201.08296 266.329205,195.85426 C276.266818,184.85426 291.481477,181.623318 305.167273,177.874439 C330.319545,171.535874 357.419886,166.726457 377.886932,149.585202 Z" id="Shape" fill="#384BA6"></path>
                    <path d="M29.4539773,159.96861 C37.8873864,181.450673 45.655,203.943946 61.5601136,221.257848 C75.3445455,237.338565 95.9595455,247.919283 117.363636,247.5 C139.729432,247.721973 160.492386,237.881166 179.479886,227.029148 C166.90375,236.795964 153.88375,245.970852 141.159659,255.540359 C128.090341,265.356502 113.689432,274.383408 104.688864,288.441704 C99.0419318,296.506726 96.4773864,306.248879 90.8304545,314.264574 C86.1945455,319.789238 78.7968182,314.955157 73.7417045,312.488789 C50.5375,298.578475 39.5395455,271.843049 33.3747727,246.661435 C27.3579545,218.298206 24.4235227,188.726457 29.4539773,159.96861 Z" id="Shape" fill="#FABDCA"></path>
                    <path d="M402.052841,160.116592 C407.009318,186.284753 404.494091,213.217489 399.9075,239.237668 C394.309886,266.367713 383.879091,295.569507 359.639205,311.452915 C354.460795,314.165919 348.049432,318.926009 342.180568,315.621076 C337.322727,310.663677 335.448636,303.733184 332.292273,297.73991 C327.039886,286.567265 318.902386,276.874439 309.137386,269.376682 C290.396477,255.022422 271.014432,241.506726 252.3475,227.029148 C272.715909,238.793722 295.426932,249.127803 319.518864,247.352018 C342.994318,246.168161 363.855909,231.616592 376.999205,212.724215 C388.761591,197.013453 395.000341,178.219731 402.052841,160.116592 Z" id="Shape" fill="#FABDCA"></path>
                    <path d="M125.180568,315.966368 C142.392614,299.466368 155.067386,276.085202 179.11,268.513453 C192.697159,264.2713 205.889773,271.17713 216.024659,279.735426 C226.085568,271.349776 239.253523,264.394619 252.668068,268.809417 C277.918977,276.874439 290.59375,302.03139 309.285341,318.778027 C324.894545,334.464126 349.109773,336.782511 369.946705,333.773543 C397.268977,326.029148 414.160455,301.390135 431.076591,280.426009 C423.530909,307.358744 405.258523,330.715247 382.942045,347.141256 C362.820227,361.495516 336.878864,367.858744 312.540341,362.778027 C300.975227,360.065022 290.59375,353.726457 281.790455,345.883408 C269.954091,335.623318 261.274091,321.88565 247.859545,313.450673 C240.708409,308.665919 231.658523,308.961883 223.964886,305.558296 C217.35625,301.217489 219.7975,290.710762 213.509432,286.616592 C216.517841,294.262332 211.1175,300.674888 207.196705,306.544843 C197.974205,307.704036 188.357159,309.331839 180.836136,315.226457 C164.388523,327.434978 153.711136,346.352018 135.315455,356.168161 C121.013182,364.751121 103.628523,365.41704 87.5261364,363.197309 C63.6561364,359.473094 42.9671591,344.674888 27.2593182,326.91704 C15.6695455,313.426009 5.70727273,298.060538 0.972727273,280.7713 C18.4067045,302.993274 36.9256818,329.309417 66.7138636,334.636771 C87.4028409,337.349776 110.582386,331.627803 125.180568,315.966368 Z" id="Shape" fill="#313131"></path>
                    <path d="M242.829091,331.430493 C237.379432,369.412556 246.823864,407.789238 240.338523,445.672646 C234.494318,480.695067 224.1375,514.829596 211.438068,547.952915 C197.949545,501.412556 186.902273,453.219731 188.110568,404.484305 C190.379205,380.042601 191.5875,355.452915 189.664091,330.912556 C196.691932,338.85426 204.508864,348.571749 216.024659,349.11435 C227.713068,349.459641 236.491705,340.136771 242.829091,331.430493 Z" id="Shape" fill="#313131"></path>
                </g>
            </g>
        </g>
    </g>
</svg>