<?xml version="1.0" encoding="UTF-8"?>
<svg width="470px" height="570px" viewBox="0 0 470 570" version="1.1" xmlns="http://www.w3.org/2000/svg" xmlns:xlink="http://www.w3.org/1999/xlink">
    <!-- Generator: Sketch 51 (57462) - http://www.bohemiancoding.com/sketch -->
    <title>SVG/tim</title>
    <desc>Created with Sketch.</desc>
    <defs>
        <filter x="-23.9%" y="-12.5%" width="147.8%" height="140.1%" filterUnits="objectBoundingBox" id="filter-1">
            <feOffset dx="0" dy="10" in="SourceAlpha" result="shadowOffsetOuter1"></feOffset>
            <feGaussianBlur stdDeviation="6.5" in="shadowOffsetOuter1" result="shadowBlurOuter1"></feGaussianBlur>
            <feColorMatrix values="0 0 0 0 0   0 0 0 0 0   0 0 0 0 0  0 0 0 0.2 0" type="matrix" in="shadowBlurOuter1" result="shadowMatrixOuter1"></feColorMatrix>
            <feMorphology radius="4" operator="dilate" in="SourceAlpha" result="shadowSpreadOuter2"></feMorphology>
            <feOffset dx="0" dy="8" in="shadowSpreadOuter2" result="shadowOffsetOuter2"></feOffset>
            <feGaussianBlur stdDeviation="17.5" in="shadowOffsetOuter2" result="shadowBlurOuter2"></feGaussianBlur>
            <feColorMatrix values="0 0 0 0 0   0 0 0 0 0   0 0 0 0 0  0 0 0 0.12 0" type="matrix" in="shadowBlurOuter2" result="shadowMatrixOuter2"></feColorMatrix>
            <feMorphology radius="1.5" operator="dilate" in="SourceAlpha" result="shadowSpreadOuter3"></feMorphology>
            <feOffset dx="0" dy="20" in="shadowSpreadOuter3" result="shadowOffsetOuter3"></feOffset>
            <feGaussianBlur stdDeviation="12.5" in="shadowOffsetOuter3" result="shadowBlurOuter3"></feGaussianBlur>
            <feColorMatrix values="0 0 0 0 0   0 0 0 0 0   0 0 0 0 0  0 0 0 0.14 0" type="matrix" in="shadowBlurOuter3" result="shadowMatrixOuter3"></feColorMatrix>
            <feMerge>
                <feMergeNode in="shadowMatrixOuter1"></feMergeNode>
                <feMergeNode in="shadowMatrixOuter2"></feMergeNode>
                <feMergeNode in="shadowMatrixOuter3"></feMergeNode>
                <feMergeNode in="SourceGraphic"></feMergeNode>
            </feMerge>
        </filter>
    </defs>
    <g id="Page-2" stroke="none" stroke-width="1" fill="none" fill-rule="evenodd">
        <g id="tim" transform="translate(-305.000000, -284.000000)" fill="#FFFFFF" fill-rule="nonzero">
            <g id="Group" filter="url(#filter-1)" transform="translate(318.000000, 287.000000)">
                <path d="M33.408427,28.4634703 C52.7198315,10.1050228 79.3640449,0.0844748858 105.958034,0.48630137 C184.710393,0.586757991 263.43764,0.410958904 342.19,0.586757991 C381.315056,0.837899543 418.70736,25.6255708 434.477921,61.3630137 C441.258258,76.0547945 444.04573,92.3287671 443.694157,108.452055 C443.61882,186.305936 443.744382,264.159817 443.61882,342.013699 C443.61882,372.753425 428.802528,402.940639 404.694663,421.952055 C386.437978,436.694064 363.033258,444.705479 339.578315,444.504566 C335.585449,444.52968 328.453539,444.052511 328.805112,449.954338 C328.35309,481.799087 328.754888,513.643836 328.629326,545.488584 L328.453539,545.488584 C285.636966,516.205479 244.327135,484.787671 202.464831,454.19863 C196.714101,450.456621 191.515843,444.203196 184.082584,444.630137 C155.73073,444.378995 127.403989,444.906393 99.0772472,444.40411 C60.1530899,443.073059 23.6397191,417.356164 8.77320225,381.468037 C1.99286517,365.947489 -0.0161235955,348.844749 0.486123596,332.043379 C0.561460674,255.821918 0.435898876,179.625571 0.536348315,103.429224 C0.661910112,75.326484 12.7660674,47.5502283 33.408427,28.4634703 Z M189.531966,80.6506849 C189.431517,115.082192 189.557079,149.513699 189.481742,183.920091 C156.408764,173.246575 123.436236,162.271689 90.3130337,151.748858 C86.6717416,150.267123 82.7291011,153.431507 82.1766292,157.047945 C76.8779213,173.522831 71.2778652,189.922374 66.2805056,206.472603 C64.5728652,210.616438 68.7917416,214.057078 72.4330337,214.73516 C104.727528,225.257991 137.047135,235.705479 169.291404,246.303653 C149.176404,274.381279 128.659607,302.157534 108.594831,330.260274 C105.832472,333.248858 106.811854,338.221461 110.402921,340.054795 C124.465843,350.251142 138.37809,360.673516 152.591685,370.618721 C155.780955,373.33105 160.150506,371.171233 161.933483,367.956621 C182.148933,340.280822 202.188596,312.479452 222.328708,284.753425 C242.267921,312.228311 262.207135,339.703196 282.096124,367.178082 C284.054888,370.568493 288.750899,373.707763 292.241517,370.442922 C306.480225,360.321918 320.618483,350.025114 334.63118,339.60274 C337.920899,337.920091 338.548708,333.19863 336.238371,330.461187 C316.098258,302.257991 295.481011,274.356164 275.315787,246.178082 C307.660506,235.504566 340.105674,225.13242 372.450393,214.458904 C375.890787,213.805936 380.034326,210.315068 378.251348,206.472603 C373.128427,189.621005 367.528371,172.894977 362.028764,156.143836 C361.124719,151.974886 356.278034,150.116438 352.661854,152.100457 C320.040899,162.598174 287.495281,173.296804 254.899438,183.844749 C254.924551,149.488584 254.974775,115.107306 254.874326,80.7511416 C255.225899,77.4863014 252.965787,72.9908676 249.198933,73.4429224 C231.469607,73.216895 213.740281,73.3173516 196.036067,73.3926941 C192.043202,72.8150685 189.054831,76.9840183 189.531966,80.6506849 Z" id="tim"></path>
            </g>
        </g>
    </g>
</svg>