<?xml version="1.0" encoding="UTF-8"?>
<svg width="905px" height="344px" viewBox="0 0 905 344" version="1.1" xmlns="http://www.w3.org/2000/svg" xmlns:xlink="http://www.w3.org/1999/xlink">
    <!-- Generator: Sketch 51 (57462) - http://www.bohemiancoding.com/sketch -->
    <title>SVG/掌上英雄联盟</title>
    <desc>Created with Sketch.</desc>
    <defs>
        <filter x="-4.6%" y="-7.8%" width="109.1%" height="126.9%" filterUnits="objectBoundingBox" id="filter-1">
            <feOffset dx="0" dy="4" in="SourceAlpha" result="shadowOffsetOuter1"></feOffset>
            <feGaussianBlur stdDeviation="2.5" in="shadowOffsetOuter1" result="shadowBlurOuter1"></feGaussianBlur>
            <feColorMatrix values="0 0 0 0 0   0 0 0 0 0   0 0 0 0 0  0 0 0 0.2 0" type="matrix" in="shadowBlurOuter1" result="shadowMatrixOuter1"></feColorMatrix>
            <feMorphology radius="1.5" operator="dilate" in="SourceAlpha" result="shadowSpreadOuter2"></feMorphology>
            <feOffset dx="0" dy="3" in="shadowSpreadOuter2" result="shadowOffsetOuter2"></feOffset>
            <feGaussianBlur stdDeviation="7" in="shadowOffsetOuter2" result="shadowBlurOuter2"></feGaussianBlur>
            <feColorMatrix values="0 0 0 0 0   0 0 0 0 0   0 0 0 0 0  0 0 0 0.12 0" type="matrix" in="shadowBlurOuter2" result="shadowMatrixOuter2"></feColorMatrix>
            <feMorphology radius="0.5" operator="dilate" in="SourceAlpha" result="shadowSpreadOuter3"></feMorphology>
            <feOffset dx="0" dy="8" in="shadowSpreadOuter3" result="shadowOffsetOuter3"></feOffset>
            <feGaussianBlur stdDeviation="5" in="shadowOffsetOuter3" result="shadowBlurOuter3"></feGaussianBlur>
            <feColorMatrix values="0 0 0 0 0   0 0 0 0 0   0 0 0 0 0  0 0 0 0.14 0" type="matrix" in="shadowBlurOuter3" result="shadowMatrixOuter3"></feColorMatrix>
            <feMerge>
                <feMergeNode in="shadowMatrixOuter1"></feMergeNode>
                <feMergeNode in="shadowMatrixOuter2"></feMergeNode>
                <feMergeNode in="shadowMatrixOuter3"></feMergeNode>
                <feMergeNode in="SourceGraphic"></feMergeNode>
            </feMerge>
        </filter>
    </defs>
    <g id="Page-1" stroke="none" stroke-width="1" fill="none" fill-rule="evenodd">
        <g id="qtl" transform="translate(-88.000000, -371.000000)" fill="#FFFFFF" fill-rule="nonzero">
            <g id="Group" filter="url(#filter-1)" transform="translate(92.000000, 372.000000)">
                <g id="掌上英雄联盟">
                    <path d="M427.33,1.43 C447.33,0.7 467.53,0.02 487.36,3.42 C517.66,8.32 546.48,20.27 572.37,36.61 C621.2,37.66 670.1,36.46 718.94,37.21 C735.92,37.59 753.02,35.96 769.99,37.91 C790.06,38.22 810.13,37.76 830.21,38.12 C821.43,44.7 815.48,55.08 813.93,65.95 C812.72,70.85 805.18,66.52 802,67.97 C801.66,61.32 804.98,55.39 806.07,49.05 C727.4,48.89 648.72,49.11 570.04,48.94 C553.31,38.58 535.83,29.02 516.97,23.1 C494.24,15.19 470,12.1 446,12.99 C418.34,11.91 390.82,17.96 365.33,28.4 C357.25,29.56 349.09,27.25 340.92,27.93 L341.14,27.08 C367.68,12.62 397.2,3.89 427.33,1.43 Z M132.33,37.47 C143.91,35.23 155.51,39.1 166.99,37.07 C213.36,36.97 259.73,36.93 306.1,37.08 C301.91,41 296.62,44.24 292.71,48.78 C225.47,49.34 158.2,48.78 90.95,49.05 C91.8,54.78 94.81,60.07 95.06,65.96 C91.09,66.11 87.13,66.09 83.17,65.9 C80.8,55.36 75.96,44.42 66.81,38.09 C88.65,37.55 110.53,38.74 132.33,37.47 Z" id="Shape"></path>
                    <path d="M332.32,39.4 L343.17,39.08 C323.85,49.97 312.39,69.72 300.96,87.98 C308.61,87.89 316.3,88.29 323.95,87.9 C327.77,86.87 330.81,84.18 333.97,81.93 C334.02,88.98 334.08,96.03 333.94,103.09 C329.28,101.77 325.24,98.17 320.01,99.04 C311.65,99.33 302.6,98.1 294.66,99.7 C266.21,149.65 237.95,199.82 210.29,250.23 C209.29,236.82 200.02,226.12 190.1,217.88 C168.95,205.22 145.91,196.14 123.94,185.04 C97.77,197.24 71.83,214.48 42,215.99 C34.88,215.25 27.52,214.2 21.17,210.7 C20.85,200.09 20.94,189.48 21.08,178.88 C27.17,184.96 35.04,190.18 43.99,189.99 C58.35,191.47 71.7,184.72 83.7,177.69 C85.97,176.32 88.43,175.13 90.24,173.14 C69.81,172.76 49.37,173.18 28.94,172.95 C29.92,168.61 32.44,164.63 31.96,160.01 C32.09,148 31.96,135.99 32.03,123.98 C32.53,120.83 29.05,119.08 28.88,116.07 C54.61,115.85 80.34,116.15 106.06,115.94 C106,112.81 102.31,111.54 100.81,109.12 C116.92,108.94 133.04,108.89 149.15,109.09 C147.39,111.61 143.04,112.4 142.91,115.94 C170.92,116.12 198.93,115.89 226.94,116.03 C223.08,122.33 224.04,129.93 223.98,137 C224.38,149.03 222.45,161.49 226.84,173.03 C203.87,173.06 180.89,172.86 157.92,173.07 C169.98,181.53 184.6,188.24 199.34,191.52 C208.21,192.97 219.21,191.8 224.64,183.68 C240.63,155.57 255.76,126.94 272.05,99.02 C261,99.63 248.9,96.63 238.97,102.89 C238.97,95.89 238.93,88.88 239.07,81.89 C241.81,84.26 244.48,86.84 248.06,87.94 C258,88.07 267.95,88.06 277.9,87.95 C288.86,65.89 306.7,43.72 332.32,39.4 Z M60.04,131.03 C59.93,139.66 59.95,148.3 60.04,156.94 C76.01,157.1 91.98,156.99 107.96,156.96 C108.04,148.71 108.14,140.46 107.86,132.22 C106.29,129.51 101.96,132.25 100.01,130.97 C86.68,131.05 73.36,130.92 60.04,131.03 Z M141.06,131.03 C141.61,139.73 139.74,148.29 140,156.96 C158.32,157.04 176.64,157.02 194.96,156.97 C195.07,148.33 195.04,139.7 194.96,131.07 C177,130.88 159.02,131.02 141.06,131.03 Z" id="Shape"></path>
                    <path d="M48.82,77.09 C62.27,76.93 75.73,76.93 89.18,77.09 C86.13,79.11 82.63,81.86 82.94,85.95 C112.62,86.03 142.3,86.04 171.98,85.96 C170.89,82.38 168.4,79.68 165.83,77.09 C179.28,76.94 192.74,76.91 206.2,77.12 C203.18,79.45 199.43,81.81 198.88,85.93 C209.57,86.18 220.27,85.81 230.97,86.05 C230.98,90.67 231.17,95.33 230.93,99.97 C220.3,100.16 209.67,99.82 199.05,100.05 C199.02,102.78 198.97,108.24 198.95,110.97 C189.98,111 181.01,111.11 172.05,110.95 C172.02,108.22 171.97,102.76 171.95,100.03 C141.99,99.98 112.02,99.96 82.06,100.04 C82.03,102.77 81.98,108.24 81.95,110.97 C72.98,111 64.01,111.11 55.05,110.95 C55.02,108.22 54.97,102.76 54.95,100.03 C45.31,99.8 35.66,100.23 26.03,99.93 C26.94,95.61 24.1,89.69 27.22,86.14 C36.49,85.72 45.77,86.24 55.04,85.94 C55.39,81.85 51.85,79.11 48.82,77.09 Z M360.26,78.18 C370.24,77.82 380.24,77.94 390.23,78.15 C382.37,82.37 378.28,90.58 374.03,98 C379.08,105.34 390.05,102.74 397.96,102.94 C398.04,97.61 398.07,92.3 398.03,86.98 C398.46,83.19 394.85,80.82 392.96,78.03 C406.01,78.06 419.07,77.82 432.12,78.09 C424.56,83.98 427.29,94.56 427.06,102.97 C435.34,103.16 444.8,104.8 450.96,97.9 C450.99,105.6 451.11,113.31 450.96,121.01 C444.4,115.3 435,117.2 427.03,117.05 C427.01,123.34 426.81,129.66 427.07,135.97 C435.35,136.17 444.8,137.8 450.96,130.9 C450.98,137.26 451.12,143.64 450.96,150.01 C444.74,144.56 435.78,146.01 428.19,146.12 C425.19,152.07 427.86,160.26 427.04,166.96 C435.18,166.72 444.37,169.16 450.99,162.99 C450.98,168.97 451.13,174.98 450.96,180.98 C443.92,176.27 435.06,178.2 427.04,178.07 C426.93,184.69 426.93,191.32 427.04,197.96 C433.84,196.82 442.8,200.94 448.24,195.25 C448.95,194.44 449.84,193.98 450.93,193.88 C451.07,202.27 451.04,210.68 450.94,219.09 C446.96,216.19 444.02,210.34 438.01,212.03 C419.35,211.99 400.69,211.92 382.04,212.06 C378.78,213.08 376.68,216.1 374.09,218.17 C373.98,210.11 373.89,202.06 374.03,194.02 C380.69,199.96 389.81,197.77 397.97,197.95 C398.06,191.31 398.06,184.67 397.96,178.04 C389.91,178.45 381.11,176 373.97,180.9 C374,174.89 373.85,168.9 374.07,162.91 C380.02,169.74 389.94,166.47 397.96,166.93 C398.04,159.96 398.08,152.99 397.96,146.03 C389.76,145.54 381.45,145.16 374.07,149.13 C373.97,143.39 373.87,137.67 374.04,131.96 C376.24,133.02 378.14,134.57 380.3,135.72 C386.16,136.08 392.07,136.18 397.96,135.94 C397.97,129.63 398.19,123.33 397.93,117.03 C389.82,117.06 381.29,115.5 374.07,120.11 C374.01,113.37 373.98,106.64 373.95,99.92 C370.07,100.65 369.75,106.43 367.31,109.31 C366.53,137.53 367.28,165.78 366.96,194.01 C367.24,198.82 365.23,203.6 362.33,207.34 C352.9,215.68 339.96,218.41 327.85,219.98 C334.74,215.12 342.68,208.45 341.96,199.01 C342,174.35 342.09,149.69 341.93,125.04 L326.8,124.88 C329.63,122.73 332.36,120.41 334.73,117.75 C343.17,104.51 352.16,91.62 360.26,78.18 Z M451.76,79.15 C484.89,78.9 518.04,78.91 551.17,79.12 C545.24,82.52 540.39,87.77 540.05,95.03 C539.94,123.67 539.98,152.31 540.04,180.95 C542.92,180.97 546.03,180.93 548.97,181.07 C548.97,185.67 549.17,190.32 548.93,194.94 C546.02,196.59 536.24,191.53 539.93,200.02 C537.95,213.56 522.11,217.26 510.98,220.03 C515.8,212.97 518.27,204.7 516.97,196.03 C501.97,195.97 486.98,195.96 471.99,196.03 C466.64,194.91 462.77,199.12 459.03,202.04 C458.97,195.05 458.89,188.07 459.04,181.1 L463.95,180.86 C464.05,152.57 464.01,124.28 463.97,95.99 C465.17,87.81 457.03,83.63 451.76,79.15 Z M487.07,95.04 C486.8,101.34 487,107.64 487.04,113.96 C497,114.05 506.96,114.04 516.93,113.96 C517.19,107.66 516.97,101.34 516.96,95.04 C506.99,94.94 497.03,94.95 487.07,95.04 Z M487.04,127.03 C486.9,134 486.94,140.98 487.04,147.96 C497.01,148.05 506.98,148.04 516.96,147.97 C517.08,140.99 517.04,134.01 516.96,127.04 C506.98,126.94 497.01,126.95 487.04,127.03 Z M487.06,163.03 C486.8,169 487,174.97 487.04,180.96 C497,181.05 506.97,181.04 516.94,180.97 C517.19,174.99 516.97,169 516.96,163.04 C506.99,162.94 497.02,162.95 487.06,163.03 Z M672.06,79.03 C703.42,79.02 734.79,78.88 766.15,79.09 C761.09,83.2 756.32,88.94 757.04,95.99 C756.87,114.65 757.12,133.31 756.96,151.97 C728.65,152.02 700.34,152.03 672.04,151.96 C671.99,127.65 671.92,103.34 672.06,79.03 Z M700.07,89.03 C699.8,95.33 700,101.62 700.04,107.93 C709.66,108.18 719.29,107.96 728.93,107.97 C729.19,101.67 728.96,95.35 728.96,89.07 C719.33,88.82 709.69,89.03 700.07,89.03 Z M700.05,124.03 C699.82,129.66 699.97,135.29 700.03,140.93 C709.66,141.18 719.3,140.95 728.95,140.97 C729.15,135.33 728.99,129.69 728.97,124.07 C719.33,123.82 709.68,124.03 700.05,124.03 Z M777.31,79.33 C809.91,78.63 842.56,79.07 875.18,79.1 C867.92,82.19 864.05,90.36 864.04,97.99 C863.82,115.98 864.19,133.98 863.93,151.97 C850.89,151.92 837.85,152.22 824.82,151.88 C828.98,149.16 834.15,146.39 835.12,141.07 C820.09,140.93 805.07,140.97 790.06,141.04 C790.03,143.77 789.98,149.24 789.95,151.97 C781.63,152.05 773.33,152.05 765.04,151.96 C764.97,133.63 764.95,115.31 765.04,96.99 C764.29,89.03 770.32,82.16 777.31,79.33 Z M790.02,94.04 L790.02,103.95 C805.66,104.07 821.32,104.01 836.98,103.96 L836.98,94.05 C821.32,93.93 805.67,93.98 790.02,94.04 Z M790.03,117.03 C790.02,119.76 790.02,125.22 790.02,127.95 C805.66,128.07 821.32,128 836.97,127.97 C836.98,125.24 836.98,119.78 836.98,117.05 C821.33,116.92 805.67,116.99 790.03,117.03 Z M559.74,80.16 C570.4,80 581.1,79.72 591.76,80.18 C596.07,87.74 601.46,94.57 606.19,101.86 C606.55,101.81 607.25,101.71 607.6,101.66 C612.7,94.98 617.41,88.02 622.43,81.29 C632.98,80.72 643.57,80.98 654.15,81.08 C653.15,82.79 650.86,83.19 649.87,84.89 C645.01,92.99 640.05,101.02 634.96,108.98 C644.93,107.88 656.6,112.31 664.99,104.99 C665.01,112.01 665.08,119.05 664.94,126.09 C660.98,124.97 657.4,122.27 653.01,123.04 C642.01,123 631.02,122.86 620.04,123.06 C619.95,131.69 619.92,140.33 620.04,148.97 C632.02,149.03 644.02,149.03 656.02,149 C659.51,148.55 662.24,145.98 664.96,143.9 C664.97,151.61 665.13,159.33 664.95,167.04 C661.33,165.47 658.56,161.57 654.01,163.03 C641.99,162.96 629.97,162.94 617.96,163.04 C619.66,173.58 629.84,180.59 638.69,185.34 C647.43,189.83 657.13,191.96 667,191.06 C667.48,199.42 665.84,207.66 665.91,216.01 C649.21,216.6 632.69,210.69 619.63,200.41 C614.44,197.18 611.11,191.45 606.16,188.15 C592.85,205.12 571.64,212.72 551.05,215.99 C551.04,206.35 550.8,196.72 551.08,187.1 C563.23,187.01 576.96,184.99 585.84,175.84 C588.78,172.13 591.83,167.96 592.07,163.05 C581.7,162.92 571.34,163 560.98,162.98 C557.52,162.79 554.86,165.47 552.01,167.01 C552.01,159.32 551.87,151.63 552.05,143.95 C554.54,145.88 557,147.9 560.05,148.95 C570.35,149.07 580.66,149.04 590.97,148.96 C591.03,140.31 591.06,131.67 590.96,123.03 C580.96,122.96 570.97,122.93 560.98,123.03 C557.81,123.35 555.1,125.28 552.07,126.13 C551.93,119.08 551.94,112.04 552.02,105.01 C560.13,111.92 571.32,108.12 581.03,108.96 C575.64,101.22 571.24,92.85 565.94,85.05 C565.01,81.94 561.83,81.85 559.74,80.16 Z M4.11,105.08 C9,109.52 14.85,112.6 20.83,115.31 C21.06,119.22 21.1,123.13 20.96,127.05 C18.18,127.01 15.73,125.5 13.06,124.92 C12.73,149.01 14.88,173.03 13.94,197.15 C6.99,185.06 4.61,170.44 2.58,156.66 C0.61,142.07 0.24,127.24 2.4,112.65 C3.52,110.33 2.1,107.06 4.11,105.08 Z M892.3,105.38 C894.68,104.92 893.73,109.85 894.23,111.93 C898.37,140.03 895.4,169.73 883.9,195.8 C880.8,195.21 877.52,194.94 875.07,192.82 C874.56,190.33 874.73,187.95 875.58,185.67 C882.61,166.29 884.96,145.46 883.95,124.94 C880.88,125.69 877.96,126.91 874.98,127.91 C875.04,123.69 874.65,119.47 875.17,115.28 C881.61,113.41 887.4,109.95 892.3,105.38 Z" id="Shape"></path>
                    <path d="M298.31,107.18 C309.25,106.89 320.22,106.87 331.18,107.1 C328.75,109 325.23,109.8 324.04,113.03 C308.21,143.77 291.59,174.16 275.85,204.92 C282.55,205.07 289.26,205.08 295.97,204.95 C297.35,204.45 299.04,203.99 299.4,202.35 C301.82,192.49 296.95,180.96 302.99,172 C309.72,159.31 315.21,145.94 322.84,133.75 C323.2,155.84 322.9,177.93 323.02,200.02 C322.59,208.98 313.64,215.46 305.01,214.96 C283.67,215.02 262.33,215.05 241,214.96 C260.01,178.98 279.62,143.32 298.31,107.18 Z M672.06,158.03 C736.03,157.99 800,157.95 863.97,158.05 C864.21,170.68 863.72,183.32 864.09,195.95 C867.98,206.75 881.72,206.16 891.09,206.08 C883.54,214.56 870.84,215.96 860.01,216.02 C797.35,215.93 734.69,216.1 672.03,215.94 C672,196.64 671.9,177.33 672.06,158.03 Z M703.05,175.03 C702.88,183.96 702.96,192.91 703.06,201.85 C710.77,203.91 718.34,201.32 725.94,203.05 C726.14,193.72 725.97,184.38 725.97,175.06 C718.32,174.81 710.67,175.01 703.05,175.03 Z M753.05,175.03 C752.88,183.98 752.95,192.94 753.07,201.91 C758.41,204.06 763.59,201.05 768.99,202.62 C772.59,201.52 776.28,202.37 779.94,202.92 C780.15,193.63 779.97,184.33 779.97,175.05 C770.99,174.88 762.01,174.98 753.05,175.03 Z M803.05,175.03 C802.88,183.95 802.95,192.87 803.07,201.8 C810.38,203.77 817.9,200.53 825.28,202.69 C828.05,202.76 832,204.53 833.85,201.79 C834.28,192.89 833.91,183.94 833.97,175.04 C823.65,174.93 813.35,174.96 803.05,175.03 Z M28.93,226.05 C33.87,226.49 38.82,226.88 43.77,227.21 C73.72,266.44 122.55,290.57 172,290.02 C243.67,289.96 315.33,290.04 387,289.98 C405.94,289.32 425.52,293.7 441.03,304.97 C444.12,306.61 445.79,310.28 448.83,311.86 C463.29,295.46 485.97,290.32 506.99,289.98 C582,290.02 657,289.99 732.01,290 C775.85,288.26 818.85,267.73 847.25,234.25 C849.77,232.19 851.18,228.85 854.18,227.4 C858.49,227.98 862.82,227.85 867.12,227.07 C836.2,274.05 779.28,302.82 723,301.01 C709,301.33 694.92,300.15 681,301.84 C677,301.52 673.01,300.65 669.01,300.98 C632.33,301.01 595.66,301 558.99,300.99 C554.25,300.44 549.73,302.6 545.01,301.12 C527.99,300.9 510.95,300.61 493.98,302.02 C474.7,304.23 453.83,315.01 448.66,335.12 C444.42,321.44 433.23,310.9 419.87,306.16 C409.46,301.46 398,302.68 387.01,301.07 C327.01,300.89 267,301.07 206.99,300.98 C203.4,299.66 200.16,302.37 196.67,301.58 C177.75,299.59 158.31,303.24 139.66,298.44 C95.16,290.24 53.9,263.91 28.93,226.05 Z" id="Shape"></path>
                    <path d="M642.32,229.38 C648.45,228.98 654.95,228.15 660.89,230.24 C660.87,233.09 661.13,236.12 660.97,239.02 C655.54,234.58 646.23,232.8 640.94,237.99 C639,240.31 640.57,243.78 642.96,245.06 C649.75,249.83 658.99,250.8 664.23,257.74 C668.09,263.11 664.3,270.16 659.83,273.84 C652.06,279.46 641.86,278.33 633.16,275.79 C632.27,272.53 631.54,269.26 630.96,265.96 C634.66,267.67 637.61,270.89 641.98,271.05 C647.61,273.51 656.06,271.37 658,265 C653.77,253.68 637.11,256.42 632.87,245.09 C629.56,238.1 635.58,230.83 642.32,229.38 Z M230.94,234.01 C233.7,234.01 239.21,234.02 241.97,234.03 C242.17,246.67 241.79,259.32 242.06,271.97 C248.04,272.11 254.04,271.85 260.03,272.05 C259.14,274.32 257.56,276.2 255.75,277.81 C247.48,278.18 239.21,277.99 230.94,277.98 C232.71,275.3 235.33,272.7 233.97,269.01 C234.03,259.01 234.08,249.02 233.95,239.04 C233.42,237.12 231.97,235.65 230.94,234.01 Z M512.32,235.4 C516.55,234.31 520.77,235.54 524.94,236.12 C524.95,237.83 524.99,241.24 525,242.95 C519.58,239.9 512.57,238.58 507.05,242.05 C500.08,245.15 498.8,255.12 503.15,260.83 C505.61,265.27 511.1,267.31 516,267 C521.14,268.14 523.14,266.15 522,261 C523.95,257 520.57,255.5 518.84,253.07 C521.37,253.06 526.43,253.03 528.96,253.02 C528.96,258.61 529.24,264.24 528.89,269.85 C518.98,272.69 507.06,273.35 498.7,266.31 C495.49,263.18 492.92,258.64 493.95,254 C492.83,243.74 502.69,235.73 512.32,235.4 Z M340.34,236.47 C344.88,235.33 349.45,236.58 353.96,237.18 C353.96,238.65 353.97,241.58 353.98,243.04 C350.4,243.37 347.85,239.53 344,241 C337.1,240.39 328.63,246.34 330,254 C328.95,264.48 342.19,270.85 350.92,266.75 C351.1,262.16 351.94,257.07 347.84,254.08 C350.81,253.96 353.96,253.9 356.97,254.06 C356.97,259.64 357.21,265.25 356.91,270.84 C347.47,272.71 336.67,273.82 328.62,267.44 C321.83,262.02 320.84,250.96 326,244 C329.27,239.36 334.96,237.39 340.34,236.47 Z M442.84,236.08 C445.79,235.96 448.96,235.9 451.97,236.06 C452.12,246.02 451.87,255.99 452.04,265.96 C456.68,266.06 461.36,265.9 466.02,266.05 C464.95,267.67 463.91,269.31 462.77,270.89 C456.48,271.19 450.27,269.66 443.98,269.93 C445.38,267.93 447.44,265.98 445.96,263 C446.02,255.66 446.11,248.32 445.99,240.99 C446.22,238.75 443.88,237.72 442.84,236.08 Z" id="Shape"></path>
                    <path d="M467.89,236.06 C475.9,236.02 483.95,235.81 491.98,236.07 C492.06,238.74 492.04,241.42 491.93,244.11 C490.78,243.23 489.76,242.2 488.67,241.27 C485.18,242.01 479.73,238.87 477.12,242.23 C478.08,244.02 475.55,248.38 478.21,249.82 C480.81,249.62 483.33,249.09 485.98,248.97 C489.99,258.24 479.9,251.39 477.11,255.22 C477.42,259.37 474.5,269.12 482.99,265.97 C488.08,266.01 494.4,264.39 497.14,269.84 C487.44,271.57 477.66,269.24 467.89,269.93 C468.76,268.78 469.78,267.76 470.72,266.67 C471.24,258.45 470.99,250.2 471,241.98 C471.4,239.33 467.71,238.67 467.89,236.06 Z M531.89,236.06 C539.9,236.02 547.95,235.81 555.98,236.07 L555.98,243.03 C552.35,239.62 546.71,241.15 542.21,241.14 C538.87,243.6 540.56,253.63 546.65,249.41 C549.19,249.27 553.37,247.15 549.99,253.89 C547.5,255.3 543.11,252.45 541.11,255.22 C541.42,259.37 538.5,269.11 546.99,265.98 C549.78,266.01 555.35,266.06 558.13,266.08 C556.26,268.57 553.53,271.58 550.08,270.81 C544.07,269.64 537.95,270.12 531.89,269.92 C532.76,268.77 533.78,267.76 534.72,266.67 C535.24,258.45 534.99,250.2 535,241.98 C535.4,239.33 531.71,238.67 531.89,236.06 Z M560.01,235.96 C563.47,235.84 568.13,235.09 570.29,238.72 C575.83,244.2 581.12,249.96 586.9,255.19 C587.13,248.79 586.8,242.41 587.07,236.03 C589.99,235.92 593.13,235.93 596.11,236.07 C595.23,237.21 594.2,238.23 593.27,239.33 C592.61,249.58 593.25,259.87 592.91,270.14 C584.06,262.9 577.69,253.28 569.09,245.82 C568.69,253.79 569.42,261.82 568.84,269.79 C566.6,272.65 562.13,270.47 558.98,270.97 C560.7,268.28 563.31,265.7 561.97,262.01 C560.83,253.48 564.63,243.76 560.01,235.96 Z M597.89,236.06 C607.73,235.84 619.29,234.63 627.24,241.75 C633.42,249.03 632.22,261.86 624.01,267.01 C616.36,272.31 606.51,269.22 597.89,269.93 C598.76,268.78 599.78,267.76 600.72,266.67 C601.24,258.45 600.99,250.2 601,241.98 C601.4,239.32 597.71,238.67 597.89,236.06 Z M607.04,241.01 C606.93,249.34 606.93,257.67 607.04,266.01 C614.57,266.84 626.24,262.54 624.02,253.01 C625.58,243.8 614.54,239.3 607.04,241.01 Z M261.84,237.08 C270.22,236.94 278.6,236.93 286.99,237.04 L286.95,244.09 C282.46,241.53 277.16,241.77 272.02,242.03 C271.9,244.65 271.91,247.28 272.05,249.92 C274.64,249.83 277.22,249.92 279.8,250.17 C281.54,251.14 280.91,253.3 281,254.94 C277.96,254.95 275.04,254.94 272.03,255.07 C271.9,259.03 271.91,262.99 272.04,266.97 C277.68,267.08 283.32,266.89 288.97,267.03 C288.25,268.64 287.47,270.23 286.7,271.82 C278.42,272.16 270.14,272.01 261.86,271.93 C264.13,269.13 267.49,266.33 265.74,262.08 C263.71,254.03 268.96,243.28 261.84,237.08 Z M300.87,237.04 C303.81,238.51 310.91,234.24 311.7,239.29 C315.91,249.1 319.71,259.08 324.24,268.75 C325.37,269.72 327.19,270.13 327.12,271.96 C324.08,271.79 321.17,272.27 318.18,271.86 C316.23,267.67 314.73,263.31 312.72,259.16 C308.54,259.04 304.36,258.67 300.22,259.14 C298.4,263.38 297.39,268.05 294.82,271.91 C287.73,275.31 290.17,271.27 290.84,268.91 C294.63,259.32 298.88,249.89 302.64,240.29 C301.85,239.31 301.01,238.33 300.87,237.04 Z M306.27,245.1 C305.25,248.07 302.88,250.67 302.96,253.94 C305.62,254.07 308.28,254.09 310.96,254.03 C309.13,251.25 309.15,246.9 306.27,245.1 Z M357.84,237.07 C360.37,237.06 365.43,237.03 367.97,237.02 C368.28,245.92 367.56,254.88 368.2,263.77 C370.44,266.28 373.76,269.25 377.34,267.47 C379.67,267.11 381.29,265.39 382.81,263.74 C383.29,254.84 382.78,245.92 383.05,237.03 C386,236.93 389.11,236.9 392.09,237.07 C387.76,245.82 390.96,256.48 389.97,266.02 C389.44,268.4 391.76,269.79 392.15,271.94 C390.07,270.18 383.29,274.4 382.67,270.12 C375.94,272.73 366.75,274.04 362.26,266.79 C360.34,258.67 361.19,250.24 361,241.99 C361.22,239.75 358.87,238.72 357.84,237.07 Z M394.84,237.08 C403.23,236.94 411.62,236.92 420.02,237.05 C420.87,239.76 420.49,242.05 418.88,243.92 C415.12,240.64 409.58,242.32 405.02,242.03 C404.9,244.66 404.91,247.29 405.05,249.93 C407.69,249.91 410.34,249.95 412.99,250.07 C416.55,257.9 408.7,254.28 405.03,255.08 C404.9,259.03 404.9,262.99 405.04,266.96 C410.38,266.97 415.72,267 421.07,267.05 C421.17,269.24 419.03,270.36 417.73,271.79 C410.15,272.12 402.56,272.09 394.98,271.96 C396.71,269.27 399.32,266.69 397.97,263.01 C398.04,255.99 398.08,248.98 398,241.99 C398.22,239.75 395.88,238.72 394.84,237.08 Z M427.28,251.29 C430.47,250.64 434.86,255.12 431.3,258.31 C429.12,261.7 423.5,259.71 423.02,256 C423.64,253.84 425.02,251.91 427.28,251.29 Z M426.16,253.08 C424.13,256.07 426.52,259.27 430,258 C430.64,255.34 429.48,251.93 426.16,253.08 Z M434.14,252.03 L438.95,252.03 C439.94,254.82 437.5,253.21 436.01,252.97 C435.64,254.61 436.31,255.29 438.02,255.02 C440.69,255.43 437.14,256.39 436.16,256.19 C436.12,258.44 436.24,260.94 433.23,260.02 C433.53,257.34 433.78,254.67 434.14,252.03 Z" id="Shape"></path>
                </g>
            </g>
        </g>
    </g>
</svg>