<?xml version="1.0" encoding="UTF-8"?>
<svg width="560px" height="282px" viewBox="0 0 560 282" version="1.1" xmlns="http://www.w3.org/2000/svg" xmlns:xlink="http://www.w3.org/1999/xlink">
    <!-- Generator: Sketch 51 (57462) - http://www.bohemiancoding.com/sketch -->
    <title>SVG/美团</title>
    <desc>Created with Sketch.</desc>
    <defs>
        <filter x="-7.6%" y="-9.9%" width="115.3%" height="130.9%" filterUnits="objectBoundingBox" id="filter-1">
            <feOffset dx="0" dy="4" in="SourceAlpha" result="shadowOffsetOuter1"></feOffset>
            <feGaussianBlur stdDeviation="2.5" in="shadowOffsetOuter1" result="shadowBlurOuter1"></feGaussianBlur>
            <feColorMatrix values="0 0 0 0 0   0 0 0 0 0   0 0 0 0 0  0 0 0 0.2 0" type="matrix" in="shadowBlurOuter1" result="shadowMatrixOuter1"></feColorMatrix>
            <feMorphology radius="1.5" operator="dilate" in="SourceAlpha" result="shadowSpreadOuter2"></feMorphology>
            <feOffset dx="0" dy="3" in="shadowSpreadOuter2" result="shadowOffsetOuter2"></feOffset>
            <feGaussianBlur stdDeviation="7" in="shadowOffsetOuter2" result="shadowBlurOuter2"></feGaussianBlur>
            <feColorMatrix values="0 0 0 0 0   0 0 0 0 0   0 0 0 0 0  0 0 0 0.12 0" type="matrix" in="shadowBlurOuter2" result="shadowMatrixOuter2"></feColorMatrix>
            <feMorphology radius="0.5" operator="dilate" in="SourceAlpha" result="shadowSpreadOuter3"></feMorphology>
            <feOffset dx="0" dy="8" in="shadowSpreadOuter3" result="shadowOffsetOuter3"></feOffset>
            <feGaussianBlur stdDeviation="5" in="shadowOffsetOuter3" result="shadowBlurOuter3"></feGaussianBlur>
            <feColorMatrix values="0 0 0 0 0   0 0 0 0 0   0 0 0 0 0  0 0 0 0.14 0" type="matrix" in="shadowBlurOuter3" result="shadowMatrixOuter3"></feColorMatrix>
            <feMerge>
                <feMergeNode in="shadowMatrixOuter1"></feMergeNode>
                <feMergeNode in="shadowMatrixOuter2"></feMergeNode>
                <feMergeNode in="shadowMatrixOuter3"></feMergeNode>
                <feMergeNode in="SourceGraphic"></feMergeNode>
            </feMerge>
        </filter>
    </defs>
    <g id="Page-2" stroke="none" stroke-width="1" fill="none" fill-rule="evenodd">
        <g id="meituan" transform="translate(-260.000000, -404.000000)" fill="#FFFFFF" fill-rule="nonzero">
            <g id="Group" filter="url(#filter-1)" transform="translate(265.000000, 405.000000)">
                <path d="M52.4447256,0.913838883 C52.4447256,1.36231526 52.5450995,1.72962587 52.6660984,1.72962587 C52.7884722,1.72962587 53.0923441,2.15746695 53.3412167,2.68023091 C53.5914642,3.20437056 53.918711,3.63221164 54.0713343,3.63221191 C54.222583,3.63221191 54.3477065,3.88533977 54.3477065,4.19624672 C54.3477065,4.50577798 54.50033,4.929492 54.6873281,5.13722196 C55.4930701,6.03692634 55.7061929,6.34508192 55.7061929,6.61196664 C55.7061929,6.76742025 55.8285667,6.89535987 55.9770651,6.89535987 C56.1269388,6.89535987 56.2493123,7.14298499 56.2493126,7.44701351 C56.2493126,7.75104203 56.411561,8.06194898 56.6109338,8.13761225 C56.808932,8.21465121 57.1375535,8.70027138 57.3410515,9.2175326 C57.5431746,9.73479381 57.7961721,10.1571321 57.9006709,10.1571321 C58.0065447,10.1571321 58.1687931,10.463912 58.2636674,10.8367254 C58.3571664,11.2109145 58.5537896,11.5163187 58.700913,11.5163187 C58.8466614,11.5163187 58.9662853,11.7006617 58.9662853,11.9248999 C58.9662853,12.1491381 59.0886591,12.3321056 59.2385327,12.3321056 C59.3884063,12.3321056 59.5107799,12.564598 59.5107799,12.8466155 C59.5107799,13.1300087 59.693653,13.4326616 59.9177759,13.5179546 C60.1418986,13.6046234 60.326147,13.9237845 60.3261467,14.2264373 C60.3261467,14.5304658 60.4471456,14.7794666 60.5970189,14.7794666 C60.7468926,14.7794666 60.8692661,14.962434 60.8692664,15.1866724 C60.8692664,15.4109106 61.0521395,15.5952539 61.2762622,15.5952536 C61.5306346,15.5952536 61.6846332,15.8511328 61.6846332,16.2748469 C61.6846332,16.6490359 61.807007,16.9544401 61.9555054,16.9544401 C62.105379,16.9544401 62.2277526,17.1195235 62.2277528,17.3231264 C62.2277528,17.5253536 62.5329997,18.0206036 62.9069958,18.4236821 C63.2809921,18.8267605 63.586239,19.2642317 63.586239,19.393547 C63.586239,19.7649847 64.5157298,21.3002601 64.7412275,21.3030114 C64.8539765,21.3030114 64.9447255,21.4873545 64.9447255,21.7115926 C64.9447255,21.9372065 65.0670993,22.1201741 65.2169727,22.1201741 C65.3668463,22.1201741 65.4878449,22.2935116 65.4878452,22.5053687 C65.4878452,22.9909888 66.3705864,24.563408 66.6428336,24.5647837 C66.7555826,24.5661594 66.8477066,24.7505024 66.8477066,24.9747409 C66.8477066,25.1989791 66.9700804,25.3819467 67.1185788,25.3819464 C67.2684525,25.3819464 67.390826,25.6309472 67.390826,25.9349757 C67.390826,26.2390042 67.5530744,26.5499112 67.7524475,26.6255745 C67.9504456,26.7026134 68.2790672,27.1882336 68.4825652,27.7054948 C68.6846883,28.2213803 69.0119348,28.6450944 69.207183,28.6450944 C69.4065561,28.6450944 69.5646793,28.9449958 69.5646793,29.3246876 C69.5646793,29.6988767 69.6870531,30.0042809 69.8369268,30.0042809 C69.9854251,30.0042809 70.107799,30.1886239 70.107799,30.4128623 C70.107799,30.6371005 70.2301728,30.8200681 70.3800461,30.8200679 C70.5285445,30.8200679 70.6509183,30.9425047 70.6509186,31.0924556 C70.6509186,31.2712959 59.7362778,31.3634674 38.4501154,31.3634674 L6.24931246,31.3634674 L6.24931246,45.3363994 C6.24931246,57.8263324 6.29606197,59.3258397 6.67968314,59.4744147 C6.9161809,59.5652105 31.800682,59.6394981 61.9775053,59.6394981 L116.846331,59.6394981 L116.846331,75.6800993 L68.9184358,75.6800993 C28.8953361,75.6800993 20.9396657,75.7406298 20.6839182,76.0487856 C20.4666704,76.3101676 20.3745464,80.3450803 20.3649213,89.9818222 L20.3511715,103.547549 L68.5980641,103.616333 L116.846331,103.685118 L116.846331,120.266367 L59.3059069,120.335152 L1.76685724,120.403937 L1.69535814,134.473168 L1.62523374,148.542398 L264.671103,148.542398 L264.671103,120.267743 L149.726378,120.267743 L149.726378,103.685118 L198.02827,103.616333 L246.328787,103.547549 L246.398911,90.1138889 C246.463536,77.9032221 246.429161,76.6348314 246.01804,76.1794766 C245.582169,75.6979835 243.824937,75.6800993 197.646024,75.6800993 L149.726378,75.6800993 L149.726378,59.6394981 L260.027775,59.6394981 L260.185898,58.7549262 C260.272522,58.2693061 260.308272,51.9383587 260.265647,44.6856956 L260.187273,31.4996611 L228.326092,31.4308765 C200.257122,31.3703461 196.46491,31.3125667 196.46491,30.9548859 C196.46491,30.7306477 196.587284,30.5476801 196.737158,30.5476804 C196.887031,30.5476804 197.009405,30.4183651 197.009405,30.2587844 C197.009405,30.0992038 197.314652,29.56681 197.688648,29.0770625 C198.061269,28.5873153 198.367891,27.983385 198.367891,27.7357602 C198.367891,27.4881351 198.490265,27.2859079 198.638764,27.2859081 C198.788637,27.2859081 198.911011,27.1318302 198.911011,26.9433601 C198.911011,26.75489 199.216258,26.2706453 199.590254,25.8675666 C199.964251,25.4644881 200.269497,24.8839448 200.269497,24.5785406 C200.269497,24.2731364 200.394621,24.0227599 200.54587,24.0227599 C200.697118,24.0227599 201.02574,23.5949188 201.275987,23.0721548 C201.52486,22.5480152 201.828732,22.1201741 201.951106,22.1201741 C202.072104,22.1201741 202.172478,21.8147699 202.172478,21.4405809 C202.172478,21.0608891 202.329227,20.7609876 202.5286,20.7609876 C202.725223,20.7609876 203.051094,20.3372736 203.254592,19.8200124 C203.456715,19.3027512 203.785337,18.817131 203.98471,18.7414677 C204.182708,18.6658044 204.346331,18.3535218 204.346332,18.050869 C204.346332,17.7468404 204.468705,17.4978396 204.617204,17.4978396 C204.767077,17.4978396 204.889451,17.3148723 204.889451,17.0906339 C204.889451,16.8663957 205.011825,16.6820524 205.160323,16.6820527 C205.310197,16.6820527 205.432571,16.5142179 205.432571,16.3078636 C205.432571,16.1015093 205.616819,15.7809726 205.840942,15.5952536 C206.081113,15.3755507 206.226967,15.0713663 206.247937,14.7464499 C206.247937,14.465808 206.370311,14.2360671 206.520185,14.2360674 C206.668683,14.2360674 206.791057,14.0517243 206.791057,13.8274859 C206.791057,13.6032477 206.905181,13.4202801 207.04268,13.4202801 C207.297052,13.4202801 208.149544,11.9125187 208.149544,11.4626666 C208.149544,11.3278486 208.456165,10.9357756 208.828787,10.5891003 C209.202783,10.2424252 209.509405,9.75955643 209.509405,9.51468269 C209.509405,9.26980894 209.629029,9.07033337 209.774777,9.07033337 C209.921901,9.07033337 210.118524,8.76355348 210.212023,8.39074012 C210.305522,8.01655107 210.49252,7.71114686 210.624519,7.71114686 C210.757892,7.71114686 210.867891,7.52680384 210.867891,7.30256539 C210.867891,7.0783272 210.990265,6.8953596 211.138764,6.89535987 C211.288637,6.89535987 211.411011,6.65598887 211.411011,6.36434153 C211.411011,6.07269418 211.563634,5.73702461 211.750632,5.61733938 C211.937631,5.49765388 212.274502,5.032669 212.498625,4.58419263 C212.722748,4.13571626 213.058245,3.6060736 213.245243,3.40934914 C213.432241,3.21124899 213.584864,2.87557969 213.584864,2.66097131 C213.584864,2.44773861 213.676988,2.27164971 213.788362,2.27027402 C214.03311,2.26889834 214.671103,0.952358363 214.671103,0.451605382 C214.671103,-0.390319913 185.656143,0.05265398 185.374271,0.898706334 C185.322022,1.05691131 184.983775,1.18622662 184.622154,1.18622635 C184.260532,1.18622635 183.96491,1.30728754 183.96491,1.4572384 C183.96491,1.60718927 183.717413,1.72962587 183.413541,1.72962587 C183.109669,1.72962587 182.790672,1.91259321 182.705423,2.13683166 C182.618799,2.36106985 182.325927,2.54541313 182.053679,2.54541286 C181.52156,2.54541286 177.44335,6.36984427 177.443351,6.86784588 C177.443351,7.0315536 177.327852,7.16637165 177.184853,7.16637165 C177.041855,7.16637165 176.710483,7.62585378 176.446485,8.18576154 C175.980365,9.17901312 175.768617,9.49955014 175.065999,10.2836961 C174.879001,10.491426 174.726378,10.91514 174.726378,11.226047 C174.726378,11.5355783 174.623254,11.7887061 174.49813,11.7887061 C174.371631,11.7887061 174.03751,12.2165472 173.757012,12.7406871 C173.47514,13.2634511 173.149268,13.6912922 173.03377,13.6912922 C172.918271,13.6912922 172.824772,13.9980721 172.824772,14.3708854 C172.824772,14.7945994 172.670773,15.0518544 172.416401,15.0518544 C172.191936,15.0526093 172.010159,15.2344799 172.009405,15.4590599 C172.009405,15.6832981 171.887031,15.8662657 171.737158,15.8662657 C171.587284,15.8662657 171.466285,16.1111394 171.466285,16.4110406 C171.466285,16.7095664 171.352161,16.9544401 171.211913,16.9544401 C171.073039,16.9544401 170.875041,17.2199492 170.771917,17.5446132 C170.668794,17.870653 170.353922,18.3824115 170.073424,18.6836886 C169.792927,18.9849658 169.563304,19.4403208 169.563304,19.6948241 C169.555729,19.9619716 169.398261,20.2020206 169.156309,20.3152626 C168.932186,20.4019314 168.747937,20.7197168 168.747937,21.0237453 C168.747937,21.3277738 168.625564,21.5767746 168.477065,21.5767746 C168.327192,21.5767746 168.204818,21.7074656 168.204818,21.8670463 C168.204818,22.0280026 168.052194,22.3292798 167.865196,22.5383854 C167.02233,23.4779849 166.846332,23.7544995 166.846332,24.1341913 C166.846332,24.3570538 166.541085,24.8688122 166.167088,25.271891 C165.793092,25.6763451 165.487845,26.1715953 165.487845,26.3738223 C165.487845,26.5760495 165.394346,26.7425086 165.280222,26.7425086 C165.072599,26.7425086 164.581729,27.5472901 164.244858,28.4414917 C164.145859,28.7028737 163.957485,28.9174821 163.825487,28.9174821 C163.693488,28.9174821 163.584864,29.1609802 163.584864,29.4608814 C163.584864,29.7594071 163.483115,30.0042809 163.356616,30.0042809 C163.231493,30.0042809 162.989495,30.3096851 162.818997,30.6838741 L162.509625,31.3634674 L133.428666,31.3634674 C108.908536,31.3634674 104.346332,31.3056883 104.346332,30.9892783 C104.346332,30.7829241 104.174458,30.4720171 103.964085,30.2973039 C103.753712,30.1225907 103.381091,29.5571802 103.136344,29.039919 C102.891596,28.5240334 102.573974,28.1016951 102.432351,28.1016951 C102.289352,28.1016951 102.172478,27.8568214 102.172478,27.5569199 C102.172478,27.2583941 102.050104,27.0135204 101.901606,27.0135204 C101.751732,27.0135204 101.629359,26.830553 101.629359,26.6063149 C101.629359,26.3820767 101.520735,26.1977334 101.387361,26.1977334 C101.253988,26.1977334 101.068365,25.8923292 100.974865,25.5181401 C100.879991,25.1453268 100.683368,24.8385469 100.53762,24.8385469 C100.390496,24.8385469 100.270872,24.5936731 100.270872,24.2951476 C100.270872,23.9966218 100.148498,23.7517481 99.998625,23.7517481 C99.8501266,23.7517481 99.7277528,23.5674051 99.7277528,23.3431666 C99.7269951,23.1180508 99.5443829,22.9359598 99.3193818,22.9359611 C99.0663843,22.9359611 98.9123857,22.6787062 98.912386,22.2563679 C98.912386,21.8821788 98.7900122,21.5767746 98.6401385,21.5767746 C98.4902649,21.5767746 98.3692663,21.4103155 98.3692663,21.2080886 C98.3692663,21.0058614 98.0626444,20.5106114 97.6886481,20.106157 C97.3160268,19.7030785 97.0094049,19.1349164 97.0094049,18.843269 C97.0094049,18.5516217 96.8870311,18.3136266 96.7385327,18.3136266 C96.588659,18.3136266 96.4662855,18.1595487 96.4662852,17.9710786 C96.466285,17.7826086 96.1610383,17.2983638 95.7870423,16.8952854 C95.4130459,16.4922069 95.107799,15.9694427 95.107799,15.734199 C95.0933031,15.4780729 94.9358896,15.2519405 94.700803,15.1495286 C94.4753053,15.0628598 94.2924319,14.7615827 94.2924322,14.4781895 C94.2924322,14.1947962 94.2003081,13.9636796 94.0875592,13.9636796 C93.9748102,13.9636796 93.7176878,13.5936176 93.5183147,13.1423899 C93.3189416,12.6897862 93.0081948,12.1697736 92.8308216,11.9868063 C92.6520734,11.8024633 92.2904519,11.194406 92.0278298,10.6331225 C91.7652075,10.0718391 91.4324608,9.61373263 91.290837,9.61373263 C91.1478385,9.61373263 91.0323396,9.36885888 91.0323396,9.07033337 C91.0323396,8.77043191 90.9099658,8.52555816 90.7600924,8.52555816 C90.6102188,8.52555816 90.4878452,8.35634769 90.4878452,8.14724206 C90.4878452,7.93951211 90.3049721,7.69876568 90.0808492,7.61209692 C89.8567265,7.52680384 89.6724781,7.27780304 89.6724784,7.06044328 C89.6724784,6.55831461 86.4673854,3.35157005 85.4292706,2.81504923 C84.9989,2.59218673 84.5479043,2.25651716 84.4282808,2.0694225 C84.3086569,1.88232811 83.9731602,1.72962587 83.6816631,1.72962587 C83.3901659,1.72962587 83.1509185,1.607189 83.1509185,1.4572384 C83.1509185,1.30728754 82.8552964,1.18622662 82.4950501,1.18622635 C82.1334289,1.18622635 81.7951822,1.05691105 81.7429326,0.898706334 C81.5256848,0.246627069 78.8252118,0.110433334 65.9635904,0.104930323 L52.4447256,0.0980518918 L52.4447256,0.913838883 M302.441975,138.215057 L302.441975,271.982116 L416.186338,271.91058 C524.153008,271.841795 529.947201,271.814281 530.277197,271.363053 C530.49857,271.0604 530.985315,270.887063 531.613684,270.887063 C532.158179,270.887063 532.603674,270.764626 532.603674,270.614675 C532.603674,270.4661 532.867671,270.343663 533.190793,270.343663 C533.907161,270.343663 535.863767,269.508617 535.863766,269.203212 C535.863766,269.082151 536.03839,268.984477 536.250137,268.984477 C536.734132,268.984477 538.305742,268.101281 538.308492,267.828893 C538.308492,267.716086 538.440491,267.623915 538.601364,267.623915 C538.760862,267.623915 539.061984,267.471212 539.270982,267.284118 C540.108349,266.532989 540.46997,266.264728 540.644594,266.264728 C541.05159,266.264728 545.0363,261.989069 545.393796,261.167779 C545.605544,260.680783 545.910791,260.283207 546.070289,260.283207 C546.229788,260.283207 546.52816,259.855366 546.733033,259.332602 C546.939281,258.808463 547.182653,258.380622 547.276152,258.380621 C547.368276,258.380621 547.658398,257.860609 547.919646,257.225038 C548.182268,256.589467 548.51089,255.857597 548.652514,255.597591 C548.809769,255.266439 548.896397,254.90616 548.906886,254.539682 C548.906886,254.217769 549.121384,253.798182 549.382631,253.606961 C549.835002,253.276794 549.862501,246.974736 549.928501,128.853454 L550,4.4479989 L302.441975,4.4479989 L302.441975,138.215057 M519.560554,135.459541 C519.560554,221.857301 519.513805,233.067838 519.152183,233.367739 C518.912246,233.587615 518.766439,233.8917 518.745188,234.216542 C518.745188,234.497184 518.622814,234.726925 518.47294,234.726925 C518.326653,234.723838 518.205186,234.83923 518.200693,234.985556 C518.200693,235.49869 516.135464,237.244447 514.873226,237.797476 C514.162358,238.108383 513.582114,238.463312 513.582114,238.584374 C513.582114,238.70681 473.106644,238.80586 423.637389,238.80586 L333.692663,238.80586 L333.692663,37.8883876 L519.560554,37.8883876 L519.560554,135.459541 M448.693763,46.3695462 C448.44489,46.618547 448.365141,50.489752 448.365141,62.4115231 L448.365141,78.1247089 L395.172423,78.1934938 L341.979705,78.2622783 L341.909581,92.5364875 L341.839457,106.812072 L342.454075,107.217902 C342.99032,107.574207 348.798262,107.641616 388.674238,107.761302 L434.281157,107.897496 L433.750413,108.508304 C433.458915,108.845349 433.134419,109.120488 433.028545,109.120488 C432.732923,109.120488 432.060554,109.861988 432.060554,110.188027 C432.060554,110.348984 431.887306,110.479675 431.675558,110.479675 C431.46381,110.479675 431.250687,110.571846 431.199813,110.683277 C431.150313,110.796085 430.510945,111.369749 429.778077,111.958547 C428.824666,112.742448 427.898302,113.558711 427.000605,114.405908 C425.186998,116.131029 424.793752,116.461196 424.558629,116.461196 C424.455506,116.461196 423.955011,116.889037 423.447641,117.413177 C422.940271,117.93594 422.4604,118.363782 422.382026,118.363782 C422.124904,118.363782 421.463536,119.134171 421.463535,119.432696 C421.462783,119.593456 421.332715,119.723591 421.172038,119.724344 C421.01254,119.724344 420.719668,119.877046 420.523045,120.06414 C420.163919,120.378127 419.788485,120.672936 419.398306,120.947336 C418.97756,121.245862 418.00957,122.10292 417.247828,122.849922 C416.48471,123.5983 415.379221,124.570916 414.790727,125.01389 C414.011844,125.624495 413.271594,126.282885 412.574249,126.985261 C411.944506,127.626334 411.302387,128.15185 411.147014,128.15185 C410.99164,128.15185 410.865141,128.321061 410.865141,128.526039 C410.865141,128.732393 410.507645,129.050179 410.069024,129.23177 C409.631779,129.413362 409.052909,129.856336 408.782037,130.215392 C408.51254,130.575824 408.189418,130.870223 408.064294,130.870223 C407.739797,130.870223 407.060555,131.593838 407.060555,131.939138 C407.061335,132.097101 406.935162,132.226402 406.777307,132.229409 C406.620559,132.229409 406.205313,132.505924 405.853316,132.841593 C405.50132,133.178639 404.809702,133.759182 404.314707,134.133371 C403.819712,134.50756 402.826972,135.393507 402.109229,136.104742 C401.391486,136.8146 400.754867,137.395143 400.694368,137.395143 C400.55412,137.395143 399.324882,138.410406 398.304642,139.366514 C397.867396,139.777847 397.448026,140.114892 397.373776,140.114892 C397.123529,140.114892 396.463535,140.889408 396.463535,141.182431 C396.465065,141.341456 396.337848,141.471814 396.178913,141.474078 C396.02354,141.474078 395.601419,141.749217 395.241173,142.084887 C394.280057,142.984591 393.787812,143.376664 393.620064,143.376664 C393.537565,143.376664 392.608074,144.233722 391.55346,145.280626 C390.498845,146.326154 389.54048,147.183212 389.423606,147.183212 C389.306732,147.183212 388.573864,147.795396 387.794247,148.542398 C387.01463,149.290776 386.314762,149.901585 386.237763,149.901585 C385.98339,149.901585 385.322022,150.673349 385.322022,150.970499 C385.322022,151.13008 385.168023,151.260771 384.97965,151.260771 C384.791277,151.260771 384.307282,151.567551 383.904411,151.940364 C383.50154,152.314553 383.097294,152.621333 383.00517,152.621333 C382.728798,152.621333 382.061929,153.37659 382.061929,153.688872 C382.063467,153.84737 381.937077,153.977508 381.778682,153.98052 C381.623309,153.98052 381.00319,154.468891 380.398196,155.067319 C379.794577,155.665746 379.217083,156.155493 379.113959,156.155493 C379.01221,156.155493 378.079969,156.950645 377.044604,157.921885 C376.00924,158.894502 375.063249,159.689653 374.943625,159.689653 C374.822627,159.689653 374.725003,159.87262 374.725003,160.096859 C374.725003,160.321097 374.562754,160.50544 374.366131,160.50544 C374.011385,160.50544 373.160269,161.186409 371.056539,163.15778 C370.264096,163.884736 369.448301,164.585791 368.610439,165.259841 C367.688144,166.013113 366.799935,166.807221 365.948466,167.639793 C365.230723,168.351028 364.54048,168.932946 364.413981,168.932946 C364.288857,168.932946 364.114234,169.117289 364.028985,169.341528 C363.942361,169.565766 363.744362,169.748734 363.587614,169.748733 C363.430866,169.748733 362.886371,170.176574 362.379001,170.700714 C361.870256,171.223478 361.375261,171.652695 361.276262,171.652695 C360.99164,171.652695 360.322022,172.401073 360.322022,172.720234 C360.322022,172.879815 360.201023,173.011881 360.052524,173.011881 C359.807777,173.011881 358.903036,173.699729 357.995545,174.574671 C357.803047,174.761765 357.512925,174.914467 357.353427,174.914467 C357.03993,174.914467 356.913431,214.912793 357.224178,215.225076 C357.433176,215.432806 358.692663,214.867395 358.692663,214.564742 C358.692663,214.439554 358.813662,214.336377 358.963536,214.336377 C359.318282,214.336377 361.409636,212.243945 361.409636,211.890392 C361.409636,211.740441 361.592509,211.618004 361.816632,211.618004 C362.040754,211.618004 362.225003,211.503821 362.225003,211.364876 C362.225003,211.224556 362.465626,211.03471 362.759872,210.941162 C363.054119,210.847615 363.976735,210.10474 364.809977,209.291704 C365.643218,208.477293 366.384336,207.811457 366.45721,207.811457 C366.53146,207.811457 366.927456,207.475787 367.339951,207.064455 C368.376691,206.029932 370.198548,204.556563 370.444671,204.552436 C370.55742,204.55106 370.648169,204.365341 370.648169,204.141103 C370.648169,203.916865 370.787042,203.733897 370.956165,203.733897 C371.125289,203.733898 371.46216,203.519289 371.704158,203.256531 C371.944781,202.993774 372.751898,202.290794 373.495765,201.693742 C374.448827,200.910952 375.374297,200.095128 376.270487,199.247757 C378.023595,197.572161 378.45534,197.208977 378.689088,197.208977 C378.789462,197.208977 379.276207,196.77976 379.769827,196.256996 C380.262072,195.732857 380.796942,195.305016 380.95644,195.305016 C381.116893,195.304258 381.246564,195.173905 381.246563,195.013368 C381.246563,194.637803 381.938181,193.945829 382.313552,193.945829 C382.474425,193.945829 382.605049,193.853657 382.605049,193.742226 C382.606424,193.629419 383.153669,193.171313 383.821912,192.722836 C384.49153,192.27436 385.041525,191.754347 385.044275,191.567253 C385.0484,191.380158 385.183148,191.227456 385.346772,191.227456 C385.50902,191.227456 386.177263,190.677178 386.830382,190.003088 C387.484875,189.330373 388.126994,188.780095 388.258992,188.780095 C388.390991,188.780095 389.136234,188.167911 389.915851,187.420908 C390.694093,186.673906 391.426961,186.061722 391.54246,186.061722 C391.657959,186.061722 391.915081,185.756318 392.115829,185.382129 C392.315202,185.00794 392.586074,184.702536 392.716698,184.702536 C392.847322,184.702536 393.101694,184.577347 393.281817,184.424645 C394.700803,183.226415 395.268672,182.79995 395.444671,182.79995 C395.556045,182.798574 395.648169,182.615607 395.648169,182.391368 C395.648169,182.16713 395.774667,181.982787 395.930041,181.982787 C396.085414,181.982787 396.689033,181.524681 397.272027,180.963397 C398.615389,179.670244 399.730503,178.721015 399.907876,178.721015 C399.9835,178.721015 400.578869,178.170737 401.233363,177.498022 C401.886481,176.823931 402.54785,176.273654 402.703223,176.273654 C402.858597,176.273654 402.985095,176.090686 402.985095,175.866448 C402.985095,175.64221 403.176218,175.457867 403.408591,175.457867 C403.642338,175.457867 403.756462,175.33543 403.664338,175.186855 C403.572214,175.036904 403.682213,174.914467 403.907711,174.914467 C404.134584,174.914467 404.625454,174.609063 404.998075,174.234874 C405.372071,173.860685 405.784567,173.555281 405.916566,173.555281 C406.04719,173.555281 406.318062,173.249877 406.517435,172.875687 C406.718183,172.501498 406.991805,172.196094 407.126554,172.196094 C407.4648,172.196094 408.148169,171.482109 408.148169,171.127179 C408.148169,170.967599 408.313167,170.836908 408.516665,170.836908 C408.718788,170.836908 409.213783,170.530128 409.616654,170.157315 C410.019525,169.783126 410.412771,169.477721 410.48977,169.477721 C410.566769,169.477721 411.357386,168.743101 412.245628,167.846147 C413.133869,166.949194 413.951986,166.214574 414.061984,166.213198 C414.171983,166.213198 414.869101,165.661544 415.608844,164.990205 C416.349962,164.31749 417.053955,163.767212 417.172203,163.767212 C417.290452,163.767212 417.386701,163.584245 417.386701,163.360007 C417.386701,163.135769 417.542075,162.951425 417.730448,162.951425 C417.918821,162.951425 418.302442,162.646021 418.582939,162.271832 C418.863436,161.899019 419.215433,161.592239 419.363931,161.592239 C419.51243,161.592239 419.918051,161.286835 420.264547,160.912646 C420.611044,160.538457 420.97129,160.233053 421.066164,160.233053 C421.162413,160.233053 421.748157,159.711664 422.371026,159.073342 C423.064896,158.37037 423.802439,157.711936 424.579254,157.101971 C425.171873,156.656246 426.363986,155.587331 427.228853,154.727522 C428.092344,153.867713 428.892586,153.164732 429.00671,153.164733 C429.120834,153.164733 429.542955,152.857953 429.945826,152.48514 C430.348696,152.11095 430.754318,151.805546 430.845067,151.805546 C431.121439,151.805546 431.789682,151.048914 431.789682,150.736631 C431.789682,150.577051 431.920306,150.44636 432.079804,150.44636 C432.456551,150.44636 433.148169,149.754385 433.148169,149.377445 C433.146631,149.218948 433.273021,149.088809 433.431416,149.085798 C433.727038,149.085798 434.096909,148.814786 435.187273,147.795396 C435.546144,147.458351 435.920141,147.183212 436.01639,147.183212 C436.114014,147.183212 436.911506,146.448591 437.788747,145.551638 C438.665988,144.654685 439.486855,143.920064 439.613354,143.920064 C439.822352,143.920064 441.750083,142.225207 443.926686,140.127273 C444.399681,139.671918 444.856177,139.299105 444.942801,139.299105 C445.143549,139.299105 446.338412,138.293472 447.284402,137.327734 C447.687273,136.916401 448.094269,136.579356 448.190518,136.579356 C448.286767,136.579356 448.365141,150.710493 448.365141,167.982341 C448.365141,188.734697 448.273017,199.38395 448.092894,199.38395 C447.944396,199.38395 447.820647,199.597183 447.819272,199.859941 C447.815147,201.290663 447.665273,201.301669 427.136729,201.290664 C412.384501,201.282409 408.02992,201.356697 407.606424,201.62083 C407.071554,201.953748 407.060554,202.242644 407.060555,216.033984 L407.060555,230.105966 L435.185898,230.105966 C453.755087,230.105966 463.311242,230.013795 463.311242,229.833579 C463.311242,229.683628 463.784237,229.561191 464.364481,229.561191 C464.969475,229.561191 465.562094,229.387854 465.755967,229.153986 C465.94159,228.929748 466.385711,228.74678 466.740458,228.74678 C467.096579,228.74678 467.386701,228.624343 467.386701,228.474392 C467.386701,228.324442 467.639699,228.202005 467.949071,228.202005 C468.258442,228.202005 468.683313,228.049303 468.890936,227.862208 C469.726928,227.112455 470.089924,226.842818 470.261797,226.842818 C470.685293,226.842818 475.266747,221.833914 475.266747,221.37168 C475.266747,221.091038 475.386371,220.861297 475.533495,220.861297 C475.680618,220.861297 475.877241,220.555893 475.97074,220.181704 C476.064239,219.807515 476.249863,219.502111 476.383236,219.502111 C476.51661,219.502111 476.625234,219.196707 476.625234,218.822518 C476.625234,218.448329 476.747608,218.142925 476.897481,218.142925 C477.047355,218.142925 477.169728,217.605028 477.169728,216.948822 C477.169728,216.137162 477.300352,215.703818 477.576724,215.597889 C477.936971,215.458944 477.98372,209.209163 477.98372,161.607372 L477.98372,107.773683 L494.434056,107.699396 C508.706413,107.634738 510.918766,107.571456 511.141514,107.217902 C511.295512,106.974404 511.401386,101.027276 511.404136,92.4677027 L511.408261,78.1260846 L477.98922,78.1260846 L477.919096,62.1542682 L477.848971,46.1810758 L463.434991,46.1109156 C452.4516,46.0572636 448.944011,46.1191697 448.693763,46.3695462 M115.487845,156.019299 C115.487845,158.103477 115.383346,159.417265 115.215598,159.417266 C115.056099,159.417266 114.944726,160.358241 114.944726,161.695416 C114.944726,163.388896 114.840227,164.060235 114.536355,164.311987 C114.265482,164.536226 114.129359,165.145658 114.129359,166.130656 C114.129359,167.052372 113.982235,167.759479 113.741613,168.001601 C113.407491,168.335895 105.56182,168.389547 57.6325487,168.389547 L1.91260594,168.389547 L1.76410729,169.001731 C1.68298307,169.337401 1.64998334,175.975128 1.6912332,183.750555 L1.76685724,197.88857 L51.6994829,197.957355 L101.633484,198.02614 L101.291112,198.623191 C101.010436,199.078582 100.691672,199.509341 100.338247,199.910841 C100.00275,200.290533 99.7277528,200.711496 99.7277528,200.844938 C99.7277528,200.978381 99.4431306,201.351194 99.096634,201.673107 C98.7487626,201.995019 98.2908921,202.651226 98.0791442,203.131343 C97.8660213,203.612836 97.5910242,204.004909 97.4672754,204.004909 C97.206028,204.004909 96.4662855,204.703762 96.4662852,204.950012 C96.4662852,205.040807 96.1610383,205.446637 95.7870423,205.849716 C95.4130459,206.252794 95.107799,206.684763 95.107799,206.808575 C95.107799,207.111228 94.3941811,207.811457 94.0861842,207.811457 C93.9514356,207.811457 93.6778132,208.116861 93.4770654,208.49105 C93.2776923,208.865239 92.9710704,209.170643 92.7978221,209.170643 C92.6245739,209.170643 92.3262018,209.463666 92.1350786,209.821347 C91.890395,210.231213 91.5478688,210.573916 91.1382137,210.818725 C90.7807173,211.009947 90.4878452,211.276832 90.4878452,211.41165 C90.4878452,211.686789 89.8003521,212.433791 89.5473546,212.433791 C89.3837312,212.433791 89.0441096,212.719936 87.2855022,214.333626 C86.7946323,214.783478 86.303762,215.152164 86.195138,215.152164 C86.086514,215.152164 85.7675173,215.457568 85.4870202,215.831757 C85.2065229,216.205947 84.806402,216.511351 84.5960291,216.511351 C84.3856562,216.511351 83.8975362,216.805749 83.5097898,217.164806 C83.0780205,217.556799 82.6033938,217.898762 82.094929,218.184196 C81.3703112,218.558385 80.9811901,218.830772 80.3074468,219.434702 C80.0998238,219.621796 79.7987019,219.774499 79.6378287,219.774499 C79.4783302,219.774499 79.3477065,219.896936 79.3477065,220.04551 C79.3477065,220.195461 79.1442085,220.317898 78.8967109,220.317898 C78.6492133,220.317898 78.0469694,220.623302 77.5560994,220.997491 C77.0666044,221.37168 76.5358596,221.677084 76.3763614,221.677084 C76.2168629,221.677084 76.0862392,221.799521 76.0862392,221.949472 C76.0862392,222.099423 75.8373667,222.220484 75.5348697,222.220484 C75.2309978,222.220484 74.9120008,222.404827 74.8253767,222.629065 C74.7401275,222.853304 74.3771313,223.036271 74.0196347,223.036271 C73.6621384,223.036271 73.3692663,223.158708 73.3692663,223.308658 C73.3692663,223.458609 73.1203937,223.581046 72.8165218,223.581046 C72.5126498,223.581046 72.1950279,223.764014 72.108404,223.988252 C72.0217799,224.21249 71.6587834,224.395457 71.301287,224.395457 C70.9437907,224.395457 70.6509186,224.517894 70.6509186,224.667845 C70.6509186,224.817796 70.3525466,224.940232 69.9881751,224.940233 C69.6238036,224.940233 69.2498076,225.06267 69.1563085,225.211244 C69.0641845,225.361195 68.7603126,225.483632 68.4811902,225.483632 C68.2020679,225.483632 67.7895722,225.666599 67.5654492,225.890838 C67.3413265,226.115076 66.9645803,226.299419 66.7267078,226.299419 C66.49021,226.299419 66.0845892,226.413602 65.8247168,226.555298 C65.5648445,226.695619 65.010725,226.882714 64.5941041,226.970758 C64.1774832,227.058803 63.9093609,227.250024 63.998735,227.394472 C64.092234,227.545799 63.7567373,227.658605 63.210868,227.658605 C62.6883733,227.658605 62.1837533,227.781042 62.091629,227.930993 C61.9995049,228.079568 61.5636344,228.202005 61.1250138,228.202005 C60.5956442,228.202005 60.3261467,228.339574 60.3261467,228.610586 C60.3261467,228.895355 60.0387745,229.017792 59.3746563,229.017792 C58.8507866,229.017792 58.4231659,229.140229 58.4231659,229.290179 C58.4231659,229.438754 57.9336709,229.561191 57.3369266,229.561191 C56.7388076,229.561191 56.2493126,229.683628 56.2493126,229.833579 C56.2493126,229.98353 55.905566,230.105966 55.4861952,230.105966 C55.0668243,230.105966 54.4852053,230.284807 54.1950831,230.504918 C53.904961,230.723654 53.2710923,230.907997 52.7843472,230.912124 C52.2989772,230.917626 51.901606,231.042815 51.901606,231.192765 C51.901606,231.342716 51.4698603,231.465153 50.9418657,231.465153 C50.3396217,231.465153 49.9243758,231.616479 49.8253766,231.872359 C49.7236277,232.139243 49.3015069,232.28094 48.6112639,232.28094 C48.0296446,232.28094 47.5538994,232.403377 47.5538994,232.551952 C47.5538994,232.701903 47.0602792,232.824339 46.4580355,232.824339 C45.7347927,232.824339 45.3099219,232.963285 45.2067978,233.231545 C45.100924,233.509435 44.6664281,233.640126 43.8565615,233.640126 C43.1993181,233.640126 42.6630734,233.762563 42.6630734,233.911138 C42.6630734,234.061089 42.1804533,234.183526 41.5919591,234.183526 C41.00209,234.183526 40.4452205,234.305963 40.3530965,234.455913 C40.2609725,234.604488 39.7123529,234.726925 39.1334836,234.726925 C38.5546142,234.726925 37.8987459,234.911268 37.6746232,235.135507 C37.4312505,235.379005 36.7657573,235.542712 36.0246398,235.542712 C35.3412717,235.542712 34.7816523,235.665149 34.7816523,235.8151 C34.7816523,235.965051 34.2467825,236.087487 33.5922891,236.087487 C32.8662964,236.087487 32.2709273,236.245692 32.0646793,236.494693 C31.8405567,236.764329 31.2328128,236.901899 30.2648224,236.901899 C29.4618303,236.901899 28.804587,237.024336 28.804587,237.174286 C28.804587,237.324237 28.097844,237.446674 27.2274778,237.446674 C26.3612365,237.446674 25.5362446,237.555354 25.3932461,237.688796 C25.2516226,237.822239 24.3482566,237.984571 23.3843912,238.049228 C22.3847763,238.116637 21.5886591,238.305107 21.5281598,238.486699 C21.4594104,238.691678 20.7182929,238.80586 19.4601803,238.80586 C18.3821912,238.80586 17.383951,238.91454 17.2423275,239.047983 C17.099329,239.182801 15.8439664,239.342381 14.4497305,239.405663 C12.9688702,239.471697 11.8358817,239.647786 11.7245077,239.828002 C11.6021339,240.027478 10.0456495,240.182931 7.33005158,240.268224 C5.01732473,240.33976 2.42135062,240.480081 1.5619845,240.579131 L0,240.759347 L0,272 L5.2304476,271.819784 C8.95116039,271.691844 10.6355184,271.530888 11.0631394,271.264003 C11.4605104,271.015003 12.5000002,270.887063 14.1211087,270.887063 C15.4713453,270.887063 16.5754591,270.774256 16.5754593,270.635311 C16.5754593,270.497741 17.5241998,270.324404 18.6819382,270.251492 C21.7522825,270.056143 24.7703772,269.59391 25.096249,269.26787 C25.2529976,269.111041 26.1439887,268.984477 27.0762291,268.984477 C28.0084699,268.984477 28.8472113,268.86204 28.9393356,268.712089 C29.0328346,268.562139 29.7588274,268.439702 30.5535696,268.439702 C31.5064349,268.439702 32.1141791,268.300757 32.3369265,268.032496 C32.5596742,267.76286 33.1674181,267.623915 34.1202838,267.623915 C34.9150259,267.623915 35.6410187,267.501478 35.7331427,267.352903 C35.8252668,267.202952 36.4907602,267.080515 37.2112528,267.080515 C38.0431193,267.080515 38.6426133,266.931941 38.8584864,266.67331 C39.0757342,266.410552 39.6766032,266.264728 40.5387195,266.264728 C41.3637112,266.264728 41.8147068,266.160176 41.711583,265.993716 C41.6070841,265.824506 42.1103289,265.721329 43.0384447,265.721329 C43.8606864,265.721329 44.597679,265.615401 44.6788032,265.484709 C44.7585524,265.355394 45.4377957,265.1683 46.188538,265.067874 C46.9392806,264.968824 47.5538994,264.769348 47.5538994,264.6249 C47.5538994,264.480452 48.097019,264.362142 48.7611375,264.362142 C49.423881,264.362142 50.0426247,264.239706 50.1347487,264.089755 C50.2282477,263.94118 50.714993,263.818743 51.2196128,263.818743 C51.7228578,263.818743 52.3182269,263.6344 52.5423496,263.410162 C52.7664723,263.185924 53.3865912,263.002956 53.9200857,263.002956 C54.4535803,263.002956 54.8908261,262.880519 54.8908261,262.730568 C54.8908261,262.580618 55.3651963,262.458181 55.9440657,262.458181 C56.5490596,262.458181 57.1416787,262.284843 57.3369266,262.050975 C57.5225496,261.826737 58.0876692,261.643769 58.5922892,261.64377 C59.0969092,261.64377 59.5107799,261.521333 59.5107799,261.371382 C59.5107799,261.221431 59.8380267,261.098994 60.2381476,261.098994 C61.0700142,261.098994 62.5494995,260.678032 63.6756131,260.120875 C64.0991089,259.91177 64.8031018,259.739808 65.2389726,259.739808 C65.6748432,259.739808 66.0323398,259.617371 66.0323398,259.468796 C66.0323398,259.318845 66.4022112,259.196409 66.8559565,259.196408 C67.3372016,259.196408 67.7441977,259.027198 67.8363217,258.787827 C67.9311957,258.538826 68.3436917,258.380621 68.8978111,258.380621 C69.3969312,258.380621 69.8795513,258.258185 69.9716754,258.108234 C70.0651744,257.959659 70.4405457,257.837222 70.8076669,257.837222 C71.4731603,257.837222 71.6257836,257.782194 73.3225168,256.932015 C73.8202619,256.681639 74.4623804,256.478036 74.7497524,256.478036 C75.0357496,256.478036 75.2708721,256.355599 75.2708724,256.205648 C75.2708724,256.055697 75.6311187,255.933261 76.0724892,255.93326 C76.5138597,255.93326 76.9717302,255.768177 77.091354,255.56595 C77.2948521,255.222026 77.8255966,255.037683 79.6873281,254.663494 C80.0970742,254.580952 80.4339455,254.342957 80.4339455,254.135227 C80.4339455,253.917868 80.7130679,253.758287 81.0966891,253.758287 C81.4624355,253.758287 81.8364316,253.63585 81.9285556,253.487275 C82.0206797,253.337324 82.2929271,253.214888 82.5321748,253.214888 C83.1302938,253.214888 85.0538996,252.345449 85.0538993,252.075812 C85.0538993,251.954751 85.3591462,251.855701 85.7331426,251.855701 C86.1071389,251.855701 86.4123858,251.733264 86.4123858,251.583313 C86.4123858,251.434739 86.7217576,251.312302 87.0998789,251.312302 C87.4780002,251.312302 87.8588714,251.127959 87.9441205,250.90372 C88.0307447,250.679482 88.3621164,250.486885 88.6824881,250.475879 C89.0028597,250.464874 89.6326035,250.222752 90.0808492,249.935231 C90.5290946,249.649087 91.0790891,249.340931 91.3032121,249.250135 C92.5131999,248.763139 94.0655595,247.914336 94.3295566,247.59655 C94.5432375,247.375629 94.8337696,247.245561 95.1407985,247.233367 C95.4212958,247.233367 95.6509184,247.124687 95.6509184,246.991244 C95.6509184,246.857802 95.9575403,246.672083 96.3301616,246.578536 C96.704158,246.484989 97.0094049,246.288264 97.0094049,246.141065 C97.0094049,245.993866 97.2307776,245.87418 97.5016501,245.87418 C97.7725223,245.87418 98.2413926,245.644439 98.5425146,245.363797 C98.8436366,245.083156 99.3551314,244.769497 99.6796283,244.66632 C100.0055,244.563143 100.270872,244.363667 100.270872,244.224722 C100.270872,244.085777 100.48537,243.967467 100.746618,243.961964 C101.333737,243.952335 102.172478,243.34015 102.172478,242.921939 C102.172478,242.751353 102.433726,242.612408 102.752722,242.612408 C103.071719,242.612408 103.616214,242.305628 103.96271,241.932815 C104.309207,241.558626 104.782202,241.251846 105.0132,241.251846 C105.244197,241.251846 105.433946,241.130785 105.433946,240.980834 C105.433946,240.830883 105.564569,240.708446 105.725443,240.708446 C105.884941,240.708446 106.186063,240.555744 106.395061,240.36865 C107.233803,239.616144 107.592674,239.34926 107.768672,239.34926 C107.870421,239.34926 108.236168,239.043855 108.582664,238.669667 C108.929161,238.295478 109.356781,237.990073 109.53278,237.990073 C109.708778,237.990073 110.257397,237.562232 110.749643,237.038092 C111.243263,236.515328 111.747883,236.087487 111.871631,236.087487 C111.99538,236.087487 112.427126,235.780708 112.829997,235.406518 C113.232868,235.033705 113.637114,234.726925 113.729238,234.726925 C114.00561,234.726925 114.672478,233.971669 114.672478,233.659386 C114.672478,233.499805 114.794852,233.367739 114.944726,233.367739 C115.628094,233.367739 123.912386,225.072299 123.912386,224.387203 C123.912386,224.242756 124.043009,224.124446 124.202508,224.124445 C124.547629,224.124445 125.270872,223.444852 125.270872,223.120188 C125.270872,222.996376 125.565119,222.673088 125.925366,222.402076 C126.284237,222.13244 126.726983,221.551896 126.908481,221.114425 C127.089979,220.676954 127.407601,220.317898 127.613849,220.317898 C127.818722,220.317898 127.987845,220.189959 127.987845,220.034505 C127.987845,219.877676 128.293092,219.420945 128.667088,219.017866 C129.041085,218.614788 129.346332,218.156682 129.346332,218.001228 C129.346332,217.845774 129.591079,217.543122 129.889451,217.327138 C130.189198,217.111154 130.433946,216.834639 130.433946,216.712202 C130.433946,216.588389 130.922066,215.826254 131.520185,215.01597 C132.118304,214.207062 132.607799,213.416038 132.607799,213.260584 C132.607799,213.10513 132.720548,212.977191 132.859421,212.977191 C132.998295,212.977191 133.150919,212.783218 133.199043,212.545223 C133.310417,211.994945 134.01716,212.582366 135.188648,214.200183 C135.621769,214.79861 136.258387,215.546988 136.602134,215.863398 C136.94588,216.179808 137.226378,216.522356 137.226378,216.622782 C137.226378,216.723207 137.351502,216.954324 137.504125,217.13454 C137.655373,217.316132 138.02937,217.768736 138.333242,218.142925 C138.942361,218.894054 142.642449,222.949602 143.816687,224.154711 C144.227808,224.577049 144.563304,224.989758 144.563304,225.073675 C144.563304,225.278654 148.314267,228.946256 149.874876,230.266923 C150.90087,231.160663 151.903126,232.081323 152.880596,233.027942 C153.845837,233.963415 154.696953,234.726925 154.773952,234.726925 C154.850951,234.726925 155.242822,235.033705 155.645694,235.406518 C156.048564,235.780708 156.48031,236.087487 156.604059,236.087487 C156.928556,236.087487 157.607799,236.809727 157.607799,237.155027 C157.607799,237.314607 157.790672,237.446674 158.014795,237.446674 C158.238918,237.446674 158.421791,237.569111 158.421791,237.717686 C158.421791,237.867637 158.592289,237.990073 158.801287,237.990073 C159.00891,237.990073 159.249533,238.173041 159.336157,238.397279 C159.421406,238.621517 159.652403,238.80586 159.849027,238.80586 C160.044275,238.80586 160.381146,239.050734 160.595644,239.34926 C160.811517,239.647785 161.144263,239.892659 161.335387,239.892659 C161.52651,239.892659 161.683258,240.009593 161.683258,240.152666 C161.683258,240.294362 162.110879,240.614899 162.634749,240.862524 C163.157243,241.111525 163.584864,241.454073 163.584864,241.624659 C163.584864,241.795245 163.97811,242.108904 164.45798,242.322136 C164.937851,242.533993 165.595094,242.9921 165.915466,243.34015 C166.237213,243.686826 166.633209,243.971594 166.795457,243.971594 C166.957706,243.971594 167.419701,244.276999 167.822572,244.651187 C168.225443,245.025376 168.727313,245.330781 168.936311,245.330781 C169.145309,245.330781 169.622429,245.636185 169.996425,246.010374 C170.369046,246.384563 170.853041,246.689967 171.070289,246.689967 C171.287537,246.689967 171.466285,246.812404 171.466285,246.962355 C171.466285,247.11093 171.649159,247.233366 171.873281,247.233367 C172.097404,247.233367 172.281652,247.325538 172.283027,247.43697 C172.284402,247.710733 173.856012,248.592553 174.341382,248.592553 C174.553129,248.592553 174.726378,248.71499 174.726378,248.864941 C174.726378,249.014892 174.909251,249.137328 175.134749,249.137328 C175.358871,249.137328 175.54312,249.228124 175.54312,249.340931 C175.545869,249.614694 177.117479,250.496515 177.601474,250.496515 C177.813222,250.496515 177.987845,250.6162 177.987845,250.763399 C177.987845,250.909223 178.293092,251.105947 178.667088,251.200871 C179.03971,251.294418 179.346332,251.480137 179.346332,251.613579 C179.346332,251.747021 179.582829,251.855701 179.872951,251.855701 C180.163073,251.855701 180.469695,251.967133 180.554944,252.103326 C180.748818,252.41836 183.420416,253.758287 183.853537,253.758287 C184.032285,253.758287 184.249533,253.94263 184.336157,254.166868 C184.421406,254.391107 184.800902,254.574074 185.180398,254.574074 C185.55852,254.574074 185.867891,254.696511 185.867891,254.846462 C185.867891,254.996413 186.160764,255.117473 186.51826,255.117473 C186.875756,255.117473 187.238753,255.301816 187.324002,255.526055 C187.410626,255.750293 187.729623,255.933261 188.033495,255.93326 C188.335992,255.93326 188.584864,256.055697 188.584864,256.205648 C188.584864,256.355599 188.890111,256.478036 189.264107,256.478036 C189.638104,256.478036 189.943351,256.582588 189.943351,256.711904 C189.943351,256.987042 192.055329,257.837222 192.738698,257.837222 C192.994445,257.837222 193.204818,257.959659 193.204818,258.108234 C193.204818,258.258185 193.457815,258.380621 193.767187,258.380621 C194.076559,258.380621 194.513805,258.563589 194.737928,258.787827 C194.96205,259.013441 195.44192,259.196409 195.804917,259.196408 C196.167913,259.196408 196.46491,259.318845 196.46491,259.468796 C196.46491,259.617371 196.722033,259.739808 197.03553,259.739808 C197.347651,259.739808 197.98977,259.940659 198.46139,260.186909 C200.086624,261.034337 200.265372,261.098994 200.929491,261.098994 C201.296612,261.098994 201.671983,261.221431 201.764107,261.371382 C201.856231,261.521333 202.352601,261.643769 202.866846,261.64377 C203.517215,261.64377 203.801837,261.767582 203.801837,262.050975 C203.801837,262.335744 204.089209,262.458181 204.753327,262.458181 C205.275822,262.458181 205.704818,262.580618 205.704818,262.730568 C205.704818,262.880519 206.122814,263.002956 206.632934,263.002956 C207.143053,263.002956 207.606424,263.136398 207.660048,263.300106 C207.754922,263.583499 209.051535,263.948058 211.138764,264.280976 C211.662633,264.363518 212.167253,264.551988 212.260752,264.699188 C212.354251,264.845011 212.99637,265.029354 213.686613,265.106393 C214.378231,265.184808 214.94335,265.355394 214.943351,265.484709 C214.943351,265.6154 215.493345,265.721329 216.165713,265.721329 C216.839457,265.721329 217.389451,265.843766 217.389451,265.993716 C217.389451,266.142291 218.00407,266.264728 218.756187,266.264728 C219.721428,266.264728 220.169673,266.38579 220.279672,266.67331 C220.385546,266.948448 220.817292,267.080515 221.613409,267.080515 C222.262402,267.080515 222.867396,267.202952 222.95952,267.352903 C223.051644,267.501478 223.762512,267.628042 224.538005,267.633545 C225.345122,267.637672 226.174238,267.812385 226.476735,268.04075 C226.768232,268.262237 227.580849,268.439702 228.294467,268.439702 C229.00396,268.439702 229.661203,268.562139 229.753327,268.712089 C229.845451,268.86204 230.697943,268.984477 231.648058,268.984477 C232.756297,268.984477 233.414916,269.101411 233.48504,269.311892 C233.553789,269.515495 234.363656,269.680579 235.614894,269.747988 C236.724508,269.805767 237.750247,269.963972 237.891871,270.09879 C238.033495,270.233608 239.156859,270.343663 240.388846,270.343663 C241.620834,270.343663 242.704323,270.4661 242.796447,270.614675 C242.891321,270.770129 244.255307,270.887063 245.95754,270.887063 C248.095644,270.887063 249.052634,270.99024 249.313882,271.251622 C249.694753,271.632689 266.558959,272.184343 267.125454,271.833541 C267.290452,271.73174 267.388076,266.04049 267.388076,256.597721 L267.388076,241.524233 L262.123254,241.524233 C257.774172,241.524233 256.797932,241.452697 256.51881,241.117028 C256.253437,240.796491 255.49032,240.708446 252.953471,240.708446 C250.983115,240.708446 249.726378,240.602518 249.726378,240.437434 C249.726378,240.277854 248.813387,240.165047 247.5319,240.165047 C245.945166,240.165047 245.226048,240.05224 244.931801,239.756465 C244.654054,239.478575 243.967935,239.34926 242.777197,239.34926 C241.794082,239.34926 241.02959,239.23095 241.02959,239.076872 C241.02959,238.926921 240.313222,238.80586 239.422231,238.80586 C238.45149,238.80586 237.773622,238.682048 237.710373,238.492202 C237.652623,238.32024 236.908756,238.12214 236.05764,238.050604 C235.205148,237.980443 234.50803,237.81536 234.50803,237.684669 C234.50803,237.553978 233.897536,237.446674 233.149544,237.446674 C232.402926,237.446674 231.791057,237.324237 231.791057,237.174286 C231.791057,237.024336 231.194313,236.901899 230.46557,236.901899 C229.618579,236.901899 229.01771,236.754699 228.801837,236.494693 C228.607964,236.260825 228.015345,236.087487 227.410351,236.087487 C226.830106,236.087487 226.357111,235.965051 226.357112,235.8151 C226.357112,235.665149 225.857991,235.542712 225.250248,235.542712 C224.628754,235.542712 223.964635,235.363872 223.736388,235.135507 C223.512265,234.911269 222.848146,234.726925 222.261027,234.726925 C221.673908,234.726925 221.194038,234.604488 221.194038,234.455913 C221.194038,234.305963 220.765042,234.183526 220.242548,234.183526 C219.718678,234.183526 219.291057,234.061089 219.291057,233.911138 C219.291057,233.762563 218.753437,233.640126 218.097569,233.640126 C217.287702,233.640126 216.853207,233.509435 216.747333,233.231545 C216.649709,232.975666 216.233088,232.824339 215.630844,232.824339 C215.104224,232.824339 214.671103,232.701903 214.671103,232.551952 C214.671103,232.403377 214.295732,232.28094 213.836487,232.28094 C213.378616,232.28094 212.818997,232.096597 212.594874,231.872359 C212.370751,231.648121 211.897756,231.465153 211.54301,231.465153 C211.189638,231.465153 210.823892,231.342716 210.731768,231.192765 C210.639644,231.042815 210.143273,230.921754 209.629029,230.921753 C209.114784,230.921753 208.694038,230.804819 208.694038,230.661747 C208.694038,230.518675 208.263668,230.32195 207.739798,230.222901 C207.214553,230.123851 206.718183,229.93538 206.637059,229.803314 C206.554559,229.669871 206.128314,229.561191 205.688318,229.561191 C205.248323,229.561191 204.889451,229.438755 204.889451,229.290179 C204.889451,229.140229 204.474205,229.017792 203.966835,229.017792 C203.398966,229.017792 202.985095,228.862338 202.888846,228.610586 C202.798097,228.373967 202.392476,228.202005 201.924981,228.202005 C201.48086,228.202005 201.040864,228.079568 200.94874,227.930993 C200.856616,227.781042 200.497745,227.658605 200.151249,227.658605 C199.804752,227.658605 199.368881,227.475638 199.183258,227.2514 C198.99626,227.027162 198.553514,226.842818 198.198768,226.842818 C197.842647,226.842818 197.552524,226.720382 197.552524,226.571807 C197.552524,226.421856 197.277527,226.295292 196.940656,226.291165 C196.605159,226.285662 196.092289,226.102695 195.802167,225.882584 C195.512045,225.663848 195.052799,225.483632 194.783302,225.483632 C194.51243,225.483632 194.291057,225.361195 194.291057,225.211244 C194.291057,225.06267 194.054559,224.940233 193.764437,224.940233 C193.474315,224.940233 193.160818,224.817796 193.068694,224.667845 C192.97657,224.517894 192.676823,224.395457 192.401826,224.395457 C192.128204,224.395457 191.833957,224.21249 191.747332,223.988252 C191.662083,223.764014 191.343087,223.581046 191.039215,223.581046 C190.735343,223.581046 190.487845,223.458609 190.487845,223.308658 C190.487845,223.158708 190.238973,223.036271 189.935101,223.036271 C189.631229,223.036271 189.320482,222.873939 189.244858,222.675839 C189.167858,222.476363 188.682488,222.147572 188.165493,221.945345 C187.649873,221.741742 187.226378,221.49962 187.226378,221.407448 C187.226378,221.313901 186.736883,221.022254 186.138764,220.75812 C185.54202,220.493987 185.052525,220.165196 185.052525,220.026251 C185.052525,219.887306 184.862777,219.774499 184.631779,219.774499 C184.400781,219.774499 183.927786,219.467719 183.581289,219.094905 C183.234793,218.720716 182.796172,218.415312 182.606424,218.415312 C182.416676,218.415312 181.978055,218.108532 181.631559,217.735719 C181.285062,217.36153 180.873941,217.056126 180.717193,217.056126 C180.563551,217.059201 180.436325,216.937444 180.432571,216.783738 C180.432571,216.633787 180.245573,216.511351 180.017325,216.511351 C179.76473,216.494694 179.543005,216.337225 179.443955,216.104145 C179.358706,215.879907 179.170333,215.695563 179.027335,215.695563 C178.882961,215.695563 178.361841,215.267722 177.869596,214.744958 C177.375976,214.220819 176.889231,213.792978 176.788857,213.792978 C176.588109,213.792978 176.138489,213.442176 175.133374,212.5012 C174.773128,212.165531 174.351007,211.890392 174.195633,211.890392 C174.036699,211.888127 173.909481,211.75777 173.911011,211.598745 C173.911011,211.437788 173.736388,211.132384 173.523265,210.919151 C173.310142,210.704543 173.00352,210.52983 172.844022,210.52983 C172.683148,210.52983 172.552524,210.406017 172.552524,210.254691 C172.552524,209.901137 169.913926,207.268057 169.560554,207.268057 C169.40997,207.265046 169.290131,207.140841 169.292432,206.990167 C169.292432,206.837465 168.617314,206.025805 167.790947,205.186631 C166.965955,204.348833 166.084589,203.311559 165.830217,202.882342 C165.577219,202.453126 165.212848,202.102323 165.021725,202.102323 C164.829227,202.102323 164.672478,201.977135 164.672478,201.823057 C164.672478,201.668979 164.286107,201.118702 163.813112,200.600065 C163.340117,200.080052 162.730998,199.287652 162.45875,198.839175 L161.96238,198.024764 L264.671103,198.024764 L264.671103,168.389547 L148.911011,168.389547 L148.911011,166.05912 C148.911011,164.350507 149.019635,163.620013 149.319382,163.321487 C149.652129,162.987193 149.726378,161.978809 149.726378,157.766432 L149.726378,152.621333 L115.487845,152.621333 L115.487845,156.019299" id="美团"></path>
            </g>
        </g>
    </g>
</svg>