<?xml version="1.0" encoding="UTF-8"?>
<svg width="556px" height="556px" viewBox="0 0 556 556" version="1.1" xmlns="http://www.w3.org/2000/svg" xmlns:xlink="http://www.w3.org/1999/xlink">
    <!-- Generator: Sketch 51 (57462) - http://www.bohemiancoding.com/sketch -->
    <title>SVG/腾讯新闻</title>
    <desc>Created with Sketch.</desc>
    <defs>
        <filter x="-7.6%" y="-4.9%" width="115.2%" height="115.3%" filterUnits="objectBoundingBox" id="filter-1">
            <feOffset dx="0" dy="4" in="SourceAlpha" result="shadowOffsetOuter1"></feOffset>
            <feGaussianBlur stdDeviation="2.5" in="shadowOffsetOuter1" result="shadowBlurOuter1"></feGaussianBlur>
            <feColorMatrix values="0 0 0 0 0   0 0 0 0 0   0 0 0 0 0  0 0 0 0.2 0" type="matrix" in="shadowBlurOuter1" result="shadowMatrixOuter1"></feColorMatrix>
            <feMorphology radius="1.5" operator="dilate" in="SourceAlpha" result="shadowSpreadOuter2"></feMorphology>
            <feOffset dx="0" dy="3" in="shadowSpreadOuter2" result="shadowOffsetOuter2"></feOffset>
            <feGaussianBlur stdDeviation="7" in="shadowOffsetOuter2" result="shadowBlurOuter2"></feGaussianBlur>
            <feColorMatrix values="0 0 0 0 0   0 0 0 0 0   0 0 0 0 0  0 0 0 0.12 0" type="matrix" in="shadowBlurOuter2" result="shadowMatrixOuter2"></feColorMatrix>
            <feMorphology radius="0.5" operator="dilate" in="SourceAlpha" result="shadowSpreadOuter3"></feMorphology>
            <feOffset dx="0" dy="8" in="shadowSpreadOuter3" result="shadowOffsetOuter3"></feOffset>
            <feGaussianBlur stdDeviation="5" in="shadowOffsetOuter3" result="shadowBlurOuter3"></feGaussianBlur>
            <feColorMatrix values="0 0 0 0 0   0 0 0 0 0   0 0 0 0 0  0 0 0 0.14 0" type="matrix" in="shadowBlurOuter3" result="shadowMatrixOuter3"></feColorMatrix>
            <feMerge>
                <feMergeNode in="shadowMatrixOuter1"></feMergeNode>
                <feMergeNode in="shadowMatrixOuter2"></feMergeNode>
                <feMergeNode in="shadowMatrixOuter3"></feMergeNode>
                <feMergeNode in="SourceGraphic"></feMergeNode>
            </feMerge>
        </filter>
    </defs>
    <g id="Page-1" stroke="none" stroke-width="1" fill="none" fill-rule="evenodd">
        <g id="tencent_news" transform="translate(-262.000000, -265.000000)" fill-rule="nonzero">
            <g id="Group" filter="url(#filter-1)" transform="translate(267.000000, 266.000000)">
                <g id="腾讯新闻">
                    <path d="M76.34,83.8933333 C136.18,20.7533333 228.506667,-11.2933333 314.38,3.66666667 C278.96,14.1533333 241.56,20.7533333 210.32,41.7266667 C149.306667,79.3466667 115.353333,149.82 110.146667,219.78 C104.94,258.94 115.28,298.173333 111.173333,337.26 C103.766667,373.853333 53.6066667,387.713333 26.7666667,363.22 C10.8533333,352.366667 8.28666667,332.273333 4.84,314.966667 C-10.6333333,232.466667 17.16,143.366667 76.34,83.8933333 Z" id="Shape" fill="#FECD3D"></path>
                    <path d="M287.393333,30.8733333 C305.653333,3.00666667 342.686667,8.8 369.16,19.8733333 C446.673333,47.2266667 509.006667,113.226667 532.986667,191.766667 C559.68,275.073333 543.913333,373.266667 486.2,440.146667 C503.213333,385.22 514.8,324.646667 492.726667,269.353333 C463.98,190.446667 389.766667,140.506667 314.893333,110.513333 C282.626667,100.246667 264.733333,58.74 287.393333,30.8733333 Z" id="Shape" fill="#3BB53F"></path>
                    <path d="M363.953333,407.88 C384.78,394.606667 404.213333,372.973333 430.98,374.806667 C471.753333,373.706667 496.026667,431.493333 467.28,459.946667 C429.733333,502.333333 377.153333,529.76 321.933333,540.76 C199.98,565.253333 64.02,493.313333 21.8533333,374.953333 C56.76,411.766667 96.2866667,447.626667 147.18,459.506667 C222.566667,479.526667 302.646667,452.54 363.953333,407.88 Z" id="Shape" fill="#E9292F"></path>
                    <path d="M275.494059,177 C316.559103,177 346.90774,202.565961 346.90774,268.438925 C358.469353,277.688216 364.240919,295.984458 364.222435,323.327651 L364.222431,323.327651 C364.221311,324.984503 362.87726,326.326739 361.220408,326.325619 C360.645844,326.32523 360.083476,326.159855 359.600165,325.849155 L346.90774,317.689739 C338.288847,325.077362 333.979401,332.875407 333.979401,341.083876 C353.679727,346.624593 366.353671,371.25 320.923865,371.25 C275.494059,371.25 285.344222,360.784202 275.494059,360.784202 C265.643896,360.784202 276.109694,371.25 234.246502,371.25 C192.38331,371.25 192.38331,348.471498 215.161811,341.083876 C215.161811,328.771173 210.852365,323.846091 201.617837,317.689739 C197.720289,317.689739 192.794611,320.003033 186.840801,324.629621 L186.840806,324.629628 C185.532519,325.646272 183.64779,325.409849 182.631145,324.101561 C182.205607,323.55395 181.982938,322.87582 182.001021,322.182542 C182.800438,291.53344 189.339377,273.618901 201.617837,268.438925 C201.617837,194.254886 234.429015,177 275.494059,177 Z" id="Path-10" fill="#4E9DDA"></path>
                </g>
            </g>
        </g>
    </g>
</svg>