<?xml version="1.0" encoding="UTF-8"?>
<svg width="555px" height="508px" viewBox="0 0 555 508" version="1.1" xmlns="http://www.w3.org/2000/svg" xmlns:xlink="http://www.w3.org/1999/xlink">
    <!-- Generator: Sketch 51 (57462) - http://www.bohemiancoding.com/sketch -->
    <title>SVG/腾讯视频</title>
    <desc>Created with Sketch.</desc>
    <defs>
        <filter x="-7.7%" y="-5.4%" width="115.4%" height="116.9%" filterUnits="objectBoundingBox" id="filter-1">
            <feOffset dx="0" dy="4" in="SourceAlpha" result="shadowOffsetOuter1"></feOffset>
            <feGaussianBlur stdDeviation="2.5" in="shadowOffsetOuter1" result="shadowBlurOuter1"></feGaussianBlur>
            <feColorMatrix values="0 0 0 0 0   0 0 0 0 0   0 0 0 0 0  0 0 0 0.2 0" type="matrix" in="shadowBlurOuter1" result="shadowMatrixOuter1"></feColorMatrix>
            <feMorphology radius="1.5" operator="dilate" in="SourceAlpha" result="shadowSpreadOuter2"></feMorphology>
            <feOffset dx="0" dy="3" in="shadowSpreadOuter2" result="shadowOffsetOuter2"></feOffset>
            <feGaussianBlur stdDeviation="7" in="shadowOffsetOuter2" result="shadowBlurOuter2"></feGaussianBlur>
            <feColorMatrix values="0 0 0 0 0   0 0 0 0 0   0 0 0 0 0  0 0 0 0.12 0" type="matrix" in="shadowBlurOuter2" result="shadowMatrixOuter2"></feColorMatrix>
            <feMorphology radius="0.5" operator="dilate" in="SourceAlpha" result="shadowSpreadOuter3"></feMorphology>
            <feOffset dx="0" dy="8" in="shadowSpreadOuter3" result="shadowOffsetOuter3"></feOffset>
            <feGaussianBlur stdDeviation="5" in="shadowOffsetOuter3" result="shadowBlurOuter3"></feGaussianBlur>
            <feColorMatrix values="0 0 0 0 0   0 0 0 0 0   0 0 0 0 0  0 0 0 0.14 0" type="matrix" in="shadowBlurOuter3" result="shadowMatrixOuter3"></feColorMatrix>
            <feMerge>
                <feMergeNode in="shadowMatrixOuter1"></feMergeNode>
                <feMergeNode in="shadowMatrixOuter2"></feMergeNode>
                <feMergeNode in="shadowMatrixOuter3"></feMergeNode>
                <feMergeNode in="SourceGraphic"></feMergeNode>
            </feMerge>
        </filter>
    </defs>
    <g id="Page-2" stroke="none" stroke-width="1" fill="none" fill-rule="evenodd">
        <g id="tencent_video" transform="translate(-262.000000, -290.000000)" fill-rule="nonzero">
            <g id="Group" filter="url(#filter-1)" transform="translate(267.000000, 291.000000)">
                <g id="腾讯视频">
                    <path d="M146.17178,0.6884281 C163.370878,-1.23468921 180.78104,0.884777971 197.018214,6.87833904 C232.615218,18.4871291 267.296397,32.7406357 300.772424,49.5199489 C357.31491,77.6167897 411.675661,109.912996 463.398559,146.137584 C486.477854,161.279576 507.783848,178.969953 526.915374,198.875626 C537.496929,210.952831 546.154566,226.386342 544.478007,242.892772 C542.004397,262.645467 528.289602,278.409106 514.849653,292.109443 C458.419589,345.886175 396.208711,393.236904 329.356365,433.294438 C294.864871,453.814433 258.459318,470.924282 220.654935,484.381838 C196.303616,492.800117 170.578068,499.980414 144.550191,497.50445 C129.02245,496.342668 114.469375,489.485339 103.680652,478.246948 C94.9494994,468.065187 89.1368119,455.706224 86.8601021,442.483017 C78.8069399,347.356873 75.5202392,280.826791 77,242.892772 C82.1069392,111.975176 96.5966439,61.9011823 98,58.5 C105.926978,40.5670943 126.79858,3.60563934 146.17178,0.6884281 Z" id="Shape" fill="#10ABF2"></path>
                    <path d="M96.532477,58.7456532 C101.055322,59.5708453 138,69 198,90.5 C296,135.5 434.5,195.500724 434.5,248.526692 C434.5,282.5 355,336 208.250001,402 C183.41215,413.170686 142.65847,425.729661 85.9889623,439.676925 C69.8005572,442.59306 50.1660262,444.931471 35.5167563,435.027613 C20.8674864,425.123755 16.7722869,406.691576 13.0618718,390.652828 C4.17278895,338.860642 -0.195419382,286.392255 0.00670640459,233.841747 C0.838053601,206.41774 3.31613595,179.068583 7.42753719,151.942345 C10.3768881,129.688722 15.4950898,107.777451 22.7089519,86.5218625 C26.3768305,75.1692029 34.3107777,65.6887312 44.8340216,60.0840643 C60.9674577,52.3810635 79.5195349,55.6094316 96.532477,58.7456532 Z" id="Shape" fill="#FF8F21"></path>
                    <path d="M97.3243914,59.1813492 L100.73406,59.6689084 C117.674163,64.2465474 134.587206,69.4200922 151.392005,74.2685973 C189.245266,86.4752122 226.20862,101.290916 262.016831,118.609397 C292.757976,133.913338 323.634426,149.081846 353.347259,166.579803 C368.773539,175.123712 383.67468,184.584857 397.970629,194.912409 C410.585836,203.310557 421.404047,214.139063 429.794209,226.766276 C436.824261,237.586804 437.756018,251.279243 432.256748,262.954002 C424.598523,278.853849 409.498559,288.984246 395.724577,299.520941 C353.68494,329.626931 309.183486,356.130315 262.693352,378.749309 C219.234985,400.611529 173.567761,417.764387 126.468946,429.915937 C115.265746,432.624599 104.197851,436.010426 92.9946522,438.583656 L86.6082878,439.748381 C86.3106185,437.039718 85.9317663,434.331056 85.5799745,431.622394 C81.4937836,400.662386 79.0583054,369.539858 78.0841146,338.33607 C76.5687061,317.912758 77.2452276,297.381098 77.0558013,276.903612 C76.6126692,263.210177 76.9017315,249.502816 77.9217491,235.840294 C78.4629662,221.701078 79.1394882,207.561862 79.4912795,193.178865 C81.4396621,180.989886 81.0066879,168.800906 82.846827,156.611927 C83.9292618,146.996176 84.9846353,137.299166 85.5529138,127.602155 C89.0167048,105.120259 91.6416088,82.4487568 96.9455388,60.2106407 L97.2432086,58.8021365 L97.3243914,59.1813492 Z M161.377465,140.359953 C155.506381,142.480728 151.721829,148.207007 152.068526,154.444997 C151.595193,163.474117 151.757962,172.525398 152.555622,181.531618 C152.907413,208.45572 152.122648,235.406908 153.042717,262.33101 L153.042717,333.920951 C152.235423,339.991126 154.982598,345.985877 160.105604,349.333238 C166.274401,350.917683 172.828442,349.579666 177.884594,345.703631 C221.181982,316.504253 264.749979,287.629914 308.101488,258.56597 C313.513662,254.665496 319.412931,249.058566 318.76347,241.745178 C317.573825,234.804272 313.007334,228.912972 306.58608,226.034937 L174.285498,143.827041 C170.559801,141.112109 165.960545,139.876753 161.377465,140.359953 Z" id="Shape" fill="#7DE621"></path>
                    <path d="M159.890758,138.654669 C164.545596,138.163903 169.216862,139.418601 173.000892,142.176041 L307.675231,225.671064 C314.193916,228.598117 318.83041,234.57973 320.043283,241.627279 C320.730396,249.055172 314.793732,254.749891 309.214367,258.711434 C265.239072,288.230432 220.906479,317.556856 176.958669,347.213408 C171.870805,351.136477 165.273762,352.523985 159.038737,350.982376 C153.962637,347.619361 151.209776,341.682843 151.920236,335.631396 L151.920236,262.810531 C150.985761,235.464879 151.920236,208.091717 151.425514,180.746065 C150.474705,171.516701 150.180795,162.231341 150.546008,152.960241 C150.193883,146.624583 154.03769,140.808648 160.000696,138.654669 L159.890758,138.654669 Z" id="Shape" fill="#FFFFFF"></path>
                </g>
            </g>
        </g>
    </g>
</svg>