<?xml version="1.0" encoding="UTF-8"?>
<svg width="603px" height="533px" viewBox="0 0 603 533" version="1.1" xmlns="http://www.w3.org/2000/svg" xmlns:xlink="http://www.w3.org/1999/xlink">
    <!-- Generator: Sketch 51 (57462) - http://www.bohemiancoding.com/sketch -->
    <title>SVG/京东</title>
    <desc>Created with Sketch.</desc>
    <defs>
        <path d="M660.736588,560.335778 C660.736588,560.335778 653.589669,724.730564 665.203413,778.361848 C665.203413,778.361848 660.736588,793.557379 646.442749,740.819949 C632.14891,688.082519 628.57545,675.64304 622.321895,672.886988 C616.142787,670.130936 587.480661,688.976373 573.261269,719.367435 C558.967429,749.758496 550.927145,786.332053 550.927145,786.332053 C550.927145,786.332053 541.397918,793.482891 541.249024,781.862779 C541.10013,770.242667 549.140415,709.535032 549.140415,709.535033 C549.140415,709.535033 532.68761,752.067621 529.784174,774.339502 C526.955185,796.611383 521.22276,776.648627 522.339466,769.721252 C523.456172,762.868366 530.081962,732.328329 522.190572,714.078794 C522.190572,714.078794 514.894758,710.726839 467.397521,782.309707 C467.397521,782.309707 463.377378,792.961476 458.836106,788.492202 C454.220387,784.022928 459.431683,777.170042 463.972955,765.698906 C468.588674,754.22777 488.614938,707.225908 494.868493,701.49034 C494.868493,701.49034 475.958935,704.916783 465.685238,699.777118 C455.337093,694.637454 442.755537,684.879539 450.795821,647.039688 C453.997046,631.844157 454.369281,646.816224 453.103681,657.914921 C450.498033,681.378608 459.952813,694.786429 477.894559,690.913059 C496.804117,686.816224 506.333344,671.76967 506.333344,671.769669 L599.987771,554.078794 C599.987771,554.078794 600.881136,569.199837 660.736588,560.335778 Z M822.3612,319.143971 C822.3612,319.143971 802.409382,339.404679 760.719017,338.808776 C741.362776,338.585312 729.302349,337.467993 726.771149,329.870228 C722.974348,317.952165 756.028852,300.373021 797.421428,302.756634 C797.421428,302.756634 760.793464,283.389781 645.549384,292.402817 C530.37975,301.341364 373.221964,371.881402 373.221964,371.881402 C373.221964,371.881402 374.115329,378.138385 358.928124,367.412128 C343.74092,356.68587 324.980256,348.641178 319.620066,349.535033 C314.259876,350.354399 304.432861,349.535033 302.646131,372.775256 L255,488.976373 C255,488.976373 286.565562,512.216597 324.012443,497.914921 C361.459325,483.613245 361.533772,435.419577 352.600122,419.255703 C352.600122,419.255703 357.960312,418.361848 363.320502,427.300396 C368.680691,436.238943 427.568332,470.130936 448.115727,479.143971 C468.737568,488.082519 580.259295,527.263152 607.060243,534.041551 C633.861192,540.819949 665.054519,535.382333 677.561628,523.762221 C690.068738,512.142109 755.209933,440.633729 771.36495,412.99872 C771.36495,412.99872 570.134491,446.071345 513.182475,421.937267 C513.182475,421.937267 504.397719,426.406541 499.930895,423.724977 C495.46407,421.043412 500.82426,404.954027 505.291084,406.741736 C509.757909,408.529446 513.182475,412.99872 513.182475,412.99872 C513.182475,412.99872 578.547012,437.132798 777.618505,401.378608 C777.692952,401.30412 836.65504,344.171904 822.3612,319.143971 Z M507.822285,361.229632 C496.72967,362.495927 496.506329,343.948441 501.196495,332.477305 C504.39772,324.581588 521.371654,321.453096 520.999419,334.637454 C520.552736,351.322742 518.244877,360.037826 507.822285,361.229632 Z" id="path-1"></path>
        <filter x="-7.5%" y="-5.4%" width="114.8%" height="116.8%" filterUnits="objectBoundingBox" id="filter-2">
            <feOffset dx="0" dy="4" in="SourceAlpha" result="shadowOffsetOuter1"></feOffset>
            <feGaussianBlur stdDeviation="2.5" in="shadowOffsetOuter1" result="shadowBlurOuter1"></feGaussianBlur>
            <feColorMatrix values="0 0 0 0 0   0 0 0 0 0   0 0 0 0 0  0 0 0 0.2 0" type="matrix" in="shadowBlurOuter1" result="shadowMatrixOuter1"></feColorMatrix>
            <feMorphology radius="1.5" operator="dilate" in="SourceAlpha" result="shadowSpreadOuter2"></feMorphology>
            <feOffset dx="0" dy="3" in="shadowSpreadOuter2" result="shadowOffsetOuter2"></feOffset>
            <feGaussianBlur stdDeviation="7" in="shadowOffsetOuter2" result="shadowBlurOuter2"></feGaussianBlur>
            <feColorMatrix values="0 0 0 0 0   0 0 0 0 0   0 0 0 0 0  0 0 0 0.12 0" type="matrix" in="shadowBlurOuter2" result="shadowMatrixOuter2"></feColorMatrix>
            <feMorphology radius="0.5" operator="dilate" in="SourceAlpha" result="shadowSpreadOuter3"></feMorphology>
            <feOffset dx="0" dy="8" in="shadowSpreadOuter3" result="shadowOffsetOuter3"></feOffset>
            <feGaussianBlur stdDeviation="5" in="shadowOffsetOuter3" result="shadowBlurOuter3"></feGaussianBlur>
            <feColorMatrix values="0 0 0 0 0   0 0 0 0 0   0 0 0 0 0  0 0 0 0.14 0" type="matrix" in="shadowBlurOuter3" result="shadowMatrixOuter3"></feColorMatrix>
            <feMerge>
                <feMergeNode in="shadowMatrixOuter1"></feMergeNode>
                <feMergeNode in="shadowMatrixOuter2"></feMergeNode>
                <feMergeNode in="shadowMatrixOuter3"></feMergeNode>
            </feMerge>
        </filter>
    </defs>
    <g id="Page-2" stroke="none" stroke-width="1" fill="none" fill-rule="evenodd">
        <g id="jd" transform="translate(-238.000000, -276.000000)" fill-rule="nonzero">
            <g id="京东">
                <use fill="black" fill-opacity="1" filter="url(#filter-2)" xlink:href="#path-1"></use>
                <use fill="#FFFFFF" xlink:href="#path-1"></use>
            </g>
        </g>
    </g>
</svg>