<?xml version="1.0" encoding="UTF-8" ?>
<!DOCTYPE svg PUBLIC "-//W3C//DTD SVG 1.1//EN" "http://www.w3.org/Graphics/SVG/1.1/DTD/svg11.dtd">
<svg width="256pt" height="256pt" viewBox="0 0 256 256" version="1.1" xmlns="http://www.w3.org/2000/svg">
<g id="#de0a17ff">
</g>
<g id="#ffffffff">
<path fill="#ffffff" opacity="1.00" d=" M 38.54 56.65 C 41.30 54.79 44.78 55.46 47.88 55.76 C 51.40 55.99 55.06 59.83 53.49 63.43 C 50.27 66.71 44.70 65.18 41.38 68.31 C 38.79 72.99 35.17 77.40 34.72 82.93 C 35.72 86.62 39.54 88.45 43.03 89.08 C 47.18 86.77 50.54 82.81 51.52 78.12 C 50.57 76.93 49.32 76.04 48.20 75.01 C 51.13 68.49 63.60 71.45 63.06 78.76 C 63.10 80.64 63.67 82.82 62.32 84.42 C 60.11 86.19 56.64 86.53 55.38 89.37 C 54.58 91.38 54.57 94.10 56.24 95.69 C 58.56 98.45 61.02 101.41 61.44 105.14 C 61.83 108.94 64.03 113.05 61.84 116.68 C 59.53 119.46 56.16 121.11 53.75 123.82 C 50.80 127.28 45.69 127.63 41.51 127.44 C 37.65 125.39 32.73 126.56 29.29 123.68 C 24.30 118.03 24.35 108.12 30.87 103.60 C 31.70 99.81 35.48 95.57 32.11 92.01 C 27.58 89.55 22.92 84.14 25.37 78.75 C 27.92 70.44 33.27 63.41 38.54 56.65 M 42.74 99.12 C 41.63 101.68 39.53 103.48 37.64 105.43 C 36.81 107.83 35.37 109.92 34.20 112.15 C 34.55 114.19 35.74 116.66 38.03 116.95 C 42.95 118.32 49.07 119.07 52.87 114.86 C 53.12 111.99 54.30 109.16 53.89 106.26 C 52.98 103.44 51.69 100.54 49.45 98.52 C 47.34 97.10 44.91 98.66 42.74 99.12 Z" />
<path fill="#ffffff" opacity="1.00" d=" M 172.35 57.61 C 177.58 56.96 182.69 55.22 188.01 55.58 C 192.35 55.79 196.64 57.01 201.01 56.26 C 205.49 55.52 209.53 57.93 213.84 58.61 C 216.83 59.21 219.76 61.08 221.10 63.89 C 223.97 68.05 223.47 73.32 225.30 77.91 C 225.52 84.00 226.74 91.84 220.79 95.76 C 215.97 99.83 209.55 97.82 203.91 99.04 C 201.25 99.39 198.57 98.06 195.93 99.00 C 193.60 99.71 191.25 98.82 188.94 98.52 C 187.81 103.04 183.93 105.78 180.92 109.02 C 175.44 112.94 169.68 117.18 162.77 117.86 C 157.91 119.76 152.55 121.35 147.35 119.87 C 145.98 117.84 144.36 114.71 146.81 112.78 C 150.11 109.82 154.55 111.89 158.40 111.44 C 162.85 109.58 167.52 108.25 171.68 105.75 C 174.44 104.68 176.65 102.62 177.87 99.91 C 173.95 100.03 169.94 101.58 166.17 99.79 C 163.02 99.17 162.07 95.80 159.96 93.84 C 157.96 92.14 158.84 89.26 158.56 86.97 C 158.43 80.60 156.57 73.62 159.66 67.68 C 160.93 64.92 165.39 64.32 166.69 67.32 C 169.04 72.95 165.80 79.08 167.48 84.83 C 168.15 87.86 170.20 90.84 173.43 91.44 C 178.67 93.00 183.72 90.03 188.94 90.00 C 193.11 89.83 197.25 91.85 201.39 90.54 C 204.45 89.68 207.64 89.68 210.80 89.54 C 212.48 89.46 213.92 88.13 214.36 86.55 C 216.49 80.72 215.66 73.86 212.46 68.59 C 208.78 64.06 202.29 64.57 197.03 64.41 C 191.00 64.80 184.66 62.35 178.92 65.12 C 175.56 66.53 170.94 67.84 167.96 65.00 C 165.84 61.81 169.01 57.96 172.35 57.61 Z" />
<path fill="#ffffff" opacity="1.00" d=" M 78.83 64.45 C 84.99 63.76 91.19 64.00 97.20 62.20 C 103.60 63.03 110.23 61.02 116.46 63.36 C 118.50 64.16 121.15 63.49 122.74 65.25 C 125.34 68.04 129.53 69.85 130.06 74.07 C 131.28 78.42 127.04 81.60 127.19 85.83 C 127.17 96.57 125.06 107.28 126.40 118.01 C 126.57 121.52 125.42 125.11 126.49 128.56 C 127.70 132.66 128.95 136.78 129.18 141.07 C 129.42 145.46 131.57 150.03 129.41 154.25 C 128.34 157.86 122.63 158.64 120.83 155.21 C 118.37 150.57 119.49 145.05 118.60 140.03 C 119.13 131.35 117.38 122.64 118.80 114.00 C 118.89 111.10 119.06 107.47 116.37 105.60 C 112.32 101.45 105.84 103.10 100.94 104.55 C 100.94 106.67 100.91 108.79 100.80 110.91 C 104.84 115.00 111.92 110.75 115.64 115.42 C 118.18 118.69 114.75 122.88 111.02 122.12 C 104.55 120.84 97.43 120.53 91.56 124.05 C 90.94 129.03 88.85 134.87 92.72 139.10 C 92.07 140.54 91.70 142.72 89.84 143.03 C 86.21 143.53 82.91 140.57 82.60 137.00 C 81.24 132.84 83.29 128.41 81.75 124.34 C 80.48 123.99 79.20 123.65 77.92 123.32 C 76.19 132.77 75.36 142.54 71.39 151.40 C 69.80 153.95 66.35 156.04 63.41 154.50 C 61.03 153.36 60.20 150.34 60.76 147.92 C 61.41 145.25 63.41 143.23 64.74 140.90 C 67.43 135.33 68.63 129.26 69.40 123.18 C 71.44 118.38 70.91 113.14 71.47 108.07 C 71.13 100.80 72.83 92.80 68.80 86.25 C 65.40 79.55 66.78 71.06 71.42 65.29 C 73.32 62.99 76.36 64.28 78.83 64.45 M 92.49 70.70 C 87.80 72.56 82.51 72.44 78.25 75.41 C 74.96 80.39 76.27 86.39 77.08 91.88 C 77.72 94.29 80.18 95.47 81.96 96.96 C 87.82 96.80 93.73 96.65 99.45 95.22 C 101.76 93.73 102.90 90.71 102.53 88.03 C 102.16 84.64 103.11 81.29 104.16 78.11 C 105.41 75.97 109.04 73.36 111.06 75.93 C 113.69 79.58 112.37 84.62 109.91 88.01 C 108.80 89.90 107.22 93.06 109.00 94.84 C 112.16 95.25 116.31 96.79 118.78 94.00 C 118.30 88.17 121.19 81.70 117.53 76.45 C 114.65 72.76 109.86 69.49 104.98 70.82 C 100.81 71.65 96.61 69.43 92.49 70.70 M 79.92 108.76 C 79.24 111.14 78.86 113.59 78.19 115.98 C 82.71 112.83 88.63 115.28 93.08 112.27 C 92.91 110.14 92.78 108.02 92.67 105.90 C 91.50 105.39 90.33 104.88 89.16 104.39 C 86.10 105.89 81.53 105.13 79.92 108.76 Z" />
<path fill="#ffffff" opacity="1.00" d=" M 185.48 73.67 C 188.45 72.93 191.52 73.05 194.50 73.67 C 197.30 74.30 200.13 73.49 202.96 73.55 C 205.95 73.73 207.95 77.73 206.07 80.17 C 204.70 82.41 201.83 81.58 199.73 81.20 C 196.02 80.31 192.40 82.72 188.71 81.49 C 184.21 80.09 179.69 83.57 175.30 81.85 C 172.27 79.82 173.58 74.58 176.96 73.79 C 179.80 73.97 182.67 74.43 185.48 73.67 Z" />
<path fill="#ffffff" opacity="1.00" d=" M 87.46 90.52 C 85.19 86.81 83.34 81.37 86.85 77.81 C 89.00 77.97 91.83 77.87 92.70 80.36 C 94.24 84.34 96.08 89.70 92.89 93.33 C 90.62 94.10 88.92 91.92 87.46 90.52 Z" />
<path fill="#ffffff" opacity="1.00" d=" M 194.32 102.53 C 196.91 100.13 200.84 100.45 204.06 101.01 C 208.02 101.98 212.14 101.21 216.10 102.21 C 221.56 104.64 226.43 108.26 230.59 112.54 C 232.71 116.17 234.12 120.16 235.33 124.17 C 234.94 130.81 235.39 138.97 229.62 143.57 C 227.96 144.94 226.66 146.67 225.18 148.22 C 219.20 153.49 211.77 156.93 203.98 158.46 C 201.76 158.27 199.48 157.86 197.50 156.80 C 195.33 154.37 193.87 151.40 192.47 148.48 C 191.79 146.97 191.53 144.73 193.18 143.73 C 196.60 142.53 198.80 146.50 202.04 146.63 C 209.68 146.76 217.32 143.12 221.87 136.95 C 224.82 133.72 226.65 129.44 226.53 125.03 C 226.14 121.34 223.73 118.33 221.18 115.81 C 218.59 116.08 216.03 116.49 213.47 116.97 C 212.58 114.45 211.69 111.92 210.56 109.50 C 207.72 109.21 204.88 109.37 202.07 109.84 C 194.43 117.42 185.52 123.55 177.01 130.10 C 172.09 133.00 167.44 136.60 161.76 137.90 C 158.00 138.57 154.97 141.81 150.96 141.24 C 148.21 141.23 145.81 138.86 145.70 136.13 C 146.19 133.52 148.64 131.55 151.22 131.25 C 156.86 130.61 162.19 128.48 167.41 126.39 C 172.79 123.13 177.93 119.49 183.43 116.43 C 187.42 114.09 190.76 110.82 194.83 108.60 C 194.00 106.72 192.73 104.41 194.32 102.53 Z" />
<path fill="#ffffff" opacity="1.00" d=" M 188.43 132.44 C 195.18 128.71 200.58 123.06 207.17 119.09 C 210.21 117.41 213.85 121.57 210.98 124.04 C 205.57 128.95 200.06 133.77 194.32 138.27 C 193.98 139.61 193.64 140.96 193.30 142.30 C 190.24 142.12 187.36 142.98 185.35 145.39 C 179.73 148.89 174.38 153.13 167.82 154.78 C 164.03 155.61 161.07 159.00 156.96 158.51 C 153.73 158.90 150.91 156.21 150.60 153.09 C 151.17 149.65 154.60 147.56 157.89 147.39 C 161.81 147.05 165.25 145.10 168.94 143.94 C 176.35 141.85 181.84 136.13 188.43 132.44 Z" />
<path fill="#ffffff" opacity="1.00" d=" M 55.60 128.01 C 57.48 128.18 59.86 127.96 60.99 129.85 C 62.96 132.84 63.24 136.55 63.47 140.03 C 63.82 142.22 62.01 143.73 60.83 145.31 C 55.95 143.35 53.48 138.23 53.25 133.21 C 52.80 131.11 54.57 129.59 55.60 128.01 Z" />
<path fill="#ffffff" opacity="1.00" d=" M 28.49 131.36 C 29.67 130.06 32.22 130.15 33.17 131.72 C 34.38 133.11 33.66 134.97 33.54 136.59 C 33.02 139.37 33.63 142.22 33.20 145.00 C 31.75 147.98 29.83 150.74 28.91 153.98 C 28.32 157.27 23.40 158.29 21.54 155.56 C 19.96 152.86 21.03 149.68 21.79 146.90 C 22.63 144.07 22.44 140.84 24.38 138.44 C 26.15 136.31 26.98 133.63 28.49 131.36 Z" />
<path fill="#ffffff" opacity="1.00" d=" M 39.82 137.05 C 39.74 134.85 41.58 133.62 43.08 132.39 C 44.96 133.09 47.68 133.65 47.91 136.09 C 48.56 142.30 49.54 148.83 46.81 154.71 C 45.91 156.13 43.41 158.06 42.19 155.94 C 38.20 150.64 38.82 143.26 39.82 137.05 Z" />
<path fill="#ffffff" opacity="1.00" d=" M 106.39 134.55 C 108.30 134.16 110.43 133.60 112.18 134.83 C 115.49 136.27 115.80 141.81 112.18 143.06 C 108.56 144.15 104.67 143.07 101.00 144.04 C 98.34 144.88 94.41 143.41 95.06 140.09 C 95.92 134.77 102.44 135.57 106.39 134.55 Z" />
<path fill="#ffffff" opacity="1.00" d=" M 62.78 181.83 C 65.71 181.68 67.09 184.38 68.78 186.24 C 72.27 190.26 75.77 194.28 79.25 198.31 C 79.21 192.89 79.27 187.48 79.20 182.07 C 79.88 182.06 81.26 182.05 81.94 182.04 C 81.89 188.95 81.93 195.87 81.92 202.79 C 81.28 202.76 80.02 202.70 79.39 202.67 C 74.80 197.28 70.10 192.00 65.51 186.62 C 65.48 191.99 65.48 197.35 65.50 202.72 C 64.59 202.71 63.68 202.70 62.77 202.69 C 62.78 195.74 62.76 188.78 62.78 181.83 Z" />
<path fill="#ffffff" opacity="1.00" d=" M 104.76 182.09 C 108.67 182.09 112.58 182.09 116.49 182.09 C 116.49 182.71 116.47 183.96 116.47 184.58 C 113.53 184.58 110.59 184.58 107.65 184.57 C 107.66 186.75 107.67 188.93 107.67 191.11 C 110.52 191.09 113.38 191.09 116.23 191.09 C 116.21 191.92 116.19 192.75 116.17 193.58 C 113.33 193.58 110.50 193.58 107.66 193.57 C 107.66 195.77 107.67 197.97 107.66 200.17 C 110.70 200.15 113.74 200.15 116.78 200.13 C 116.77 200.77 116.74 202.05 116.73 202.69 C 112.74 202.66 108.76 202.66 104.77 202.67 C 104.78 195.81 104.79 188.95 104.76 182.09 Z" />
<path fill="#ffffff" opacity="1.00" d=" M 133.36 182.05 C 134.11 182.06 135.59 182.09 136.33 182.10 C 138.19 186.94 140.23 191.72 142.04 196.59 C 143.88 191.74 145.92 186.97 147.77 182.13 C 148.73 182.11 149.69 182.09 150.65 182.06 C 152.48 186.92 154.62 191.67 156.35 196.57 C 158.27 191.75 160.21 186.93 162.09 182.09 C 162.82 182.08 164.28 182.05 165.01 182.04 C 162.05 189.11 159.37 196.31 156.30 203.34 C 153.85 197.50 151.56 191.60 149.16 185.74 C 146.89 191.66 144.48 197.52 142.01 203.36 C 139.04 196.29 136.31 189.13 133.36 182.05 Z" />
<path fill="#ffffff" opacity="1.00" d=" M 185.23 182.22 C 187.65 181.17 190.22 182.15 192.56 182.93 C 192.59 183.77 192.65 185.47 192.68 186.32 C 190.93 185.26 189.03 183.89 186.85 184.44 C 185.02 184.53 183.85 186.34 184.62 188.03 C 186.72 190.47 190.08 191.36 192.17 193.81 C 194.16 196.18 193.75 200.26 191.08 201.96 C 188.65 203.46 185.45 203.09 182.99 201.85 C 181.43 201.18 182.13 198.97 181.62 197.69 C 183.54 198.97 185.51 200.87 188.04 200.38 C 190.20 200.40 191.54 197.67 190.20 195.97 C 188.11 193.58 184.84 192.64 182.78 190.21 C 180.66 187.60 182.04 183.23 185.23 182.22 Z" />
</g>
</svg>
