<?xml version="1.0" encoding="UTF-8" ?>
<!DOCTYPE svg PUBLIC "-//W3C//DTD SVG 1.1//EN" "http://www.w3.org/Graphics/SVG/1.1/DTD/svg11.dtd">
<svg width="256pt" height="256pt" viewBox="0 0 256 256" version="1.1" xmlns="http://www.w3.org/2000/svg">
<g id="#f3b72bff">
</g>
<g id="#d7d82eff">
</g>
<g id="#ffffffff">
<path fill="#ffffff" opacity="1.00" d=" M 51.59 66.61 C 54.72 64.31 58.70 63.94 62.45 63.84 C 107.32 64.24 152.20 63.81 197.07 64.06 C 204.52 64.18 211.27 70.71 211.36 78.21 C 211.52 89.16 211.36 100.13 211.43 111.08 C 211.49 130.71 211.33 150.34 211.47 169.97 C 212.75 178.58 205.88 187.54 196.96 187.44 C 151.64 187.56 106.31 187.45 60.99 187.49 C 56.11 187.73 51.20 185.67 48.22 181.76 C 45.01 178.02 44.78 172.88 44.96 168.20 C 45.07 138.81 44.95 109.41 44.97 80.02 C 44.77 74.79 47.20 69.53 51.59 66.61 M 73.67 79.03 C 90.63 92.87 107.59 106.71 124.55 120.54 C 126.46 122.41 129.72 122.62 131.69 120.74 C 148.75 106.85 165.82 92.96 182.83 79.01 C 146.44 79.00 110.06 78.98 73.67 79.03 M 60.02 87.16 C 60.05 114.14 59.97 141.12 60.00 168.10 C 59.73 170.78 62.37 172.83 64.91 172.56 C 106.96 172.58 149.01 172.56 191.07 172.58 C 193.84 173.00 196.82 170.99 196.56 167.97 C 196.62 141.05 196.53 114.12 196.56 87.20 C 177.01 103.07 157.58 119.10 138.09 135.04 C 135.41 137.19 132.74 139.97 129.07 140.09 C 126.30 140.39 123.58 139.31 121.48 137.54 C 101.01 120.74 80.48 103.99 60.02 87.16 Z" />
</g>
<g id="#f77c29ff">
</g>
</svg>
