<?xml version="1.0" encoding="UTF-8" ?>
<!DOCTYPE svg PUBLIC "-//W3C//DTD SVG 1.1//EN" "http://www.w3.org/Graphics/SVG/1.1/DTD/svg11.dtd">
<svg width="72pt" height="72pt" viewBox="0 0 72 72" version="1.1" xmlns="http://www.w3.org/2000/svg">
<g id="#3988fbff">
</g>
<g id="#ffffffff">
<path fill="#ffffff" opacity="1.00" d=" M 16.33 13.95 C 16.22 11.83 17.89 9.88 20.02 9.75 C 24.92 9.34 29.84 9.67 34.75 9.62 C 34.75 19.28 34.76 28.94 34.74 38.60 C 33.62 38.59 31.37 38.58 30.25 38.57 C 30.24 30.42 30.26 22.26 30.24 14.11 C 27.04 13.96 23.84 13.86 20.64 13.83 C 20.57 22.08 20.61 30.34 20.58 38.59 C 19.14 38.59 17.70 38.58 16.26 38.57 C 16.33 30.37 16.08 22.15 16.33 13.95 Z" />
<path fill="#ffffff" opacity="1.00" d=" M 41.60 9.60 C 43.14 9.61 44.68 9.61 46.22 9.62 C 46.23 10.43 46.25 12.04 46.26 12.84 C 49.44 12.83 52.63 12.82 55.82 12.81 C 55.85 14.34 55.87 15.87 55.90 17.39 C 52.68 17.41 49.45 17.40 46.23 17.40 C 46.24 20.69 46.24 23.97 46.25 27.25 C 49.42 27.25 52.59 27.25 55.76 27.24 C 55.65 33.15 56.02 39.06 55.59 44.95 C 55.52 46.86 53.77 48.43 51.90 48.48 C 47.14 48.79 42.36 48.52 37.60 48.57 C 37.59 41.46 37.59 34.35 37.60 27.23 C 38.60 27.24 40.59 27.26 41.59 27.27 C 41.60 21.38 41.57 15.49 41.60 9.60 M 42.24 31.40 C 42.24 35.68 42.24 39.97 42.25 44.25 C 45.30 44.25 48.36 44.25 51.41 44.25 C 51.42 39.97 51.42 35.69 51.42 31.41 C 48.36 31.40 45.30 31.40 42.24 31.40 Z" />
<path fill="#ffffff" opacity="1.00" d=" M 23.27 16.76 C 24.76 16.76 26.24 16.76 27.73 16.76 C 27.93 23.84 27.40 30.95 27.96 38.01 C 28.19 41.75 31.87 43.37 34.81 44.71 C 34.73 46.17 34.64 47.63 34.54 49.09 C 31.18 48.03 28.05 46.35 25.52 43.86 C 22.94 46.29 19.83 47.99 16.50 49.16 C 16.39 47.67 16.28 46.17 16.18 44.68 C 19.00 43.21 22.48 41.55 22.93 37.98 C 23.71 30.95 23.02 23.83 23.27 16.76 Z" />
</g>
</svg>
