<?xml version="1.0" encoding="UTF-8" ?>
<!DOCTYPE svg PUBLIC "-//W3C//DTD SVG 1.1//EN" "http://www.w3.org/Graphics/SVG/1.1/DTD/svg11.dtd">
<svg width="256pt" height="256pt" viewBox="0 0 256 256" version="1.1" xmlns="http://www.w3.org/2000/svg">
<g id="#fdeba9ff">
<path fill="#fdeba9" opacity="1.00" d=" M 255.29 217.23 C 254.45 215.92 254.69 214.86 256.00 214.04 L 256.00 217.07 L 255.29 217.23 Z" />
<path fill="#fdeba9" opacity="1.00" d=" M 0.00 215.05 C 1.30 215.79 2.04 217.61 0.79 218.79 L 0.00 218.72 L 0.00 215.05 Z" />
</g>
<g id="#fed055ff">
<path fill="#fed055" opacity="1.00" d=" M 170.36 29.42 C 178.32 27.44 186.75 28.35 194.65 30.22 C 210.63 34.29 224.54 45.44 232.25 59.98 C 238.72 72.14 241.05 86.57 238.16 100.07 C 237.64 103.89 236.31 108.01 232.63 109.90 C 228.05 112.03 222.55 109.53 220.70 104.89 C 219.93 99.48 222.33 94.33 222.60 88.97 C 222.79 76.12 217.41 63.10 207.45 54.81 C 198.89 47.39 187.24 43.62 175.96 44.89 C 172.71 45.50 169.11 44.49 167.13 41.72 C 164.11 37.78 165.72 31.33 170.36 29.42 Z" />
<path fill="#fed055" opacity="1.00" d=" M 175.32 57.02 C 181.09 56.40 187.08 56.79 192.40 59.30 C 206.65 65.42 215.17 83.23 209.42 97.93 C 208.23 100.46 205.62 101.88 203.00 102.44 C 198.97 102.26 195.51 99.02 194.78 95.06 C 195.95 89.83 196.76 83.83 193.57 79.11 C 190.31 73.37 183.34 70.84 176.99 71.52 C 171.46 72.14 167.90 65.21 170.58 60.72 C 171.64 58.98 173.32 57.53 175.32 57.02 Z" />
<path fill="#fed055" opacity="1.00" d=" M 49.43 144.79 C 49.46 144.72 49.53 144.60 49.57 144.53 C 49.53 144.60 49.46 144.72 49.43 144.79 Z" />
<path fill="#fed055" opacity="1.00" d=" M 48.52 146.59 C 48.55 146.52 48.61 146.39 48.64 146.33 C 48.61 146.39 48.55 146.52 48.52 146.59 Z" />
<path fill="#fed055" opacity="1.00" d=" M 46.34 152.68 C 46.36 152.59 46.41 152.41 46.43 152.32 C 46.41 152.41 46.36 152.59 46.34 152.68 Z" />
<path fill="#fed055" opacity="1.00" d=" M 173.98 153.19 C 175.52 152.72 175.54 156.29 173.99 155.82 C 173.99 155.16 173.98 153.85 173.98 153.19 Z" />
<path fill="#fed055" opacity="1.00" d=" M 172.60 164.69 C 172.63 164.63 172.67 164.50 172.69 164.44 C 172.67 164.50 172.63 164.63 172.60 164.69 Z" />
<path fill="#fed055" opacity="1.00" d=" M 171.36 167.65 C 171.39 167.59 171.44 167.47 171.47 167.41 C 171.44 167.47 171.39 167.59 171.36 167.65 Z" />
<path fill="#fed055" opacity="1.00" d=" M 170.42 169.51 C 170.46 169.44 170.53 169.31 170.56 169.25 C 170.53 169.31 170.46 169.44 170.42 169.51 Z" />
<path fill="#fed055" opacity="1.00" d=" M 47.52 170.31 C 47.55 170.38 47.60 170.51 47.63 170.57 C 47.60 170.51 47.55 170.38 47.52 170.31 Z" />
<path fill="#fed055" opacity="1.00" d=" M 166.33 175.57 C 166.37 175.51 166.46 175.41 166.50 175.36 C 166.46 175.41 166.37 175.51 166.33 175.57 Z" />
</g>
<g id="#ee1a28ff">
<path fill="#ee1a28" opacity="1.00" d=" M 78.86 72.84 C 87.34 66.76 96.63 61.34 106.95 59.19 C 113.18 57.89 120.38 58.32 125.41 62.65 C 130.09 66.47 131.89 72.94 130.85 78.77 C 130.44 83.25 127.99 87.49 128.74 92.05 C 132.86 91.93 136.36 89.58 140.03 87.99 C 148.73 83.93 158.23 80.51 167.99 81.39 C 173.41 81.83 178.79 84.84 181.17 89.87 C 184.77 97.32 183.64 106.14 180.63 113.59 C 179.84 115.58 179.44 119.10 182.22 119.64 C 189.89 121.22 197.80 124.12 202.91 130.36 C 209.47 138.48 210.08 149.96 206.35 159.44 C 200.23 175.26 187.07 187.30 172.69 195.69 C 149.85 208.82 122.95 214.47 96.73 212.75 C 78.17 211.29 59.19 205.59 45.12 192.92 C 35.89 184.85 29.62 173.31 28.64 161.01 C 27.01 143.79 33.72 127.08 42.34 112.54 C 51.77 97.10 64.31 83.56 78.86 72.84 M 81.84 119.71 C 68.98 124.44 56.45 132.32 49.57 144.53 C 49.53 144.60 49.46 144.72 49.43 144.79 L 48.64 146.33 C 48.61 146.39 48.55 146.52 48.52 146.59 C 47.65 148.43 46.95 150.35 46.43 152.32 C 46.41 152.41 46.36 152.59 46.34 152.68 C 44.92 158.49 45.31 164.74 47.52 170.31 C 47.55 170.38 47.60 170.51 47.63 170.57 C 51.99 181.15 61.61 188.60 71.82 193.14 C 90.51 201.33 112.00 201.84 131.56 196.57 C 144.70 192.87 157.56 186.29 166.33 175.57 C 166.37 175.51 166.46 175.41 166.50 175.36 C 167.96 173.51 169.28 171.56 170.42 169.51 C 170.46 169.44 170.53 169.31 170.56 169.25 L 171.36 167.65 C 171.39 167.59 171.44 167.47 171.47 167.41 C 171.75 166.73 172.32 165.37 172.60 164.69 C 172.63 164.63 172.67 164.50 172.69 164.44 C 173.46 161.67 174.66 158.70 173.99 155.82 C 175.54 156.29 175.52 152.72 173.98 153.19 C 174.64 149.75 173.19 146.26 172.02 143.06 C 166.95 131.50 155.82 123.90 144.36 119.54 C 124.38 112.16 101.84 112.67 81.84 119.71 Z" />
</g>
<g id="#ffffffff">
<path fill="#ffffff" opacity="1.00" d=" M 81.84 119.71 C 101.84 112.67 124.38 112.16 144.36 119.54 C 155.82 123.90 166.95 131.50 172.02 143.06 C 173.19 146.26 174.64 149.75 173.98 153.19 C 173.98 153.85 173.99 155.16 173.99 155.82 C 174.66 158.70 173.46 161.67 172.69 164.44 C 172.67 164.50 172.63 164.63 172.60 164.69 C 172.32 165.37 171.75 166.73 171.47 167.41 C 171.44 167.47 171.39 167.59 171.36 167.65 L 170.56 169.25 C 170.53 169.31 170.46 169.44 170.42 169.51 C 169.28 171.56 167.96 173.51 166.50 175.36 C 166.46 175.41 166.37 175.51 166.33 175.57 C 157.56 186.29 144.70 192.87 131.56 196.57 C 112.00 201.84 90.51 201.33 71.82 193.14 C 61.61 188.60 51.99 181.15 47.63 170.57 C 47.60 170.51 47.55 170.38 47.52 170.31 C 45.31 164.74 44.92 158.49 46.34 152.68 C 46.36 152.59 46.41 152.41 46.43 152.32 C 46.95 150.35 47.65 148.43 48.52 146.59 C 48.55 146.52 48.61 146.39 48.64 146.33 L 49.43 144.79 C 49.46 144.72 49.53 144.60 49.57 144.53 C 56.45 132.32 68.98 124.44 81.84 119.71 M 98.47 132.63 C 89.44 134.81 81.15 140.34 76.07 148.16 C 71.84 154.69 70.17 163.00 72.38 170.55 C 74.64 178.89 81.36 185.54 89.25 188.76 C 104.58 195.21 123.87 190.08 133.93 176.82 C 139.19 169.92 141.48 160.56 138.90 152.15 C 136.94 145.30 131.97 139.57 125.84 136.07 C 117.64 131.33 107.59 130.35 98.47 132.63 Z" />
<path fill="#ffffff" opacity="1.00" d=" M 111.77 153.54 C 114.40 151.74 118.87 153.58 118.54 157.04 C 118.38 160.90 112.86 162.67 110.38 159.81 C 108.63 157.86 109.55 154.68 111.77 153.54 Z" />
<path fill="#ffffff" opacity="1.00" d=" M 92.60 157.70 C 97.84 156.04 104.20 159.26 105.35 164.78 C 106.97 170.87 102.05 177.27 95.98 178.09 C 91.27 178.95 86.05 176.12 84.65 171.45 C 82.73 165.67 86.82 159.14 92.60 157.70 Z" />
</g>
<g id="#000000ff">
<path fill="#000000" opacity="1.00" d=" M 98.47 132.63 C 107.59 130.35 117.64 131.33 125.84 136.07 C 131.97 139.57 136.94 145.30 138.90 152.15 C 141.48 160.56 139.19 169.92 133.93 176.82 C 123.87 190.08 104.58 195.21 89.25 188.76 C 81.36 185.54 74.64 178.89 72.38 170.55 C 70.17 163.00 71.84 154.69 76.07 148.16 C 81.15 140.34 89.44 134.81 98.47 132.63 M 111.77 153.54 C 109.55 154.68 108.63 157.86 110.38 159.81 C 112.86 162.67 118.38 160.90 118.54 157.04 C 118.87 153.58 114.40 151.74 111.77 153.54 M 92.60 157.70 C 86.82 159.14 82.73 165.67 84.65 171.45 C 86.05 176.12 91.27 178.95 95.98 178.09 C 102.05 177.27 106.97 170.87 105.35 164.78 C 104.20 159.26 97.84 156.04 92.60 157.70 Z" />
</g>
<g id="#d20d18ff">
<path fill="#d20d18" opacity="1.00" d=" M 0.00 218.72 L 0.79 218.79 C 0.78 219.48 0.75 220.86 0.74 221.55 L 0.00 221.64 L 0.00 218.72 Z" />
</g>
</svg>
